<?xml version="1.0" encoding="utf-8" standalone="no"?>
<!DOCTYPE svg PUBLIC "-//W3C//DTD SVG 1.1//EN"
  "http://www.w3.org/Graphics/SVG/1.1/DTD/svg11.dtd">
<!-- Created with matplotlib (http://matplotlib.org/) -->
<svg height="180pt" version="1.1" viewBox="0 0 288 180" width="288pt" xmlns="http://www.w3.org/2000/svg" xmlns:xlink="http://www.w3.org/1999/xlink">
 <defs>
  <style type="text/css">
*{stroke-linecap:butt;stroke-linejoin:round;}
  </style>
 </defs>
 <g id="figure_1">
  <g id="patch_1">
   <path d="M 0 180 
L 288 180 
L 288 0 
L 0 0 
z
" style="fill:#ffffff;"/>
  </g>
  <g id="axes_1">
   <g id="patch_2">
    <path d="M 36 157.5 
L 259.2 157.5 
L 259.2 21.6 
L 36 21.6 
z
" style="fill:#ffffff;"/>
   </g>
   <g id="matplotlib.axis_1">
    <g id="xtick_1">
     <g id="line2d_1">
      <defs>
       <path d="M 0 0 
L 0 3.5 
" id="m4aafd45eaa" style="stroke:#000000;stroke-width:0.8;"/>
      </defs>
      <g>
       <use style="stroke:#000000;stroke-width:0.8;" x="44.095868" xlink:href="#m4aafd45eaa" y="157.5"/>
      </g>
     </g>
     <g id="text_1">
      <!-- $1.0$ -->
      <defs>
       <path d="M 26.59375 63.796875 
C 26.59375 65.890625 26.5 66 25.09375 66 
C 21.203125 61.359375 15.296875 59.890625 9.703125 59.6875 
C 9.40625 59.6875 8.90625 59.6875 8.796875 59.5 
C 8.703125 59.296875 8.703125 59.09375 8.703125 57 
C 11.796875 57 17 57.59375 21 59.984375 
L 21 7.296875 
C 21 3.796875 20.796875 2.59375 12.203125 2.59375 
L 9.203125 2.59375 
L 9.203125 0 
C 14 0.09375 19 0.1875 23.796875 0.1875 
C 28.59375 0.1875 33.59375 0.09375 38.40625 0 
L 38.40625 2.59375 
L 35.40625 2.59375 
C 26.796875 2.59375 26.59375 3.6875 26.59375 7.296875 
z
" id="CMR17-49"/>
       <path d="M 18.40625 4.796875 
C 18.40625 7.6875 16 9.6875 13.59375 9.6875 
C 10.703125 9.6875 8.703125 7.296875 8.703125 4.890625 
C 8.703125 2 11.09375 0 13.5 0 
C 16.40625 0 18.40625 2.390625 18.40625 4.796875 
z
" id="CMMI12-58"/>
       <path d="M 42 31.84375 
C 42 37.96875 41.90625 48.421875 37.703125 56.453125 
C 34 63.484375 28.09375 66 22.90625 66 
C 18.09375 66 12 63.78125 8.203125 56.5625 
C 4.203125 49.015625 3.796875 39.671875 3.796875 31.84375 
C 3.796875 26.109375 3.90625 17.375 7 9.734375 
C 11.296875 -0.609375 19 -2 22.90625 -2 
C 27.5 -2 34.5 -0.109375 38.59375 9.4375 
C 41.59375 16.375 42 24.5 42 31.84375 
z
M 22.90625 -0.40625 
C 16.5 -0.40625 12.703125 5.125 11.296875 12.75 
C 10.203125 18.6875 10.203125 27.328125 10.203125 32.953125 
C 10.203125 40.6875 10.203125 47.109375 11.5 53.234375 
C 13.40625 61.78125 19 64.390625 22.90625 64.390625 
C 27 64.390625 32.296875 61.671875 34.203125 53.4375 
C 35.5 47.71875 35.59375 40.984375 35.59375 32.953125 
C 35.59375 26.421875 35.59375 18.375 34.40625 12.453125 
C 32.296875 1.5 26.40625 -0.40625 22.90625 -0.40625 
z
" id="CMR17-48"/>
      </defs>
      <g transform="translate(37.730828 171.418498)scale(0.1 -0.1)">
       <use transform="scale(0.996264)" xlink:href="#CMR17-49"/>
       <use transform="translate(45.690477 0)scale(0.996264)" xlink:href="#CMMI12-58"/>
       <use transform="translate(72.787654 0)scale(0.996264)" xlink:href="#CMR17-48"/>
      </g>
     </g>
    </g>
    <g id="xtick_2">
     <g id="line2d_2">
      <g>
       <use style="stroke:#000000;stroke-width:0.8;" x="95.335537" xlink:href="#m4aafd45eaa" y="157.5"/>
      </g>
     </g>
     <g id="text_2">
      <!-- $1.5$ -->
      <defs>
       <path d="M 11.40625 58.59375 
C 12.40625 58.1875 16.5 56.890625 20.703125 56.890625 
C 30 56.890625 35.09375 61.890625 38 64.6875 
C 38 65.484375 38 66 37.40625 66 
C 37.296875 66 37.09375 66 36.296875 65.59375 
C 32.796875 64.09375 28.703125 63 23.703125 63 
C 20.703125 63 16.203125 63.359375 11.296875 65.484375 
C 10.203125 66 10 66 9.90625 66 
C 9.40625 66 9.296875 65.890625 9.296875 63.90625 
L 9.296875 34.859375 
C 9.296875 33.015625 9.296875 32.5 10.296875 32.5 
C 10.796875 32.5 11 32.703125 11.5 33.421875 
C 14.703125 38.046875 19.09375 40 24.09375 40 
C 27.59375 40 35.09375 37.734375 35.09375 20.203125 
C 35.09375 16.984375 35.09375 11.1875 32.09375 6.59375 
C 29.59375 2.484375 25.703125 0.390625 21.40625 0.390625 
C 14.796875 0.390625 8.09375 4.984375 6.296875 12.6875 
C 6.703125 12.59375 7.5 12.390625 7.90625 12.390625 
C 9.203125 12.390625 11.703125 13.09375 11.703125 16.1875 
C 11.703125 18.890625 9.796875 20 7.90625 20 
C 5.59375 20 4.09375 18.59375 4.09375 15.796875 
C 4.09375 7.09375 11 -2 21.59375 -2 
C 31.90625 -2 41.703125 6.890625 41.703125 19.796875 
C 41.703125 32.09375 33.90625 41.59375 24.203125 41.59375 
C 19.09375 41.59375 14.796875 39.6875 11.40625 36 
z
" id="CMR17-53"/>
      </defs>
      <g transform="translate(88.970498 171.418498)scale(0.1 -0.1)">
       <use transform="scale(0.996264)" xlink:href="#CMR17-49"/>
       <use transform="translate(45.690477 0)scale(0.996264)" xlink:href="#CMMI12-58"/>
       <use transform="translate(72.787654 0)scale(0.996264)" xlink:href="#CMR17-53"/>
      </g>
     </g>
    </g>
    <g id="xtick_3">
     <g id="line2d_3">
      <g>
       <use style="stroke:#000000;stroke-width:0.8;" x="146.575207" xlink:href="#m4aafd45eaa" y="157.5"/>
      </g>
     </g>
     <g id="text_3">
      <!-- $2.0$ -->
      <defs>
       <path d="M 41.703125 15.46875 
L 39.90625 15.46875 
C 38.90625 8.390625 38.09375 7.1875 37.703125 6.59375 
C 37.203125 5.796875 30 5.796875 28.59375 5.796875 
L 9.40625 5.796875 
C 13 9.6875 20 16.765625 28.5 24.9375 
C 34.59375 30.71875 41.703125 37.5 41.703125 47.390625 
C 41.703125 59.1875 32.296875 66 21.796875 66 
C 10.796875 66 4.09375 56.296875 4.09375 47.296875 
C 4.09375 43.390625 7 42.890625 8.203125 42.890625 
C 9.203125 42.890625 12.203125 43.484375 12.203125 46.984375 
C 12.203125 50.09375 9.59375 51 8.203125 51 
C 7.59375 51 7 50.890625 6.59375 50.6875 
C 8.5 59.1875 14.296875 63.390625 20.40625 63.390625 
C 29.09375 63.390625 34.796875 56.5 34.796875 47.390625 
C 34.796875 38.703125 29.703125 31.21875 24 24.734375 
L 4.09375 2.296875 
L 4.09375 0 
L 39.296875 0 
z
" id="CMR17-50"/>
      </defs>
      <g transform="translate(140.210167 171.418498)scale(0.1 -0.1)">
       <use transform="scale(0.996264)" xlink:href="#CMR17-50"/>
       <use transform="translate(45.690477 0)scale(0.996264)" xlink:href="#CMMI12-58"/>
       <use transform="translate(72.787654 0)scale(0.996264)" xlink:href="#CMR17-48"/>
      </g>
     </g>
    </g>
    <g id="xtick_4">
     <g id="line2d_4">
      <g>
       <use style="stroke:#000000;stroke-width:0.8;" x="197.814876" xlink:href="#m4aafd45eaa" y="157.5"/>
      </g>
     </g>
     <g id="text_4">
      <!-- $2.5$ -->
      <g transform="translate(191.449837 171.418498)scale(0.1 -0.1)">
       <use transform="scale(0.996264)" xlink:href="#CMR17-50"/>
       <use transform="translate(45.690477 0)scale(0.996264)" xlink:href="#CMMI12-58"/>
       <use transform="translate(72.787654 0)scale(0.996264)" xlink:href="#CMR17-53"/>
      </g>
     </g>
    </g>
    <g id="xtick_5">
     <g id="line2d_5">
      <g>
       <use style="stroke:#000000;stroke-width:0.8;" x="249.054545" xlink:href="#m4aafd45eaa" y="157.5"/>
      </g>
     </g>
     <g id="text_5">
      <!-- $3.0$ -->
      <defs>
       <path d="M 22.09375 34 
C 31 34 34.90625 26.140625 34.90625 17.09375 
C 34.90625 5.03125 28.5 0.390625 22.703125 0.390625 
C 17.40625 0.390625 8.796875 3.015625 6.09375 10.796875 
C 6.59375 10.59375 7.09375 10.59375 7.59375 10.59375 
C 10 10.59375 11.796875 12.1875 11.796875 14.796875 
C 11.796875 17.6875 9.59375 19 7.59375 19 
C 5.90625 19 3.296875 18.1875 3.296875 14.484375 
C 3.296875 5.234375 12.296875 -2 22.90625 -2 
C 34 -2 42.5 6.75 42.5 16.984375 
C 42.5 26.84375 34.5 34 25 35.09375 
C 32.59375 36.671875 39.90625 43.375 39.90625 52.390625 
C 39.90625 60.25 32 66 23 66 
C 13.90625 66 5.90625 60.34375 5.90625 52.296875 
C 5.90625 48.796875 8.5 48.1875 9.796875 48.1875 
C 11.90625 48.1875 13.703125 49.484375 13.703125 52.09375 
C 13.703125 54.6875 11.90625 56 9.796875 56 
C 9.40625 56 8.90625 56 8.5 55.796875 
C 11.40625 62.484375 19.296875 63.6875 22.796875 63.6875 
C 26.296875 63.6875 32.90625 61.96875 32.90625 52.296875 
C 32.90625 49.484375 32.5 44.546875 29.09375 40.21875 
C 26.09375 36.390625 22.703125 36.1875 19.40625 35.890625 
C 18.90625 35.890625 16.59375 35.6875 16.203125 35.6875 
C 15.5 35.59375 15.09375 35.5 15.09375 34.796875 
C 15.09375 34.09375 15.203125 34 17.203125 34 
z
" id="CMR17-51"/>
      </defs>
      <g transform="translate(242.689506 171.418498)scale(0.1 -0.1)">
       <use transform="scale(0.996264)" xlink:href="#CMR17-51"/>
       <use transform="translate(45.690477 0)scale(0.996264)" xlink:href="#CMMI12-58"/>
       <use transform="translate(72.787654 0)scale(0.996264)" xlink:href="#CMR17-48"/>
      </g>
     </g>
    </g>
    <g id="text_6">
     <!-- growth ratio, $\Theta$ -->
     <defs>
      <path d="M 44.5 44 
C 38.796875 43.890625 33.90625 42.796875 29.90625 40.890625 
C 26.59375 43.484375 23.203125 44 20.90625 44 
C 12.203125 44 5.59375 36.8125 5.59375 28.5 
C 5.59375 23.140625 8.59375 19.09375 8.796875 18.890625 
C 7 16.390625 6 13.6875 6 10.6875 
C 6 7.1875 7.40625 4.6875 8.5 3.296875 
C 3.296875 0.09375 2.59375 -4.8125 2.59375 -6.703125 
C 2.59375 -14 11.703125 -20 23.40625 -20 
C 35.203125 -20 44.296875 -14 44.296875 -6.609375 
C 44.296875 7.1875 29 7.296875 24.796875 7.296875 
L 16.703125 7.296875 
C 15.203125 7.296875 11.203125 7.296875 11.203125 12.390625 
C 11.203125 14.390625 12.09375 15.6875 12.203125 15.796875 
C 13.703125 14.6875 16.796875 13 20.90625 13 
C 29.203125 13 36.09375 19.984375 36.09375 28.5 
C 36.09375 33.25 33.90625 36.703125 33 37.890625 
L 33.296875 37.890625 
C 33.59375 37.890625 37.796875 38.1875 39.296875 38.1875 
C 42.5 38.1875 42.796875 38.09375 45.59375 37.796875 
z
M 20.90625 18.5 
C 17.5 18.5 12.703125 20.578125 12.703125 28.5 
C 12.703125 37.109375 18.203125 38.484375 20.796875 38.484375 
C 24.203125 38.484375 29 36.40625 29 28.5 
C 29 19.875 23.5 18.5 20.90625 18.5 
z
M 24.703125 0 
C 27.09375 0 37.203125 0 37.203125 -6.8125 
C 37.203125 -11.109375 31 -14.5 23.5 -14.5 
C 15.90625 -14.5 9.703125 -11.203125 9.703125 -6.703125 
C 9.703125 -6.203125 9.703125 0 16.59375 0 
z
" id="CMSS17-103"/>
      <path d="M 14.90625 21.390625 
C 14.90625 30.84375 21.796875 37.171875 30.59375 37.375 
L 30.59375 44 
C 24.203125 43.890625 18.203125 40.6875 14.59375 35.46875 
L 14.59375 43.484375 
L 7.5 43.484375 
L 7.5 0 
L 14.90625 0 
z
" id="CMSS17-114"/>
      <path d="M 44.203125 21.1875 
C 44.203125 33.984375 34.703125 44 23.5 44 
C 12 44 2.703125 33.6875 2.703125 21.1875 
C 2.703125 8.5 12.296875 -1 23.40625 -1 
C 34.796875 -1 44.203125 8.796875 44.203125 21.1875 
z
M 23.5 5.296875 
C 16.40625 5.296875 10.296875 11.09375 10.296875 21.984375 
C 10.296875 33.59375 17.40625 37.890625 23.40625 37.890625 
C 29.90625 37.890625 36.59375 33.1875 36.59375 21.984375 
C 36.59375 10.6875 30.09375 5.296875 23.5 5.296875 
z
" id="CMSS17-111"/>
      <path d="M 62.703125 43 
L 55.09375 43 
L 49.796875 25 
C 48.703125 21.1875 45.59375 10.6875 45.203125 5.796875 
L 45.09375 5.796875 
C 44.90625 8.796875 43.203125 16 40.40625 25.5 
L 35.296875 43 
L 28.40625 43 
L 23.40625 25.890625 
C 20.90625 17.1875 19 9.796875 18.796875 5.796875 
L 18.703125 5.796875 
C 18.296875 11.6875 14.203125 25.5 13.59375 27.6875 
L 9.09375 43 
L 1.296875 43 
L 14.296875 0 
L 21.90625 0 
C 27.09375 17.1875 31.09375 30.5 31.40625 37.1875 
C 31.59375 33.890625 33.296875 26.796875 34.296875 23.296875 
L 40.90625 0 
L 49.703125 0 
z
" id="CMSS17-119"/>
      <path d="M 16.703125 37.1875 
L 29.703125 37.1875 
L 29.703125 43 
L 16.703125 43 
L 16.703125 55 
L 9.59375 55 
L 9.59375 43 
L 1.703125 43 
L 1.703125 37.1875 
L 9.40625 37.1875 
L 9.40625 11.734375 
C 9.40625 6 10.703125 -1 17.296875 -1 
C 22.296875 -1 26.90625 0.390625 31.296875 2.6875 
L 29.703125 8.609375 
C 27.296875 6.5 24.40625 5.296875 21.296875 5.296875 
C 16.90625 5.296875 16.703125 10.921875 16.703125 13.4375 
z
" id="CMSS17-116"/>
      <path d="M 40.90625 29.34375 
C 40.90625 35.671875 39.40625 44 28.09375 44 
C 21.796875 44 17.703125 40.890625 14.796875 37.484375 
L 14.796875 69 
L 7.40625 69 
L 7.40625 0 
L 15 0 
L 15 24.3125 
C 15 30.65625 17.40625 37.890625 24.203125 37.890625 
C 33 37.890625 33.296875 31.953125 33.296875 28.53125 
L 33.296875 0 
L 40.90625 0 
z
" id="CMSS17-104"/>
      <path d="M 37.59375 27.953125 
C 37.59375 37.484375 30.90625 44 21.90625 44 
C 17.5 44 12.703125 43.1875 7.203125 39.984375 
L 7.796875 33.328125 
C 10.296875 35.15625 14.59375 38.09375 21.796875 38.09375 
C 26.90625 38.09375 30 34.140625 30 27.84375 
L 30 24 
C 14 23.5 4 18.890625 4 11.109375 
C 4 7.0625 6.5 -1 14.796875 -1 
C 16.296875 -1 24.40625 -0.8125 30.203125 3.5 
L 30.203125 -0.203125 
L 37.59375 -0.203125 
z
M 30 12.875 
C 30 11.109375 30 8.734375 27 6.96875 
C 24.40625 5.296875 21.09375 5.09375 19.703125 5.09375 
C 14.703125 5.09375 11.296875 7.859375 11.296875 11.296875 
C 11.296875 18.203125 26.90625 18.890625 30 19 
z
" id="CMSS17-97"/>
      <path d="M 15.296875 66 
L 6.90625 66 
L 6.90625 57.59375 
L 15.296875 57.59375 
z
M 14.796875 43 
L 7.40625 43 
L 7.40625 0 
L 14.796875 0 
z
" id="CMSS17-105"/>
      <path d="M 17 0.09375 
L 17 8 
L 9 8 
L 9 0 
L 11.5 0 
L 8.90625 -12.109375 
L 12.90625 -12.109375 
z
" id="CMSS17-44"/>
      <path d="M 67.296875 33.984375 
C 67.296875 54.546875 52.59375 70 36 70 
C 19 70 4.59375 54.34375 4.59375 33.984375 
C 4.59375 13.46875 19.203125 -2 35.90625 -2 
C 53 -2 67.296875 13.765625 67.296875 33.984375 
z
M 36 -0.3125 
C 24.59375 -0.3125 11.90625 10.625 11.90625 33.984375 
C 11.90625 57.859375 25 68.390625 35.90625 68.390625 
C 47.203125 68.390625 60 57.5625 60 33.984375 
C 60 10.328125 47 -0.3125 36 -0.3125 
z
M 54.703125 40.40625 
L 52.90625 40.40625 
L 52.90625 37 
L 19 37 
L 19 40.40625 
L 17.203125 40.40625 
L 17.203125 27.953125 
L 19 27.953125 
L 19 31.390625 
L 52.90625 31.390625 
L 52.90625 27.953125 
L 54.703125 27.953125 
z
" id="CMR17-2"/>
     </defs>
     <g transform="translate(100.02289 187.733401)scale(0.15 -0.15)">
      <use transform="scale(0.996264)" xlink:href="#CMSS17-103"/>
      <use transform="translate(46.843624 0)scale(0.996264)" xlink:href="#CMSS17-114"/>
      <use transform="translate(78.753396 0)scale(0.996264)" xlink:href="#CMSS17-111"/>
      <use transform="translate(122.994566 0)scale(0.996264)" xlink:href="#CMSS17-119"/>
      <use transform="translate(186.814111 0)scale(0.996264)" xlink:href="#CMSS17-116"/>
      <use transform="translate(220.645677 0)scale(0.996264)" xlink:href="#CMSS17-104"/>
      <use transform="translate(300.079733 0)scale(0.996264)" xlink:href="#CMSS17-114"/>
      <use transform="translate(331.989506 0)scale(0.996264)" xlink:href="#CMSS17-97"/>
      <use transform="translate(376.911427 0)scale(0.996264)" xlink:href="#CMSS17-116"/>
      <use transform="translate(410.742993 0)scale(0.996264)" xlink:href="#CMSS17-105"/>
      <use transform="translate(432.923716 0)scale(0.996264)" xlink:href="#CMSS17-111"/>
      <use transform="translate(479.76734 0)scale(0.996264)" xlink:href="#CMSS17-44"/>
      <use transform="translate(537.020657 0)scale(0.996264)" xlink:href="#CMR17-2"/>
     </g>
    </g>
   </g>
   <g id="matplotlib.axis_2">
    <g id="ytick_1">
     <g id="line2d_6">
      <defs>
       <path d="M 0 0 
L -3.5 0 
" id="m7d25a01dfc" style="stroke:#000000;stroke-width:0.8;"/>
      </defs>
      <g>
       <use style="stroke:#000000;stroke-width:0.8;" x="36" xlink:href="#m7d25a01dfc" y="157.5"/>
      </g>
     </g>
     <g id="text_7">
      <!-- $0$ -->
      <g transform="translate(24.018665 160.959249)scale(0.1 -0.1)">
       <use transform="scale(0.996264)" xlink:href="#CMR17-48"/>
      </g>
     </g>
    </g>
    <g id="ytick_2">
     <g id="line2d_7">
      <g>
       <use style="stroke:#000000;stroke-width:0.8;" x="36" xlink:href="#m7d25a01dfc" y="130.32"/>
      </g>
     </g>
     <g id="text_8">
      <!-- $20$ -->
      <g transform="translate(19.037329 133.779249)scale(0.1 -0.1)">
       <use transform="scale(0.996264)" xlink:href="#CMR17-50"/>
       <use transform="translate(45.690477 0)scale(0.996264)" xlink:href="#CMR17-48"/>
      </g>
     </g>
    </g>
    <g id="ytick_3">
     <g id="line2d_8">
      <g>
       <use style="stroke:#000000;stroke-width:0.8;" x="36" xlink:href="#m7d25a01dfc" y="103.14"/>
      </g>
     </g>
     <g id="text_9">
      <!-- $40$ -->
      <defs>
       <path d="M 33.59375 64.796875 
C 33.59375 66.890625 33.5 67 31.703125 67 
L 2 19.59375 
L 2 17 
L 27.796875 17 
L 27.796875 7.1875 
C 27.796875 3.59375 27.59375 2.59375 20.59375 2.59375 
L 18.703125 2.59375 
L 18.703125 0 
C 21.90625 0.1875 27.296875 0.1875 30.703125 0.1875 
C 34.09375 0.1875 39.5 0.1875 42.703125 0 
L 42.703125 2.59375 
L 40.796875 2.59375 
C 33.796875 2.59375 33.59375 3.59375 33.59375 7.1875 
L 33.59375 17 
L 43.796875 17 
L 43.796875 19.59375 
L 33.59375 19.59375 
z
M 28.09375 58.171875 
L 28.09375 19.59375 
L 4 19.59375 
z
" id="CMR17-52"/>
      </defs>
      <g transform="translate(19.037329 106.599249)scale(0.1 -0.1)">
       <use transform="scale(0.996264)" xlink:href="#CMR17-52"/>
       <use transform="translate(45.690477 0)scale(0.996264)" xlink:href="#CMR17-48"/>
      </g>
     </g>
    </g>
    <g id="ytick_4">
     <g id="line2d_9">
      <g>
       <use style="stroke:#000000;stroke-width:0.8;" x="36" xlink:href="#m7d25a01dfc" y="75.96"/>
      </g>
     </g>
     <g id="text_10">
      <!-- $60$ -->
      <defs>
       <path d="M 10.59375 34.34375 
C 10.59375 58 21.796875 63.6875 28.296875 63.6875 
C 30.40625 63.6875 35.5 63.265625 37.5 59.09375 
C 35.90625 59.09375 32.90625 59.09375 32.90625 55.59375 
C 32.90625 52.890625 35.09375 52 36.5 52 
C 37.40625 52 40.09375 52.390625 40.09375 55.796875 
C 40.09375 62.296875 35.09375 66 28.203125 66 
C 16.296875 66 3.796875 53.296875 3.796875 31.421875 
C 3.796875 4.015625 15.09375 -2 23.09375 -2 
C 32.796875 -2 42 6.734375 42 20.234375 
C 42 32.828125 33.90625 42 23.703125 42 
C 17.59375 42 13.09375 37.96875 10.59375 30.921875 
z
M 23.09375 0.390625 
C 10.796875 0.390625 10.796875 18.9375 10.796875 22.65625 
C 10.796875 29.90625 14.203125 40.390625 23.5 40.390625 
C 25.203125 40.390625 30.09375 40.390625 33.40625 33.4375 
C 35.203125 29.515625 35.203125 25.375 35.203125 20.34375 
C 35.203125 14.90625 35.203125 10.875 33.09375 6.84375 
C 30.90625 2.703125 27.703125 0.390625 23.09375 0.390625 
z
" id="CMR17-54"/>
      </defs>
      <g transform="translate(19.037329 79.419249)scale(0.1 -0.1)">
       <use transform="scale(0.996264)" xlink:href="#CMR17-54"/>
       <use transform="translate(45.690477 0)scale(0.996264)" xlink:href="#CMR17-48"/>
      </g>
     </g>
    </g>
    <g id="ytick_5">
     <g id="line2d_10">
      <g>
       <use style="stroke:#000000;stroke-width:0.8;" x="36" xlink:href="#m7d25a01dfc" y="48.78"/>
      </g>
     </g>
     <g id="text_11">
      <!-- $80$ -->
      <defs>
       <path d="M 27.203125 35.765625 
C 33.5 38.96875 39.90625 43.796875 39.90625 51.53125 
C 39.90625 60.6875 31.09375 66 23 66 
C 13.90625 66 5.90625 59.375 5.90625 50.234375 
C 5.90625 47.71875 6.5 43.390625 10.40625 39.578125 
C 11.40625 38.578125 15.59375 35.5625 18.296875 33.65625 
C 13.796875 31.34375 3.296875 25.8125 3.296875 14.765625 
C 3.296875 4.40625 13.09375 -2 22.796875 -2 
C 33.5 -2 42.5 5.71875 42.5 15.96875 
C 42.5 25.109375 36.40625 29.328125 32.40625 32.046875 
z
M 14.09375 44.609375 
C 13.296875 45.109375 9.296875 48.21875 9.296875 52.9375 
C 9.296875 59.078125 15.59375 63.6875 22.796875 63.6875 
C 30.703125 63.6875 36.5 58.0625 36.5 51.53125 
C 36.5 42.1875 26.09375 36.859375 25.59375 36.859375 
C 25.5 36.859375 25.40625 36.859375 24.59375 37.46875 
z
M 32.5 24 
C 34 22.90625 38.796875 19.578125 38.796875 13.453125 
C 38.796875 6.015625 31.40625 0.390625 23 0.390625 
C 13.90625 0.390625 7 6.921875 7 14.859375 
C 7 22.796875 13.09375 29.4375 20 32.546875 
z
" id="CMR17-56"/>
      </defs>
      <g transform="translate(19.037329 52.239249)scale(0.1 -0.1)">
       <use transform="scale(0.996264)" xlink:href="#CMR17-56"/>
       <use transform="translate(45.690477 0)scale(0.996264)" xlink:href="#CMR17-48"/>
      </g>
     </g>
    </g>
    <g id="ytick_6">
     <g id="line2d_11">
      <g>
       <use style="stroke:#000000;stroke-width:0.8;" x="36" xlink:href="#m7d25a01dfc" y="21.6"/>
      </g>
     </g>
     <g id="text_12">
      <!-- $100$ -->
      <g transform="translate(14.055994 25.059249)scale(0.1 -0.1)">
       <use transform="scale(0.996264)" xlink:href="#CMR17-49"/>
       <use transform="translate(45.690477 0)scale(0.996264)" xlink:href="#CMR17-48"/>
       <use transform="translate(91.380954 0)scale(0.996264)" xlink:href="#CMR17-48"/>
      </g>
     </g>
    </g>
    <g id="text_13">
     <!-- Memory (Units: edge records) -->
     <defs>
      <path d="M 49.90625 37.078125 
L 45.09375 23.0625 
C 44.296875 20.484375 41.59375 12.421875 41 9.25 
L 40.90625 9.25 
C 40.59375 11.234375 40 13.328125 38.40625 18.390625 
C 37.5 21.375 36.5 24.453125 35.5 27.234375 
L 20.703125 69 
L 9 69 
L 9 0 
L 16.796875 0 
L 16.796875 60.921875 
L 16.90625 60.921875 
C 16.90625 60.828125 17.796875 56.453125 23.90625 39.0625 
L 37.09375 1.59375 
L 44.5 1.59375 
L 56.40625 34.890625 
C 57.203125 37.171875 59.703125 44.421875 60.796875 47.90625 
C 61.796875 50.890625 64.296875 58.25 64.90625 61.125 
L 65 61.125 
L 65 0 
L 72.90625 0 
L 72.90625 69 
L 61.296875 69 
z
" id="CMSS17-77"/>
      <path d="M 39.09375 21.484375 
C 39.09375 24.796875 38.90625 31.265625 35.703125 36.671875 
C 32.203125 42.390625 26.5 44 22.203125 44 
C 11.796875 44 3 34.125 3 21.296875 
C 3 9.046875 12.09375 -1 23.59375 -1 
C 28.09375 -1 33.59375 0.296875 38.59375 3.890625 
C 38.59375 4.296875 38.40625 6.46875 38.296875 6.578125 
C 38.296875 6.765625 38 9.828125 38 10.234375 
C 33.203125 6.375 27.703125 5.09375 23.703125 5.09375 
C 17.296875 5.09375 10.40625 10.421875 10.09375 21.484375 
z
M 10.90625 27 
C 12.203125 32.59375 16.59375 37.890625 22.203125 37.890625 
C 23.703125 37.890625 30.703125 37.6875 32.5 27 
z
" id="CMSS17-101"/>
      <path d="M 67 29.34375 
C 67 36.078125 65.296875 44 54.09375 44 
C 46.59375 44 42.09375 39.296875 40.09375 36.375 
C 38.296875 41.6875 34.09375 44 28.09375 44 
C 21.296875 44 17 40.09375 14.703125 37.28125 
L 14.703125 43.484375 
L 7.40625 43.484375 
L 7.40625 0 
L 15 0 
L 15 24.3125 
C 15 30.25 17.203125 37.890625 24.296875 37.890625 
C 33.40625 37.890625 33.40625 31.453125 33.40625 28.53125 
L 33.40625 0 
L 41 0 
L 41 24.3125 
C 41 30.25 43.203125 37.890625 50.296875 37.890625 
C 59.40625 37.890625 59.40625 31.453125 59.40625 28.53125 
L 59.40625 0 
L 67 0 
z
" id="CMSS17-109"/>
      <path d="M 41.796875 43 
L 34 43 
C 25.5 20.203125 22.59375 10.953125 22.40625 5.984375 
L 22.296875 5.984375 
C 22 10.859375 17.59375 22.796875 14.09375 31.34375 
L 9.40625 43 
L 1.296875 43 
L 19 0.21875 
C 17.90625 -2.765625 16.296875 -7.25 15.796875 -8.234375 
C 13.59375 -13.8125 12.09375 -13.8125 10.5 -13.8125 
C 10.09375 -13.8125 6.90625 -13.703125 3.296875 -12.609375 
L 3.90625 -19.203125 
C 6.40625 -19.703125 8.90625 -20 10.703125 -20 
C 13.203125 -20 18.203125 -20 22.796875 -7.734375 
z
" id="CMSS17-121"/>
      <path d="M 25.203125 75 
C 19.796875 69.484375 7.40625 56.671875 7.40625 25.046875 
C 7.40625 -6.6875 19.796875 -19.40625 25.203125 -25 
L 31.296875 -25 
C 19 -12.203125 15 5.71875 15 24.9375 
C 15 44.0625 18.796875 62.078125 31.296875 75 
z
" id="CMSS17-40"/>
      <path d="M 55.5 69 
L 47.90625 69 
L 47.90625 22.796875 
C 47.90625 9.5 39.796875 3.59375 32.40625 3.59375 
C 24.796875 3.59375 17.203125 9.796875 17.203125 22.6875 
L 17.203125 69 
L 8.796875 69 
L 8.796875 22.890625 
C 8.796875 8.5 19.90625 -2 32.296875 -2 
C 44.703125 -2 55.5 8.5 55.5 22.890625 
z
" id="CMSS17-85"/>
      <path d="M 40.90625 29.34375 
C 40.90625 35.671875 39.40625 44 28.09375 44 
C 21.703125 44 17.5 40.6875 14.703125 37.28125 
L 14.703125 43.484375 
L 7.40625 43.484375 
L 7.40625 0 
L 15 0 
L 15 24.3125 
C 15 30.65625 17.40625 37.890625 24.203125 37.890625 
C 33 37.890625 33.296875 31.953125 33.296875 28.53125 
L 33.296875 0 
L 40.90625 0 
z
" id="CMSS17-110"/>
      <path d="M 32.203125 40.984375 
C 26.296875 43.796875 21.703125 44 18.703125 44 
C 11.59375 44 3.09375 41.484375 3.09375 31.390625 
C 3.09375 21.296875 14.09375 19.09375 17.09375 18.484375 
C 21.703125 17.59375 26.796875 16.59375 26.796875 11.59375 
C 26.796875 5.296875 19.59375 5.296875 18.296875 5.296875 
C 14.296875 5.296875 8.796875 6.390625 3.796875 9.984375 
L 2.59375 3.296875 
C 8.296875 0 13.796875 -1 18.40625 -1 
C 30.703125 -1 33.796875 6.5 33.796875 12.1875 
C 33.796875 17.09375 31 20.390625 29.09375 21.890625 
C 25.796875 24.484375 24.59375 24.796875 16.40625 26.484375 
C 15 26.6875 10.09375 27.796875 10.09375 32.296875 
C 10.09375 37.984375 16.40625 37.984375 17.796875 37.984375 
C 24.296875 37.984375 28.296875 35.984375 31 34.484375 
z
" id="CMSS17-115"/>
      <path d="M 17 43 
L 9 43 
L 9 34.984375 
L 17 34.984375 
z
M 9 8 
L 9 0 
L 17 0 
L 17 8 
z
" id="CMSS17-58"/>
      <path d="M 40.796875 69 
L 33.40625 69 
L 33.40625 38.984375 
C 30.296875 41.59375 25.203125 44 19.59375 44 
C 10.5 44 3.296875 34.046875 3.296875 21.484375 
C 3.296875 8.9375 10.40625 -1 19.296875 -1 
C 26.203125 -1 30.796875 2.6875 33.203125 4.796875 
L 33.203125 -0.203125 
L 40.796875 -0.203125 
z
M 33.203125 13.296875 
C 33.203125 11.875 33.203125 10.359375 30.09375 7.625 
C 28.09375 5.90625 25.703125 5.09375 23.40625 5.09375 
C 18 5.09375 10.90625 9.140625 10.90625 21.390625 
C 10.90625 34.140625 18.90625 37.890625 24.40625 37.890625 
C 28.09375 37.890625 31.09375 36.0625 33.203125 33.03125 
z
" id="CMSS17-100"/>
      <path d="M 38.5 39.6875 
C 38.5 40.390625 33.90625 42.390625 32.703125 42.796875 
C 29.40625 44 25.203125 44 24.09375 44 
C 11.09375 44 3.296875 32.6875 3.296875 21.296875 
C 3.296875 9.296875 12 -1 23.703125 -1 
C 30.40625 -1 35.203125 1.1875 39.09375 3.796875 
L 38.5 10.390625 
C 34.203125 7.09375 29.203125 5.296875 23.796875 5.296875 
C 16 5.296875 10.90625 12.09375 10.90625 21.390625 
C 10.90625 28.59375 14.203125 37.6875 24.203125 37.6875 
C 29.703125 37.6875 32.796875 36.59375 37.40625 33.484375 
z
" id="CMSS17-99"/>
      <path d="M 11.296875 -25 
C 16.703125 -19.5 29.09375 -6.6875 29.09375 24.9375 
C 29.09375 56.671875 16.703125 69.375 11.296875 75 
L 5.203125 75 
C 17.5 62.171875 21.5 44.265625 21.5 25.046875 
C 21.5 5.921875 17.703125 -12.09375 5.203125 -25 
z
" id="CMSS17-41"/>
     </defs>
     <g transform="translate(6.320004 181.379916)rotate(-90)scale(0.15 -0.15)">
      <use transform="scale(0.996264)" xlink:href="#CMSS17-77"/>
      <use transform="translate(81.67603 0)scale(0.996264)" xlink:href="#CMSS17-101"/>
      <use transform="translate(123.314852 0)scale(0.996264)" xlink:href="#CMSS17-109"/>
      <use transform="translate(197.544106 0)scale(0.996264)" xlink:href="#CMSS17-111"/>
      <use transform="translate(241.785276 0)scale(0.996264)" xlink:href="#CMSS17-114"/>
      <use transform="translate(273.695049 0)scale(0.996264)" xlink:href="#CMSS17-121"/>
      <use transform="translate(347.924303 0)scale(0.996264)" xlink:href="#CMSS17-40"/>
      <use transform="translate(384.358217 0)scale(0.996264)" xlink:href="#CMSS17-85"/>
      <use transform="translate(448.497957 0)scale(0.996264)" xlink:href="#CMSS17-110"/>
      <use transform="translate(496.702901 0)scale(0.996264)" xlink:href="#CMSS17-105"/>
      <use transform="translate(518.883624 0)scale(0.996264)" xlink:href="#CMSS17-116"/>
      <use transform="translate(552.71519 0)scale(0.996264)" xlink:href="#CMSS17-115"/>
      <use transform="translate(588.628732 0)scale(0.996264)" xlink:href="#CMSS17-58"/>
      <use transform="translate(656.291744 0)scale(0.996264)" xlink:href="#CMSS17-101"/>
      <use transform="translate(697.930566 0)scale(0.996264)" xlink:href="#CMSS17-100"/>
      <use transform="translate(746.135509 0)scale(0.996264)" xlink:href="#CMSS17-103"/>
      <use transform="translate(792.979133 0)scale(0.996264)" xlink:href="#CMSS17-101"/>
      <use transform="translate(865.847068 0)scale(0.996264)" xlink:href="#CMSS17-114"/>
      <use transform="translate(897.75684 0)scale(0.996264)" xlink:href="#CMSS17-101"/>
      <use transform="translate(939.395662 0)scale(0.996264)" xlink:href="#CMSS17-99"/>
      <use transform="translate(981.034484 0)scale(0.996264)" xlink:href="#CMSS17-111"/>
      <use transform="translate(1025.275654 0)scale(0.996264)" xlink:href="#CMSS17-114"/>
      <use transform="translate(1057.185426 0)scale(0.996264)" xlink:href="#CMSS17-100"/>
      <use transform="translate(1105.39037 0)scale(0.996264)" xlink:href="#CMSS17-115"/>
      <use transform="translate(1141.303912 0)scale(0.996264)" xlink:href="#CMSS17-41"/>
     </g>
    </g>
   </g>
   <g id="line2d_12">
    <path clip-path="url(#p940c49bb44)" d="M 46.145455 157.446309 
L 48.195041 157.324554 
L 50.244628 157.183789 
L 52.294215 157.026175 
L 54.343802 156.853799 
L 56.393388 156.691252 
L 58.442975 156.53048 
L 60.492562 156.330091 
L 62.542149 156.168666 
L 64.591736 156.010762 
L 66.641322 155.783284 
L 68.690909 155.647503 
L 70.740496 155.500879 
L 72.790083 155.294457 
L 74.839669 155.088483 
L 76.889256 154.940921 
L 78.938843 154.760621 
L 80.98843 154.58078 
L 83.038017 154.36919 
L 85.087603 154.196753 
L 87.13719 153.978085 
L 89.186777 153.806719 
L 91.236364 153.731764 
L 93.28595 153.537278 
L 95.335537 153.387194 
L 97.385124 153.224918 
L 99.434711 153.009469 
L 101.484298 152.828679 
L 103.533884 152.599185 
L 105.583471 152.500109 
L 107.633058 152.309628 
L 109.682645 152.126208 
L 111.732231 151.950913 
L 113.781818 151.743343 
L 115.831405 151.590231 
L 117.880992 151.380956 
L 119.930579 151.259874 
L 121.980165 151.094714 
L 124.029752 150.904597 
L 126.079339 150.692268 
L 128.128926 150.549486 
L 130.178512 150.448089 
L 132.228099 150.221475 
L 134.277686 150.035462 
L 136.327273 149.853876 
L 138.37686 149.767288 
L 140.426446 149.609692 
L 142.476033 149.337282 
L 144.52562 149.154481 
L 146.575207 149.424544 
L 148.624793 149.191864 
L 150.67438 149.01949 
L 152.723967 148.850887 
L 154.773554 148.614916 
L 156.82314 148.536293 
L 158.872727 148.343071 
L 160.922314 148.080571 
L 162.971901 147.987863 
L 165.021488 147.813391 
L 167.071074 147.604808 
L 169.120661 147.412541 
L 171.170248 147.527831 
L 173.219835 147.318153 
L 175.269421 147.107434 
L 177.319008 146.962946 
L 179.368595 146.758187 
L 181.418182 146.536513 
L 183.467769 146.486309 
L 185.517355 146.253204 
L 187.566942 146.056939 
L 189.616529 145.967283 
L 191.666116 145.732319 
L 193.715702 145.660841 
L 195.765289 145.586027 
L 197.814876 145.381435 
L 199.864463 145.301213 
L 201.91405 145.090442 
L 203.963636 144.871164 
L 206.013223 144.773741 
L 208.06281 144.517815 
L 210.112397 144.284459 
L 212.161983 144.154751 
L 214.21157 144.130108 
L 216.261157 144.036059 
L 218.310744 143.819247 
L 220.360331 143.718704 
L 222.409917 143.443863 
L 224.459504 143.345717 
L 226.509091 143.103717 
L 228.558678 142.864947 
L 230.608264 142.765195 
L 232.657851 142.719141 
L 234.707438 142.623084 
L 236.757025 142.368727 
L 238.806612 142.242881 
L 240.856198 142.037769 
L 242.905785 141.919554 
L 244.955372 141.666052 
L 247.004959 141.539947 
L 249.054545 142.101617 
" style="fill:none;stroke:#0000ff;stroke-linecap:square;stroke-opacity:0.5;stroke-width:2;"/>
   </g>
   <g id="line2d_13">
    <path clip-path="url(#p940c49bb44)" d="M 54.20333 -1 
L 54.343802 1.070451 
L 56.393388 21.051934 
L 58.442975 34.867801 
L 60.492562 50.318162 
L 62.542149 57.454372 
L 64.591736 65.663299 
L 66.641322 75.028243 
L 68.690909 79.473192 
L 70.740496 82.381445 
L 72.790083 88.095764 
L 74.839669 92.902876 
L 76.889256 93.992864 
L 78.938843 97.946036 
L 80.98843 101.092122 
L 83.038017 103.719487 
L 85.087603 106.404704 
L 87.13719 108.432064 
L 89.186777 110.57611 
L 91.236364 110.204413 
L 93.28595 111.920622 
L 95.335537 113.329942 
L 97.385124 114.912355 
L 99.434711 116.49715 
L 101.484298 117.89223 
L 103.533884 118.963589 
L 105.583471 119.72003 
L 107.633058 120.871515 
L 109.682645 121.808542 
L 111.732231 122.862519 
L 113.781818 123.860005 
L 115.831405 124.606455 
L 117.880992 125.149116 
L 119.930579 125.338852 
L 121.980165 126.21035 
L 124.029752 126.79684 
L 126.079339 127.601788 
L 128.128926 128.02489 
L 130.178512 128.570802 
L 132.228099 129.285995 
L 134.277686 129.807195 
L 136.327273 130.33925 
L 138.37686 130.738306 
L 140.426446 131.231916 
L 142.476033 131.732019 
L 144.52562 132.214617 
L 146.575207 130.224657 
L 148.624793 130.669767 
L 150.67438 131.14283 
L 152.723967 131.583105 
L 154.773554 131.987736 
L 156.82314 132.209168 
L 158.872727 132.59367 
L 160.922314 132.990344 
L 162.971901 133.231768 
L 165.021488 133.594997 
L 167.071074 133.929579 
L 169.120661 134.264345 
L 171.170248 134.137434 
L 173.219835 134.450093 
L 175.269421 134.777092 
L 177.319008 134.956597 
L 179.368595 135.239959 
L 181.418182 135.539823 
L 183.467769 135.744898 
L 185.517355 136.003542 
L 187.566942 136.290514 
L 189.616529 136.469307 
L 191.666116 136.735084 
L 193.715702 136.6603 
L 195.765289 136.810616 
L 197.814876 137.080761 
L 199.864463 137.266019 
L 201.91405 137.482651 
L 203.963636 137.690113 
L 206.013223 137.898571 
L 208.06281 138.06421 
L 210.112397 138.296546 
L 212.161983 138.444838 
L 214.21157 138.404641 
L 216.261157 138.544939 
L 218.310744 138.746464 
L 220.360331 138.882006 
L 222.409917 139.054562 
L 224.459504 139.244984 
L 226.509091 139.380731 
L 228.558678 139.54903 
L 230.608264 139.721039 
L 232.657851 139.655648 
L 234.707438 139.785698 
L 236.757025 139.92909 
L 238.806612 140.072934 
L 240.856198 140.228831 
L 242.905785 140.372281 
L 244.955372 140.501996 
L 247.004959 140.649002 
L 249.054545 140.055984 
" style="fill:none;stroke:#ff0000;stroke-linecap:square;stroke-opacity:0.5;stroke-width:2;"/>
   </g>
   <g id="line2d_14">
    <path clip-path="url(#p940c49bb44)" d="M 46.145455 157.29793 
L 48.195041 157.097077 
L 50.244628 156.897407 
L 52.294215 156.698886 
L 54.343802 156.501483 
L 56.393388 156.305168 
L 58.442975 156.109911 
L 60.492562 155.915685 
L 62.542149 155.722463 
L 64.591736 155.530221 
L 66.641322 155.338933 
L 68.690909 155.148578 
L 70.740496 154.959131 
L 72.790083 154.770573 
L 74.839669 154.582882 
L 76.889256 154.396039 
L 78.938843 154.210024 
L 80.98843 154.024819 
L 83.038017 153.840408 
L 85.087603 153.656771 
L 87.13719 153.473895 
L 89.186777 153.291761 
L 91.236364 153.110356 
L 93.28595 152.929664 
L 95.335537 152.749671 
L 97.385124 152.570364 
L 99.434711 152.391729 
L 101.484298 152.213754 
L 103.533884 152.036425 
L 105.583471 151.859731 
L 107.633058 151.68366 
L 109.682645 151.508201 
L 111.732231 151.333342 
L 113.781818 151.159074 
L 115.831405 150.985386 
L 117.880992 150.812267 
L 119.930579 150.639708 
L 121.980165 150.4677 
L 124.029752 150.296233 
L 126.079339 150.125299 
L 128.128926 149.954888 
L 130.178512 149.784993 
L 132.228099 149.615604 
L 134.277686 149.446715 
L 136.327273 149.278318 
L 138.37686 149.110404 
L 140.426446 148.942966 
L 142.476033 148.775997 
L 144.52562 148.609491 
L 146.575207 148.44344 
L 148.624793 148.277838 
L 150.67438 148.112677 
L 152.723967 147.947953 
L 154.773554 147.783658 
L 156.82314 147.619787 
L 158.872727 147.456334 
L 160.922314 147.293292 
L 162.971901 147.130657 
L 165.021488 146.968423 
L 167.071074 146.806584 
L 169.120661 146.645136 
L 171.170248 146.484072 
L 173.219835 146.323389 
L 175.269421 146.163081 
L 177.319008 146.003143 
L 179.368595 145.843571 
L 181.418182 145.68436 
L 183.467769 145.525506 
L 185.517355 145.367004 
L 187.566942 145.208849 
L 189.616529 145.051039 
L 191.666116 144.893568 
L 193.715702 144.736433 
L 195.765289 144.579629 
L 197.814876 144.423153 
L 199.864463 144.267 
L 201.91405 144.111168 
L 203.963636 143.955652 
L 206.013223 143.800449 
L 208.06281 143.645556 
L 210.112397 143.490968 
L 212.161983 143.336683 
L 214.21157 143.182697 
L 216.261157 143.029007 
L 218.310744 142.87561 
L 220.360331 142.722502 
L 222.409917 142.569681 
L 224.459504 142.417143 
L 226.509091 142.264886 
L 228.558678 142.112906 
L 230.608264 141.961201 
L 232.657851 141.809768 
L 234.707438 141.658604 
L 236.757025 141.507707 
L 238.806612 141.357073 
L 240.856198 141.2067 
L 242.905785 141.056586 
L 244.955372 140.906727 
L 247.004959 140.757122 
L 249.054545 140.607768 
" style="fill:none;stroke:#000000;stroke-linecap:square;stroke-opacity:0.5;stroke-width:2;"/>
    <defs>
     <path d="M 0 4.242641 
L 2.545584 0 
L 0 -4.242641 
L -2.545584 0 
z
" id="mcf70a41e5c" style="stroke:#000000;stroke-linejoin:miter;stroke-opacity:0.5;"/>
    </defs>
    <g clip-path="url(#p940c49bb44)">
     <use style="fill-opacity:0.5;stroke:#000000;stroke-linejoin:miter;stroke-opacity:0.5;" x="46.145455" xlink:href="#mcf70a41e5c" y="157.29793"/>
     <use style="fill-opacity:0.5;stroke:#000000;stroke-linejoin:miter;stroke-opacity:0.5;" x="66.641322" xlink:href="#mcf70a41e5c" y="155.338933"/>
     <use style="fill-opacity:0.5;stroke:#000000;stroke-linejoin:miter;stroke-opacity:0.5;" x="87.13719" xlink:href="#mcf70a41e5c" y="153.473895"/>
     <use style="fill-opacity:0.5;stroke:#000000;stroke-linejoin:miter;stroke-opacity:0.5;" x="107.633058" xlink:href="#mcf70a41e5c" y="151.68366"/>
     <use style="fill-opacity:0.5;stroke:#000000;stroke-linejoin:miter;stroke-opacity:0.5;" x="128.128926" xlink:href="#mcf70a41e5c" y="149.954888"/>
     <use style="fill-opacity:0.5;stroke:#000000;stroke-linejoin:miter;stroke-opacity:0.5;" x="148.624793" xlink:href="#mcf70a41e5c" y="148.277838"/>
     <use style="fill-opacity:0.5;stroke:#000000;stroke-linejoin:miter;stroke-opacity:0.5;" x="169.120661" xlink:href="#mcf70a41e5c" y="146.645136"/>
     <use style="fill-opacity:0.5;stroke:#000000;stroke-linejoin:miter;stroke-opacity:0.5;" x="189.616529" xlink:href="#mcf70a41e5c" y="145.051039"/>
     <use style="fill-opacity:0.5;stroke:#000000;stroke-linejoin:miter;stroke-opacity:0.5;" x="210.112397" xlink:href="#mcf70a41e5c" y="143.490968"/>
     <use style="fill-opacity:0.5;stroke:#000000;stroke-linejoin:miter;stroke-opacity:0.5;" x="230.608264" xlink:href="#mcf70a41e5c" y="141.961201"/>
    </g>
   </g>
   <g id="line2d_15">
    <path clip-path="url(#p940c49bb44)" d="M 57.215533 -1 
L 58.442975 12.498465 
L 60.492562 29.409744 
L 62.542149 42.568542 
L 64.591736 53.100476 
L 66.641322 61.721853 
L 68.690909 68.910217 
L 70.740496 74.996176 
L 72.790083 80.215883 
L 74.839669 84.742521 
L 76.889256 88.705978 
L 78.938843 92.205583 
L 80.98843 95.318594 
L 83.038017 98.106005 
L 85.087603 100.616614 
L 87.13719 102.889926 
L 89.186777 104.958262 
L 91.236364 106.848326 
L 93.28595 108.582371 
L 95.335537 110.179092 
L 97.385124 111.654305 
L 99.434711 113.021488 
L 101.484298 114.292193 
L 103.533884 115.476378 
L 105.583471 116.582675 
L 107.633058 117.618604 
L 109.682645 118.590742 
L 111.732231 119.504874 
L 113.781818 120.3661 
L 115.831405 121.178943 
L 117.880992 121.947418 
L 119.930579 122.675111 
L 121.980165 123.365229 
L 124.029752 124.02065 
L 126.079339 124.643966 
L 128.128926 125.237515 
L 130.178512 125.803413 
L 132.228099 126.34358 
L 134.277686 126.859761 
L 136.327273 127.353547 
L 138.37686 127.826389 
L 140.426446 128.279617 
L 142.476033 128.71445 
L 144.52562 129.132005 
L 146.575207 129.533314 
L 148.624793 129.919325 
L 150.67438 130.290915 
L 152.723967 130.648894 
L 154.773554 130.994012 
L 156.82314 131.326965 
L 158.872727 131.6484 
L 160.922314 131.958918 
L 162.971901 132.259079 
L 165.021488 132.549404 
L 167.071074 132.830382 
L 169.120661 133.102467 
L 171.170248 133.366086 
L 173.219835 133.621637 
L 175.269421 133.869496 
L 177.319008 134.110013 
L 179.368595 134.343519 
L 181.418182 134.570324 
L 183.467769 134.790721 
L 185.517355 135.004984 
L 187.566942 135.213374 
L 189.616529 135.416136 
L 191.666116 135.613502 
L 193.715702 135.80569 
L 195.765289 135.992907 
L 197.814876 136.175351 
L 199.864463 136.353207 
L 201.91405 136.526651 
L 203.963636 136.69585 
L 206.013223 136.860964 
L 208.06281 137.022144 
L 210.112397 137.179532 
L 212.161983 137.333267 
L 214.21157 137.483477 
L 216.261157 137.630287 
L 218.310744 137.773814 
L 220.360331 137.914172 
L 222.409917 138.051469 
L 224.459504 138.185805 
L 226.509091 138.317281 
L 228.558678 138.445989 
L 230.608264 138.57202 
L 232.657851 138.695458 
L 234.707438 138.816386 
L 236.757025 138.934883 
L 238.806612 139.051025 
L 240.856198 139.164882 
L 242.905785 139.276526 
L 244.955372 139.386021 
L 247.004959 139.493433 
L 249.054545 139.598821 
" style="fill:none;stroke:#000000;stroke-linecap:square;stroke-opacity:0.5;stroke-width:2;"/>
    <defs>
     <path d="M 0 3 
C 0.795609 3 1.55874 2.683901 2.12132 2.12132 
C 2.683901 1.55874 3 0.795609 3 0 
C 3 -0.795609 2.683901 -1.55874 2.12132 -2.12132 
C 1.55874 -2.683901 0.795609 -3 0 -3 
C -0.795609 -3 -1.55874 -2.683901 -2.12132 -2.12132 
C -2.683901 -1.55874 -3 -0.795609 -3 0 
C -3 0.795609 -2.683901 1.55874 -2.12132 2.12132 
C -1.55874 2.683901 -0.795609 3 0 3 
z
" id="m478724501f" style="stroke:#000000;stroke-opacity:0.5;"/>
    </defs>
    <g clip-path="url(#p940c49bb44)">
     <use style="fill-opacity:0.5;stroke:#000000;stroke-opacity:0.5;" x="65.146217" xlink:href="#m478724501f" y="-1"/>
     <use style="fill-opacity:0.5;stroke:#000000;stroke-opacity:0.5;" x="66.641322" xlink:href="#m478724501f" y="61.721853"/>
     <use style="fill-opacity:0.5;stroke:#000000;stroke-opacity:0.5;" x="87.13719" xlink:href="#m478724501f" y="102.889926"/>
     <use style="fill-opacity:0.5;stroke:#000000;stroke-opacity:0.5;" x="107.633058" xlink:href="#m478724501f" y="117.618604"/>
     <use style="fill-opacity:0.5;stroke:#000000;stroke-opacity:0.5;" x="128.128926" xlink:href="#m478724501f" y="125.237515"/>
     <use style="fill-opacity:0.5;stroke:#000000;stroke-opacity:0.5;" x="148.624793" xlink:href="#m478724501f" y="129.919325"/>
     <use style="fill-opacity:0.5;stroke:#000000;stroke-opacity:0.5;" x="169.120661" xlink:href="#m478724501f" y="133.102467"/>
     <use style="fill-opacity:0.5;stroke:#000000;stroke-opacity:0.5;" x="189.616529" xlink:href="#m478724501f" y="135.416136"/>
     <use style="fill-opacity:0.5;stroke:#000000;stroke-opacity:0.5;" x="210.112397" xlink:href="#m478724501f" y="137.179532"/>
     <use style="fill-opacity:0.5;stroke:#000000;stroke-opacity:0.5;" x="230.608264" xlink:href="#m478724501f" y="138.57202"/>
    </g>
   </g>
   <g id="patch_3">
    <path d="M 36 157.5 
L 36 21.6 
" style="fill:none;stroke:#000000;stroke-linecap:square;stroke-linejoin:miter;stroke-width:0.8;"/>
   </g>
   <g id="patch_4">
    <path d="M 259.2 157.5 
L 259.2 21.6 
" style="fill:none;stroke:#000000;stroke-linecap:square;stroke-linejoin:miter;stroke-width:0.8;"/>
   </g>
   <g id="patch_5">
    <path d="M 36 157.5 
L 259.2 157.5 
" style="fill:none;stroke:#000000;stroke-linecap:square;stroke-linejoin:miter;stroke-width:0.8;"/>
   </g>
   <g id="patch_6">
    <path d="M 36 21.6 
L 259.2 21.6 
" style="fill:none;stroke:#000000;stroke-linecap:square;stroke-linejoin:miter;stroke-width:0.8;"/>
   </g>
   <g id="legend_1">
    <g id="patch_7">
     <path d="M 146.027483 98.098383 
L 250.8 98.098383 
Q 253.2 98.098383 253.2 95.698383 
L 253.2 30 
Q 253.2 27.6 250.8 27.6 
L 146.027483 27.6 
Q 143.627483 27.6 143.627483 30 
L 143.627483 95.698383 
Q 143.627483 98.098383 146.027483 98.098383 
z
" style="fill:#ffffff;opacity:0.8;stroke:#cccccc;stroke-linejoin:miter;"/>
    </g>
    <g id="line2d_16">
     <path d="M 148.427483 36.6 
L 172.427483 36.6 
" style="fill:none;stroke:#0000ff;stroke-linecap:square;stroke-opacity:0.5;stroke-width:2;"/>
    </g>
    <g id="line2d_17"/>
    <g id="text_14">
     <!-- simulated $\textit{UN}$ -->
     <defs>
      <path d="M 40.90625 43 
L 33.296875 43 
L 33.296875 15.25 
C 33.296875 7.8125 27.90625 4.796875 22.203125 4.796875 
C 15.59375 4.796875 15 7 15 11.125 
L 15 43 
L 7.40625 43 
L 7.40625 10.625 
C 7.40625 2.796875 10.09375 -1 17 -1 
C 20.40625 -1 28.09375 -0.203125 33.5 4.796875 
L 33.5 -0.203125 
L 40.90625 -0.203125 
z
" id="CMSS17-117"/>
      <path d="M 14.796875 69 
L 7.40625 69 
L 7.40625 0 
L 14.796875 0 
z
" id="CMSS17-108"/>
      <path d="M 70.296875 69 
L 62.703125 69 
L 52.796875 22.390625 
C 50.59375 12 42.59375 3.59375 33.203125 3.59375 
C 29.296875 3.59375 21.5 5.59375 21.5 17 
C 21.5 17.1875 21.5 20.09375 22 22.390625 
L 32 69 
L 23.59375 69 
L 13.59375 22.390625 
C 13.40625 21.390625 13.09375 18.5 13.09375 17.390625 
C 13.09375 6.296875 20.796875 -2 32 -2 
C 45.296875 -2 57.59375 9.796875 60.296875 22.296875 
z
" id="CMSSI17-85"/>
      <path d="M 72.203125 69 
L 64.40625 69 
L 51.296875 7.65625 
L 51.203125 7.65625 
C 50.5 11.140625 49.59375 14.609375 48.59375 18.59375 
L 35.90625 69 
L 23.59375 69 
L 8.796875 0 
L 16.59375 0 
L 29.703125 61.328125 
L 29.796875 61.328125 
C 30.296875 58.640625 31.703125 53.375 34.203125 43.234375 
L 45.09375 0 
L 57.40625 0 
z
" id="CMSSI17-78"/>
     </defs>
     <g transform="translate(182.027483 40.8)scale(0.12 -0.12)">
      <use transform="scale(0.996264)" xlink:href="#CMSS17-115"/>
      <use transform="translate(35.913542 0)scale(0.996264)" xlink:href="#CMSS17-105"/>
      <use transform="translate(58.094265 0)scale(0.996264)" xlink:href="#CMSS17-109"/>
      <use transform="translate(132.323519 0)scale(0.996264)" xlink:href="#CMSS17-117"/>
      <use transform="translate(180.528463 0)scale(0.996264)" xlink:href="#CMSS17-108"/>
      <use transform="translate(202.709186 0)scale(0.996264)" xlink:href="#CMSS17-97"/>
      <use transform="translate(247.631106 0)scale(0.996264)" xlink:href="#CMSS17-116"/>
      <use transform="translate(281.462673 0)scale(0.996264)" xlink:href="#CMSS17-101"/>
      <use transform="translate(323.101495 0)scale(0.996264)" xlink:href="#CMSS17-100"/>
      <use transform="translate(402.535551 0)scale(0.996264)" xlink:href="#CMSSI17-85"/>
      <use transform="translate(466.675291 0)scale(0.996264)" xlink:href="#CMSSI17-78"/>
     </g>
    </g>
    <g id="line2d_18">
     <path d="M 148.427483 53.324596 
L 172.427483 53.324596 
" style="fill:none;stroke:#ff0000;stroke-linecap:square;stroke-opacity:0.5;stroke-width:2;"/>
    </g>
    <g id="line2d_19"/>
    <g id="text_15">
     <!-- simulated $\textit{RC}$ -->
     <defs>
      <path d="M 46.296875 32.890625 
C 60.796875 37.1875 66.40625 46.875 66.40625 53.625 
C 66.40625 62.015625 58.5 69 46.203125 69 
L 23.703125 69 
L 8.90625 0 
L 17.09375 0 
L 23.796875 31.890625 
L 38.5 31.890625 
L 49.5 0 
L 57.90625 0 
z
M 30.703125 63.390625 
L 43.90625 63.390625 
C 52.5 63.390625 58.40625 59.875 58.40625 53.03125 
C 58.40625 46 51.59375 38 38.40625 38 
L 25.09375 38 
z
" id="CMSSI17-82"/>
      <path d="M 68.5 66.59375 
C 63.09375 69.1875 59.40625 70 50.59375 70 
C 31.90625 70 12.703125 48.1875 12.703125 26 
C 12.703125 11.390625 21.09375 -1 37.5 -1 
C 45.796875 -1 50.203125 1.09375 56.40625 4.59375 
L 57.203125 11.296875 
C 52.90625 8.796875 48.59375 5.5 38.59375 5.5 
C 25.703125 5.5 21.203125 16.6875 21.203125 26.1875 
C 21.203125 44.296875 35 63.59375 50.09375 63.59375 
C 57.09375 63.59375 61.90625 61.796875 65.40625 58.703125 
z
" id="CMSSI17-67"/>
     </defs>
     <g transform="translate(182.027483 57.524596)scale(0.12 -0.12)">
      <use transform="scale(0.996264)" xlink:href="#CMSS17-115"/>
      <use transform="translate(35.913542 0)scale(0.996264)" xlink:href="#CMSS17-105"/>
      <use transform="translate(58.094265 0)scale(0.996264)" xlink:href="#CMSS17-109"/>
      <use transform="translate(132.323519 0)scale(0.996264)" xlink:href="#CMSS17-117"/>
      <use transform="translate(180.528463 0)scale(0.996264)" xlink:href="#CMSS17-108"/>
      <use transform="translate(202.709186 0)scale(0.996264)" xlink:href="#CMSS17-97"/>
      <use transform="translate(247.631106 0)scale(0.996264)" xlink:href="#CMSS17-116"/>
      <use transform="translate(281.462673 0)scale(0.996264)" xlink:href="#CMSS17-101"/>
      <use transform="translate(323.101495 0)scale(0.996264)" xlink:href="#CMSS17-100"/>
      <use transform="translate(402.535551 0)scale(0.996264)" xlink:href="#CMSSI17-82"/>
      <use transform="translate(462.951706 0)scale(0.996264)" xlink:href="#CMSSI17-67"/>
     </g>
    </g>
    <g id="line2d_20">
     <path d="M 148.427483 70.049192 
L 172.427483 70.049192 
" style="fill:none;stroke:#000000;stroke-linecap:square;stroke-opacity:0.5;stroke-width:2;"/>
    </g>
    <g id="line2d_21">
     <g>
      <use style="fill-opacity:0.5;stroke:#000000;stroke-linejoin:miter;stroke-opacity:0.5;" x="160.427483" xlink:href="#mcf70a41e5c" y="70.049192"/>
     </g>
    </g>
    <g id="text_16">
     <!-- analytical $\textit{UN}$ -->
     <g transform="translate(182.027483 74.249192)scale(0.12 -0.12)">
      <use transform="scale(0.996264)" xlink:href="#CMSS17-97"/>
      <use transform="translate(44.921921 0)scale(0.996264)" xlink:href="#CMSS17-110"/>
      <use transform="translate(93.126864 0)scale(0.996264)" xlink:href="#CMSS17-97"/>
      <use transform="translate(138.048784 0)scale(0.996264)" xlink:href="#CMSS17-108"/>
      <use transform="translate(160.229507 0)scale(0.996264)" xlink:href="#CMSS17-121"/>
      <use transform="translate(203.229649 0)scale(0.996264)" xlink:href="#CMSS17-116"/>
      <use transform="translate(237.061216 0)scale(0.996264)" xlink:href="#CMSS17-105"/>
      <use transform="translate(259.241939 0)scale(0.996264)" xlink:href="#CMSS17-99"/>
      <use transform="translate(300.880761 0)scale(0.996264)" xlink:href="#CMSS17-97"/>
      <use transform="translate(345.802681 0)scale(0.996264)" xlink:href="#CMSS17-108"/>
      <use transform="translate(399.212517 0)scale(0.996264)" xlink:href="#CMSSI17-85"/>
      <use transform="translate(463.352258 0)scale(0.996264)" xlink:href="#CMSSI17-78"/>
     </g>
    </g>
    <g id="line2d_22">
     <path d="M 148.427483 86.773787 
L 172.427483 86.773787 
" style="fill:none;stroke:#000000;stroke-linecap:square;stroke-opacity:0.5;stroke-width:2;"/>
    </g>
    <g id="line2d_23">
     <g>
      <use style="fill-opacity:0.5;stroke:#000000;stroke-opacity:0.5;" x="160.427483" xlink:href="#m478724501f" y="86.773787"/>
     </g>
    </g>
    <g id="text_17">
     <!-- analytical $\textit{RC}$ -->
     <g transform="translate(182.027483 90.973787)scale(0.12 -0.12)">
      <use transform="scale(0.996264)" xlink:href="#CMSS17-97"/>
      <use transform="translate(44.921921 0)scale(0.996264)" xlink:href="#CMSS17-110"/>
      <use transform="translate(93.126864 0)scale(0.996264)" xlink:href="#CMSS17-97"/>
      <use transform="translate(138.048784 0)scale(0.996264)" xlink:href="#CMSS17-108"/>
      <use transform="translate(160.229507 0)scale(0.996264)" xlink:href="#CMSS17-121"/>
      <use transform="translate(203.229649 0)scale(0.996264)" xlink:href="#CMSS17-116"/>
      <use transform="translate(237.061216 0)scale(0.996264)" xlink:href="#CMSS17-105"/>
      <use transform="translate(259.241939 0)scale(0.996264)" xlink:href="#CMSS17-99"/>
      <use transform="translate(300.880761 0)scale(0.996264)" xlink:href="#CMSS17-97"/>
      <use transform="translate(345.802681 0)scale(0.996264)" xlink:href="#CMSS17-108"/>
      <use transform="translate(399.212517 0)scale(0.996264)" xlink:href="#CMSSI17-82"/>
      <use transform="translate(459.628672 0)scale(0.996264)" xlink:href="#CMSSI17-67"/>
     </g>
    </g>
   </g>
  </g>
 </g>
 <defs>
  <clipPath id="p940c49bb44">
   <rect height="135.9" width="223.2" x="36" y="21.6"/>
  </clipPath>
 </defs>
</svg>
