<?xml version="1.0" encoding="utf-8" standalone="no"?>
<!DOCTYPE svg PUBLIC "-//W3C//DTD SVG 1.1//EN"
  "http://www.w3.org/Graphics/SVG/1.1/DTD/svg11.dtd">
<!-- Created with matplotlib (http://matplotlib.org/) -->
<svg height="180pt" version="1.1" viewBox="0 0 288 180" width="288pt" xmlns="http://www.w3.org/2000/svg" xmlns:xlink="http://www.w3.org/1999/xlink">
 <defs>
  <style type="text/css">
*{stroke-linecap:butt;stroke-linejoin:round;}
  </style>
 </defs>
 <g id="figure_1">
  <g id="patch_1">
   <path d="M 0 180 
L 288 180 
L 288 0 
L 0 0 
z
" style="fill:#ffffff;"/>
  </g>
  <g id="axes_1">
   <g id="patch_2">
    <path d="M 36 157.5 
L 259.2 157.5 
L 259.2 21.6 
L 36 21.6 
z
" style="fill:#ffffff;"/>
   </g>
   <g id="matplotlib.axis_1">
    <g id="xtick_1">
     <g id="line2d_1">
      <defs>
       <path d="M 0 0 
L 0 3.5 
" id="m9d2ebf41ef" style="stroke:#000000;stroke-width:0.8;"/>
      </defs>
      <g>
       <use style="stroke:#000000;stroke-width:0.8;" x="44.095868" xlink:href="#m9d2ebf41ef" y="157.5"/>
      </g>
     </g>
     <g id="text_1">
      <!-- $1.0$ -->
      <defs>
       <path d="M 26.59375 63.796875 
C 26.59375 65.890625 26.5 66 25.09375 66 
C 21.203125 61.359375 15.296875 59.890625 9.703125 59.6875 
C 9.40625 59.6875 8.90625 59.6875 8.796875 59.5 
C 8.703125 59.296875 8.703125 59.09375 8.703125 57 
C 11.796875 57 17 57.59375 21 59.984375 
L 21 7.296875 
C 21 3.796875 20.796875 2.59375 12.203125 2.59375 
L 9.203125 2.59375 
L 9.203125 0 
C 14 0.09375 19 0.1875 23.796875 0.1875 
C 28.59375 0.1875 33.59375 0.09375 38.40625 0 
L 38.40625 2.59375 
L 35.40625 2.59375 
C 26.796875 2.59375 26.59375 3.6875 26.59375 7.296875 
z
" id="CMR17-49"/>
       <path d="M 18.40625 4.796875 
C 18.40625 7.6875 16 9.6875 13.59375 9.6875 
C 10.703125 9.6875 8.703125 7.296875 8.703125 4.890625 
C 8.703125 2 11.09375 0 13.5 0 
C 16.40625 0 18.40625 2.390625 18.40625 4.796875 
z
" id="CMMI12-58"/>
       <path d="M 42 31.84375 
C 42 37.96875 41.90625 48.421875 37.703125 56.453125 
C 34 63.484375 28.09375 66 22.90625 66 
C 18.09375 66 12 63.78125 8.203125 56.5625 
C 4.203125 49.015625 3.796875 39.671875 3.796875 31.84375 
C 3.796875 26.109375 3.90625 17.375 7 9.734375 
C 11.296875 -0.609375 19 -2 22.90625 -2 
C 27.5 -2 34.5 -0.109375 38.59375 9.4375 
C 41.59375 16.375 42 24.5 42 31.84375 
z
M 22.90625 -0.40625 
C 16.5 -0.40625 12.703125 5.125 11.296875 12.75 
C 10.203125 18.6875 10.203125 27.328125 10.203125 32.953125 
C 10.203125 40.6875 10.203125 47.109375 11.5 53.234375 
C 13.40625 61.78125 19 64.390625 22.90625 64.390625 
C 27 64.390625 32.296875 61.671875 34.203125 53.4375 
C 35.5 47.71875 35.59375 40.984375 35.59375 32.953125 
C 35.59375 26.421875 35.59375 18.375 34.40625 12.453125 
C 32.296875 1.5 26.40625 -0.40625 22.90625 -0.40625 
z
" id="CMR17-48"/>
      </defs>
      <g transform="translate(37.730828 171.418498)scale(0.1 -0.1)">
       <use transform="scale(0.996264)" xlink:href="#CMR17-49"/>
       <use transform="translate(45.690477 0)scale(0.996264)" xlink:href="#CMMI12-58"/>
       <use transform="translate(72.787654 0)scale(0.996264)" xlink:href="#CMR17-48"/>
      </g>
     </g>
    </g>
    <g id="xtick_2">
     <g id="line2d_2">
      <g>
       <use style="stroke:#000000;stroke-width:0.8;" x="95.335537" xlink:href="#m9d2ebf41ef" y="157.5"/>
      </g>
     </g>
     <g id="text_2">
      <!-- $1.5$ -->
      <defs>
       <path d="M 11.40625 58.59375 
C 12.40625 58.1875 16.5 56.890625 20.703125 56.890625 
C 30 56.890625 35.09375 61.890625 38 64.6875 
C 38 65.484375 38 66 37.40625 66 
C 37.296875 66 37.09375 66 36.296875 65.59375 
C 32.796875 64.09375 28.703125 63 23.703125 63 
C 20.703125 63 16.203125 63.359375 11.296875 65.484375 
C 10.203125 66 10 66 9.90625 66 
C 9.40625 66 9.296875 65.890625 9.296875 63.90625 
L 9.296875 34.859375 
C 9.296875 33.015625 9.296875 32.5 10.296875 32.5 
C 10.796875 32.5 11 32.703125 11.5 33.421875 
C 14.703125 38.046875 19.09375 40 24.09375 40 
C 27.59375 40 35.09375 37.734375 35.09375 20.203125 
C 35.09375 16.984375 35.09375 11.1875 32.09375 6.59375 
C 29.59375 2.484375 25.703125 0.390625 21.40625 0.390625 
C 14.796875 0.390625 8.09375 4.984375 6.296875 12.6875 
C 6.703125 12.59375 7.5 12.390625 7.90625 12.390625 
C 9.203125 12.390625 11.703125 13.09375 11.703125 16.1875 
C 11.703125 18.890625 9.796875 20 7.90625 20 
C 5.59375 20 4.09375 18.59375 4.09375 15.796875 
C 4.09375 7.09375 11 -2 21.59375 -2 
C 31.90625 -2 41.703125 6.890625 41.703125 19.796875 
C 41.703125 32.09375 33.90625 41.59375 24.203125 41.59375 
C 19.09375 41.59375 14.796875 39.6875 11.40625 36 
z
" id="CMR17-53"/>
      </defs>
      <g transform="translate(88.970498 171.418498)scale(0.1 -0.1)">
       <use transform="scale(0.996264)" xlink:href="#CMR17-49"/>
       <use transform="translate(45.690477 0)scale(0.996264)" xlink:href="#CMMI12-58"/>
       <use transform="translate(72.787654 0)scale(0.996264)" xlink:href="#CMR17-53"/>
      </g>
     </g>
    </g>
    <g id="xtick_3">
     <g id="line2d_3">
      <g>
       <use style="stroke:#000000;stroke-width:0.8;" x="146.575207" xlink:href="#m9d2ebf41ef" y="157.5"/>
      </g>
     </g>
     <g id="text_3">
      <!-- $2.0$ -->
      <defs>
       <path d="M 41.703125 15.46875 
L 39.90625 15.46875 
C 38.90625 8.390625 38.09375 7.1875 37.703125 6.59375 
C 37.203125 5.796875 30 5.796875 28.59375 5.796875 
L 9.40625 5.796875 
C 13 9.6875 20 16.765625 28.5 24.9375 
C 34.59375 30.71875 41.703125 37.5 41.703125 47.390625 
C 41.703125 59.1875 32.296875 66 21.796875 66 
C 10.796875 66 4.09375 56.296875 4.09375 47.296875 
C 4.09375 43.390625 7 42.890625 8.203125 42.890625 
C 9.203125 42.890625 12.203125 43.484375 12.203125 46.984375 
C 12.203125 50.09375 9.59375 51 8.203125 51 
C 7.59375 51 7 50.890625 6.59375 50.6875 
C 8.5 59.1875 14.296875 63.390625 20.40625 63.390625 
C 29.09375 63.390625 34.796875 56.5 34.796875 47.390625 
C 34.796875 38.703125 29.703125 31.21875 24 24.734375 
L 4.09375 2.296875 
L 4.09375 0 
L 39.296875 0 
z
" id="CMR17-50"/>
      </defs>
      <g transform="translate(140.210167 171.418498)scale(0.1 -0.1)">
       <use transform="scale(0.996264)" xlink:href="#CMR17-50"/>
       <use transform="translate(45.690477 0)scale(0.996264)" xlink:href="#CMMI12-58"/>
       <use transform="translate(72.787654 0)scale(0.996264)" xlink:href="#CMR17-48"/>
      </g>
     </g>
    </g>
    <g id="xtick_4">
     <g id="line2d_4">
      <g>
       <use style="stroke:#000000;stroke-width:0.8;" x="197.814876" xlink:href="#m9d2ebf41ef" y="157.5"/>
      </g>
     </g>
     <g id="text_4">
      <!-- $2.5$ -->
      <g transform="translate(191.449837 171.418498)scale(0.1 -0.1)">
       <use transform="scale(0.996264)" xlink:href="#CMR17-50"/>
       <use transform="translate(45.690477 0)scale(0.996264)" xlink:href="#CMMI12-58"/>
       <use transform="translate(72.787654 0)scale(0.996264)" xlink:href="#CMR17-53"/>
      </g>
     </g>
    </g>
    <g id="xtick_5">
     <g id="line2d_5">
      <g>
       <use style="stroke:#000000;stroke-width:0.8;" x="249.054545" xlink:href="#m9d2ebf41ef" y="157.5"/>
      </g>
     </g>
     <g id="text_5">
      <!-- $3.0$ -->
      <defs>
       <path d="M 22.09375 34 
C 31 34 34.90625 26.140625 34.90625 17.09375 
C 34.90625 5.03125 28.5 0.390625 22.703125 0.390625 
C 17.40625 0.390625 8.796875 3.015625 6.09375 10.796875 
C 6.59375 10.59375 7.09375 10.59375 7.59375 10.59375 
C 10 10.59375 11.796875 12.1875 11.796875 14.796875 
C 11.796875 17.6875 9.59375 19 7.59375 19 
C 5.90625 19 3.296875 18.1875 3.296875 14.484375 
C 3.296875 5.234375 12.296875 -2 22.90625 -2 
C 34 -2 42.5 6.75 42.5 16.984375 
C 42.5 26.84375 34.5 34 25 35.09375 
C 32.59375 36.671875 39.90625 43.375 39.90625 52.390625 
C 39.90625 60.25 32 66 23 66 
C 13.90625 66 5.90625 60.34375 5.90625 52.296875 
C 5.90625 48.796875 8.5 48.1875 9.796875 48.1875 
C 11.90625 48.1875 13.703125 49.484375 13.703125 52.09375 
C 13.703125 54.6875 11.90625 56 9.796875 56 
C 9.40625 56 8.90625 56 8.5 55.796875 
C 11.40625 62.484375 19.296875 63.6875 22.796875 63.6875 
C 26.296875 63.6875 32.90625 61.96875 32.90625 52.296875 
C 32.90625 49.484375 32.5 44.546875 29.09375 40.21875 
C 26.09375 36.390625 22.703125 36.1875 19.40625 35.890625 
C 18.90625 35.890625 16.59375 35.6875 16.203125 35.6875 
C 15.5 35.59375 15.09375 35.5 15.09375 34.796875 
C 15.09375 34.09375 15.203125 34 17.203125 34 
z
" id="CMR17-51"/>
      </defs>
      <g transform="translate(242.689506 171.418498)scale(0.1 -0.1)">
       <use transform="scale(0.996264)" xlink:href="#CMR17-51"/>
       <use transform="translate(45.690477 0)scale(0.996264)" xlink:href="#CMMI12-58"/>
       <use transform="translate(72.787654 0)scale(0.996264)" xlink:href="#CMR17-48"/>
      </g>
     </g>
    </g>
    <g id="text_6">
     <!-- growth ratio, $\Theta$ -->
     <defs>
      <path d="M 44.5 44 
C 38.796875 43.890625 33.90625 42.796875 29.90625 40.890625 
C 26.59375 43.484375 23.203125 44 20.90625 44 
C 12.203125 44 5.59375 36.8125 5.59375 28.5 
C 5.59375 23.140625 8.59375 19.09375 8.796875 18.890625 
C 7 16.390625 6 13.6875 6 10.6875 
C 6 7.1875 7.40625 4.6875 8.5 3.296875 
C 3.296875 0.09375 2.59375 -4.8125 2.59375 -6.703125 
C 2.59375 -14 11.703125 -20 23.40625 -20 
C 35.203125 -20 44.296875 -14 44.296875 -6.609375 
C 44.296875 7.1875 29 7.296875 24.796875 7.296875 
L 16.703125 7.296875 
C 15.203125 7.296875 11.203125 7.296875 11.203125 12.390625 
C 11.203125 14.390625 12.09375 15.6875 12.203125 15.796875 
C 13.703125 14.6875 16.796875 13 20.90625 13 
C 29.203125 13 36.09375 19.984375 36.09375 28.5 
C 36.09375 33.25 33.90625 36.703125 33 37.890625 
L 33.296875 37.890625 
C 33.59375 37.890625 37.796875 38.1875 39.296875 38.1875 
C 42.5 38.1875 42.796875 38.09375 45.59375 37.796875 
z
M 20.90625 18.5 
C 17.5 18.5 12.703125 20.578125 12.703125 28.5 
C 12.703125 37.109375 18.203125 38.484375 20.796875 38.484375 
C 24.203125 38.484375 29 36.40625 29 28.5 
C 29 19.875 23.5 18.5 20.90625 18.5 
z
M 24.703125 0 
C 27.09375 0 37.203125 0 37.203125 -6.8125 
C 37.203125 -11.109375 31 -14.5 23.5 -14.5 
C 15.90625 -14.5 9.703125 -11.203125 9.703125 -6.703125 
C 9.703125 -6.203125 9.703125 0 16.59375 0 
z
" id="CMSS17-103"/>
      <path d="M 14.90625 21.390625 
C 14.90625 30.84375 21.796875 37.171875 30.59375 37.375 
L 30.59375 44 
C 24.203125 43.890625 18.203125 40.6875 14.59375 35.46875 
L 14.59375 43.484375 
L 7.5 43.484375 
L 7.5 0 
L 14.90625 0 
z
" id="CMSS17-114"/>
      <path d="M 44.203125 21.1875 
C 44.203125 33.984375 34.703125 44 23.5 44 
C 12 44 2.703125 33.6875 2.703125 21.1875 
C 2.703125 8.5 12.296875 -1 23.40625 -1 
C 34.796875 -1 44.203125 8.796875 44.203125 21.1875 
z
M 23.5 5.296875 
C 16.40625 5.296875 10.296875 11.09375 10.296875 21.984375 
C 10.296875 33.59375 17.40625 37.890625 23.40625 37.890625 
C 29.90625 37.890625 36.59375 33.1875 36.59375 21.984375 
C 36.59375 10.6875 30.09375 5.296875 23.5 5.296875 
z
" id="CMSS17-111"/>
      <path d="M 62.703125 43 
L 55.09375 43 
L 49.796875 25 
C 48.703125 21.1875 45.59375 10.6875 45.203125 5.796875 
L 45.09375 5.796875 
C 44.90625 8.796875 43.203125 16 40.40625 25.5 
L 35.296875 43 
L 28.40625 43 
L 23.40625 25.890625 
C 20.90625 17.1875 19 9.796875 18.796875 5.796875 
L 18.703125 5.796875 
C 18.296875 11.6875 14.203125 25.5 13.59375 27.6875 
L 9.09375 43 
L 1.296875 43 
L 14.296875 0 
L 21.90625 0 
C 27.09375 17.1875 31.09375 30.5 31.40625 37.1875 
C 31.59375 33.890625 33.296875 26.796875 34.296875 23.296875 
L 40.90625 0 
L 49.703125 0 
z
" id="CMSS17-119"/>
      <path d="M 16.703125 37.1875 
L 29.703125 37.1875 
L 29.703125 43 
L 16.703125 43 
L 16.703125 55 
L 9.59375 55 
L 9.59375 43 
L 1.703125 43 
L 1.703125 37.1875 
L 9.40625 37.1875 
L 9.40625 11.734375 
C 9.40625 6 10.703125 -1 17.296875 -1 
C 22.296875 -1 26.90625 0.390625 31.296875 2.6875 
L 29.703125 8.609375 
C 27.296875 6.5 24.40625 5.296875 21.296875 5.296875 
C 16.90625 5.296875 16.703125 10.921875 16.703125 13.4375 
z
" id="CMSS17-116"/>
      <path d="M 40.90625 29.34375 
C 40.90625 35.671875 39.40625 44 28.09375 44 
C 21.796875 44 17.703125 40.890625 14.796875 37.484375 
L 14.796875 69 
L 7.40625 69 
L 7.40625 0 
L 15 0 
L 15 24.3125 
C 15 30.65625 17.40625 37.890625 24.203125 37.890625 
C 33 37.890625 33.296875 31.953125 33.296875 28.53125 
L 33.296875 0 
L 40.90625 0 
z
" id="CMSS17-104"/>
      <path d="M 37.59375 27.953125 
C 37.59375 37.484375 30.90625 44 21.90625 44 
C 17.5 44 12.703125 43.1875 7.203125 39.984375 
L 7.796875 33.328125 
C 10.296875 35.15625 14.59375 38.09375 21.796875 38.09375 
C 26.90625 38.09375 30 34.140625 30 27.84375 
L 30 24 
C 14 23.5 4 18.890625 4 11.109375 
C 4 7.0625 6.5 -1 14.796875 -1 
C 16.296875 -1 24.40625 -0.8125 30.203125 3.5 
L 30.203125 -0.203125 
L 37.59375 -0.203125 
z
M 30 12.875 
C 30 11.109375 30 8.734375 27 6.96875 
C 24.40625 5.296875 21.09375 5.09375 19.703125 5.09375 
C 14.703125 5.09375 11.296875 7.859375 11.296875 11.296875 
C 11.296875 18.203125 26.90625 18.890625 30 19 
z
" id="CMSS17-97"/>
      <path d="M 15.296875 66 
L 6.90625 66 
L 6.90625 57.59375 
L 15.296875 57.59375 
z
M 14.796875 43 
L 7.40625 43 
L 7.40625 0 
L 14.796875 0 
z
" id="CMSS17-105"/>
      <path d="M 17 0.09375 
L 17 8 
L 9 8 
L 9 0 
L 11.5 0 
L 8.90625 -12.109375 
L 12.90625 -12.109375 
z
" id="CMSS17-44"/>
      <path d="M 67.296875 33.984375 
C 67.296875 54.546875 52.59375 70 36 70 
C 19 70 4.59375 54.34375 4.59375 33.984375 
C 4.59375 13.46875 19.203125 -2 35.90625 -2 
C 53 -2 67.296875 13.765625 67.296875 33.984375 
z
M 36 -0.3125 
C 24.59375 -0.3125 11.90625 10.625 11.90625 33.984375 
C 11.90625 57.859375 25 68.390625 35.90625 68.390625 
C 47.203125 68.390625 60 57.5625 60 33.984375 
C 60 10.328125 47 -0.3125 36 -0.3125 
z
M 54.703125 40.40625 
L 52.90625 40.40625 
L 52.90625 37 
L 19 37 
L 19 40.40625 
L 17.203125 40.40625 
L 17.203125 27.953125 
L 19 27.953125 
L 19 31.390625 
L 52.90625 31.390625 
L 52.90625 27.953125 
L 54.703125 27.953125 
z
" id="CMR17-2"/>
     </defs>
     <g transform="translate(100.02289 187.733401)scale(0.15 -0.15)">
      <use transform="scale(0.996264)" xlink:href="#CMSS17-103"/>
      <use transform="translate(46.843624 0)scale(0.996264)" xlink:href="#CMSS17-114"/>
      <use transform="translate(78.753396 0)scale(0.996264)" xlink:href="#CMSS17-111"/>
      <use transform="translate(122.994566 0)scale(0.996264)" xlink:href="#CMSS17-119"/>
      <use transform="translate(186.814111 0)scale(0.996264)" xlink:href="#CMSS17-116"/>
      <use transform="translate(220.645677 0)scale(0.996264)" xlink:href="#CMSS17-104"/>
      <use transform="translate(300.079733 0)scale(0.996264)" xlink:href="#CMSS17-114"/>
      <use transform="translate(331.989506 0)scale(0.996264)" xlink:href="#CMSS17-97"/>
      <use transform="translate(376.911427 0)scale(0.996264)" xlink:href="#CMSS17-116"/>
      <use transform="translate(410.742993 0)scale(0.996264)" xlink:href="#CMSS17-105"/>
      <use transform="translate(432.923716 0)scale(0.996264)" xlink:href="#CMSS17-111"/>
      <use transform="translate(479.76734 0)scale(0.996264)" xlink:href="#CMSS17-44"/>
      <use transform="translate(537.020657 0)scale(0.996264)" xlink:href="#CMR17-2"/>
     </g>
    </g>
   </g>
   <g id="matplotlib.axis_2">
    <g id="ytick_1">
     <g id="line2d_6">
      <defs>
       <path d="M 0 0 
L -3.5 0 
" id="mf29370c832" style="stroke:#000000;stroke-width:0.8;"/>
      </defs>
      <g>
       <use style="stroke:#000000;stroke-width:0.8;" x="36" xlink:href="#mf29370c832" y="157.5"/>
      </g>
     </g>
     <g id="text_7">
      <!-- $0$ -->
      <g transform="translate(24.018665 160.959249)scale(0.1 -0.1)">
       <use transform="scale(0.996264)" xlink:href="#CMR17-48"/>
      </g>
     </g>
    </g>
    <g id="ytick_2">
     <g id="line2d_7">
      <g>
       <use style="stroke:#000000;stroke-width:0.8;" x="36" xlink:href="#mf29370c832" y="130.32"/>
      </g>
     </g>
     <g id="text_8">
      <!-- $20$ -->
      <g transform="translate(19.037329 133.779249)scale(0.1 -0.1)">
       <use transform="scale(0.996264)" xlink:href="#CMR17-50"/>
       <use transform="translate(45.690477 0)scale(0.996264)" xlink:href="#CMR17-48"/>
      </g>
     </g>
    </g>
    <g id="ytick_3">
     <g id="line2d_8">
      <g>
       <use style="stroke:#000000;stroke-width:0.8;" x="36" xlink:href="#mf29370c832" y="103.14"/>
      </g>
     </g>
     <g id="text_9">
      <!-- $40$ -->
      <defs>
       <path d="M 33.59375 64.796875 
C 33.59375 66.890625 33.5 67 31.703125 67 
L 2 19.59375 
L 2 17 
L 27.796875 17 
L 27.796875 7.1875 
C 27.796875 3.59375 27.59375 2.59375 20.59375 2.59375 
L 18.703125 2.59375 
L 18.703125 0 
C 21.90625 0.1875 27.296875 0.1875 30.703125 0.1875 
C 34.09375 0.1875 39.5 0.1875 42.703125 0 
L 42.703125 2.59375 
L 40.796875 2.59375 
C 33.796875 2.59375 33.59375 3.59375 33.59375 7.1875 
L 33.59375 17 
L 43.796875 17 
L 43.796875 19.59375 
L 33.59375 19.59375 
z
M 28.09375 58.171875 
L 28.09375 19.59375 
L 4 19.59375 
z
" id="CMR17-52"/>
      </defs>
      <g transform="translate(19.037329 106.599249)scale(0.1 -0.1)">
       <use transform="scale(0.996264)" xlink:href="#CMR17-52"/>
       <use transform="translate(45.690477 0)scale(0.996264)" xlink:href="#CMR17-48"/>
      </g>
     </g>
    </g>
    <g id="ytick_4">
     <g id="line2d_9">
      <g>
       <use style="stroke:#000000;stroke-width:0.8;" x="36" xlink:href="#mf29370c832" y="75.96"/>
      </g>
     </g>
     <g id="text_10">
      <!-- $60$ -->
      <defs>
       <path d="M 10.59375 34.34375 
C 10.59375 58 21.796875 63.6875 28.296875 63.6875 
C 30.40625 63.6875 35.5 63.265625 37.5 59.09375 
C 35.90625 59.09375 32.90625 59.09375 32.90625 55.59375 
C 32.90625 52.890625 35.09375 52 36.5 52 
C 37.40625 52 40.09375 52.390625 40.09375 55.796875 
C 40.09375 62.296875 35.09375 66 28.203125 66 
C 16.296875 66 3.796875 53.296875 3.796875 31.421875 
C 3.796875 4.015625 15.09375 -2 23.09375 -2 
C 32.796875 -2 42 6.734375 42 20.234375 
C 42 32.828125 33.90625 42 23.703125 42 
C 17.59375 42 13.09375 37.96875 10.59375 30.921875 
z
M 23.09375 0.390625 
C 10.796875 0.390625 10.796875 18.9375 10.796875 22.65625 
C 10.796875 29.90625 14.203125 40.390625 23.5 40.390625 
C 25.203125 40.390625 30.09375 40.390625 33.40625 33.4375 
C 35.203125 29.515625 35.203125 25.375 35.203125 20.34375 
C 35.203125 14.90625 35.203125 10.875 33.09375 6.84375 
C 30.90625 2.703125 27.703125 0.390625 23.09375 0.390625 
z
" id="CMR17-54"/>
      </defs>
      <g transform="translate(19.037329 79.419249)scale(0.1 -0.1)">
       <use transform="scale(0.996264)" xlink:href="#CMR17-54"/>
       <use transform="translate(45.690477 0)scale(0.996264)" xlink:href="#CMR17-48"/>
      </g>
     </g>
    </g>
    <g id="ytick_5">
     <g id="line2d_10">
      <g>
       <use style="stroke:#000000;stroke-width:0.8;" x="36" xlink:href="#mf29370c832" y="48.78"/>
      </g>
     </g>
     <g id="text_11">
      <!-- $80$ -->
      <defs>
       <path d="M 27.203125 35.765625 
C 33.5 38.96875 39.90625 43.796875 39.90625 51.53125 
C 39.90625 60.6875 31.09375 66 23 66 
C 13.90625 66 5.90625 59.375 5.90625 50.234375 
C 5.90625 47.71875 6.5 43.390625 10.40625 39.578125 
C 11.40625 38.578125 15.59375 35.5625 18.296875 33.65625 
C 13.796875 31.34375 3.296875 25.8125 3.296875 14.765625 
C 3.296875 4.40625 13.09375 -2 22.796875 -2 
C 33.5 -2 42.5 5.71875 42.5 15.96875 
C 42.5 25.109375 36.40625 29.328125 32.40625 32.046875 
z
M 14.09375 44.609375 
C 13.296875 45.109375 9.296875 48.21875 9.296875 52.9375 
C 9.296875 59.078125 15.59375 63.6875 22.796875 63.6875 
C 30.703125 63.6875 36.5 58.0625 36.5 51.53125 
C 36.5 42.1875 26.09375 36.859375 25.59375 36.859375 
C 25.5 36.859375 25.40625 36.859375 24.59375 37.46875 
z
M 32.5 24 
C 34 22.90625 38.796875 19.578125 38.796875 13.453125 
C 38.796875 6.015625 31.40625 0.390625 23 0.390625 
C 13.90625 0.390625 7 6.921875 7 14.859375 
C 7 22.796875 13.09375 29.4375 20 32.546875 
z
" id="CMR17-56"/>
      </defs>
      <g transform="translate(19.037329 52.239249)scale(0.1 -0.1)">
       <use transform="scale(0.996264)" xlink:href="#CMR17-56"/>
       <use transform="translate(45.690477 0)scale(0.996264)" xlink:href="#CMR17-48"/>
      </g>
     </g>
    </g>
    <g id="ytick_6">
     <g id="line2d_11">
      <g>
       <use style="stroke:#000000;stroke-width:0.8;" x="36" xlink:href="#mf29370c832" y="21.6"/>
      </g>
     </g>
     <g id="text_12">
      <!-- $100$ -->
      <g transform="translate(14.055994 25.059249)scale(0.1 -0.1)">
       <use transform="scale(0.996264)" xlink:href="#CMR17-49"/>
       <use transform="translate(45.690477 0)scale(0.996264)" xlink:href="#CMR17-48"/>
       <use transform="translate(91.380954 0)scale(0.996264)" xlink:href="#CMR17-48"/>
      </g>
     </g>
    </g>
    <g id="text_13">
     <!-- Memory -->
     <defs>
      <path d="M 49.90625 37.078125 
L 45.09375 23.0625 
C 44.296875 20.484375 41.59375 12.421875 41 9.25 
L 40.90625 9.25 
C 40.59375 11.234375 40 13.328125 38.40625 18.390625 
C 37.5 21.375 36.5 24.453125 35.5 27.234375 
L 20.703125 69 
L 9 69 
L 9 0 
L 16.796875 0 
L 16.796875 60.921875 
L 16.90625 60.921875 
C 16.90625 60.828125 17.796875 56.453125 23.90625 39.0625 
L 37.09375 1.59375 
L 44.5 1.59375 
L 56.40625 34.890625 
C 57.203125 37.171875 59.703125 44.421875 60.796875 47.90625 
C 61.796875 50.890625 64.296875 58.25 64.90625 61.125 
L 65 61.125 
L 65 0 
L 72.90625 0 
L 72.90625 69 
L 61.296875 69 
z
" id="CMSS17-77"/>
      <path d="M 39.09375 21.484375 
C 39.09375 24.796875 38.90625 31.265625 35.703125 36.671875 
C 32.203125 42.390625 26.5 44 22.203125 44 
C 11.796875 44 3 34.125 3 21.296875 
C 3 9.046875 12.09375 -1 23.59375 -1 
C 28.09375 -1 33.59375 0.296875 38.59375 3.890625 
C 38.59375 4.296875 38.40625 6.46875 38.296875 6.578125 
C 38.296875 6.765625 38 9.828125 38 10.234375 
C 33.203125 6.375 27.703125 5.09375 23.703125 5.09375 
C 17.296875 5.09375 10.40625 10.421875 10.09375 21.484375 
z
M 10.90625 27 
C 12.203125 32.59375 16.59375 37.890625 22.203125 37.890625 
C 23.703125 37.890625 30.703125 37.6875 32.5 27 
z
" id="CMSS17-101"/>
      <path d="M 67 29.34375 
C 67 36.078125 65.296875 44 54.09375 44 
C 46.59375 44 42.09375 39.296875 40.09375 36.375 
C 38.296875 41.6875 34.09375 44 28.09375 44 
C 21.296875 44 17 40.09375 14.703125 37.28125 
L 14.703125 43.484375 
L 7.40625 43.484375 
L 7.40625 0 
L 15 0 
L 15 24.3125 
C 15 30.25 17.203125 37.890625 24.296875 37.890625 
C 33.40625 37.890625 33.40625 31.453125 33.40625 28.53125 
L 33.40625 0 
L 41 0 
L 41 24.3125 
C 41 30.25 43.203125 37.890625 50.296875 37.890625 
C 59.40625 37.890625 59.40625 31.453125 59.40625 28.53125 
L 59.40625 0 
L 67 0 
z
" id="CMSS17-109"/>
      <path d="M 41.796875 43 
L 34 43 
C 25.5 20.203125 22.59375 10.953125 22.40625 5.984375 
L 22.296875 5.984375 
C 22 10.859375 17.59375 22.796875 14.09375 31.34375 
L 9.40625 43 
L 1.296875 43 
L 19 0.21875 
C 17.90625 -2.765625 16.296875 -7.25 15.796875 -8.234375 
C 13.59375 -13.8125 12.09375 -13.8125 10.5 -13.8125 
C 10.09375 -13.8125 6.90625 -13.703125 3.296875 -12.609375 
L 3.90625 -19.203125 
C 6.40625 -19.703125 8.90625 -20 10.703125 -20 
C 13.203125 -20 18.203125 -20 22.796875 -7.734375 
z
" id="CMSS17-121"/>
     </defs>
     <g transform="translate(7.15025 114.222812)rotate(-90)scale(0.15 -0.15)">
      <use transform="scale(0.996264)" xlink:href="#CMSS17-77"/>
      <use transform="translate(81.67603 0)scale(0.996264)" xlink:href="#CMSS17-101"/>
      <use transform="translate(123.314852 0)scale(0.996264)" xlink:href="#CMSS17-109"/>
      <use transform="translate(197.544106 0)scale(0.996264)" xlink:href="#CMSS17-111"/>
      <use transform="translate(241.785276 0)scale(0.996264)" xlink:href="#CMSS17-114"/>
      <use transform="translate(273.695049 0)scale(0.996264)" xlink:href="#CMSS17-121"/>
     </g>
    </g>
   </g>
   <g id="line2d_12">
    <path clip-path="url(#pb9a2746e2b)" d="M 46.145455 157.223381 
L 48.195041 156.739552 
L 50.244628 156.220764 
L 52.294215 155.690124 
L 54.343802 155.128465 
L 56.393388 154.608556 
L 58.442975 154.058884 
L 60.492562 153.482017 
L 62.542149 152.966334 
L 64.591736 152.432384 
L 66.641322 151.851779 
L 68.690909 151.349742 
L 70.740496 150.825568 
L 72.790083 150.264588 
L 74.839669 149.696447 
L 76.889256 149.190395 
L 78.938843 148.63412 
L 80.98843 148.158848 
L 83.038017 147.604944 
L 85.087603 147.061407 
L 87.13719 146.543813 
L 89.186777 146.023544 
L 91.236364 145.564143 
L 93.28595 145.063538 
L 95.335537 144.57556 
L 97.385124 144.000054 
L 99.434711 143.503049 
L 101.484298 142.938919 
L 103.533884 142.443004 
L 105.583471 141.879948 
L 107.633058 141.494959 
L 109.682645 140.945441 
L 111.732231 140.469422 
L 113.781818 139.878208 
L 115.831405 139.5357 
L 117.880992 138.913544 
L 119.930579 138.478866 
L 121.980165 137.988447 
L 124.029752 137.479833 
L 126.079339 136.95477 
L 128.128926 136.555388 
L 130.178512 136.118418 
L 132.228099 135.514522 
L 134.277686 135.127117 
L 136.327273 134.664458 
L 138.37686 134.163276 
L 140.426446 133.653558 
L 142.476033 133.087902 
L 144.52562 132.766344 
L 146.575207 132.62258 
L 148.624793 131.860376 
L 150.67438 131.455178 
L 152.723967 130.933856 
L 154.773554 130.296709 
L 156.82314 130.042699 
L 158.872727 129.494001 
L 160.922314 128.919201 
L 162.971901 128.677933 
L 165.021488 128.190805 
L 167.071074 127.598503 
L 169.120661 127.10816 
L 171.170248 126.971402 
L 173.219835 126.349394 
L 175.269421 125.866324 
L 177.319008 125.359342 
L 179.368595 124.913015 
L 181.418182 124.377114 
L 183.467769 124.363768 
L 185.517355 123.829269 
L 187.566942 123.202887 
L 189.616529 122.73174 
L 191.666116 122.148824 
L 193.715702 121.71578 
L 195.765289 121.385911 
L 197.814876 121.02373 
L 199.864463 120.736511 
L 201.91405 120.066457 
L 203.963636 119.363059 
L 206.013223 119.311701 
L 208.06281 118.717866 
L 210.112397 118.220602 
L 212.161983 117.774028 
L 214.21157 117.417109 
L 216.261157 117.105762 
L 218.310744 116.621537 
L 220.360331 116.18526 
L 222.409917 115.697848 
L 224.459504 115.50791 
L 226.509091 114.790607 
L 228.558678 114.220295 
L 230.608264 113.889477 
L 232.657851 113.450739 
L 234.707438 113.12042 
L 236.757025 112.547702 
L 238.806612 112.318214 
L 240.856198 111.715265 
L 242.905785 111.372222 
L 244.955372 110.614341 
L 247.004959 110.337799 
L 249.054545 110.755346 
" style="fill:none;stroke:#0000ff;stroke-linecap:square;stroke-opacity:0.5;stroke-width:2;"/>
   </g>
   <g id="line2d_13">
    <path clip-path="url(#pb9a2746e2b)" d="M 86.046992 -1 
L 87.13719 2.240828 
L 89.186777 8.815494 
L 91.236364 11.073642 
L 93.28595 16.214213 
L 95.335537 20.767287 
L 97.385124 25.358774 
L 99.434711 30.192622 
L 101.484298 33.991534 
L 103.533884 37.735584 
L 105.583471 40.204229 
L 107.633058 43.320412 
L 109.682645 46.482851 
L 111.732231 49.686768 
L 113.781818 52.390303 
L 115.831405 54.46437 
L 117.880992 56.405908 
L 119.930579 57.78035 
L 121.980165 60.320072 
L 124.029752 62.070154 
L 126.079339 64.313001 
L 128.128926 65.929697 
L 130.178512 67.253718 
L 132.228099 69.347326 
L 134.277686 71.004384 
L 136.327273 72.537783 
L 138.37686 73.480029 
L 140.426446 74.940226 
L 142.476033 76.862151 
L 144.52562 78.208082 
L 146.575207 75.419247 
L 148.624793 76.982934 
L 150.67438 78.204629 
L 152.723967 79.337851 
L 154.773554 80.921895 
L 156.82314 81.508415 
L 158.872727 82.554822 
L 160.922314 84.005242 
L 162.971901 84.48526 
L 165.021488 85.556757 
L 167.071074 86.552391 
L 169.120661 87.589955 
L 171.170248 87.200532 
L 173.219835 88.170368 
L 175.269421 89.149008 
L 177.319008 89.76565 
L 179.368595 90.698068 
L 181.418182 91.667686 
L 183.467769 92.034006 
L 185.517355 92.941438 
L 187.566942 93.799003 
L 189.616529 94.097519 
L 191.666116 94.967009 
L 193.715702 94.971155 
L 195.765289 95.334324 
L 197.814876 96.1427 
L 199.864463 96.585548 
L 201.91405 97.290049 
L 203.963636 97.972806 
L 206.013223 98.422937 
L 208.06281 99.151513 
L 210.112397 99.865945 
L 212.161983 100.188467 
L 214.21157 100.088234 
L 216.261157 100.45488 
L 218.310744 101.123282 
L 220.360331 101.400443 
L 222.409917 102.101103 
L 224.459504 102.510299 
L 226.509091 103.084732 
L 228.558678 103.679898 
L 230.608264 103.975624 
L 232.657851 103.799382 
L 234.707438 104.158839 
L 236.757025 104.741474 
L 238.806612 105.095879 
L 240.856198 105.639286 
L 242.905785 105.923668 
L 244.955372 106.405634 
L 247.004959 106.756544 
L 249.054545 105.483452 
" style="fill:none;stroke:#ff0000;stroke-linecap:square;stroke-opacity:0.5;stroke-width:2;"/>
   </g>
   <g id="line2d_14">
    <path clip-path="url(#pb9a2746e2b)" d="M 46.145455 156.917112 
L 48.195041 156.337919 
L 50.244628 155.762314 
L 52.294215 155.190197 
L 54.343802 154.621473 
L 56.393388 154.056047 
L 58.442975 153.493835 
L 60.492562 152.93475 
L 62.542149 152.378713 
L 64.591736 151.825648 
L 66.641322 151.275481 
L 68.690909 150.72814 
L 70.740496 150.18356 
L 72.790083 149.641674 
L 74.839669 149.10242 
L 76.889256 148.565738 
L 78.938843 148.031571 
L 80.98843 147.499863 
L 83.038017 146.97056 
L 85.087603 146.44361 
L 87.13719 145.918965 
L 89.186777 145.396576 
L 91.236364 144.876397 
L 93.28595 144.358383 
L 95.335537 143.842491 
L 97.385124 143.328679 
L 99.434711 142.816907 
L 101.484298 142.307136 
L 103.533884 141.799328 
L 105.583471 141.293446 
L 107.633058 140.789455 
L 109.682645 140.28732 
L 111.732231 139.787009 
L 113.781818 139.288489 
L 115.831405 138.791728 
L 117.880992 138.296696 
L 119.930579 137.803364 
L 121.980165 137.311703 
L 124.029752 136.821685 
L 126.079339 136.333283 
L 128.128926 135.84647 
L 130.178512 135.361222 
L 132.228099 134.877512 
L 134.277686 134.395317 
L 136.327273 133.914613 
L 138.37686 133.435378 
L 140.426446 132.957588 
L 142.476033 132.481222 
L 144.52562 132.006259 
L 146.575207 131.532678 
L 148.624793 131.060459 
L 150.67438 130.589582 
L 152.723967 130.120027 
L 154.773554 129.651777 
L 156.82314 129.184812 
L 158.872727 128.719116 
L 160.922314 128.254669 
L 162.971901 127.791456 
L 165.021488 127.32946 
L 167.071074 126.868664 
L 169.120661 126.409053 
L 171.170248 125.95061 
L 173.219835 125.493321 
L 175.269421 125.037171 
L 177.319008 124.582146 
L 179.368595 124.12823 
L 181.418182 123.675411 
L 183.467769 123.223674 
L 185.517355 122.773006 
L 187.566942 122.323395 
L 189.616529 121.874827 
L 191.666116 121.427289 
L 193.715702 120.98077 
L 195.765289 120.535257 
L 197.814876 120.090739 
L 199.864463 119.647205 
L 201.91405 119.204642 
L 203.963636 118.763039 
L 206.013223 118.322387 
L 208.06281 117.882673 
L 210.112397 117.443889 
L 212.161983 117.006022 
L 214.21157 116.569064 
L 216.261157 116.133004 
L 218.310744 115.697833 
L 220.360331 115.263541 
L 222.409917 114.830119 
L 224.459504 114.397557 
L 226.509091 113.965847 
L 228.558678 113.534979 
L 230.608264 113.104946 
L 232.657851 112.675738 
L 234.707438 112.247347 
L 236.757025 111.819764 
L 238.806612 111.392983 
L 240.856198 110.966993 
L 242.905785 110.541789 
L 244.955372 110.117362 
L 247.004959 109.693704 
L 249.054545 109.270809 
" style="fill:none;stroke:#000000;stroke-linecap:square;stroke-opacity:0.5;stroke-width:2;"/>
    <defs>
     <path d="M 0 4.242641 
L 2.545584 0 
L 0 -4.242641 
L -2.545584 0 
z
" id="m33d24d8c81" style="stroke:#000000;stroke-linejoin:miter;stroke-opacity:0.5;"/>
    </defs>
    <g clip-path="url(#pb9a2746e2b)">
     <use style="fill-opacity:0.5;stroke:#000000;stroke-linejoin:miter;stroke-opacity:0.5;" x="46.145455" xlink:href="#m33d24d8c81" y="156.917112"/>
     <use style="fill-opacity:0.5;stroke:#000000;stroke-linejoin:miter;stroke-opacity:0.5;" x="66.641322" xlink:href="#m33d24d8c81" y="151.275481"/>
     <use style="fill-opacity:0.5;stroke:#000000;stroke-linejoin:miter;stroke-opacity:0.5;" x="87.13719" xlink:href="#m33d24d8c81" y="145.918965"/>
     <use style="fill-opacity:0.5;stroke:#000000;stroke-linejoin:miter;stroke-opacity:0.5;" x="107.633058" xlink:href="#m33d24d8c81" y="140.789455"/>
     <use style="fill-opacity:0.5;stroke:#000000;stroke-linejoin:miter;stroke-opacity:0.5;" x="128.128926" xlink:href="#m33d24d8c81" y="135.84647"/>
     <use style="fill-opacity:0.5;stroke:#000000;stroke-linejoin:miter;stroke-opacity:0.5;" x="148.624793" xlink:href="#m33d24d8c81" y="131.060459"/>
     <use style="fill-opacity:0.5;stroke:#000000;stroke-linejoin:miter;stroke-opacity:0.5;" x="169.120661" xlink:href="#m33d24d8c81" y="126.409053"/>
     <use style="fill-opacity:0.5;stroke:#000000;stroke-linejoin:miter;stroke-opacity:0.5;" x="189.616529" xlink:href="#m33d24d8c81" y="121.874827"/>
     <use style="fill-opacity:0.5;stroke:#000000;stroke-linejoin:miter;stroke-opacity:0.5;" x="210.112397" xlink:href="#m33d24d8c81" y="117.443889"/>
     <use style="fill-opacity:0.5;stroke:#000000;stroke-linejoin:miter;stroke-opacity:0.5;" x="230.608264" xlink:href="#m33d24d8c81" y="113.104946"/>
    </g>
   </g>
   <g id="line2d_15">
    <path clip-path="url(#pb9a2746e2b)" d="M 88.800306 -1 
L 89.186777 0.178077 
L 91.236364 5.887336 
L 93.28595 11.125335 
L 95.335537 15.948537 
L 97.385124 20.404724 
L 99.434711 24.534601 
L 101.484298 28.37306 
L 103.533884 31.950181 
L 105.583471 35.292039 
L 107.633058 38.421342 
L 109.682645 41.357965 
L 111.732231 44.119373 
L 113.781818 46.720979 
L 115.831405 49.176436 
L 117.880992 51.49788 
L 119.930579 53.696137 
L 121.980165 55.780895 
L 124.029752 57.760849 
L 126.079339 59.643825 
L 128.128926 61.436887 
L 130.178512 63.146427 
L 132.228099 64.778243 
L 134.277686 66.337607 
L 136.327273 67.829323 
L 138.37686 69.257777 
L 140.426446 70.626985 
L 142.476033 71.940625 
L 144.52562 73.202078 
L 146.575207 74.414456 
L 148.624793 75.580624 
L 150.67438 76.70323 
L 152.723967 77.784721 
L 154.773554 78.827365 
L 156.82314 79.833263 
L 158.872727 80.804369 
L 160.922314 81.742497 
L 162.971901 82.649339 
L 165.021488 83.526472 
L 167.071074 84.375368 
L 169.120661 85.197402 
L 171.170248 85.993861 
L 173.219835 86.765951 
L 175.269421 87.514804 
L 177.319008 88.241479 
L 179.368595 88.946975 
L 181.418182 89.63223 
L 183.467769 90.298126 
L 185.517355 90.945495 
L 187.566942 91.575123 
L 189.616529 92.187749 
L 191.666116 92.784074 
L 193.715702 93.364758 
L 195.765289 93.930429 
L 197.814876 94.481678 
L 199.864463 95.019067 
L 201.91405 95.543129 
L 203.963636 96.05437 
L 206.013223 96.553268 
L 208.06281 97.040282 
L 210.112397 97.515843 
L 212.161983 97.980366 
L 214.21157 98.434242 
L 216.261157 98.877846 
L 218.310744 99.311536 
L 220.360331 99.73565 
L 222.409917 100.150515 
L 224.459504 100.55644 
L 226.509091 100.953721 
L 228.558678 101.342643 
L 230.608264 101.723474 
L 232.657851 102.096476 
L 234.707438 102.461895 
L 236.757025 102.819969 
L 238.806612 103.170926 
L 240.856198 103.514985 
L 242.905785 103.852354 
L 244.955372 104.183234 
L 247.004959 104.507819 
L 249.054545 104.826293 
" style="fill:none;stroke:#000000;stroke-linecap:square;stroke-opacity:0.5;stroke-width:2;"/>
    <defs>
     <path d="M 0 3 
C 0.795609 3 1.55874 2.683901 2.12132 2.12132 
C 2.683901 1.55874 3 0.795609 3 0 
C 3 -0.795609 2.683901 -1.55874 2.12132 -2.12132 
C 1.55874 -2.683901 0.795609 -3 0 -3 
C -0.795609 -3 -1.55874 -2.683901 -2.12132 -2.12132 
C -2.683901 -1.55874 -3 -0.795609 -3 0 
C -3 0.795609 -2.683901 1.55874 -2.12132 2.12132 
C -1.55874 2.683901 -0.795609 3 0 3 
z
" id="ma23b7871ba" style="stroke:#000000;stroke-opacity:0.5;"/>
    </defs>
    <g clip-path="url(#pb9a2746e2b)">
     <use style="fill-opacity:0.5;stroke:#000000;stroke-opacity:0.5;" x="89.472653" xlink:href="#ma23b7871ba" y="-1"/>
     <use style="fill-opacity:0.5;stroke:#000000;stroke-opacity:0.5;" x="107.633058" xlink:href="#ma23b7871ba" y="38.421342"/>
     <use style="fill-opacity:0.5;stroke:#000000;stroke-opacity:0.5;" x="128.128926" xlink:href="#ma23b7871ba" y="61.436887"/>
     <use style="fill-opacity:0.5;stroke:#000000;stroke-opacity:0.5;" x="148.624793" xlink:href="#ma23b7871ba" y="75.580624"/>
     <use style="fill-opacity:0.5;stroke:#000000;stroke-opacity:0.5;" x="169.120661" xlink:href="#ma23b7871ba" y="85.197402"/>
     <use style="fill-opacity:0.5;stroke:#000000;stroke-opacity:0.5;" x="189.616529" xlink:href="#ma23b7871ba" y="92.187749"/>
     <use style="fill-opacity:0.5;stroke:#000000;stroke-opacity:0.5;" x="210.112397" xlink:href="#ma23b7871ba" y="97.515843"/>
     <use style="fill-opacity:0.5;stroke:#000000;stroke-opacity:0.5;" x="230.608264" xlink:href="#ma23b7871ba" y="101.723474"/>
    </g>
   </g>
   <g id="patch_3">
    <path d="M 36 157.5 
L 36 21.6 
" style="fill:none;stroke:#000000;stroke-linecap:square;stroke-linejoin:miter;stroke-width:0.8;"/>
   </g>
   <g id="patch_4">
    <path d="M 259.2 157.5 
L 259.2 21.6 
" style="fill:none;stroke:#000000;stroke-linecap:square;stroke-linejoin:miter;stroke-width:0.8;"/>
   </g>
   <g id="patch_5">
    <path d="M 36 157.5 
L 259.2 157.5 
" style="fill:none;stroke:#000000;stroke-linecap:square;stroke-linejoin:miter;stroke-width:0.8;"/>
   </g>
   <g id="patch_6">
    <path d="M 36 21.6 
L 259.2 21.6 
" style="fill:none;stroke:#000000;stroke-linecap:square;stroke-linejoin:miter;stroke-width:0.8;"/>
   </g>
   <g id="legend_1">
    <g id="patch_7">
     <path d="M 44.4 124.799192 
L 149.172517 124.799192 
Q 151.572517 124.799192 151.572517 122.399192 
L 151.572517 56.700808 
Q 151.572517 54.300808 149.172517 54.300808 
L 44.4 54.300808 
Q 42 54.300808 42 56.700808 
L 42 122.399192 
Q 42 124.799192 44.4 124.799192 
z
" style="fill:#ffffff;opacity:0.8;stroke:#cccccc;stroke-linejoin:miter;"/>
    </g>
    <g id="line2d_16">
     <path d="M 46.8 63.300808 
L 70.8 63.300808 
" style="fill:none;stroke:#0000ff;stroke-linecap:square;stroke-opacity:0.5;stroke-width:2;"/>
    </g>
    <g id="line2d_17"/>
    <g id="text_14">
     <!-- simulated \textit{UN} -->
     <defs>
      <path d="M 32.203125 40.984375 
C 26.296875 43.796875 21.703125 44 18.703125 44 
C 11.59375 44 3.09375 41.484375 3.09375 31.390625 
C 3.09375 21.296875 14.09375 19.09375 17.09375 18.484375 
C 21.703125 17.59375 26.796875 16.59375 26.796875 11.59375 
C 26.796875 5.296875 19.59375 5.296875 18.296875 5.296875 
C 14.296875 5.296875 8.796875 6.390625 3.796875 9.984375 
L 2.59375 3.296875 
C 8.296875 0 13.796875 -1 18.40625 -1 
C 30.703125 -1 33.796875 6.5 33.796875 12.1875 
C 33.796875 17.09375 31 20.390625 29.09375 21.890625 
C 25.796875 24.484375 24.59375 24.796875 16.40625 26.484375 
C 15 26.6875 10.09375 27.796875 10.09375 32.296875 
C 10.09375 37.984375 16.40625 37.984375 17.796875 37.984375 
C 24.296875 37.984375 28.296875 35.984375 31 34.484375 
z
" id="CMSS17-115"/>
      <path d="M 40.90625 43 
L 33.296875 43 
L 33.296875 15.25 
C 33.296875 7.8125 27.90625 4.796875 22.203125 4.796875 
C 15.59375 4.796875 15 7 15 11.125 
L 15 43 
L 7.40625 43 
L 7.40625 10.625 
C 7.40625 2.796875 10.09375 -1 17 -1 
C 20.40625 -1 28.09375 -0.203125 33.5 4.796875 
L 33.5 -0.203125 
L 40.90625 -0.203125 
z
" id="CMSS17-117"/>
      <path d="M 14.796875 69 
L 7.40625 69 
L 7.40625 0 
L 14.796875 0 
z
" id="CMSS17-108"/>
      <path d="M 40.796875 69 
L 33.40625 69 
L 33.40625 38.984375 
C 30.296875 41.59375 25.203125 44 19.59375 44 
C 10.5 44 3.296875 34.046875 3.296875 21.484375 
C 3.296875 8.9375 10.40625 -1 19.296875 -1 
C 26.203125 -1 30.796875 2.6875 33.203125 4.796875 
L 33.203125 -0.203125 
L 40.796875 -0.203125 
z
M 33.203125 13.296875 
C 33.203125 11.875 33.203125 10.359375 30.09375 7.625 
C 28.09375 5.90625 25.703125 5.09375 23.40625 5.09375 
C 18 5.09375 10.90625 9.140625 10.90625 21.390625 
C 10.90625 34.140625 18.90625 37.890625 24.40625 37.890625 
C 28.09375 37.890625 31.09375 36.0625 33.203125 33.03125 
z
" id="CMSS17-100"/>
      <path d="M 70.296875 69 
L 62.703125 69 
L 52.796875 22.390625 
C 50.59375 12 42.59375 3.59375 33.203125 3.59375 
C 29.296875 3.59375 21.5 5.59375 21.5 17 
C 21.5 17.1875 21.5 20.09375 22 22.390625 
L 32 69 
L 23.59375 69 
L 13.59375 22.390625 
C 13.40625 21.390625 13.09375 18.5 13.09375 17.390625 
C 13.09375 6.296875 20.796875 -2 32 -2 
C 45.296875 -2 57.59375 9.796875 60.296875 22.296875 
z
" id="CMSSI17-85"/>
      <path d="M 72.203125 69 
L 64.40625 69 
L 51.296875 7.65625 
L 51.203125 7.65625 
C 50.5 11.140625 49.59375 14.609375 48.59375 18.59375 
L 35.90625 69 
L 23.59375 69 
L 8.796875 0 
L 16.59375 0 
L 29.703125 61.328125 
L 29.796875 61.328125 
C 30.296875 58.640625 31.703125 53.375 34.203125 43.234375 
L 45.09375 0 
L 57.40625 0 
z
" id="CMSSI17-78"/>
     </defs>
     <g transform="translate(80.4 67.500808)scale(0.12 -0.12)">
      <use transform="scale(0.996264)" xlink:href="#CMSS17-115"/>
      <use transform="translate(35.913542 0)scale(0.996264)" xlink:href="#CMSS17-105"/>
      <use transform="translate(58.094265 0)scale(0.996264)" xlink:href="#CMSS17-109"/>
      <use transform="translate(132.323519 0)scale(0.996264)" xlink:href="#CMSS17-117"/>
      <use transform="translate(180.528463 0)scale(0.996264)" xlink:href="#CMSS17-108"/>
      <use transform="translate(202.709186 0)scale(0.996264)" xlink:href="#CMSS17-97"/>
      <use transform="translate(247.631106 0)scale(0.996264)" xlink:href="#CMSS17-116"/>
      <use transform="translate(281.462673 0)scale(0.996264)" xlink:href="#CMSS17-101"/>
      <use transform="translate(323.101495 0)scale(0.996264)" xlink:href="#CMSS17-100"/>
      <use transform="translate(402.535551 0)scale(0.996264)" xlink:href="#CMSSI17-85"/>
      <use transform="translate(466.675291 0)scale(0.996264)" xlink:href="#CMSSI17-78"/>
     </g>
    </g>
    <g id="line2d_18">
     <path d="M 46.8 80.025404 
L 70.8 80.025404 
" style="fill:none;stroke:#ff0000;stroke-linecap:square;stroke-opacity:0.5;stroke-width:2;"/>
    </g>
    <g id="line2d_19"/>
    <g id="text_15">
     <!-- simulated \textit{RC} -->
     <defs>
      <path d="M 46.296875 32.890625 
C 60.796875 37.1875 66.40625 46.875 66.40625 53.625 
C 66.40625 62.015625 58.5 69 46.203125 69 
L 23.703125 69 
L 8.90625 0 
L 17.09375 0 
L 23.796875 31.890625 
L 38.5 31.890625 
L 49.5 0 
L 57.90625 0 
z
M 30.703125 63.390625 
L 43.90625 63.390625 
C 52.5 63.390625 58.40625 59.875 58.40625 53.03125 
C 58.40625 46 51.59375 38 38.40625 38 
L 25.09375 38 
z
" id="CMSSI17-82"/>
      <path d="M 68.5 66.59375 
C 63.09375 69.1875 59.40625 70 50.59375 70 
C 31.90625 70 12.703125 48.1875 12.703125 26 
C 12.703125 11.390625 21.09375 -1 37.5 -1 
C 45.796875 -1 50.203125 1.09375 56.40625 4.59375 
L 57.203125 11.296875 
C 52.90625 8.796875 48.59375 5.5 38.59375 5.5 
C 25.703125 5.5 21.203125 16.6875 21.203125 26.1875 
C 21.203125 44.296875 35 63.59375 50.09375 63.59375 
C 57.09375 63.59375 61.90625 61.796875 65.40625 58.703125 
z
" id="CMSSI17-67"/>
     </defs>
     <g transform="translate(80.4 84.225404)scale(0.12 -0.12)">
      <use transform="scale(0.996264)" xlink:href="#CMSS17-115"/>
      <use transform="translate(35.913542 0)scale(0.996264)" xlink:href="#CMSS17-105"/>
      <use transform="translate(58.094265 0)scale(0.996264)" xlink:href="#CMSS17-109"/>
      <use transform="translate(132.323519 0)scale(0.996264)" xlink:href="#CMSS17-117"/>
      <use transform="translate(180.528463 0)scale(0.996264)" xlink:href="#CMSS17-108"/>
      <use transform="translate(202.709186 0)scale(0.996264)" xlink:href="#CMSS17-97"/>
      <use transform="translate(247.631106 0)scale(0.996264)" xlink:href="#CMSS17-116"/>
      <use transform="translate(281.462673 0)scale(0.996264)" xlink:href="#CMSS17-101"/>
      <use transform="translate(323.101495 0)scale(0.996264)" xlink:href="#CMSS17-100"/>
      <use transform="translate(402.535551 0)scale(0.996264)" xlink:href="#CMSSI17-82"/>
      <use transform="translate(462.951706 0)scale(0.996264)" xlink:href="#CMSSI17-67"/>
     </g>
    </g>
    <g id="line2d_20">
     <path d="M 46.8 96.75 
L 70.8 96.75 
" style="fill:none;stroke:#000000;stroke-linecap:square;stroke-opacity:0.5;stroke-width:2;"/>
    </g>
    <g id="line2d_21">
     <g>
      <use style="fill-opacity:0.5;stroke:#000000;stroke-linejoin:miter;stroke-opacity:0.5;" x="58.8" xlink:href="#m33d24d8c81" y="96.75"/>
     </g>
    </g>
    <g id="text_16">
     <!-- analytical \textit{UN} -->
     <defs>
      <path d="M 40.90625 29.34375 
C 40.90625 35.671875 39.40625 44 28.09375 44 
C 21.703125 44 17.5 40.6875 14.703125 37.28125 
L 14.703125 43.484375 
L 7.40625 43.484375 
L 7.40625 0 
L 15 0 
L 15 24.3125 
C 15 30.65625 17.40625 37.890625 24.203125 37.890625 
C 33 37.890625 33.296875 31.953125 33.296875 28.53125 
L 33.296875 0 
L 40.90625 0 
z
" id="CMSS17-110"/>
      <path d="M 38.5 39.6875 
C 38.5 40.390625 33.90625 42.390625 32.703125 42.796875 
C 29.40625 44 25.203125 44 24.09375 44 
C 11.09375 44 3.296875 32.6875 3.296875 21.296875 
C 3.296875 9.296875 12 -1 23.703125 -1 
C 30.40625 -1 35.203125 1.1875 39.09375 3.796875 
L 38.5 10.390625 
C 34.203125 7.09375 29.203125 5.296875 23.796875 5.296875 
C 16 5.296875 10.90625 12.09375 10.90625 21.390625 
C 10.90625 28.59375 14.203125 37.6875 24.203125 37.6875 
C 29.703125 37.6875 32.796875 36.59375 37.40625 33.484375 
z
" id="CMSS17-99"/>
     </defs>
     <g transform="translate(80.4 100.95)scale(0.12 -0.12)">
      <use transform="scale(0.996264)" xlink:href="#CMSS17-97"/>
      <use transform="translate(44.921921 0)scale(0.996264)" xlink:href="#CMSS17-110"/>
      <use transform="translate(93.126864 0)scale(0.996264)" xlink:href="#CMSS17-97"/>
      <use transform="translate(138.048784 0)scale(0.996264)" xlink:href="#CMSS17-108"/>
      <use transform="translate(160.229507 0)scale(0.996264)" xlink:href="#CMSS17-121"/>
      <use transform="translate(203.229649 0)scale(0.996264)" xlink:href="#CMSS17-116"/>
      <use transform="translate(237.061216 0)scale(0.996264)" xlink:href="#CMSS17-105"/>
      <use transform="translate(259.241939 0)scale(0.996264)" xlink:href="#CMSS17-99"/>
      <use transform="translate(300.880761 0)scale(0.996264)" xlink:href="#CMSS17-97"/>
      <use transform="translate(345.802681 0)scale(0.996264)" xlink:href="#CMSS17-108"/>
      <use transform="translate(399.212517 0)scale(0.996264)" xlink:href="#CMSSI17-85"/>
      <use transform="translate(463.352258 0)scale(0.996264)" xlink:href="#CMSSI17-78"/>
     </g>
    </g>
    <g id="line2d_22">
     <path d="M 46.8 113.474596 
L 70.8 113.474596 
" style="fill:none;stroke:#000000;stroke-linecap:square;stroke-opacity:0.5;stroke-width:2;"/>
    </g>
    <g id="line2d_23">
     <g>
      <use style="fill-opacity:0.5;stroke:#000000;stroke-opacity:0.5;" x="58.8" xlink:href="#ma23b7871ba" y="113.474596"/>
     </g>
    </g>
    <g id="text_17">
     <!-- analytical \textit{RC} -->
     <g transform="translate(80.4 117.674596)scale(0.12 -0.12)">
      <use transform="scale(0.996264)" xlink:href="#CMSS17-97"/>
      <use transform="translate(44.921921 0)scale(0.996264)" xlink:href="#CMSS17-110"/>
      <use transform="translate(93.126864 0)scale(0.996264)" xlink:href="#CMSS17-97"/>
      <use transform="translate(138.048784 0)scale(0.996264)" xlink:href="#CMSS17-108"/>
      <use transform="translate(160.229507 0)scale(0.996264)" xlink:href="#CMSS17-121"/>
      <use transform="translate(203.229649 0)scale(0.996264)" xlink:href="#CMSS17-116"/>
      <use transform="translate(237.061216 0)scale(0.996264)" xlink:href="#CMSS17-105"/>
      <use transform="translate(259.241939 0)scale(0.996264)" xlink:href="#CMSS17-99"/>
      <use transform="translate(300.880761 0)scale(0.996264)" xlink:href="#CMSS17-97"/>
      <use transform="translate(345.802681 0)scale(0.996264)" xlink:href="#CMSS17-108"/>
      <use transform="translate(399.212517 0)scale(0.996264)" xlink:href="#CMSSI17-82"/>
      <use transform="translate(459.628672 0)scale(0.996264)" xlink:href="#CMSSI17-67"/>
     </g>
    </g>
   </g>
  </g>
 </g>
 <defs>
  <clipPath id="pb9a2746e2b">
   <rect height="135.9" width="223.2" x="36" y="21.6"/>
  </clipPath>
 </defs>
</svg>
