<?xml version="1.0" encoding="utf-8" standalone="no"?>
<!DOCTYPE svg PUBLIC "-//W3C//DTD SVG 1.1//EN"
  "http://www.w3.org/Graphics/SVG/1.1/DTD/svg11.dtd">
<!-- Created with matplotlib (http://matplotlib.org/) -->
<svg height="180pt" version="1.1" viewBox="0 0 288 180" width="288pt" xmlns="http://www.w3.org/2000/svg" xmlns:xlink="http://www.w3.org/1999/xlink">
 <defs>
  <style type="text/css">
*{stroke-linecap:butt;stroke-linejoin:round;}
  </style>
 </defs>
 <g id="figure_1">
  <g id="patch_1">
   <path d="M 0 180 
L 288 180 
L 288 0 
L 0 0 
z
" style="fill:#ffffff;"/>
  </g>
  <g id="axes_1">
   <g id="patch_2">
    <path d="M 36 157.5 
L 259.2 157.5 
L 259.2 21.6 
L 36 21.6 
z
" style="fill:#ffffff;"/>
   </g>
   <g id="matplotlib.axis_1">
    <g id="xtick_1">
     <g id="line2d_1">
      <defs>
       <path d="M 0 0 
L 0 3.5 
" id="m4e067cbb71" style="stroke:#000000;stroke-width:0.8;"/>
      </defs>
      <g>
       <use style="stroke:#000000;stroke-width:0.8;" x="44.095868" xlink:href="#m4e067cbb71" y="157.5"/>
      </g>
     </g>
     <g id="text_1">
      <!-- $1.0$ -->
      <defs>
       <path d="M 26.59375 63.796875 
C 26.59375 65.890625 26.5 66 25.09375 66 
C 21.203125 61.359375 15.296875 59.890625 9.703125 59.6875 
C 9.40625 59.6875 8.90625 59.6875 8.796875 59.5 
C 8.703125 59.296875 8.703125 59.09375 8.703125 57 
C 11.796875 57 17 57.59375 21 59.984375 
L 21 7.296875 
C 21 3.796875 20.796875 2.59375 12.203125 2.59375 
L 9.203125 2.59375 
L 9.203125 0 
C 14 0.09375 19 0.1875 23.796875 0.1875 
C 28.59375 0.1875 33.59375 0.09375 38.40625 0 
L 38.40625 2.59375 
L 35.40625 2.59375 
C 26.796875 2.59375 26.59375 3.6875 26.59375 7.296875 
z
" id="CMR17-49"/>
       <path d="M 18.40625 4.796875 
C 18.40625 7.6875 16 9.6875 13.59375 9.6875 
C 10.703125 9.6875 8.703125 7.296875 8.703125 4.890625 
C 8.703125 2 11.09375 0 13.5 0 
C 16.40625 0 18.40625 2.390625 18.40625 4.796875 
z
" id="CMMI12-58"/>
       <path d="M 42 31.84375 
C 42 37.96875 41.90625 48.421875 37.703125 56.453125 
C 34 63.484375 28.09375 66 22.90625 66 
C 18.09375 66 12 63.78125 8.203125 56.5625 
C 4.203125 49.015625 3.796875 39.671875 3.796875 31.84375 
C 3.796875 26.109375 3.90625 17.375 7 9.734375 
C 11.296875 -0.609375 19 -2 22.90625 -2 
C 27.5 -2 34.5 -0.109375 38.59375 9.4375 
C 41.59375 16.375 42 24.5 42 31.84375 
z
M 22.90625 -0.40625 
C 16.5 -0.40625 12.703125 5.125 11.296875 12.75 
C 10.203125 18.6875 10.203125 27.328125 10.203125 32.953125 
C 10.203125 40.6875 10.203125 47.109375 11.5 53.234375 
C 13.40625 61.78125 19 64.390625 22.90625 64.390625 
C 27 64.390625 32.296875 61.671875 34.203125 53.4375 
C 35.5 47.71875 35.59375 40.984375 35.59375 32.953125 
C 35.59375 26.421875 35.59375 18.375 34.40625 12.453125 
C 32.296875 1.5 26.40625 -0.40625 22.90625 -0.40625 
z
" id="CMR17-48"/>
      </defs>
      <g transform="translate(37.730828 171.418498)scale(0.1 -0.1)">
       <use transform="scale(0.996264)" xlink:href="#CMR17-49"/>
       <use transform="translate(45.690477 0)scale(0.996264)" xlink:href="#CMMI12-58"/>
       <use transform="translate(72.787654 0)scale(0.996264)" xlink:href="#CMR17-48"/>
      </g>
     </g>
    </g>
    <g id="xtick_2">
     <g id="line2d_2">
      <g>
       <use style="stroke:#000000;stroke-width:0.8;" x="95.335537" xlink:href="#m4e067cbb71" y="157.5"/>
      </g>
     </g>
     <g id="text_2">
      <!-- $1.5$ -->
      <defs>
       <path d="M 11.40625 58.59375 
C 12.40625 58.1875 16.5 56.890625 20.703125 56.890625 
C 30 56.890625 35.09375 61.890625 38 64.6875 
C 38 65.484375 38 66 37.40625 66 
C 37.296875 66 37.09375 66 36.296875 65.59375 
C 32.796875 64.09375 28.703125 63 23.703125 63 
C 20.703125 63 16.203125 63.359375 11.296875 65.484375 
C 10.203125 66 10 66 9.90625 66 
C 9.40625 66 9.296875 65.890625 9.296875 63.90625 
L 9.296875 34.859375 
C 9.296875 33.015625 9.296875 32.5 10.296875 32.5 
C 10.796875 32.5 11 32.703125 11.5 33.421875 
C 14.703125 38.046875 19.09375 40 24.09375 40 
C 27.59375 40 35.09375 37.734375 35.09375 20.203125 
C 35.09375 16.984375 35.09375 11.1875 32.09375 6.59375 
C 29.59375 2.484375 25.703125 0.390625 21.40625 0.390625 
C 14.796875 0.390625 8.09375 4.984375 6.296875 12.6875 
C 6.703125 12.59375 7.5 12.390625 7.90625 12.390625 
C 9.203125 12.390625 11.703125 13.09375 11.703125 16.1875 
C 11.703125 18.890625 9.796875 20 7.90625 20 
C 5.59375 20 4.09375 18.59375 4.09375 15.796875 
C 4.09375 7.09375 11 -2 21.59375 -2 
C 31.90625 -2 41.703125 6.890625 41.703125 19.796875 
C 41.703125 32.09375 33.90625 41.59375 24.203125 41.59375 
C 19.09375 41.59375 14.796875 39.6875 11.40625 36 
z
" id="CMR17-53"/>
      </defs>
      <g transform="translate(88.970498 171.418498)scale(0.1 -0.1)">
       <use transform="scale(0.996264)" xlink:href="#CMR17-49"/>
       <use transform="translate(45.690477 0)scale(0.996264)" xlink:href="#CMMI12-58"/>
       <use transform="translate(72.787654 0)scale(0.996264)" xlink:href="#CMR17-53"/>
      </g>
     </g>
    </g>
    <g id="xtick_3">
     <g id="line2d_3">
      <g>
       <use style="stroke:#000000;stroke-width:0.8;" x="146.575207" xlink:href="#m4e067cbb71" y="157.5"/>
      </g>
     </g>
     <g id="text_3">
      <!-- $2.0$ -->
      <defs>
       <path d="M 41.703125 15.46875 
L 39.90625 15.46875 
C 38.90625 8.390625 38.09375 7.1875 37.703125 6.59375 
C 37.203125 5.796875 30 5.796875 28.59375 5.796875 
L 9.40625 5.796875 
C 13 9.6875 20 16.765625 28.5 24.9375 
C 34.59375 30.71875 41.703125 37.5 41.703125 47.390625 
C 41.703125 59.1875 32.296875 66 21.796875 66 
C 10.796875 66 4.09375 56.296875 4.09375 47.296875 
C 4.09375 43.390625 7 42.890625 8.203125 42.890625 
C 9.203125 42.890625 12.203125 43.484375 12.203125 46.984375 
C 12.203125 50.09375 9.59375 51 8.203125 51 
C 7.59375 51 7 50.890625 6.59375 50.6875 
C 8.5 59.1875 14.296875 63.390625 20.40625 63.390625 
C 29.09375 63.390625 34.796875 56.5 34.796875 47.390625 
C 34.796875 38.703125 29.703125 31.21875 24 24.734375 
L 4.09375 2.296875 
L 4.09375 0 
L 39.296875 0 
z
" id="CMR17-50"/>
      </defs>
      <g transform="translate(140.210167 171.418498)scale(0.1 -0.1)">
       <use transform="scale(0.996264)" xlink:href="#CMR17-50"/>
       <use transform="translate(45.690477 0)scale(0.996264)" xlink:href="#CMMI12-58"/>
       <use transform="translate(72.787654 0)scale(0.996264)" xlink:href="#CMR17-48"/>
      </g>
     </g>
    </g>
    <g id="xtick_4">
     <g id="line2d_4">
      <g>
       <use style="stroke:#000000;stroke-width:0.8;" x="197.814876" xlink:href="#m4e067cbb71" y="157.5"/>
      </g>
     </g>
     <g id="text_4">
      <!-- $2.5$ -->
      <g transform="translate(191.449837 171.418498)scale(0.1 -0.1)">
       <use transform="scale(0.996264)" xlink:href="#CMR17-50"/>
       <use transform="translate(45.690477 0)scale(0.996264)" xlink:href="#CMMI12-58"/>
       <use transform="translate(72.787654 0)scale(0.996264)" xlink:href="#CMR17-53"/>
      </g>
     </g>
    </g>
    <g id="xtick_5">
     <g id="line2d_5">
      <g>
       <use style="stroke:#000000;stroke-width:0.8;" x="249.054545" xlink:href="#m4e067cbb71" y="157.5"/>
      </g>
     </g>
     <g id="text_5">
      <!-- $3.0$ -->
      <defs>
       <path d="M 22.09375 34 
C 31 34 34.90625 26.140625 34.90625 17.09375 
C 34.90625 5.03125 28.5 0.390625 22.703125 0.390625 
C 17.40625 0.390625 8.796875 3.015625 6.09375 10.796875 
C 6.59375 10.59375 7.09375 10.59375 7.59375 10.59375 
C 10 10.59375 11.796875 12.1875 11.796875 14.796875 
C 11.796875 17.6875 9.59375 19 7.59375 19 
C 5.90625 19 3.296875 18.1875 3.296875 14.484375 
C 3.296875 5.234375 12.296875 -2 22.90625 -2 
C 34 -2 42.5 6.75 42.5 16.984375 
C 42.5 26.84375 34.5 34 25 35.09375 
C 32.59375 36.671875 39.90625 43.375 39.90625 52.390625 
C 39.90625 60.25 32 66 23 66 
C 13.90625 66 5.90625 60.34375 5.90625 52.296875 
C 5.90625 48.796875 8.5 48.1875 9.796875 48.1875 
C 11.90625 48.1875 13.703125 49.484375 13.703125 52.09375 
C 13.703125 54.6875 11.90625 56 9.796875 56 
C 9.40625 56 8.90625 56 8.5 55.796875 
C 11.40625 62.484375 19.296875 63.6875 22.796875 63.6875 
C 26.296875 63.6875 32.90625 61.96875 32.90625 52.296875 
C 32.90625 49.484375 32.5 44.546875 29.09375 40.21875 
C 26.09375 36.390625 22.703125 36.1875 19.40625 35.890625 
C 18.90625 35.890625 16.59375 35.6875 16.203125 35.6875 
C 15.5 35.59375 15.09375 35.5 15.09375 34.796875 
C 15.09375 34.09375 15.203125 34 17.203125 34 
z
" id="CMR17-51"/>
      </defs>
      <g transform="translate(242.689506 171.418498)scale(0.1 -0.1)">
       <use transform="scale(0.996264)" xlink:href="#CMR17-51"/>
       <use transform="translate(45.690477 0)scale(0.996264)" xlink:href="#CMMI12-58"/>
       <use transform="translate(72.787654 0)scale(0.996264)" xlink:href="#CMR17-48"/>
      </g>
     </g>
    </g>
    <g id="text_6">
     <!-- growth ratio, $\Theta$ -->
     <defs>
      <path d="M 44.5 44 
C 38.796875 43.890625 33.90625 42.796875 29.90625 40.890625 
C 26.59375 43.484375 23.203125 44 20.90625 44 
C 12.203125 44 5.59375 36.8125 5.59375 28.5 
C 5.59375 23.140625 8.59375 19.09375 8.796875 18.890625 
C 7 16.390625 6 13.6875 6 10.6875 
C 6 7.1875 7.40625 4.6875 8.5 3.296875 
C 3.296875 0.09375 2.59375 -4.8125 2.59375 -6.703125 
C 2.59375 -14 11.703125 -20 23.40625 -20 
C 35.203125 -20 44.296875 -14 44.296875 -6.609375 
C 44.296875 7.1875 29 7.296875 24.796875 7.296875 
L 16.703125 7.296875 
C 15.203125 7.296875 11.203125 7.296875 11.203125 12.390625 
C 11.203125 14.390625 12.09375 15.6875 12.203125 15.796875 
C 13.703125 14.6875 16.796875 13 20.90625 13 
C 29.203125 13 36.09375 19.984375 36.09375 28.5 
C 36.09375 33.25 33.90625 36.703125 33 37.890625 
L 33.296875 37.890625 
C 33.59375 37.890625 37.796875 38.1875 39.296875 38.1875 
C 42.5 38.1875 42.796875 38.09375 45.59375 37.796875 
z
M 20.90625 18.5 
C 17.5 18.5 12.703125 20.578125 12.703125 28.5 
C 12.703125 37.109375 18.203125 38.484375 20.796875 38.484375 
C 24.203125 38.484375 29 36.40625 29 28.5 
C 29 19.875 23.5 18.5 20.90625 18.5 
z
M 24.703125 0 
C 27.09375 0 37.203125 0 37.203125 -6.8125 
C 37.203125 -11.109375 31 -14.5 23.5 -14.5 
C 15.90625 -14.5 9.703125 -11.203125 9.703125 -6.703125 
C 9.703125 -6.203125 9.703125 0 16.59375 0 
z
" id="CMSS17-103"/>
      <path d="M 14.90625 21.390625 
C 14.90625 30.84375 21.796875 37.171875 30.59375 37.375 
L 30.59375 44 
C 24.203125 43.890625 18.203125 40.6875 14.59375 35.46875 
L 14.59375 43.484375 
L 7.5 43.484375 
L 7.5 0 
L 14.90625 0 
z
" id="CMSS17-114"/>
      <path d="M 44.203125 21.1875 
C 44.203125 33.984375 34.703125 44 23.5 44 
C 12 44 2.703125 33.6875 2.703125 21.1875 
C 2.703125 8.5 12.296875 -1 23.40625 -1 
C 34.796875 -1 44.203125 8.796875 44.203125 21.1875 
z
M 23.5 5.296875 
C 16.40625 5.296875 10.296875 11.09375 10.296875 21.984375 
C 10.296875 33.59375 17.40625 37.890625 23.40625 37.890625 
C 29.90625 37.890625 36.59375 33.1875 36.59375 21.984375 
C 36.59375 10.6875 30.09375 5.296875 23.5 5.296875 
z
" id="CMSS17-111"/>
      <path d="M 62.703125 43 
L 55.09375 43 
L 49.796875 25 
C 48.703125 21.1875 45.59375 10.6875 45.203125 5.796875 
L 45.09375 5.796875 
C 44.90625 8.796875 43.203125 16 40.40625 25.5 
L 35.296875 43 
L 28.40625 43 
L 23.40625 25.890625 
C 20.90625 17.1875 19 9.796875 18.796875 5.796875 
L 18.703125 5.796875 
C 18.296875 11.6875 14.203125 25.5 13.59375 27.6875 
L 9.09375 43 
L 1.296875 43 
L 14.296875 0 
L 21.90625 0 
C 27.09375 17.1875 31.09375 30.5 31.40625 37.1875 
C 31.59375 33.890625 33.296875 26.796875 34.296875 23.296875 
L 40.90625 0 
L 49.703125 0 
z
" id="CMSS17-119"/>
      <path d="M 16.703125 37.1875 
L 29.703125 37.1875 
L 29.703125 43 
L 16.703125 43 
L 16.703125 55 
L 9.59375 55 
L 9.59375 43 
L 1.703125 43 
L 1.703125 37.1875 
L 9.40625 37.1875 
L 9.40625 11.734375 
C 9.40625 6 10.703125 -1 17.296875 -1 
C 22.296875 -1 26.90625 0.390625 31.296875 2.6875 
L 29.703125 8.609375 
C 27.296875 6.5 24.40625 5.296875 21.296875 5.296875 
C 16.90625 5.296875 16.703125 10.921875 16.703125 13.4375 
z
" id="CMSS17-116"/>
      <path d="M 40.90625 29.34375 
C 40.90625 35.671875 39.40625 44 28.09375 44 
C 21.796875 44 17.703125 40.890625 14.796875 37.484375 
L 14.796875 69 
L 7.40625 69 
L 7.40625 0 
L 15 0 
L 15 24.3125 
C 15 30.65625 17.40625 37.890625 24.203125 37.890625 
C 33 37.890625 33.296875 31.953125 33.296875 28.53125 
L 33.296875 0 
L 40.90625 0 
z
" id="CMSS17-104"/>
      <path d="M 37.59375 27.953125 
C 37.59375 37.484375 30.90625 44 21.90625 44 
C 17.5 44 12.703125 43.1875 7.203125 39.984375 
L 7.796875 33.328125 
C 10.296875 35.15625 14.59375 38.09375 21.796875 38.09375 
C 26.90625 38.09375 30 34.140625 30 27.84375 
L 30 24 
C 14 23.5 4 18.890625 4 11.109375 
C 4 7.0625 6.5 -1 14.796875 -1 
C 16.296875 -1 24.40625 -0.8125 30.203125 3.5 
L 30.203125 -0.203125 
L 37.59375 -0.203125 
z
M 30 12.875 
C 30 11.109375 30 8.734375 27 6.96875 
C 24.40625 5.296875 21.09375 5.09375 19.703125 5.09375 
C 14.703125 5.09375 11.296875 7.859375 11.296875 11.296875 
C 11.296875 18.203125 26.90625 18.890625 30 19 
z
" id="CMSS17-97"/>
      <path d="M 15.296875 66 
L 6.90625 66 
L 6.90625 57.59375 
L 15.296875 57.59375 
z
M 14.796875 43 
L 7.40625 43 
L 7.40625 0 
L 14.796875 0 
z
" id="CMSS17-105"/>
      <path d="M 17 0.09375 
L 17 8 
L 9 8 
L 9 0 
L 11.5 0 
L 8.90625 -12.109375 
L 12.90625 -12.109375 
z
" id="CMSS17-44"/>
      <path d="M 67.296875 33.984375 
C 67.296875 54.546875 52.59375 70 36 70 
C 19 70 4.59375 54.34375 4.59375 33.984375 
C 4.59375 13.46875 19.203125 -2 35.90625 -2 
C 53 -2 67.296875 13.765625 67.296875 33.984375 
z
M 36 -0.3125 
C 24.59375 -0.3125 11.90625 10.625 11.90625 33.984375 
C 11.90625 57.859375 25 68.390625 35.90625 68.390625 
C 47.203125 68.390625 60 57.5625 60 33.984375 
C 60 10.328125 47 -0.3125 36 -0.3125 
z
M 54.703125 40.40625 
L 52.90625 40.40625 
L 52.90625 37 
L 19 37 
L 19 40.40625 
L 17.203125 40.40625 
L 17.203125 27.953125 
L 19 27.953125 
L 19 31.390625 
L 52.90625 31.390625 
L 52.90625 27.953125 
L 54.703125 27.953125 
z
" id="CMR17-2"/>
     </defs>
     <g transform="translate(100.02289 187.733401)scale(0.15 -0.15)">
      <use transform="scale(0.996264)" xlink:href="#CMSS17-103"/>
      <use transform="translate(46.843624 0)scale(0.996264)" xlink:href="#CMSS17-114"/>
      <use transform="translate(78.753396 0)scale(0.996264)" xlink:href="#CMSS17-111"/>
      <use transform="translate(122.994566 0)scale(0.996264)" xlink:href="#CMSS17-119"/>
      <use transform="translate(186.814111 0)scale(0.996264)" xlink:href="#CMSS17-116"/>
      <use transform="translate(220.645677 0)scale(0.996264)" xlink:href="#CMSS17-104"/>
      <use transform="translate(300.079733 0)scale(0.996264)" xlink:href="#CMSS17-114"/>
      <use transform="translate(331.989506 0)scale(0.996264)" xlink:href="#CMSS17-97"/>
      <use transform="translate(376.911427 0)scale(0.996264)" xlink:href="#CMSS17-116"/>
      <use transform="translate(410.742993 0)scale(0.996264)" xlink:href="#CMSS17-105"/>
      <use transform="translate(432.923716 0)scale(0.996264)" xlink:href="#CMSS17-111"/>
      <use transform="translate(479.76734 0)scale(0.996264)" xlink:href="#CMSS17-44"/>
      <use transform="translate(537.020657 0)scale(0.996264)" xlink:href="#CMR17-2"/>
     </g>
    </g>
   </g>
   <g id="matplotlib.axis_2">
    <g id="ytick_1">
     <g id="line2d_6">
      <defs>
       <path d="M 0 0 
L -3.5 0 
" id="mdaf8907a4a" style="stroke:#000000;stroke-width:0.8;"/>
      </defs>
      <g>
       <use style="stroke:#000000;stroke-width:0.8;" x="36" xlink:href="#mdaf8907a4a" y="131.754986"/>
      </g>
     </g>
     <g id="text_7">
      <!-- $10^{0}$ -->
      <g transform="translate(15.066092 135.214236)scale(0.1 -0.1)">
       <use transform="scale(0.996264)" xlink:href="#CMR17-49"/>
       <use transform="translate(45.690477 0)scale(0.996264)" xlink:href="#CMR17-48"/>
       <use transform="translate(91.380954 36.153639)scale(0.697382)" xlink:href="#CMR17-48"/>
      </g>
     </g>
    </g>
    <g id="ytick_2">
     <g id="line2d_7">
      <g>
       <use style="stroke:#000000;stroke-width:0.8;" x="36" xlink:href="#mdaf8907a4a" y="99.811242"/>
      </g>
     </g>
     <g id="text_8">
      <!-- $10^{1}$ -->
      <g transform="translate(15.066092 103.270491)scale(0.1 -0.1)">
       <use transform="scale(0.996264)" xlink:href="#CMR17-49"/>
       <use transform="translate(45.690477 0)scale(0.996264)" xlink:href="#CMR17-48"/>
       <use transform="translate(91.380954 36.153639)scale(0.697382)" xlink:href="#CMR17-49"/>
      </g>
     </g>
    </g>
    <g id="ytick_3">
     <g id="line2d_8">
      <g>
       <use style="stroke:#000000;stroke-width:0.8;" x="36" xlink:href="#mdaf8907a4a" y="67.867498"/>
      </g>
     </g>
     <g id="text_9">
      <!-- $10^{2}$ -->
      <g transform="translate(15.066092 71.326747)scale(0.1 -0.1)">
       <use transform="scale(0.996264)" xlink:href="#CMR17-49"/>
       <use transform="translate(45.690477 0)scale(0.996264)" xlink:href="#CMR17-48"/>
       <use transform="translate(91.380954 36.153639)scale(0.697382)" xlink:href="#CMR17-50"/>
      </g>
     </g>
    </g>
    <g id="ytick_4">
     <g id="line2d_9">
      <g>
       <use style="stroke:#000000;stroke-width:0.8;" x="36" xlink:href="#mdaf8907a4a" y="35.923754"/>
      </g>
     </g>
     <g id="text_10">
      <!-- $10^{3}$ -->
      <g transform="translate(15.066092 39.383003)scale(0.1 -0.1)">
       <use transform="scale(0.996264)" xlink:href="#CMR17-49"/>
       <use transform="translate(45.690477 0)scale(0.996264)" xlink:href="#CMR17-48"/>
       <use transform="translate(91.380954 36.153639)scale(0.697382)" xlink:href="#CMR17-51"/>
      </g>
     </g>
    </g>
    <g id="ytick_5">
     <g id="line2d_10">
      <defs>
       <path d="M 0 0 
L -2 0 
" id="m6fc4e3f0f3" style="stroke:#000000;stroke-width:0.6;"/>
      </defs>
      <g>
       <use style="stroke:#000000;stroke-width:0.6;" x="36" xlink:href="#m6fc4e3f0f3" y="154.082706"/>
      </g>
     </g>
    </g>
    <g id="ytick_6">
     <g id="line2d_11">
      <g>
       <use style="stroke:#000000;stroke-width:0.6;" x="36" xlink:href="#m6fc4e3f0f3" y="148.457691"/>
      </g>
     </g>
    </g>
    <g id="ytick_7">
     <g id="line2d_12">
      <g>
       <use style="stroke:#000000;stroke-width:0.6;" x="36" xlink:href="#m6fc4e3f0f3" y="144.46668"/>
      </g>
     </g>
    </g>
    <g id="ytick_8">
     <g id="line2d_13">
      <g>
       <use style="stroke:#000000;stroke-width:0.6;" x="36" xlink:href="#m6fc4e3f0f3" y="141.371012"/>
      </g>
     </g>
    </g>
    <g id="ytick_9">
     <g id="line2d_14">
      <g>
       <use style="stroke:#000000;stroke-width:0.6;" x="36" xlink:href="#m6fc4e3f0f3" y="138.841666"/>
      </g>
     </g>
    </g>
    <g id="ytick_10">
     <g id="line2d_15">
      <g>
       <use style="stroke:#000000;stroke-width:0.6;" x="36" xlink:href="#m6fc4e3f0f3" y="136.703135"/>
      </g>
     </g>
    </g>
    <g id="ytick_11">
     <g id="line2d_16">
      <g>
       <use style="stroke:#000000;stroke-width:0.6;" x="36" xlink:href="#m6fc4e3f0f3" y="134.850655"/>
      </g>
     </g>
    </g>
    <g id="ytick_12">
     <g id="line2d_17">
      <g>
       <use style="stroke:#000000;stroke-width:0.6;" x="36" xlink:href="#m6fc4e3f0f3" y="133.216652"/>
      </g>
     </g>
    </g>
    <g id="ytick_13">
     <g id="line2d_18">
      <g>
       <use style="stroke:#000000;stroke-width:0.6;" x="36" xlink:href="#m6fc4e3f0f3" y="122.138961"/>
      </g>
     </g>
    </g>
    <g id="ytick_14">
     <g id="line2d_19">
      <g>
       <use style="stroke:#000000;stroke-width:0.6;" x="36" xlink:href="#m6fc4e3f0f3" y="116.513947"/>
      </g>
     </g>
    </g>
    <g id="ytick_15">
     <g id="line2d_20">
      <g>
       <use style="stroke:#000000;stroke-width:0.6;" x="36" xlink:href="#m6fc4e3f0f3" y="112.522936"/>
      </g>
     </g>
    </g>
    <g id="ytick_16">
     <g id="line2d_21">
      <g>
       <use style="stroke:#000000;stroke-width:0.6;" x="36" xlink:href="#m6fc4e3f0f3" y="109.427267"/>
      </g>
     </g>
    </g>
    <g id="ytick_17">
     <g id="line2d_22">
      <g>
       <use style="stroke:#000000;stroke-width:0.6;" x="36" xlink:href="#m6fc4e3f0f3" y="106.897922"/>
      </g>
     </g>
    </g>
    <g id="ytick_18">
     <g id="line2d_23">
      <g>
       <use style="stroke:#000000;stroke-width:0.6;" x="36" xlink:href="#m6fc4e3f0f3" y="104.759391"/>
      </g>
     </g>
    </g>
    <g id="ytick_19">
     <g id="line2d_24">
      <g>
       <use style="stroke:#000000;stroke-width:0.6;" x="36" xlink:href="#m6fc4e3f0f3" y="102.906911"/>
      </g>
     </g>
    </g>
    <g id="ytick_20">
     <g id="line2d_25">
      <g>
       <use style="stroke:#000000;stroke-width:0.6;" x="36" xlink:href="#m6fc4e3f0f3" y="101.272908"/>
      </g>
     </g>
    </g>
    <g id="ytick_21">
     <g id="line2d_26">
      <g>
       <use style="stroke:#000000;stroke-width:0.6;" x="36" xlink:href="#m6fc4e3f0f3" y="90.195217"/>
      </g>
     </g>
    </g>
    <g id="ytick_22">
     <g id="line2d_27">
      <g>
       <use style="stroke:#000000;stroke-width:0.6;" x="36" xlink:href="#m6fc4e3f0f3" y="84.570203"/>
      </g>
     </g>
    </g>
    <g id="ytick_23">
     <g id="line2d_28">
      <g>
       <use style="stroke:#000000;stroke-width:0.6;" x="36" xlink:href="#m6fc4e3f0f3" y="80.579192"/>
      </g>
     </g>
    </g>
    <g id="ytick_24">
     <g id="line2d_29">
      <g>
       <use style="stroke:#000000;stroke-width:0.6;" x="36" xlink:href="#m6fc4e3f0f3" y="77.483523"/>
      </g>
     </g>
    </g>
    <g id="ytick_25">
     <g id="line2d_30">
      <g>
       <use style="stroke:#000000;stroke-width:0.6;" x="36" xlink:href="#m6fc4e3f0f3" y="74.954178"/>
      </g>
     </g>
    </g>
    <g id="ytick_26">
     <g id="line2d_31">
      <g>
       <use style="stroke:#000000;stroke-width:0.6;" x="36" xlink:href="#m6fc4e3f0f3" y="72.815647"/>
      </g>
     </g>
    </g>
    <g id="ytick_27">
     <g id="line2d_32">
      <g>
       <use style="stroke:#000000;stroke-width:0.6;" x="36" xlink:href="#m6fc4e3f0f3" y="70.963167"/>
      </g>
     </g>
    </g>
    <g id="ytick_28">
     <g id="line2d_33">
      <g>
       <use style="stroke:#000000;stroke-width:0.6;" x="36" xlink:href="#m6fc4e3f0f3" y="69.329164"/>
      </g>
     </g>
    </g>
    <g id="ytick_29">
     <g id="line2d_34">
      <g>
       <use style="stroke:#000000;stroke-width:0.6;" x="36" xlink:href="#m6fc4e3f0f3" y="58.251473"/>
      </g>
     </g>
    </g>
    <g id="ytick_30">
     <g id="line2d_35">
      <g>
       <use style="stroke:#000000;stroke-width:0.6;" x="36" xlink:href="#m6fc4e3f0f3" y="52.626459"/>
      </g>
     </g>
    </g>
    <g id="ytick_31">
     <g id="line2d_36">
      <g>
       <use style="stroke:#000000;stroke-width:0.6;" x="36" xlink:href="#m6fc4e3f0f3" y="48.635448"/>
      </g>
     </g>
    </g>
    <g id="ytick_32">
     <g id="line2d_37">
      <g>
       <use style="stroke:#000000;stroke-width:0.6;" x="36" xlink:href="#m6fc4e3f0f3" y="45.539779"/>
      </g>
     </g>
    </g>
    <g id="ytick_33">
     <g id="line2d_38">
      <g>
       <use style="stroke:#000000;stroke-width:0.6;" x="36" xlink:href="#m6fc4e3f0f3" y="43.010433"/>
      </g>
     </g>
    </g>
    <g id="ytick_34">
     <g id="line2d_39">
      <g>
       <use style="stroke:#000000;stroke-width:0.6;" x="36" xlink:href="#m6fc4e3f0f3" y="40.871902"/>
      </g>
     </g>
    </g>
    <g id="ytick_35">
     <g id="line2d_40">
      <g>
       <use style="stroke:#000000;stroke-width:0.6;" x="36" xlink:href="#m6fc4e3f0f3" y="39.019422"/>
      </g>
     </g>
    </g>
    <g id="ytick_36">
     <g id="line2d_41">
      <g>
       <use style="stroke:#000000;stroke-width:0.6;" x="36" xlink:href="#m6fc4e3f0f3" y="37.385419"/>
      </g>
     </g>
    </g>
    <g id="ytick_37">
     <g id="line2d_42">
      <g>
       <use style="stroke:#000000;stroke-width:0.6;" x="36" xlink:href="#m6fc4e3f0f3" y="26.307729"/>
      </g>
     </g>
    </g>
    <g id="text_11">
     <!-- Memory (units: edge records) -->
     <defs>
      <path d="M 49.90625 37.078125 
L 45.09375 23.0625 
C 44.296875 20.484375 41.59375 12.421875 41 9.25 
L 40.90625 9.25 
C 40.59375 11.234375 40 13.328125 38.40625 18.390625 
C 37.5 21.375 36.5 24.453125 35.5 27.234375 
L 20.703125 69 
L 9 69 
L 9 0 
L 16.796875 0 
L 16.796875 60.921875 
L 16.90625 60.921875 
C 16.90625 60.828125 17.796875 56.453125 23.90625 39.0625 
L 37.09375 1.59375 
L 44.5 1.59375 
L 56.40625 34.890625 
C 57.203125 37.171875 59.703125 44.421875 60.796875 47.90625 
C 61.796875 50.890625 64.296875 58.25 64.90625 61.125 
L 65 61.125 
L 65 0 
L 72.90625 0 
L 72.90625 69 
L 61.296875 69 
z
" id="CMSS17-77"/>
      <path d="M 39.09375 21.484375 
C 39.09375 24.796875 38.90625 31.265625 35.703125 36.671875 
C 32.203125 42.390625 26.5 44 22.203125 44 
C 11.796875 44 3 34.125 3 21.296875 
C 3 9.046875 12.09375 -1 23.59375 -1 
C 28.09375 -1 33.59375 0.296875 38.59375 3.890625 
C 38.59375 4.296875 38.40625 6.46875 38.296875 6.578125 
C 38.296875 6.765625 38 9.828125 38 10.234375 
C 33.203125 6.375 27.703125 5.09375 23.703125 5.09375 
C 17.296875 5.09375 10.40625 10.421875 10.09375 21.484375 
z
M 10.90625 27 
C 12.203125 32.59375 16.59375 37.890625 22.203125 37.890625 
C 23.703125 37.890625 30.703125 37.6875 32.5 27 
z
" id="CMSS17-101"/>
      <path d="M 67 29.34375 
C 67 36.078125 65.296875 44 54.09375 44 
C 46.59375 44 42.09375 39.296875 40.09375 36.375 
C 38.296875 41.6875 34.09375 44 28.09375 44 
C 21.296875 44 17 40.09375 14.703125 37.28125 
L 14.703125 43.484375 
L 7.40625 43.484375 
L 7.40625 0 
L 15 0 
L 15 24.3125 
C 15 30.25 17.203125 37.890625 24.296875 37.890625 
C 33.40625 37.890625 33.40625 31.453125 33.40625 28.53125 
L 33.40625 0 
L 41 0 
L 41 24.3125 
C 41 30.25 43.203125 37.890625 50.296875 37.890625 
C 59.40625 37.890625 59.40625 31.453125 59.40625 28.53125 
L 59.40625 0 
L 67 0 
z
" id="CMSS17-109"/>
      <path d="M 41.796875 43 
L 34 43 
C 25.5 20.203125 22.59375 10.953125 22.40625 5.984375 
L 22.296875 5.984375 
C 22 10.859375 17.59375 22.796875 14.09375 31.34375 
L 9.40625 43 
L 1.296875 43 
L 19 0.21875 
C 17.90625 -2.765625 16.296875 -7.25 15.796875 -8.234375 
C 13.59375 -13.8125 12.09375 -13.8125 10.5 -13.8125 
C 10.09375 -13.8125 6.90625 -13.703125 3.296875 -12.609375 
L 3.90625 -19.203125 
C 6.40625 -19.703125 8.90625 -20 10.703125 -20 
C 13.203125 -20 18.203125 -20 22.796875 -7.734375 
z
" id="CMSS17-121"/>
      <path d="M 25.203125 75 
C 19.796875 69.484375 7.40625 56.671875 7.40625 25.046875 
C 7.40625 -6.6875 19.796875 -19.40625 25.203125 -25 
L 31.296875 -25 
C 19 -12.203125 15 5.71875 15 24.9375 
C 15 44.0625 18.796875 62.078125 31.296875 75 
z
" id="CMSS17-40"/>
      <path d="M 40.90625 43 
L 33.296875 43 
L 33.296875 15.25 
C 33.296875 7.8125 27.90625 4.796875 22.203125 4.796875 
C 15.59375 4.796875 15 7 15 11.125 
L 15 43 
L 7.40625 43 
L 7.40625 10.625 
C 7.40625 2.796875 10.09375 -1 17 -1 
C 20.40625 -1 28.09375 -0.203125 33.5 4.796875 
L 33.5 -0.203125 
L 40.90625 -0.203125 
z
" id="CMSS17-117"/>
      <path d="M 40.90625 29.34375 
C 40.90625 35.671875 39.40625 44 28.09375 44 
C 21.703125 44 17.5 40.6875 14.703125 37.28125 
L 14.703125 43.484375 
L 7.40625 43.484375 
L 7.40625 0 
L 15 0 
L 15 24.3125 
C 15 30.65625 17.40625 37.890625 24.203125 37.890625 
C 33 37.890625 33.296875 31.953125 33.296875 28.53125 
L 33.296875 0 
L 40.90625 0 
z
" id="CMSS17-110"/>
      <path d="M 32.203125 40.984375 
C 26.296875 43.796875 21.703125 44 18.703125 44 
C 11.59375 44 3.09375 41.484375 3.09375 31.390625 
C 3.09375 21.296875 14.09375 19.09375 17.09375 18.484375 
C 21.703125 17.59375 26.796875 16.59375 26.796875 11.59375 
C 26.796875 5.296875 19.59375 5.296875 18.296875 5.296875 
C 14.296875 5.296875 8.796875 6.390625 3.796875 9.984375 
L 2.59375 3.296875 
C 8.296875 0 13.796875 -1 18.40625 -1 
C 30.703125 -1 33.796875 6.5 33.796875 12.1875 
C 33.796875 17.09375 31 20.390625 29.09375 21.890625 
C 25.796875 24.484375 24.59375 24.796875 16.40625 26.484375 
C 15 26.6875 10.09375 27.796875 10.09375 32.296875 
C 10.09375 37.984375 16.40625 37.984375 17.796875 37.984375 
C 24.296875 37.984375 28.296875 35.984375 31 34.484375 
z
" id="CMSS17-115"/>
      <path d="M 17 43 
L 9 43 
L 9 34.984375 
L 17 34.984375 
z
M 9 8 
L 9 0 
L 17 0 
L 17 8 
z
" id="CMSS17-58"/>
      <path d="M 40.796875 69 
L 33.40625 69 
L 33.40625 38.984375 
C 30.296875 41.59375 25.203125 44 19.59375 44 
C 10.5 44 3.296875 34.046875 3.296875 21.484375 
C 3.296875 8.9375 10.40625 -1 19.296875 -1 
C 26.203125 -1 30.796875 2.6875 33.203125 4.796875 
L 33.203125 -0.203125 
L 40.796875 -0.203125 
z
M 33.203125 13.296875 
C 33.203125 11.875 33.203125 10.359375 30.09375 7.625 
C 28.09375 5.90625 25.703125 5.09375 23.40625 5.09375 
C 18 5.09375 10.90625 9.140625 10.90625 21.390625 
C 10.90625 34.140625 18.90625 37.890625 24.40625 37.890625 
C 28.09375 37.890625 31.09375 36.0625 33.203125 33.03125 
z
" id="CMSS17-100"/>
      <path d="M 38.5 39.6875 
C 38.5 40.390625 33.90625 42.390625 32.703125 42.796875 
C 29.40625 44 25.203125 44 24.09375 44 
C 11.09375 44 3.296875 32.6875 3.296875 21.296875 
C 3.296875 9.296875 12 -1 23.703125 -1 
C 30.40625 -1 35.203125 1.1875 39.09375 3.796875 
L 38.5 10.390625 
C 34.203125 7.09375 29.203125 5.296875 23.796875 5.296875 
C 16 5.296875 10.90625 12.09375 10.90625 21.390625 
C 10.90625 28.59375 14.203125 37.6875 24.203125 37.6875 
C 29.703125 37.6875 32.796875 36.59375 37.40625 33.484375 
z
" id="CMSS17-99"/>
      <path d="M 11.296875 -25 
C 16.703125 -19.5 29.09375 -6.6875 29.09375 24.9375 
C 29.09375 56.671875 16.703125 69.375 11.296875 75 
L 5.203125 75 
C 17.5 62.171875 21.5 44.265625 21.5 25.046875 
C 21.5 5.921875 17.703125 -12.09375 5.203125 -25 
z
" id="CMSS17-41"/>
     </defs>
     <g transform="translate(7.330102 180.151893)rotate(-90)scale(0.15 -0.15)">
      <use transform="scale(0.996264)" xlink:href="#CMSS17-77"/>
      <use transform="translate(81.67603 0)scale(0.996264)" xlink:href="#CMSS17-101"/>
      <use transform="translate(123.314852 0)scale(0.996264)" xlink:href="#CMSS17-109"/>
      <use transform="translate(197.544106 0)scale(0.996264)" xlink:href="#CMSS17-111"/>
      <use transform="translate(241.785276 0)scale(0.996264)" xlink:href="#CMSS17-114"/>
      <use transform="translate(273.695049 0)scale(0.996264)" xlink:href="#CMSS17-121"/>
      <use transform="translate(347.924303 0)scale(0.996264)" xlink:href="#CMSS17-40"/>
      <use transform="translate(384.358217 0)scale(0.996264)" xlink:href="#CMSS17-117"/>
      <use transform="translate(432.56316 0)scale(0.996264)" xlink:href="#CMSS17-110"/>
      <use transform="translate(480.768103 0)scale(0.996264)" xlink:href="#CMSS17-105"/>
      <use transform="translate(502.948827 0)scale(0.996264)" xlink:href="#CMSS17-116"/>
      <use transform="translate(536.780393 0)scale(0.996264)" xlink:href="#CMSS17-115"/>
      <use transform="translate(572.693935 0)scale(0.996264)" xlink:href="#CMSS17-58"/>
      <use transform="translate(640.356947 0)scale(0.996264)" xlink:href="#CMSS17-101"/>
      <use transform="translate(681.995769 0)scale(0.996264)" xlink:href="#CMSS17-100"/>
      <use transform="translate(730.200712 0)scale(0.996264)" xlink:href="#CMSS17-103"/>
      <use transform="translate(777.044336 0)scale(0.996264)" xlink:href="#CMSS17-101"/>
      <use transform="translate(849.912271 0)scale(0.996264)" xlink:href="#CMSS17-114"/>
      <use transform="translate(881.822043 0)scale(0.996264)" xlink:href="#CMSS17-101"/>
      <use transform="translate(923.460865 0)scale(0.996264)" xlink:href="#CMSS17-99"/>
      <use transform="translate(965.099687 0)scale(0.996264)" xlink:href="#CMSS17-111"/>
      <use transform="translate(1009.340857 0)scale(0.996264)" xlink:href="#CMSS17-114"/>
      <use transform="translate(1041.250629 0)scale(0.996264)" xlink:href="#CMSS17-100"/>
      <use transform="translate(1089.455572 0)scale(0.996264)" xlink:href="#CMSS17-115"/>
      <use transform="translate(1125.369114 0)scale(0.996264)" xlink:href="#CMSS17-41"/>
     </g>
    </g>
   </g>
   <g id="line2d_43">
    <path clip-path="url(#pcc72af0923)" d="M 46.145455 151.322727 
L 48.195041 140.245037 
L 50.244628 134.350886 
L 52.294215 129.673971 
L 54.343802 126.117137 
L 56.393388 123.445178 
L 58.442975 121.344413 
L 60.492562 119.148599 
L 62.542149 117.423122 
L 64.591736 115.890835 
L 66.641322 114.230715 
L 68.690909 113.044092 
L 70.740496 112.175353 
L 72.790083 110.984554 
L 74.839669 110.03937 
L 76.889256 108.98967 
L 78.938843 108.181083 
L 80.98843 107.341435 
L 83.038017 106.485928 
L 85.087603 105.814452 
L 87.13719 105.141001 
L 89.186777 104.345546 
L 91.236364 104.020233 
L 93.28595 103.356043 
L 95.335537 102.869807 
L 97.385124 102.337665 
L 99.434711 101.728499 
L 101.484298 101.068866 
L 103.533884 100.505778 
L 105.583471 100.423926 
L 107.633058 99.993023 
L 109.682645 99.437084 
L 111.732231 98.860964 
L 113.781818 98.733318 
L 115.831405 98.005997 
L 117.880992 97.760605 
L 119.930579 97.445582 
L 121.980165 96.987085 
L 124.029752 96.73295 
L 126.079339 96.338258 
L 128.128926 95.950372 
L 130.178512 96.023493 
L 132.228099 95.321799 
L 134.277686 95.336724 
L 136.327273 94.778085 
L 138.37686 94.423057 
L 140.426446 94.454938 
L 142.476033 93.976558 
L 144.52562 93.605138 
L 146.575207 93.812502 
L 148.624793 93.641783 
L 150.67438 92.925363 
L 152.723967 92.645569 
L 154.773554 92.648694 
L 156.82314 92.686691 
L 158.872727 91.98672 
L 160.922314 91.82128 
L 162.971901 91.656669 
L 165.021488 91.694271 
L 167.071074 91.228245 
L 169.120661 90.607923 
L 171.170248 90.77945 
L 173.219835 90.606939 
L 175.269421 90.786074 
L 177.319008 90.495263 
L 179.368595 89.885016 
L 181.418182 89.62359 
L 183.467769 89.445722 
L 185.517355 89.323709 
L 187.566942 89.434932 
L 189.616529 89.206467 
L 191.666116 88.780385 
L 193.715702 88.494941 
L 195.765289 88.480745 
L 197.814876 88.208114 
L 199.864463 88.191084 
L 201.91405 88.326994 
L 203.963636 88.100028 
L 206.013223 87.669884 
L 208.06281 87.509199 
L 210.112397 87.144536 
L 212.161983 86.950423 
L 214.21157 86.936009 
L 216.261157 86.916468 
L 218.310744 87.054817 
L 220.360331 87.041803 
L 222.409917 86.707969 
L 224.459504 86.294428 
L 226.509091 85.920862 
L 228.558678 85.88179 
L 230.608264 85.706146 
L 232.657851 85.634315 
L 234.707438 85.551477 
L 236.757025 85.610643 
L 238.806612 85.522637 
L 240.856198 85.707885 
L 242.905785 85.653494 
L 244.955372 85.382114 
L 247.004959 84.952734 
L 249.054545 84.962945 
" style="fill:none;stroke:#0000ff;stroke-linecap:square;stroke-opacity:0.5;stroke-width:2;"/>
   </g>
   <g id="line2d_44">
    <path clip-path="url(#pcc72af0923)" d="M 46.145455 31.398179 
L 48.195041 39.870153 
L 50.244628 44.788105 
L 52.294215 48.326751 
L 54.343802 51.078491 
L 56.393388 53.274919 
L 58.442975 55.065547 
L 60.492562 56.845492 
L 62.542149 58.110108 
L 64.591736 59.368654 
L 66.641322 60.70763 
L 68.690909 61.641399 
L 70.740496 62.449024 
L 72.790083 63.44505 
L 74.839669 64.368976 
L 76.889256 64.878775 
L 78.938843 65.677107 
L 80.98843 66.392728 
L 83.038017 67.067488 
L 85.087603 67.71551 
L 87.13719 68.296612 
L 89.186777 68.843184 
L 91.236364 69.087012 
L 93.28595 69.593731 
L 95.335537 70.056813 
L 97.385124 70.527594 
L 99.434711 70.993975 
L 101.484298 71.413477 
L 103.533884 71.793507 
L 105.583471 72.178574 
L 107.633058 72.598131 
L 109.682645 72.917178 
L 111.732231 73.251612 
L 113.781818 73.694625 
L 115.831405 73.939542 
L 117.880992 74.239146 
L 119.930579 74.393736 
L 121.980165 74.689413 
L 124.029752 75.013765 
L 126.079339 75.307233 
L 128.128926 75.509812 
L 130.178512 75.889362 
L 132.228099 76.066385 
L 134.277686 76.416849 
L 136.327273 76.607747 
L 138.37686 76.78644 
L 140.426446 77.125312 
L 142.476033 77.311816 
L 144.52562 77.525161 
L 146.575207 77.18316 
L 148.624793 77.432203 
L 150.67438 77.508469 
L 152.723967 77.717646 
L 154.773554 78.00216 
L 156.82314 78.24584 
L 158.872727 78.298584 
L 160.922314 78.513966 
L 162.971901 78.697983 
L 165.021488 78.97517 
L 167.071074 79.078955 
L 169.120661 79.123516 
L 171.170248 79.244892 
L 173.219835 79.434594 
L 175.269421 79.747277 
L 177.319008 79.84599 
L 179.368595 79.863108 
L 181.418182 80.001251 
L 183.467769 80.153569 
L 185.517355 80.336101 
L 187.566942 80.604738 
L 189.616529 80.727727 
L 191.666116 80.781514 
L 193.715702 80.745347 
L 195.765289 80.93232 
L 197.814876 81.038554 
L 199.864463 81.227225 
L 201.91405 81.483914 
L 203.963636 81.594597 
L 206.013223 81.619044 
L 208.06281 81.74837 
L 210.112397 81.794839 
L 212.161983 81.90377 
L 214.21157 81.963926 
L 216.261157 82.135281 
L 218.310744 82.379245 
L 220.360331 82.555916 
L 222.409917 82.593777 
L 224.459504 82.599174 
L 226.509091 82.609565 
L 228.558678 82.767358 
L 230.608264 82.869396 
L 232.657851 82.901852 
L 234.707438 83.03198 
L 236.757025 83.224581 
L 238.806612 83.353969 
L 240.856198 83.600394 
L 242.905785 83.744863 
L 244.955372 83.781452 
L 247.004959 83.75228 
L 249.054545 83.477376 
" style="fill:none;stroke:#ff0000;stroke-linecap:square;stroke-opacity:0.5;stroke-width:2;"/>
   </g>
   <g id="line2d_45">
    <path clip-path="url(#pcc72af0923)" d="M 46.145455 145.738079 
L 48.195041 136.165898 
L 50.244628 130.584025 
L 52.294215 126.635476 
L 54.343802 123.58161 
L 56.393388 121.09343 
L 58.442975 118.995446 
L 60.492562 117.182916 
L 62.542149 115.588281 
L 64.591736 114.165421 
L 66.641322 112.881442 
L 68.690909 111.712061 
L 70.740496 110.63884 
L 72.790083 109.64745 
L 74.839669 108.726534 
L 76.889256 107.866938 
L 78.938843 107.061177 
L 80.98843 106.303053 
L 83.038017 105.587375 
L 85.087603 104.909753 
L 87.13719 104.26644 
L 89.186777 103.654214 
L 91.236364 103.070286 
L 93.28595 102.512221 
L 95.335537 101.977885 
L 97.385124 101.465395 
L 99.434711 100.973082 
L 101.484298 100.499462 
L 103.533884 100.043205 
L 105.583471 99.603117 
L 107.633058 99.178125 
L 109.682645 98.767254 
L 111.732231 98.369625 
L 113.781818 97.984433 
L 115.831405 97.610946 
L 117.880992 97.248494 
L 119.930579 96.896463 
L 121.980165 96.554286 
L 124.029752 96.221443 
L 126.079339 95.897453 
L 128.128926 95.581871 
L 130.178512 95.274283 
L 132.228099 94.974307 
L 134.277686 94.681585 
L 136.327273 94.395784 
L 138.37686 94.116596 
L 140.426446 93.843728 
L 142.476033 93.57691 
L 144.52562 93.315886 
L 146.575207 93.060417 
L 148.624793 92.810279 
L 150.67438 92.56526 
L 152.723967 92.32516 
L 154.773554 92.089791 
L 156.82314 91.858976 
L 158.872727 91.632546 
L 160.922314 91.410343 
L 162.971901 91.192216 
L 165.021488 90.978022 
L 167.071074 90.767626 
L 169.120661 90.560899 
L 171.170248 90.357718 
L 173.219835 90.157969 
L 175.269421 89.961538 
L 177.319008 89.768322 
L 179.368595 89.578218 
L 181.418182 89.391132 
L 183.467769 89.206972 
L 185.517355 89.025648 
L 187.566942 88.847079 
L 189.616529 88.671183 
L 191.666116 88.497884 
L 193.715702 88.327108 
L 195.765289 88.158784 
L 197.814876 87.992845 
L 199.864463 87.829226 
L 201.91405 87.667865 
L 203.963636 87.508701 
L 206.013223 87.351676 
L 208.06281 87.196737 
L 210.112397 87.043829 
L 212.161983 86.892901 
L 214.21157 86.743903 
L 216.261157 86.596788 
L 218.310744 86.451511 
L 220.360331 86.308026 
L 222.409917 86.166291 
L 224.459504 86.026266 
L 226.509091 85.887909 
L 228.558678 85.751183 
L 230.608264 85.616051 
L 232.657851 85.482476 
L 234.707438 85.350425 
L 236.757025 85.219863 
L 238.806612 85.090757 
L 240.856198 84.963078 
L 242.905785 84.836793 
L 244.955372 84.711874 
L 247.004959 84.588291 
L 249.054545 84.466018 
" style="fill:none;stroke:#000000;stroke-linecap:square;stroke-opacity:0.5;stroke-width:2;"/>
    <defs>
     <path d="M 0 4.242641 
L 2.545584 0 
L 0 -4.242641 
L -2.545584 0 
z
" id="mbab1f15ef6" style="stroke:#000000;stroke-linejoin:miter;stroke-opacity:0.5;"/>
    </defs>
    <g clip-path="url(#pcc72af0923)">
     <use style="fill-opacity:0.5;stroke:#000000;stroke-linejoin:miter;stroke-opacity:0.5;" x="46.145455" xlink:href="#mbab1f15ef6" y="145.738079"/>
     <use style="fill-opacity:0.5;stroke:#000000;stroke-linejoin:miter;stroke-opacity:0.5;" x="66.641322" xlink:href="#mbab1f15ef6" y="112.881442"/>
     <use style="fill-opacity:0.5;stroke:#000000;stroke-linejoin:miter;stroke-opacity:0.5;" x="87.13719" xlink:href="#mbab1f15ef6" y="104.26644"/>
     <use style="fill-opacity:0.5;stroke:#000000;stroke-linejoin:miter;stroke-opacity:0.5;" x="107.633058" xlink:href="#mbab1f15ef6" y="99.178125"/>
     <use style="fill-opacity:0.5;stroke:#000000;stroke-linejoin:miter;stroke-opacity:0.5;" x="128.128926" xlink:href="#mbab1f15ef6" y="95.581871"/>
     <use style="fill-opacity:0.5;stroke:#000000;stroke-linejoin:miter;stroke-opacity:0.5;" x="148.624793" xlink:href="#mbab1f15ef6" y="92.810279"/>
     <use style="fill-opacity:0.5;stroke:#000000;stroke-linejoin:miter;stroke-opacity:0.5;" x="169.120661" xlink:href="#mbab1f15ef6" y="90.560899"/>
     <use style="fill-opacity:0.5;stroke:#000000;stroke-linejoin:miter;stroke-opacity:0.5;" x="189.616529" xlink:href="#mbab1f15ef6" y="88.671183"/>
     <use style="fill-opacity:0.5;stroke:#000000;stroke-linejoin:miter;stroke-opacity:0.5;" x="210.112397" xlink:href="#mbab1f15ef6" y="87.043829"/>
     <use style="fill-opacity:0.5;stroke:#000000;stroke-linejoin:miter;stroke-opacity:0.5;" x="230.608264" xlink:href="#mbab1f15ef6" y="85.616051"/>
    </g>
   </g>
   <g id="line2d_46">
    <path clip-path="url(#pcc72af0923)" d="M 46.145455 27.777273 
L 48.195041 37.25416 
L 50.244628 42.742264 
L 52.294215 46.598517 
L 54.343802 49.561508 
L 56.393388 51.960188 
L 58.442975 53.970001 
L 60.492562 55.69565 
L 62.542149 57.204649 
L 64.591736 58.543084 
L 66.641322 59.74381 
L 68.690909 60.831075 
L 70.740496 61.823284 
L 72.790083 62.734734 
L 74.839669 63.576752 
L 76.889256 64.358462 
L 78.938843 65.087321 
L 80.98843 65.769501 
L 83.038017 66.410168 
L 85.087603 67.013686 
L 87.13719 67.583779 
L 89.186777 68.123645 
L 91.236364 68.636054 
L 93.28595 69.123418 
L 95.335537 69.587851 
L 97.385124 70.031217 
L 99.434711 70.455166 
L 101.484298 70.861165 
L 103.533884 71.250526 
L 105.583471 71.624425 
L 107.633058 71.983922 
L 109.682645 72.329973 
L 111.732231 72.663445 
L 113.781818 72.985126 
L 115.831405 73.295734 
L 117.880992 73.595927 
L 119.930579 73.886307 
L 121.980165 74.167424 
L 124.029752 74.439789 
L 126.079339 74.703871 
L 128.128926 74.960103 
L 130.178512 75.208887 
L 132.228099 75.450595 
L 134.277686 75.685575 
L 136.327273 75.914147 
L 138.37686 76.136614 
L 140.426446 76.353255 
L 142.476033 76.564333 
L 144.52562 76.770093 
L 146.575207 76.970767 
L 148.624793 77.166571 
L 150.67438 77.357707 
L 152.723967 77.544367 
L 154.773554 77.726732 
L 156.82314 77.904971 
L 158.872727 78.079246 
L 160.922314 78.249707 
L 162.971901 78.416498 
L 165.021488 78.579756 
L 167.071074 78.739609 
L 169.120661 78.896179 
L 171.170248 79.049582 
L 173.219835 79.199928 
L 175.269421 79.347323 
L 177.319008 79.491865 
L 179.368595 79.63365 
L 181.418182 79.772769 
L 183.467769 79.909307 
L 185.517355 80.043347 
L 187.566942 80.174968 
L 189.616529 80.304245 
L 191.666116 80.431249 
L 193.715702 80.55605 
L 195.765289 80.678714 
L 197.814876 80.799302 
L 199.864463 80.917877 
L 201.91405 81.034495 
L 203.963636 81.149212 
L 206.013223 81.262082 
L 208.06281 81.373156 
L 210.112397 81.482483 
L 212.161983 81.590111 
L 214.21157 81.696084 
L 216.261157 81.800448 
L 218.310744 81.903243 
L 220.360331 82.004511 
L 222.409917 82.104291 
L 224.459504 82.20262 
L 226.509091 82.299535 
L 228.558678 82.395071 
L 230.608264 82.489262 
L 232.657851 82.58214 
L 234.707438 82.673736 
L 236.757025 82.764083 
L 238.806612 82.853208 
L 240.856198 82.941141 
L 242.905785 83.027908 
L 244.955372 83.113538 
L 247.004959 83.198054 
L 249.054545 83.281483 
" style="fill:none;stroke:#000000;stroke-linecap:square;stroke-opacity:0.5;stroke-width:2;"/>
    <defs>
     <path d="M 0 3 
C 0.795609 3 1.55874 2.683901 2.12132 2.12132 
C 2.683901 1.55874 3 0.795609 3 0 
C 3 -0.795609 2.683901 -1.55874 2.12132 -2.12132 
C 1.55874 -2.683901 0.795609 -3 0 -3 
C -0.795609 -3 -1.55874 -2.683901 -2.12132 -2.12132 
C -2.683901 -1.55874 -3 -0.795609 -3 0 
C -3 0.795609 -2.683901 1.55874 -2.12132 2.12132 
C -1.55874 2.683901 -0.795609 3 0 3 
z
" id="mf7e6bb881a" style="stroke:#000000;stroke-opacity:0.5;"/>
    </defs>
    <g clip-path="url(#pcc72af0923)">
     <use style="fill-opacity:0.5;stroke:#000000;stroke-opacity:0.5;" x="46.145455" xlink:href="#mf7e6bb881a" y="27.777273"/>
     <use style="fill-opacity:0.5;stroke:#000000;stroke-opacity:0.5;" x="66.641322" xlink:href="#mf7e6bb881a" y="59.74381"/>
     <use style="fill-opacity:0.5;stroke:#000000;stroke-opacity:0.5;" x="87.13719" xlink:href="#mf7e6bb881a" y="67.583779"/>
     <use style="fill-opacity:0.5;stroke:#000000;stroke-opacity:0.5;" x="107.633058" xlink:href="#mf7e6bb881a" y="71.983922"/>
     <use style="fill-opacity:0.5;stroke:#000000;stroke-opacity:0.5;" x="128.128926" xlink:href="#mf7e6bb881a" y="74.960103"/>
     <use style="fill-opacity:0.5;stroke:#000000;stroke-opacity:0.5;" x="148.624793" xlink:href="#mf7e6bb881a" y="77.166571"/>
     <use style="fill-opacity:0.5;stroke:#000000;stroke-opacity:0.5;" x="169.120661" xlink:href="#mf7e6bb881a" y="78.896179"/>
     <use style="fill-opacity:0.5;stroke:#000000;stroke-opacity:0.5;" x="189.616529" xlink:href="#mf7e6bb881a" y="80.304245"/>
     <use style="fill-opacity:0.5;stroke:#000000;stroke-opacity:0.5;" x="210.112397" xlink:href="#mf7e6bb881a" y="81.482483"/>
     <use style="fill-opacity:0.5;stroke:#000000;stroke-opacity:0.5;" x="230.608264" xlink:href="#mf7e6bb881a" y="82.489262"/>
    </g>
   </g>
   <g id="patch_3">
    <path d="M 36 157.5 
L 36 21.6 
" style="fill:none;stroke:#000000;stroke-linecap:square;stroke-linejoin:miter;stroke-width:0.8;"/>
   </g>
   <g id="patch_4">
    <path d="M 259.2 157.5 
L 259.2 21.6 
" style="fill:none;stroke:#000000;stroke-linecap:square;stroke-linejoin:miter;stroke-width:0.8;"/>
   </g>
   <g id="patch_5">
    <path d="M 36 157.5 
L 259.2 157.5 
" style="fill:none;stroke:#000000;stroke-linecap:square;stroke-linejoin:miter;stroke-width:0.8;"/>
   </g>
   <g id="patch_6">
    <path d="M 36 21.6 
L 259.2 21.6 
" style="fill:none;stroke:#000000;stroke-linecap:square;stroke-linejoin:miter;stroke-width:0.8;"/>
   </g>
   <g id="legend_1">
    <g id="patch_7">
     <path d="M 163.703381 152.5 
L 252.2 152.5 
Q 254.2 152.5 254.2 150.5 
L 254.2 95.751287 
Q 254.2 93.751287 252.2 93.751287 
L 163.703381 93.751287 
Q 161.703381 93.751287 161.703381 95.751287 
L 161.703381 150.5 
Q 161.703381 152.5 163.703381 152.5 
z
" style="fill:#ffffff;opacity:0.8;stroke:#cccccc;stroke-linejoin:miter;"/>
    </g>
    <g id="line2d_47">
     <path d="M 165.703381 101.251287 
L 185.703381 101.251287 
" style="fill:none;stroke:#0000ff;stroke-linecap:square;stroke-opacity:0.5;stroke-width:2;"/>
    </g>
    <g id="line2d_48"/>
    <g id="text_12">
     <!-- Observed $\textit{UN}$ -->
     <defs>
      <path d="M 64 34.390625 
C 64 55.328125 50.296875 71 34.59375 71 
C 18.90625 71 5.203125 55.234375 5.203125 34.390625 
C 5.203125 13.359375 19.09375 -2 34.59375 -2 
C 50.09375 -2 64 13.359375 64 34.390625 
z
M 34.59375 4.296875 
C 23.59375 4.296875 13.59375 16.671875 13.59375 35.703125 
C 13.59375 54.21875 24.203125 64.6875 34.59375 64.6875 
C 45 64.6875 55.59375 54.21875 55.59375 35.703125 
C 55.59375 16.578125 45.5 4.296875 34.59375 4.296875 
z
" id="CMSS17-79"/>
      <path d="M 14.90625 69 
L 7.5 69 
L 7.5 -0.203125 
L 15.09375 -0.203125 
L 15.09375 4.296875 
C 18.90625 0.59375 23.5 -1 27.59375 -1 
C 37.203125 -1 45 8.734375 45 21.59375 
C 45 33.328125 39 44 30.09375 44 
C 23.796875 44 18.203125 41.390625 14.90625 38.6875 
z
M 15.09375 32.734375 
C 17.296875 35.5625 20.40625 37.890625 24.796875 37.890625 
C 30.703125 37.890625 37.40625 33.53125 37.40625 21.59375 
C 37.40625 8.84375 29.40625 5.09375 23.90625 5.09375 
C 21.90625 5.09375 19.796875 5.59375 17.796875 7.3125 
C 15.09375 9.75 15.09375 11.265625 15.09375 12.6875 
z
" id="CMSS17-98"/>
      <path d="M 41.796875 43 
L 34 43 
L 27.296875 24.296875 
C 25.203125 18.1875 22.203125 9.796875 21.703125 5.5 
L 21.59375 5.5 
C 21.40625 7.296875 20.59375 9.890625 20.09375 11.6875 
C 19.5 13.890625 18.703125 16.5 18.09375 18.296875 
L 9.296875 43 
L 1.296875 43 
L 17.09375 0 
L 26 0 
z
" id="CMSS17-118"/>
      <path d="M 70.296875 69 
L 62.703125 69 
L 52.796875 22.390625 
C 50.59375 12 42.59375 3.59375 33.203125 3.59375 
C 29.296875 3.59375 21.5 5.59375 21.5 17 
C 21.5 17.1875 21.5 20.09375 22 22.390625 
L 32 69 
L 23.59375 69 
L 13.59375 22.390625 
C 13.40625 21.390625 13.09375 18.5 13.09375 17.390625 
C 13.09375 6.296875 20.796875 -2 32 -2 
C 45.296875 -2 57.59375 9.796875 60.296875 22.296875 
z
" id="CMSSI17-85"/>
      <path d="M 72.203125 69 
L 64.40625 69 
L 51.296875 7.65625 
L 51.203125 7.65625 
C 50.5 11.140625 49.59375 14.609375 48.59375 18.59375 
L 35.90625 69 
L 23.59375 69 
L 8.796875 0 
L 16.59375 0 
L 29.703125 61.328125 
L 29.796875 61.328125 
C 30.296875 58.640625 31.703125 53.375 34.203125 43.234375 
L 45.09375 0 
L 57.40625 0 
z
" id="CMSSI17-78"/>
     </defs>
     <g transform="translate(193.703381 104.751287)scale(0.1 -0.1)">
      <use transform="scale(0.996264)" xlink:href="#CMSS17-79"/>
      <use transform="translate(69.024255 0)scale(0.996264)" xlink:href="#CMSS17-98"/>
      <use transform="translate(117.229198 0)scale(0.996264)" xlink:href="#CMSS17-115"/>
      <use transform="translate(153.14274 0)scale(0.996264)" xlink:href="#CMSS17-101"/>
      <use transform="translate(194.781563 0)scale(0.996264)" xlink:href="#CMSS17-114"/>
      <use transform="translate(226.691335 0)scale(0.996264)" xlink:href="#CMSS17-118"/>
      <use transform="translate(269.691477 0)scale(0.996264)" xlink:href="#CMSS17-101"/>
      <use transform="translate(311.330299 0)scale(0.996264)" xlink:href="#CMSS17-100"/>
      <use transform="translate(390.764355 0)scale(0.996264)" xlink:href="#CMSSI17-85"/>
      <use transform="translate(454.904095 0)scale(0.996264)" xlink:href="#CMSSI17-78"/>
     </g>
    </g>
    <g id="line2d_49">
     <path d="M 165.703381 115.188465 
L 185.703381 115.188465 
" style="fill:none;stroke:#ff0000;stroke-linecap:square;stroke-opacity:0.5;stroke-width:2;"/>
    </g>
    <g id="line2d_50"/>
    <g id="text_13">
     <!-- Observed $\textit{RC}$ -->
     <defs>
      <path d="M 46.296875 32.890625 
C 60.796875 37.1875 66.40625 46.875 66.40625 53.625 
C 66.40625 62.015625 58.5 69 46.203125 69 
L 23.703125 69 
L 8.90625 0 
L 17.09375 0 
L 23.796875 31.890625 
L 38.5 31.890625 
L 49.5 0 
L 57.90625 0 
z
M 30.703125 63.390625 
L 43.90625 63.390625 
C 52.5 63.390625 58.40625 59.875 58.40625 53.03125 
C 58.40625 46 51.59375 38 38.40625 38 
L 25.09375 38 
z
" id="CMSSI17-82"/>
      <path d="M 68.5 66.59375 
C 63.09375 69.1875 59.40625 70 50.59375 70 
C 31.90625 70 12.703125 48.1875 12.703125 26 
C 12.703125 11.390625 21.09375 -1 37.5 -1 
C 45.796875 -1 50.203125 1.09375 56.40625 4.59375 
L 57.203125 11.296875 
C 52.90625 8.796875 48.59375 5.5 38.59375 5.5 
C 25.703125 5.5 21.203125 16.6875 21.203125 26.1875 
C 21.203125 44.296875 35 63.59375 50.09375 63.59375 
C 57.09375 63.59375 61.90625 61.796875 65.40625 58.703125 
z
" id="CMSSI17-67"/>
     </defs>
     <g transform="translate(193.703381 118.688465)scale(0.1 -0.1)">
      <use transform="scale(0.996264)" xlink:href="#CMSS17-79"/>
      <use transform="translate(69.024255 0)scale(0.996264)" xlink:href="#CMSS17-98"/>
      <use transform="translate(117.229198 0)scale(0.996264)" xlink:href="#CMSS17-115"/>
      <use transform="translate(153.14274 0)scale(0.996264)" xlink:href="#CMSS17-101"/>
      <use transform="translate(194.781563 0)scale(0.996264)" xlink:href="#CMSS17-114"/>
      <use transform="translate(226.691335 0)scale(0.996264)" xlink:href="#CMSS17-118"/>
      <use transform="translate(269.691477 0)scale(0.996264)" xlink:href="#CMSS17-101"/>
      <use transform="translate(311.330299 0)scale(0.996264)" xlink:href="#CMSS17-100"/>
      <use transform="translate(390.764355 0)scale(0.996264)" xlink:href="#CMSSI17-82"/>
      <use transform="translate(451.18051 0)scale(0.996264)" xlink:href="#CMSSI17-67"/>
     </g>
    </g>
    <g id="line2d_51">
     <path d="M 165.703381 129.125643 
L 185.703381 129.125643 
" style="fill:none;stroke:#000000;stroke-linecap:square;stroke-opacity:0.5;stroke-width:2;"/>
    </g>
    <g id="line2d_52">
     <g>
      <use style="fill-opacity:0.5;stroke:#000000;stroke-linejoin:miter;stroke-opacity:0.5;" x="175.703381" xlink:href="#mbab1f15ef6" y="129.125643"/>
     </g>
    </g>
    <g id="text_14">
     <!-- analytical $\textit{UN}$ -->
     <defs>
      <path d="M 14.796875 69 
L 7.40625 69 
L 7.40625 0 
L 14.796875 0 
z
" id="CMSS17-108"/>
     </defs>
     <g transform="translate(193.703381 132.625643)scale(0.1 -0.1)">
      <use transform="scale(0.996264)" xlink:href="#CMSS17-97"/>
      <use transform="translate(44.921921 0)scale(0.996264)" xlink:href="#CMSS17-110"/>
      <use transform="translate(93.126864 0)scale(0.996264)" xlink:href="#CMSS17-97"/>
      <use transform="translate(138.048784 0)scale(0.996264)" xlink:href="#CMSS17-108"/>
      <use transform="translate(160.229507 0)scale(0.996264)" xlink:href="#CMSS17-121"/>
      <use transform="translate(203.229649 0)scale(0.996264)" xlink:href="#CMSS17-116"/>
      <use transform="translate(237.061216 0)scale(0.996264)" xlink:href="#CMSS17-105"/>
      <use transform="translate(259.241939 0)scale(0.996264)" xlink:href="#CMSS17-99"/>
      <use transform="translate(300.880761 0)scale(0.996264)" xlink:href="#CMSS17-97"/>
      <use transform="translate(345.802681 0)scale(0.996264)" xlink:href="#CMSS17-108"/>
      <use transform="translate(399.212517 0)scale(0.996264)" xlink:href="#CMSSI17-85"/>
      <use transform="translate(463.352258 0)scale(0.996264)" xlink:href="#CMSSI17-78"/>
     </g>
    </g>
    <g id="line2d_53">
     <path d="M 165.703381 143.062822 
L 185.703381 143.062822 
" style="fill:none;stroke:#000000;stroke-linecap:square;stroke-opacity:0.5;stroke-width:2;"/>
    </g>
    <g id="line2d_54">
     <g>
      <use style="fill-opacity:0.5;stroke:#000000;stroke-opacity:0.5;" x="175.703381" xlink:href="#mf7e6bb881a" y="143.062822"/>
     </g>
    </g>
    <g id="text_15">
     <!-- analytical $\textit{RC}$ -->
     <g transform="translate(193.703381 146.562822)scale(0.1 -0.1)">
      <use transform="scale(0.996264)" xlink:href="#CMSS17-97"/>
      <use transform="translate(44.921921 0)scale(0.996264)" xlink:href="#CMSS17-110"/>
      <use transform="translate(93.126864 0)scale(0.996264)" xlink:href="#CMSS17-97"/>
      <use transform="translate(138.048784 0)scale(0.996264)" xlink:href="#CMSS17-108"/>
      <use transform="translate(160.229507 0)scale(0.996264)" xlink:href="#CMSS17-121"/>
      <use transform="translate(203.229649 0)scale(0.996264)" xlink:href="#CMSS17-116"/>
      <use transform="translate(237.061216 0)scale(0.996264)" xlink:href="#CMSS17-105"/>
      <use transform="translate(259.241939 0)scale(0.996264)" xlink:href="#CMSS17-99"/>
      <use transform="translate(300.880761 0)scale(0.996264)" xlink:href="#CMSS17-97"/>
      <use transform="translate(345.802681 0)scale(0.996264)" xlink:href="#CMSS17-108"/>
      <use transform="translate(399.212517 0)scale(0.996264)" xlink:href="#CMSSI17-82"/>
      <use transform="translate(459.628672 0)scale(0.996264)" xlink:href="#CMSSI17-67"/>
     </g>
    </g>
   </g>
  </g>
 </g>
 <defs>
  <clipPath id="pcc72af0923">
   <rect height="135.9" width="223.2" x="36" y="21.6"/>
  </clipPath>
 </defs>
</svg>
