<?xml version="1.0" encoding="utf-8" standalone="no"?>
<!DOCTYPE svg PUBLIC "-//W3C//DTD SVG 1.1//EN"
  "http://www.w3.org/Graphics/SVG/1.1/DTD/svg11.dtd">
<!-- Created with matplotlib (http://matplotlib.org/) -->
<svg height="288pt" version="1.1" viewBox="0 0 432 288" width="432pt" xmlns="http://www.w3.org/2000/svg" xmlns:xlink="http://www.w3.org/1999/xlink">
 <defs>
  <style type="text/css">
*{stroke-linecap:butt;stroke-linejoin:round;}
  </style>
 </defs>
 <g id="figure_1">
  <g id="patch_1">
   <path d="M 0 288 
L 432 288 
L 432 0 
L 0 0 
z
" style="fill:#ffffff;"/>
  </g>
  <g id="axes_1">
   <g id="patch_2">
    <path d="M 54 252 
L 388.8 252 
L 388.8 34.56 
L 54 34.56 
z
" style="fill:#ffffff;"/>
   </g>
   <g id="matplotlib.axis_1">
    <g id="xtick_1">
     <g id="line2d_1">
      <defs>
       <path d="M 0 0 
L 0 3.5 
" id="m95a634de94" style="stroke:#000000;stroke-width:0.8;"/>
      </defs>
      <g>
       <use style="stroke:#000000;stroke-width:0.8;" x="66.143802" xlink:href="#m95a634de94" y="252"/>
      </g>
     </g>
     <g id="text_1">
      <!-- $1.00$ -->
      <defs>
       <path d="M 26.59375 63.796875 
C 26.59375 65.890625 26.5 66 25.09375 66 
C 21.203125 61.359375 15.296875 59.890625 9.703125 59.6875 
C 9.40625 59.6875 8.90625 59.6875 8.796875 59.5 
C 8.703125 59.296875 8.703125 59.09375 8.703125 57 
C 11.796875 57 17 57.59375 21 59.984375 
L 21 7.296875 
C 21 3.796875 20.796875 2.59375 12.203125 2.59375 
L 9.203125 2.59375 
L 9.203125 0 
C 14 0.09375 19 0.1875 23.796875 0.1875 
C 28.59375 0.1875 33.59375 0.09375 38.40625 0 
L 38.40625 2.59375 
L 35.40625 2.59375 
C 26.796875 2.59375 26.59375 3.6875 26.59375 7.296875 
z
" id="CMR17-49"/>
       <path d="M 18.40625 4.796875 
C 18.40625 7.6875 16 9.6875 13.59375 9.6875 
C 10.703125 9.6875 8.703125 7.296875 8.703125 4.890625 
C 8.703125 2 11.09375 0 13.5 0 
C 16.40625 0 18.40625 2.390625 18.40625 4.796875 
z
" id="CMMI12-58"/>
       <path d="M 42 31.84375 
C 42 37.96875 41.90625 48.421875 37.703125 56.453125 
C 34 63.484375 28.09375 66 22.90625 66 
C 18.09375 66 12 63.78125 8.203125 56.5625 
C 4.203125 49.015625 3.796875 39.671875 3.796875 31.84375 
C 3.796875 26.109375 3.90625 17.375 7 9.734375 
C 11.296875 -0.609375 19 -2 22.90625 -2 
C 27.5 -2 34.5 -0.109375 38.59375 9.4375 
C 41.59375 16.375 42 24.5 42 31.84375 
z
M 22.90625 -0.40625 
C 16.5 -0.40625 12.703125 5.125 11.296875 12.75 
C 10.203125 18.6875 10.203125 27.328125 10.203125 32.953125 
C 10.203125 40.6875 10.203125 47.109375 11.5 53.234375 
C 13.40625 61.78125 19 64.390625 22.90625 64.390625 
C 27 64.390625 32.296875 61.671875 34.203125 53.4375 
C 35.5 47.71875 35.59375 40.984375 35.59375 32.953125 
C 35.59375 26.421875 35.59375 18.375 34.40625 12.453125 
C 32.296875 1.5 26.40625 -0.40625 22.90625 -0.40625 
z
" id="CMR17-48"/>
      </defs>
      <g transform="translate(57.288095 265.918498)scale(0.1 -0.1)">
       <use transform="scale(0.996264)" xlink:href="#CMR17-49"/>
       <use transform="translate(45.690477 0)scale(0.996264)" xlink:href="#CMMI12-58"/>
       <use transform="translate(72.787654 0)scale(0.996264)" xlink:href="#CMR17-48"/>
       <use transform="translate(118.478131 0)scale(0.996264)" xlink:href="#CMR17-48"/>
      </g>
     </g>
    </g>
    <g id="xtick_2">
     <g id="line2d_2">
      <g>
       <use style="stroke:#000000;stroke-width:0.8;" x="104.573554" xlink:href="#m95a634de94" y="252"/>
      </g>
     </g>
     <g id="text_2">
      <!-- $1.25$ -->
      <defs>
       <path d="M 41.703125 15.46875 
L 39.90625 15.46875 
C 38.90625 8.390625 38.09375 7.1875 37.703125 6.59375 
C 37.203125 5.796875 30 5.796875 28.59375 5.796875 
L 9.40625 5.796875 
C 13 9.6875 20 16.765625 28.5 24.9375 
C 34.59375 30.71875 41.703125 37.5 41.703125 47.390625 
C 41.703125 59.1875 32.296875 66 21.796875 66 
C 10.796875 66 4.09375 56.296875 4.09375 47.296875 
C 4.09375 43.390625 7 42.890625 8.203125 42.890625 
C 9.203125 42.890625 12.203125 43.484375 12.203125 46.984375 
C 12.203125 50.09375 9.59375 51 8.203125 51 
C 7.59375 51 7 50.890625 6.59375 50.6875 
C 8.5 59.1875 14.296875 63.390625 20.40625 63.390625 
C 29.09375 63.390625 34.796875 56.5 34.796875 47.390625 
C 34.796875 38.703125 29.703125 31.21875 24 24.734375 
L 4.09375 2.296875 
L 4.09375 0 
L 39.296875 0 
z
" id="CMR17-50"/>
       <path d="M 11.40625 58.59375 
C 12.40625 58.1875 16.5 56.890625 20.703125 56.890625 
C 30 56.890625 35.09375 61.890625 38 64.6875 
C 38 65.484375 38 66 37.40625 66 
C 37.296875 66 37.09375 66 36.296875 65.59375 
C 32.796875 64.09375 28.703125 63 23.703125 63 
C 20.703125 63 16.203125 63.359375 11.296875 65.484375 
C 10.203125 66 10 66 9.90625 66 
C 9.40625 66 9.296875 65.890625 9.296875 63.90625 
L 9.296875 34.859375 
C 9.296875 33.015625 9.296875 32.5 10.296875 32.5 
C 10.796875 32.5 11 32.703125 11.5 33.421875 
C 14.703125 38.046875 19.09375 40 24.09375 40 
C 27.59375 40 35.09375 37.734375 35.09375 20.203125 
C 35.09375 16.984375 35.09375 11.1875 32.09375 6.59375 
C 29.59375 2.484375 25.703125 0.390625 21.40625 0.390625 
C 14.796875 0.390625 8.09375 4.984375 6.296875 12.6875 
C 6.703125 12.59375 7.5 12.390625 7.90625 12.390625 
C 9.203125 12.390625 11.703125 13.09375 11.703125 16.1875 
C 11.703125 18.890625 9.796875 20 7.90625 20 
C 5.59375 20 4.09375 18.59375 4.09375 15.796875 
C 4.09375 7.09375 11 -2 21.59375 -2 
C 31.90625 -2 41.703125 6.890625 41.703125 19.796875 
C 41.703125 32.09375 33.90625 41.59375 24.203125 41.59375 
C 19.09375 41.59375 14.796875 39.6875 11.40625 36 
z
" id="CMR17-53"/>
      </defs>
      <g transform="translate(95.717847 265.918498)scale(0.1 -0.1)">
       <use transform="scale(0.996264)" xlink:href="#CMR17-49"/>
       <use transform="translate(45.690477 0)scale(0.996264)" xlink:href="#CMMI12-58"/>
       <use transform="translate(72.787654 0)scale(0.996264)" xlink:href="#CMR17-50"/>
       <use transform="translate(118.478131 0)scale(0.996264)" xlink:href="#CMR17-53"/>
      </g>
     </g>
    </g>
    <g id="xtick_3">
     <g id="line2d_3">
      <g>
       <use style="stroke:#000000;stroke-width:0.8;" x="143.003306" xlink:href="#m95a634de94" y="252"/>
      </g>
     </g>
     <g id="text_3">
      <!-- $1.50$ -->
      <g transform="translate(134.147599 265.918498)scale(0.1 -0.1)">
       <use transform="scale(0.996264)" xlink:href="#CMR17-49"/>
       <use transform="translate(45.690477 0)scale(0.996264)" xlink:href="#CMMI12-58"/>
       <use transform="translate(72.787654 0)scale(0.996264)" xlink:href="#CMR17-53"/>
       <use transform="translate(118.478131 0)scale(0.996264)" xlink:href="#CMR17-48"/>
      </g>
     </g>
    </g>
    <g id="xtick_4">
     <g id="line2d_4">
      <g>
       <use style="stroke:#000000;stroke-width:0.8;" x="181.433058" xlink:href="#m95a634de94" y="252"/>
      </g>
     </g>
     <g id="text_4">
      <!-- $1.75$ -->
      <defs>
       <path d="M 45.09375 61.796875 
L 45.09375 64 
L 21.59375 64 
C 9.90625 64 9.703125 65.09375 9.296875 67 
L 7.5 67 
L 4.59375 48.5 
L 6.40625 48.5 
C 6.703125 50.40625 7.40625 55.5 8.59375 57.390625 
C 9.203125 58.1875 16.59375 58.1875 18.296875 58.1875 
L 40.296875 58.1875 
L 29.203125 41.71875 
C 21.796875 30.640625 16.703125 15.671875 16.703125 2.59375 
C 16.703125 1.390625 16.703125 -2 20.296875 -2 
C 23.90625 -2 23.90625 1.390625 23.90625 2.6875 
L 23.90625 7.28125 
C 23.90625 23.65625 26.703125 34.4375 31.296875 41.3125 
z
" id="CMR17-55"/>
      </defs>
      <g transform="translate(172.577351 265.918498)scale(0.1 -0.1)">
       <use transform="scale(0.996264)" xlink:href="#CMR17-49"/>
       <use transform="translate(45.690477 0)scale(0.996264)" xlink:href="#CMMI12-58"/>
       <use transform="translate(72.787654 0)scale(0.996264)" xlink:href="#CMR17-55"/>
       <use transform="translate(118.478131 0)scale(0.996264)" xlink:href="#CMR17-53"/>
      </g>
     </g>
    </g>
    <g id="xtick_5">
     <g id="line2d_5">
      <g>
       <use style="stroke:#000000;stroke-width:0.8;" x="219.86281" xlink:href="#m95a634de94" y="252"/>
      </g>
     </g>
     <g id="text_5">
      <!-- $2.00$ -->
      <g transform="translate(211.007103 265.918498)scale(0.1 -0.1)">
       <use transform="scale(0.996264)" xlink:href="#CMR17-50"/>
       <use transform="translate(45.690477 0)scale(0.996264)" xlink:href="#CMMI12-58"/>
       <use transform="translate(72.787654 0)scale(0.996264)" xlink:href="#CMR17-48"/>
       <use transform="translate(118.478131 0)scale(0.996264)" xlink:href="#CMR17-48"/>
      </g>
     </g>
    </g>
    <g id="xtick_6">
     <g id="line2d_6">
      <g>
       <use style="stroke:#000000;stroke-width:0.8;" x="258.292562" xlink:href="#m95a634de94" y="252"/>
      </g>
     </g>
     <g id="text_6">
      <!-- $2.25$ -->
      <g transform="translate(249.436855 265.918498)scale(0.1 -0.1)">
       <use transform="scale(0.996264)" xlink:href="#CMR17-50"/>
       <use transform="translate(45.690477 0)scale(0.996264)" xlink:href="#CMMI12-58"/>
       <use transform="translate(72.787654 0)scale(0.996264)" xlink:href="#CMR17-50"/>
       <use transform="translate(118.478131 0)scale(0.996264)" xlink:href="#CMR17-53"/>
      </g>
     </g>
    </g>
    <g id="xtick_7">
     <g id="line2d_7">
      <g>
       <use style="stroke:#000000;stroke-width:0.8;" x="296.722314" xlink:href="#m95a634de94" y="252"/>
      </g>
     </g>
     <g id="text_7">
      <!-- $2.50$ -->
      <g transform="translate(287.866607 265.918498)scale(0.1 -0.1)">
       <use transform="scale(0.996264)" xlink:href="#CMR17-50"/>
       <use transform="translate(45.690477 0)scale(0.996264)" xlink:href="#CMMI12-58"/>
       <use transform="translate(72.787654 0)scale(0.996264)" xlink:href="#CMR17-53"/>
       <use transform="translate(118.478131 0)scale(0.996264)" xlink:href="#CMR17-48"/>
      </g>
     </g>
    </g>
    <g id="xtick_8">
     <g id="line2d_8">
      <g>
       <use style="stroke:#000000;stroke-width:0.8;" x="335.152066" xlink:href="#m95a634de94" y="252"/>
      </g>
     </g>
     <g id="text_8">
      <!-- $2.75$ -->
      <g transform="translate(326.296359 265.918498)scale(0.1 -0.1)">
       <use transform="scale(0.996264)" xlink:href="#CMR17-50"/>
       <use transform="translate(45.690477 0)scale(0.996264)" xlink:href="#CMMI12-58"/>
       <use transform="translate(72.787654 0)scale(0.996264)" xlink:href="#CMR17-55"/>
       <use transform="translate(118.478131 0)scale(0.996264)" xlink:href="#CMR17-53"/>
      </g>
     </g>
    </g>
    <g id="xtick_9">
     <g id="line2d_9">
      <g>
       <use style="stroke:#000000;stroke-width:0.8;" x="373.581818" xlink:href="#m95a634de94" y="252"/>
      </g>
     </g>
     <g id="text_9">
      <!-- $3.00$ -->
      <defs>
       <path d="M 22.09375 34 
C 31 34 34.90625 26.140625 34.90625 17.09375 
C 34.90625 5.03125 28.5 0.390625 22.703125 0.390625 
C 17.40625 0.390625 8.796875 3.015625 6.09375 10.796875 
C 6.59375 10.59375 7.09375 10.59375 7.59375 10.59375 
C 10 10.59375 11.796875 12.1875 11.796875 14.796875 
C 11.796875 17.6875 9.59375 19 7.59375 19 
C 5.90625 19 3.296875 18.1875 3.296875 14.484375 
C 3.296875 5.234375 12.296875 -2 22.90625 -2 
C 34 -2 42.5 6.75 42.5 16.984375 
C 42.5 26.84375 34.5 34 25 35.09375 
C 32.59375 36.671875 39.90625 43.375 39.90625 52.390625 
C 39.90625 60.25 32 66 23 66 
C 13.90625 66 5.90625 60.34375 5.90625 52.296875 
C 5.90625 48.796875 8.5 48.1875 9.796875 48.1875 
C 11.90625 48.1875 13.703125 49.484375 13.703125 52.09375 
C 13.703125 54.6875 11.90625 56 9.796875 56 
C 9.40625 56 8.90625 56 8.5 55.796875 
C 11.40625 62.484375 19.296875 63.6875 22.796875 63.6875 
C 26.296875 63.6875 32.90625 61.96875 32.90625 52.296875 
C 32.90625 49.484375 32.5 44.546875 29.09375 40.21875 
C 26.09375 36.390625 22.703125 36.1875 19.40625 35.890625 
C 18.90625 35.890625 16.59375 35.6875 16.203125 35.6875 
C 15.5 35.59375 15.09375 35.5 15.09375 34.796875 
C 15.09375 34.09375 15.203125 34 17.203125 34 
z
" id="CMR17-51"/>
      </defs>
      <g transform="translate(364.726111 265.918498)scale(0.1 -0.1)">
       <use transform="scale(0.996264)" xlink:href="#CMR17-51"/>
       <use transform="translate(45.690477 0)scale(0.996264)" xlink:href="#CMMI12-58"/>
       <use transform="translate(72.787654 0)scale(0.996264)" xlink:href="#CMR17-48"/>
       <use transform="translate(118.478131 0)scale(0.996264)" xlink:href="#CMR17-48"/>
      </g>
     </g>
    </g>
    <g id="text_10">
     <!-- growth ratio, $\Theta$ -->
     <defs>
      <path d="M 11.09375 18.203125 
C 13 16.6875 16.296875 15 20.296875 15 
C 28.203125 15 35 21.234375 35 29.609375 
C 35 32.234375 34.203125 36.265625 31.203125 39.390625 
C 34 42.390625 38.09375 43.390625 40.40625 43.390625 
C 40.796875 43.390625 41.40625 43.390625 41.90625 43.09375 
C 41.5 42.984375 40.59375 42.59375 40.59375 40.984375 
C 40.59375 39.6875 41.5 38.796875 42.796875 38.796875 
C 44.296875 38.796875 45.09375 39.796875 45.09375 41.09375 
C 45.09375 42.984375 43.59375 45 40.40625 45 
C 36.40625 45 32.90625 43.09375 30.09375 40.484375 
C 27.09375 43.1875 23.5 44.1875 20.296875 44.1875 
C 12.40625 44.1875 5.59375 37.984375 5.59375 29.609375 
C 5.59375 23.859375 8.90625 20.21875 9.90625 19.21875 
C 6.90625 15.6875 6.90625 11.59375 6.90625 11.09375 
C 6.90625 8.5 7.90625 4.6875 11.296875 2.59375 
C 6.09375 1.28125 2 -2.875 2 -8.078125 
C 2 -15.5625 11.5 -21 22.90625 -21 
C 33.90625 -21 43.796875 -15.765625 43.796875 -7.96875 
C 43.796875 6 29 6 21.296875 6 
C 19 6 14.90625 6 14.40625 6.09375 
C 11.296875 6.59375 9.203125 9.390625 9.203125 12.890625 
C 9.203125 13.796875 9.203125 16 11.09375 18.203125 
z
M 20.296875 16.6875 
C 11.5 16.6875 11.5 27.59375 11.5 29.609375 
C 11.5 31.625 11.5 42.484375 20.296875 42.484375 
C 29.09375 42.484375 29.09375 31.625 29.09375 29.609375 
C 29.09375 27.59375 29.09375 16.6875 20.296875 16.6875 
z
M 22.90625 -19.3125 
C 12.90625 -19.3125 6 -13.796875 6 -8.078125 
C 6 -4.859375 7.703125 -1.84375 9.90625 -0.171875 
C 12.40625 1.59375 13.40625 1.59375 20.203125 1.59375 
C 28.40625 1.59375 39.796875 1.59375 39.796875 -8.078125 
C 39.796875 -13.796875 32.90625 -19.3125 22.90625 -19.3125 
z
" id="CMR17-103"/>
      <path d="M 15 23.703125 
C 15 33.34375 19.09375 42.390625 26.59375 42.390625 
C 27.296875 42.390625 28 42.296875 28.703125 41.984375 
C 28.703125 41.984375 26.5 41.28125 26.5 38.671875 
C 26.5 36.265625 28.40625 35.265625 29.90625 35.265625 
C 31.09375 35.265625 33.296875 35.96875 33.296875 38.78125 
C 33.296875 41.984375 30.09375 44 26.703125 44 
C 19.09375 44 15.796875 36.5625 14.796875 33.046875 
L 14.703125 33.046875 
L 14.703125 44 
L 3.09375 42.890625 
L 3.09375 40.28125 
C 9 40.28125 9.90625 39.6875 9.90625 34.859375 
L 9.90625 6.921875 
C 9.90625 3.09375 9.5 2.59375 3.09375 2.59375 
L 3.09375 0 
C 5.5 0.1875 10.09375 0.1875 12.703125 0.1875 
C 15.59375 0.1875 20.703125 0.1875 23.40625 0 
L 23.40625 2.59375 
C 16.203125 2.59375 15 2.59375 15 7.109375 
z
" id="CMR17-114"/>
      <path d="M 43.09375 21.1875 
C 43.09375 34 33.796875 44 22.90625 44 
C 12 44 2.703125 34 2.703125 21.1875 
C 2.703125 8.59375 12 -1 22.90625 -1 
C 33.796875 -1 43.09375 8.59375 43.09375 21.1875 
z
M 22.90625 0.796875 
C 18.203125 0.796875 14.203125 3.59375 11.90625 7.5 
C 9.40625 12 9.09375 17.59375 9.09375 22 
C 9.09375 26.1875 9.296875 31.390625 11.90625 35.890625 
C 13.90625 39.1875 17.796875 42.390625 22.90625 42.390625 
C 27.40625 42.390625 31.203125 39.890625 33.59375 36.390625 
C 36.703125 31.6875 36.703125 25.09375 36.703125 22 
C 36.703125 18.09375 36.5 12.09375 33.796875 7.296875 
C 31 2.6875 26.703125 0.796875 22.90625 0.796875 
z
" id="CMR17-111"/>
      <path d="M 58.203125 34.15625 
C 60.203125 40.09375 64.203125 40.296875 65.703125 40.390625 
L 65.703125 43 
C 63.703125 42.890625 61.703125 42.796875 59.703125 42.796875 
C 57.796875 42.796875 53.5 42.796875 51.796875 43 
L 51.796875 40.390625 
C 54.90625 40.1875 56.59375 38.375 56.59375 35.875 
C 56.59375 35.171875 56.40625 34.265625 56.203125 33.5625 
L 46.796875 6.21875 
L 36.59375 35.875 
C 36.40625 36.578125 36.09375 37.375 36.09375 37.78125 
C 36.09375 40.390625 39.5 40.390625 41.09375 40.390625 
L 41.09375 43 
C 38.796875 42.796875 34.59375 42.796875 32.203125 42.796875 
C 29.703125 42.796875 27.09375 42.796875 24.796875 43 
L 24.796875 40.390625 
C 30.296875 40.390625 30.296875 40.1875 32.40625 33.859375 
L 23.203125 6.921875 
L 13.296875 35.96875 
C 12.796875 37.28125 12.796875 37.484375 12.796875 37.78125 
C 12.796875 40.390625 16.203125 40.390625 17.796875 40.390625 
L 17.796875 43 
C 15.40625 42.796875 11.203125 42.796875 8.703125 42.796875 
C 6.5 42.796875 3.09375 42.796875 1 43 
L 1 40.390625 
C 5.40625 40.390625 6.5 40.09375 7.59375 36.765625 
L 19.90625 0.59375 
C 20.296875 -0.703125 20.59375 -1 21.40625 -1 
C 22.09375 -1 22.5 -0.8125 23 0.6875 
L 33.296875 31.046875 
L 43.703125 0.6875 
C 44.203125 -0.8125 44.59375 -1 45.296875 -1 
C 46.09375 -1 46.40625 -0.703125 46.796875 0.59375 
z
" id="CMR17-119"/>
      <path d="M 15.09375 40.390625 
L 29.09375 40.390625 
L 29.09375 43 
L 15.09375 43 
L 15.09375 62 
L 13.296875 62 
C 13.09375 51.4375 9.59375 42.1875 1.09375 41.984375 
L 1.09375 40.390625 
L 9.796875 40.390625 
L 9.796875 12.15625 
C 9.796875 10.234375 9.796875 -1 21.40625 -1 
C 27.296875 -1 30.703125 4.8125 30.703125 12.25 
L 30.703125 17.984375 
L 28.90625 17.984375 
L 28.90625 12.34375 
C 28.90625 5.421875 26.203125 0.796875 22 0.796875 
C 19.09375 0.796875 15.09375 2.796875 15.09375 11.953125 
z
" id="CMR17-116"/>
      <path d="M 41.5 30.53125 
C 41.5 35.65625 40.5 44 28.703125 44 
C 20.5 44 16.5 37.375 15.296875 34.046875 
L 15.203125 34.046875 
L 15.203125 69 
L 3.296875 67.890625 
L 3.296875 65.296875 
C 9.203125 65.296875 10.09375 64.703125 10.09375 60.046875 
L 10.09375 6.921875 
C 10.09375 3.09375 9.703125 2.59375 3.296875 2.59375 
L 3.296875 0 
C 5.703125 0.1875 10.09375 0.1875 12.703125 0.1875 
C 15.296875 0.1875 19.796875 0.1875 22.203125 0 
L 22.203125 2.59375 
C 15.796875 2.59375 15.40625 3 15.40625 6.921875 
L 15.40625 26.21875 
C 15.40625 35.453125 21 42.390625 28 42.390625 
C 35.40625 42.390625 36.203125 35.765625 36.203125 30.9375 
L 36.203125 6.921875 
C 36.203125 3.09375 35.796875 2.59375 29.40625 2.59375 
L 29.40625 0 
C 31.796875 0.1875 36.203125 0.1875 38.796875 0.1875 
C 41.40625 0.1875 45.90625 0.1875 48.296875 0 
L 48.296875 2.59375 
C 41.90625 2.59375 41.5 3 41.5 6.921875 
z
" id="CMR17-104"/>
      <path d="M 36 25.875 
C 36 32 36 35.546875 31.796875 39.59375 
C 28.09375 42.984375 23.796875 44 20.40625 44 
C 12.5 44 6.796875 37.625 6.796875 30.890625 
C 6.796875 27.1875 9.796875 27 10.40625 27 
C 11.703125 27 14 27.796875 14 30.59375 
C 14 33.09375 12.09375 34.1875 10.40625 34.1875 
C 10 34.1875 9.5 34.09375 9.203125 34 
C 11.296875 40.53125 16.703125 42.390625 20.203125 42.390625 
C 25.203125 42.390625 30.703125 37.828125 30.703125 29.296875 
L 30.703125 25.5 
C 24.796875 25.296875 17.703125 24.5 12.09375 21.453125 
C 5.796875 17.921875 4 12.84375 4 9 
C 4 1.203125 13 -1 18.296875 -1 
C 23.796875 -1 28.90625 2.109375 31.09375 7.890625 
C 31.296875 3.421875 34.09375 -0.609375 38.5 -0.609375 
C 40.59375 -0.609375 45.90625 0.796875 45.90625 8.796875 
L 45.90625 14.46875 
L 44.09375 14.46875 
L 44.09375 8.703125 
C 44.09375 2.515625 41.40625 1.703125 40.09375 1.703125 
C 36 1.703125 36 6.96875 36 11.4375 
z
M 30.703125 13.859375 
C 30.703125 5.046875 24.5 0.59375 19 0.59375 
C 14 0.59375 10.09375 4.34375 10.09375 9 
C 10.09375 12.046875 11.40625 17.40625 17.203125 20.65625 
C 22 23.390625 27.5 23.796875 30.703125 24 
z
" id="CMR17-97"/>
      <path d="M 15.5 61.890625 
C 15.5 64.09375 13.703125 66 11.40625 66 
C 9.203125 66 7.296875 64.1875 7.296875 61.890625 
C 7.296875 59.6875 9.09375 57.796875 11.40625 57.796875 
C 13.59375 57.796875 15.5 59.59375 15.5 61.890625 
z
M 3.796875 42.890625 
L 3.796875 40.296875 
C 9.40625 40.296875 10.203125 39.6875 10.203125 34.859375 
L 10.203125 6.921875 
C 10.203125 3.09375 9.796875 2.59375 3.40625 2.59375 
L 3.40625 0 
C 5.796875 0.1875 10.09375 0.1875 12.59375 0.1875 
C 15 0.1875 19.09375 0.1875 21.40625 0 
L 21.40625 2.59375 
C 15.5 2.59375 15.296875 3.203125 15.296875 6.8125 
L 15.296875 44 
z
" id="CMR17-105"/>
      <path d="M 15.796875 1.59375 
C 16 0.6875 16 0.390625 16 -1.1875 
C 16 -7.046875 14 -12.421875 9.796875 -17.3125 
C 9.296875 -17.8125 9.296875 -18 9.296875 -18.203125 
C 9.296875 -18.609375 9.703125 -19 10.09375 -19 
C 10.703125 -19 17.59375 -12.125 17.59375 -1.28125 
C 17.59375 2 17.203125 8.1875 12.5 8.1875 
C 10.296875 8.1875 8.40625 6.6875 8.40625 4.09375 
C 8.40625 1.5 10.296875 0 12.5 0 
C 13.703125 0 15 0.5 15.796875 1.59375 
z
" id="CMR17-44"/>
      <path d="M 67.296875 33.984375 
C 67.296875 54.546875 52.59375 70 36 70 
C 19 70 4.59375 54.34375 4.59375 33.984375 
C 4.59375 13.46875 19.203125 -2 35.90625 -2 
C 53 -2 67.296875 13.765625 67.296875 33.984375 
z
M 36 -0.3125 
C 24.59375 -0.3125 11.90625 10.625 11.90625 33.984375 
C 11.90625 57.859375 25 68.390625 35.90625 68.390625 
C 47.203125 68.390625 60 57.5625 60 33.984375 
C 60 10.328125 47 -0.3125 36 -0.3125 
z
M 54.703125 40.40625 
L 52.90625 40.40625 
L 52.90625 37 
L 19 37 
L 19 40.40625 
L 17.203125 40.40625 
L 17.203125 27.953125 
L 19 27.953125 
L 19 31.390625 
L 52.90625 31.390625 
L 52.90625 27.953125 
L 54.703125 27.953125 
z
" id="CMR17-2"/>
     </defs>
     <g transform="translate(165.573339 284.308977)scale(0.18 -0.18)">
      <use transform="scale(0.996264)" xlink:href="#CMR17-103"/>
      <use transform="translate(45.690477 0)scale(0.996264)" xlink:href="#CMR17-114"/>
      <use transform="translate(80.971245 0)scale(0.996264)" xlink:href="#CMR17-111"/>
      <use transform="translate(124.059268 0)scale(0.996264)" xlink:href="#CMR17-119"/>
      <use transform="translate(190.569149 0)scale(0.996264)" xlink:href="#CMR17-116"/>
      <use transform="translate(225.849916 0)scale(0.996264)" xlink:href="#CMR17-104"/>
      <use transform="translate(306.821253 0)scale(0.996264)" xlink:href="#CMR17-114"/>
      <use transform="translate(342.10202 0)scale(0.996264)" xlink:href="#CMR17-97"/>
      <use transform="translate(387.792497 0)scale(0.996264)" xlink:href="#CMR17-116"/>
      <use transform="translate(423.073265 0)scale(0.996264)" xlink:href="#CMR17-105"/>
      <use transform="translate(447.944324 0)scale(0.996264)" xlink:href="#CMR17-111"/>
      <use transform="translate(493.634801 0)scale(0.996264)" xlink:href="#CMR17-44"/>
      <use transform="translate(548.581826 0)scale(0.996264)" xlink:href="#CMR17-2"/>
     </g>
    </g>
   </g>
   <g id="matplotlib.axis_2">
    <g id="ytick_1">
     <g id="line2d_10">
      <defs>
       <path d="M 0 0 
L -3.5 0 
" id="m7855289b58" style="stroke:#000000;stroke-width:0.8;"/>
      </defs>
      <g>
       <use style="stroke:#000000;stroke-width:0.8;" x="54" xlink:href="#m7855289b58" y="252"/>
      </g>
     </g>
     <g id="text_11">
      <!-- $0$ -->
      <g transform="translate(42.018665 255.459249)scale(0.1 -0.1)">
       <use transform="scale(0.996264)" xlink:href="#CMR17-48"/>
      </g>
     </g>
    </g>
    <g id="ytick_2">
     <g id="line2d_11">
      <g>
       <use style="stroke:#000000;stroke-width:0.8;" x="54" xlink:href="#m7855289b58" y="208.512"/>
      </g>
     </g>
     <g id="text_12">
      <!-- $20$ -->
      <g transform="translate(37.037329 211.971249)scale(0.1 -0.1)">
       <use transform="scale(0.996264)" xlink:href="#CMR17-50"/>
       <use transform="translate(45.690477 0)scale(0.996264)" xlink:href="#CMR17-48"/>
      </g>
     </g>
    </g>
    <g id="ytick_3">
     <g id="line2d_12">
      <g>
       <use style="stroke:#000000;stroke-width:0.8;" x="54" xlink:href="#m7855289b58" y="165.024"/>
      </g>
     </g>
     <g id="text_13">
      <!-- $40$ -->
      <defs>
       <path d="M 33.59375 64.796875 
C 33.59375 66.890625 33.5 67 31.703125 67 
L 2 19.59375 
L 2 17 
L 27.796875 17 
L 27.796875 7.1875 
C 27.796875 3.59375 27.59375 2.59375 20.59375 2.59375 
L 18.703125 2.59375 
L 18.703125 0 
C 21.90625 0.1875 27.296875 0.1875 30.703125 0.1875 
C 34.09375 0.1875 39.5 0.1875 42.703125 0 
L 42.703125 2.59375 
L 40.796875 2.59375 
C 33.796875 2.59375 33.59375 3.59375 33.59375 7.1875 
L 33.59375 17 
L 43.796875 17 
L 43.796875 19.59375 
L 33.59375 19.59375 
z
M 28.09375 58.171875 
L 28.09375 19.59375 
L 4 19.59375 
z
" id="CMR17-52"/>
      </defs>
      <g transform="translate(37.037329 168.483249)scale(0.1 -0.1)">
       <use transform="scale(0.996264)" xlink:href="#CMR17-52"/>
       <use transform="translate(45.690477 0)scale(0.996264)" xlink:href="#CMR17-48"/>
      </g>
     </g>
    </g>
    <g id="ytick_4">
     <g id="line2d_13">
      <g>
       <use style="stroke:#000000;stroke-width:0.8;" x="54" xlink:href="#m7855289b58" y="121.536"/>
      </g>
     </g>
     <g id="text_14">
      <!-- $60$ -->
      <defs>
       <path d="M 10.59375 34.34375 
C 10.59375 58 21.796875 63.6875 28.296875 63.6875 
C 30.40625 63.6875 35.5 63.265625 37.5 59.09375 
C 35.90625 59.09375 32.90625 59.09375 32.90625 55.59375 
C 32.90625 52.890625 35.09375 52 36.5 52 
C 37.40625 52 40.09375 52.390625 40.09375 55.796875 
C 40.09375 62.296875 35.09375 66 28.203125 66 
C 16.296875 66 3.796875 53.296875 3.796875 31.421875 
C 3.796875 4.015625 15.09375 -2 23.09375 -2 
C 32.796875 -2 42 6.734375 42 20.234375 
C 42 32.828125 33.90625 42 23.703125 42 
C 17.59375 42 13.09375 37.96875 10.59375 30.921875 
z
M 23.09375 0.390625 
C 10.796875 0.390625 10.796875 18.9375 10.796875 22.65625 
C 10.796875 29.90625 14.203125 40.390625 23.5 40.390625 
C 25.203125 40.390625 30.09375 40.390625 33.40625 33.4375 
C 35.203125 29.515625 35.203125 25.375 35.203125 20.34375 
C 35.203125 14.90625 35.203125 10.875 33.09375 6.84375 
C 30.90625 2.703125 27.703125 0.390625 23.09375 0.390625 
z
" id="CMR17-54"/>
      </defs>
      <g transform="translate(37.037329 124.995249)scale(0.1 -0.1)">
       <use transform="scale(0.996264)" xlink:href="#CMR17-54"/>
       <use transform="translate(45.690477 0)scale(0.996264)" xlink:href="#CMR17-48"/>
      </g>
     </g>
    </g>
    <g id="ytick_5">
     <g id="line2d_14">
      <g>
       <use style="stroke:#000000;stroke-width:0.8;" x="54" xlink:href="#m7855289b58" y="78.048"/>
      </g>
     </g>
     <g id="text_15">
      <!-- $80$ -->
      <defs>
       <path d="M 27.203125 35.765625 
C 33.5 38.96875 39.90625 43.796875 39.90625 51.53125 
C 39.90625 60.6875 31.09375 66 23 66 
C 13.90625 66 5.90625 59.375 5.90625 50.234375 
C 5.90625 47.71875 6.5 43.390625 10.40625 39.578125 
C 11.40625 38.578125 15.59375 35.5625 18.296875 33.65625 
C 13.796875 31.34375 3.296875 25.8125 3.296875 14.765625 
C 3.296875 4.40625 13.09375 -2 22.796875 -2 
C 33.5 -2 42.5 5.71875 42.5 15.96875 
C 42.5 25.109375 36.40625 29.328125 32.40625 32.046875 
z
M 14.09375 44.609375 
C 13.296875 45.109375 9.296875 48.21875 9.296875 52.9375 
C 9.296875 59.078125 15.59375 63.6875 22.796875 63.6875 
C 30.703125 63.6875 36.5 58.0625 36.5 51.53125 
C 36.5 42.1875 26.09375 36.859375 25.59375 36.859375 
C 25.5 36.859375 25.40625 36.859375 24.59375 37.46875 
z
M 32.5 24 
C 34 22.90625 38.796875 19.578125 38.796875 13.453125 
C 38.796875 6.015625 31.40625 0.390625 23 0.390625 
C 13.90625 0.390625 7 6.921875 7 14.859375 
C 7 22.796875 13.09375 29.4375 20 32.546875 
z
" id="CMR17-56"/>
      </defs>
      <g transform="translate(37.037329 81.507249)scale(0.1 -0.1)">
       <use transform="scale(0.996264)" xlink:href="#CMR17-56"/>
       <use transform="translate(45.690477 0)scale(0.996264)" xlink:href="#CMR17-48"/>
      </g>
     </g>
    </g>
    <g id="ytick_6">
     <g id="line2d_15">
      <g>
       <use style="stroke:#000000;stroke-width:0.8;" x="54" xlink:href="#m7855289b58" y="34.56"/>
      </g>
     </g>
     <g id="text_16">
      <!-- $100$ -->
      <g transform="translate(32.055994 38.019249)scale(0.1 -0.1)">
       <use transform="scale(0.996264)" xlink:href="#CMR17-49"/>
       <use transform="translate(45.690477 0)scale(0.996264)" xlink:href="#CMR17-48"/>
       <use transform="translate(91.380954 0)scale(0.996264)" xlink:href="#CMR17-48"/>
      </g>
     </g>
    </g>
    <g id="text_17">
     <!-- Memory (Units: edge records) -->
     <defs>
      <path d="M 20.90625 66.390625 
C 20.296875 67.890625 20.203125 68 18.09375 68 
L 5.296875 68 
L 5.296875 65.390625 
C 12.203125 65.390625 13.296875 65.390625 13.296875 60.90625 
L 13.296875 9.75 
C 13.296875 7.265625 13.296875 2.59375 5.296875 2.59375 
L 5.296875 0 
C 7.59375 0.1875 11.796875 0.1875 14.296875 0.1875 
C 16.796875 0.1875 21 0.1875 23.296875 0 
L 23.296875 2.59375 
C 15.296875 2.59375 15.296875 7.265625 15.296875 9.75 
L 15.296875 64.984375 
L 15.40625 64.984375 
L 38.90625 1.59375 
C 39.296875 0.59375 39.5 0 40.296875 0 
C 41.09375 0 41.296875 0.59375 41.703125 1.59375 
L 65.40625 65.484375 
L 65.5 65.484375 
L 65.5 7.078125 
C 65.5 2.59375 64.40625 2.59375 57.5 2.59375 
L 57.5 0 
C 60.203125 0.1875 65.59375 0.1875 68.5 0.1875 
C 71.40625 0.1875 76.90625 0.1875 79.59375 0 
L 79.59375 2.59375 
C 72.703125 2.59375 71.59375 2.59375 71.59375 7.078125 
L 71.59375 60.90625 
C 71.59375 65.390625 72.703125 65.390625 79.59375 65.390625 
L 79.59375 68 
L 66.90625 68 
C 64.796875 68 64.703125 67.890625 64.09375 66.390625 
L 42.5 8.0625 
z
" id="CMR17-77"/>
      <path d="M 38.09375 23.484375 
C 38.5 23.890625 38.5 24.09375 38.5 25.09375 
C 38.5 35.171875 33.09375 44 21.703125 44 
C 11.09375 44 2.703125 33.984375 2.703125 21.78125 
C 2.703125 8.65625 12.203125 -1 22.796875 -1 
C 34 -1 38.40625 9.671875 38.40625 11.796875 
C 38.40625 12.5 37.796875 12.5 37.59375 12.5 
C 36.90625 12.5 36.796875 12.296875 36.40625 11.078125 
C 34.203125 4.21875 28.703125 0.796875 23.5 0.796875 
C 19.203125 0.796875 14.90625 3.21875 12.203125 7.65625 
C 9.09375 12.796875 9.09375 18.75 9.09375 23.484375 
z
M 9.203125 25 
C 9.90625 39.234375 17.59375 42.390625 21.59375 42.390625 
C 28.40625 42.390625 33 36.0625 33.09375 25 
z
" id="CMR17-101"/>
      <path d="M 67.59375 30.53125 
C 67.59375 35.5625 66.703125 44 54.796875 44 
C 48 44 43.296875 39.375 41.5 33.953125 
L 41.40625 33.953125 
C 40.203125 42.1875 34.296875 44 28.703125 44 
C 20.796875 44 16.703125 37.875 15.203125 33.84375 
L 15.09375 33.84375 
L 15.09375 44 
L 3.296875 42.890625 
L 3.296875 40.28125 
C 9.203125 40.28125 10.09375 39.6875 10.09375 34.859375 
L 10.09375 6.921875 
C 10.09375 3.09375 9.703125 2.59375 3.296875 2.59375 
L 3.296875 0 
C 5.703125 0.1875 10.09375 0.1875 12.703125 0.1875 
C 15.296875 0.1875 19.796875 0.1875 22.203125 0 
L 22.203125 2.59375 
C 15.796875 2.59375 15.40625 3 15.40625 6.921875 
L 15.40625 26.21875 
C 15.40625 35.453125 21 42.390625 28 42.390625 
C 35.40625 42.390625 36.203125 35.765625 36.203125 30.9375 
L 36.203125 6.921875 
C 36.203125 3.09375 35.796875 2.59375 29.40625 2.59375 
L 29.40625 0 
C 31.796875 0.1875 36.203125 0.1875 38.796875 0.1875 
C 41.40625 0.1875 45.90625 0.1875 48.296875 0 
L 48.296875 2.59375 
C 41.90625 2.59375 41.5 3 41.5 6.921875 
L 41.5 26.21875 
C 41.5 35.453125 47.09375 42.390625 54.09375 42.390625 
C 61.5 42.390625 62.296875 35.765625 62.296875 30.9375 
L 62.296875 6.921875 
C 62.296875 3.09375 61.90625 2.59375 55.5 2.59375 
L 55.5 0 
C 57.90625 0.1875 62.296875 0.1875 64.90625 0.1875 
C 67.5 0.1875 72 0.1875 74.40625 0 
L 74.40625 2.59375 
C 68 2.59375 67.59375 3 67.59375 6.921875 
z
" id="CMR17-109"/>
      <path d="M 39 34.109375 
C 41.5 40.296875 46 40.390625 47.40625 40.390625 
L 47.40625 43 
C 45.5 42.890625 43 42.796875 41.09375 42.796875 
C 39 42.796875 35.703125 42.796875 33.703125 43 
L 33.703125 40.390625 
C 37.5 40.09375 37.59375 37.25 37.59375 36.4375 
C 37.59375 35.4375 37.40625 34.921875 36.90625 33.71875 
L 26 6.390625 
L 14.09375 35.9375 
C 13.59375 37.15625 13.59375 37.859375 13.59375 37.96875 
C 13.59375 40.1875 15.90625 40.390625 18.296875 40.390625 
L 18.296875 43 
C 15.90625 42.796875 11.59375 42.796875 9.09375 42.796875 
C 6.40625 42.796875 3.203125 42.796875 1 43 
L 1 40.390625 
C 6.40625 40.390625 7 39.890625 8.296875 36.640625 
L 23.203125 -0.484375 
C 18.703125 -12.421875 16.09375 -19.40625 9.796875 -19.40625 
C 8.703125 -19.40625 6.203125 -19.109375 4.40625 -17.28125 
C 6.703125 -17.078125 7.703125 -15.65625 7.703125 -13.9375 
C 7.703125 -12.21875 6.5 -10.703125 4.5 -10.703125 
C 2.296875 -10.703125 1.203125 -12.21875 1.203125 -14.046875 
C 1.203125 -18.09375 5.296875 -21 9.796875 -21 
C 15.59375 -21 19.203125 -15.359375 21.203125 -10.296875 
z
" id="CMR17-121"/>
      <path d="M 30.59375 -24.40625 
C 30.59375 -24.3125 30.59375 -24.109375 30.296875 -23.8125 
C 25.703125 -19.109375 13.40625 -6.296875 13.40625 24.9375 
C 13.40625 56.171875 25.5 68.875 30.40625 73.890625 
C 30.40625 73.984375 30.59375 74.1875 30.59375 74.484375 
C 30.59375 74.796875 30.296875 75 29.90625 75 
C 28.796875 75 20.296875 67.578125 15.40625 56.5625 
C 10.40625 45.453125 9 34.65625 9 25.046875 
C 9 17.828125 9.703125 5.625 15.703125 -7.296875 
C 20.5 -17.703125 28.703125 -25 29.90625 -25 
C 30.40625 -25 30.59375 -24.8125 30.59375 -24.40625 
z
" id="CMR17-40"/>
      <path d="M 54 22.53125 
C 54 9.109375 45.296875 0.59375 35.796875 0.59375 
C 30.703125 0.59375 26.09375 3.296875 23.296875 7.5 
C 20.09375 12.3125 19.703125 18.515625 19.703125 22.03125 
L 19.703125 60.890625 
C 19.703125 65.390625 20.796875 65.390625 27.703125 65.390625 
L 27.703125 68 
C 24.796875 67.796875 19.5 67.796875 16.40625 67.796875 
C 13.296875 67.796875 8 67.796875 5.09375 68 
L 5.09375 65.390625 
C 12 65.390625 13.09375 65.390625 13.09375 60.890625 
L 13.09375 22.53125 
C 13.09375 8.109375 24 -2 35.59375 -2 
C 48.59375 -2 56.09375 11.3125 56.09375 21.125 
L 56.09375 59.1875 
C 56.09375 64.796875 61.203125 65.390625 64.09375 65.390625 
L 64.09375 68 
C 61.796875 67.796875 57.59375 67.796875 55.09375 67.796875 
C 52.59375 67.796875 48.296875 67.796875 46 68 
L 46 65.390625 
C 54 65.390625 54 60.6875 54 58.1875 
z
" id="CMR17-85"/>
      <path d="M 41.5 30.53125 
C 41.5 35.65625 40.5 44 28.703125 44 
C 20.796875 44 16.703125 37.875 15.203125 33.84375 
L 15.09375 33.84375 
L 15.09375 44 
L 3.296875 42.890625 
L 3.296875 40.28125 
C 9.203125 40.28125 10.09375 39.6875 10.09375 34.859375 
L 10.09375 6.921875 
C 10.09375 3.09375 9.703125 2.59375 3.296875 2.59375 
L 3.296875 0 
C 5.703125 0.1875 10.09375 0.1875 12.703125 0.1875 
C 15.296875 0.1875 19.796875 0.1875 22.203125 0 
L 22.203125 2.59375 
C 15.796875 2.59375 15.40625 3 15.40625 6.921875 
L 15.40625 26.21875 
C 15.40625 35.453125 21 42.390625 28 42.390625 
C 35.40625 42.390625 36.203125 35.765625 36.203125 30.9375 
L 36.203125 6.921875 
C 36.203125 3.09375 35.796875 2.59375 29.40625 2.59375 
L 29.40625 0 
C 31.796875 0.1875 36.203125 0.1875 38.796875 0.1875 
C 41.40625 0.1875 45.90625 0.1875 48.296875 0 
L 48.296875 2.59375 
C 41.90625 2.59375 41.5 3 41.5 6.921875 
z
" id="CMR17-110"/>
      <path d="M 30.90625 42 
C 30.90625 43.796875 30.796875 43.890625 30.203125 43.890625 
C 29.796875 43.890625 29.703125 43.796875 28.5 42.296875 
C 28.203125 41.890625 27.296875 40.890625 27 40.5 
C 23.796875 43.890625 19.296875 44 17.59375 44 
C 6.5 44 2.5 38.1875 2.5 32.390625 
C 2.5 23.390625 12.703125 21.296875 15.59375 20.6875 
C 21.90625 19.390625 24.09375 19 26.203125 17.1875 
C 27.5 16 29.703125 13.796875 29.703125 10.1875 
C 29.703125 6 27.296875 0.59375 18.09375 0.59375 
C 9.40625 0.59375 6.296875 7.1875 4.5 16 
C 4.203125 17.390625 4.203125 17.5 3.40625 17.5 
C 2.59375 17.5 2.5 17.390625 2.5 15.390625 
L 2.5 1 
C 2.5 -0.8125 2.59375 -0.90625 3.203125 -0.90625 
C 3.703125 -0.90625 3.796875 -0.8125 4.296875 0 
C 4.90625 0.890625 6.40625 3.296875 7 4.296875 
C 9 1.59375 12.5 -1 18.09375 -1 
C 28 -1 33.296875 4.390625 33.296875 12.1875 
C 33.296875 17.296875 30.59375 20 29.296875 21.1875 
C 26.296875 24.296875 22.796875 25 18.59375 25.796875 
C 13.09375 27 6.09375 28.390625 6.09375 34.5 
C 6.09375 37.09375 7.5 42.59375 17.59375 42.59375 
C 28.296875 42.59375 28.90625 32.59375 29.09375 29.390625 
C 29.203125 28.890625 29.703125 28.796875 30 28.796875 
C 30.90625 28.796875 30.90625 29.09375 30.90625 30.796875 
z
" id="CMR17-115"/>
      <path d="M 16.59375 38.890625 
C 16.59375 41.390625 14.59375 43 12.5 43 
C 10.5 43 8.40625 41.390625 8.40625 38.890625 
C 8.40625 36.390625 10.40625 34.796875 12.5 34.796875 
C 14.5 34.796875 16.59375 36.390625 16.59375 38.890625 
z
M 16.59375 4.09375 
C 16.59375 6.59375 14.59375 8.1875 12.5 8.1875 
C 10.5 8.1875 8.40625 6.59375 8.40625 4.09375 
C 8.40625 1.59375 10.40625 0 12.5 0 
C 14.5 0 16.59375 1.59375 16.59375 4.09375 
z
" id="CMR17-58"/>
      <path d="M 29.203125 67.890625 
L 29.203125 65.296875 
C 35.09375 65.296875 36 64.703125 36 60.046875 
L 36 37.046875 
C 35.59375 37.546875 31.5 44 23.40625 44 
C 13.203125 44 3.296875 34.8125 3.296875 21.5 
C 3.296875 8.265625 12.59375 -1 22.40625 -1 
C 30.90625 -1 35.296875 5.640625 35.796875 6.34375 
L 35.796875 -1 
L 47.90625 -0.203125 
L 47.90625 2.40625 
C 42 2.40625 41.09375 3.015625 41.09375 7.859375 
L 41.09375 69 
z
M 35.796875 11.90625 
C 35.796875 8.875 34 6.140625 31.703125 4.125 
C 28.296875 1.09375 24.90625 0.59375 23 0.59375 
C 20.09375 0.59375 9.703125 2.109375 9.703125 21.390625 
C 9.703125 41.1875 21.296875 42.390625 23.90625 42.390625 
C 28.5 42.390625 32.203125 39.765625 34.5 36.140625 
C 35.796875 34.015625 35.796875 33.703125 35.796875 31.890625 
z
" id="CMR17-100"/>
      <path d="M 34.90625 35 
C 33 35 30.203125 35 30.203125 31.484375 
C 30.203125 28.6875 32.5 27.890625 33.796875 27.890625 
C 34.5 27.890625 37.40625 28.1875 37.40625 31.6875 
C 37.40625 38.6875 30.59375 44 22.90625 44 
C 12.296875 44 3.296875 34.390625 3.296875 21.546875 
C 3.296875 8.140625 12.703125 -1 22.90625 -1 
C 35.296875 -1 38.40625 10.5625 38.40625 11.671875 
C 38.40625 12.078125 38.296875 12.375 37.59375 12.375 
C 36.90625 12.375 36.796875 12.28125 36.40625 10.96875 
C 33.796875 2.8125 28.09375 0.796875 23.796875 0.796875 
C 17.40625 0.796875 9.703125 6.734375 9.703125 21.640625 
C 9.703125 36.84375 17.09375 42.1875 23 42.1875 
C 26.90625 42.1875 32.703125 40.34375 34.90625 35 
z
" id="CMR17-99"/>
      <path d="M 26.296875 24.9375 
C 26.296875 32.140625 25.59375 44.359375 19.59375 57.265625 
C 14.796875 67.6875 6.59375 75 5.40625 75 
C 5.09375 75 4.703125 74.890625 4.703125 74.390625 
C 4.703125 74.1875 4.796875 74.09375 4.90625 73.890625 
C 9.703125 68.875 21.90625 56.171875 21.90625 25.046875 
C 21.90625 -6.1875 9.796875 -18.90625 4.90625 -23.90625 
C 4.796875 -24.109375 4.703125 -24.203125 4.703125 -24.40625 
C 4.703125 -24.90625 5.09375 -25 5.40625 -25 
C 6.5 -25 15 -17.609375 19.90625 -6.59375 
C 24.90625 4.515625 26.296875 15.328125 26.296875 24.9375 
z
" id="CMR17-41"/>
     </defs>
     <g transform="translate(23.58781 251.714154)rotate(-90)scale(0.18 -0.18)">
      <use transform="scale(0.996264)" xlink:href="#CMR17-77"/>
      <use transform="translate(84.686941 0)scale(0.996264)" xlink:href="#CMR17-101"/>
      <use transform="translate(125.172601 0)scale(0.996264)" xlink:href="#CMR17-109"/>
      <use transform="translate(202.092191 0)scale(0.996264)" xlink:href="#CMR17-111"/>
      <use transform="translate(247.782668 0)scale(0.996264)" xlink:href="#CMR17-114"/>
      <use transform="translate(283.063436 0)scale(0.996264)" xlink:href="#CMR17-121"/>
      <use transform="translate(361.432318 0)scale(0.996264)" xlink:href="#CMR17-40"/>
      <use transform="translate(396.713086 0)scale(0.996264)" xlink:href="#CMR17-85"/>
      <use transform="translate(465.785516 0)scale(0.996264)" xlink:href="#CMR17-110"/>
      <use transform="translate(516.680885 0)scale(0.996264)" xlink:href="#CMR17-105"/>
      <use transform="translate(541.551944 0)scale(0.996264)" xlink:href="#CMR17-116"/>
      <use transform="translate(576.832712 0)scale(0.996264)" xlink:href="#CMR17-115"/>
      <use transform="translate(612.634049 0)scale(0.996264)" xlink:href="#CMR17-58"/>
      <use transform="translate(677.990768 0)scale(0.996264)" xlink:href="#CMR17-101"/>
      <use transform="translate(718.476429 0)scale(0.996264)" xlink:href="#CMR17-100"/>
      <use transform="translate(769.371799 0)scale(0.996264)" xlink:href="#CMR17-103"/>
      <use transform="translate(815.062276 0)scale(0.996264)" xlink:href="#CMR17-101"/>
      <use transform="translate(885.623902 0)scale(0.996264)" xlink:href="#CMR17-114"/>
      <use transform="translate(920.90467 0)scale(0.996264)" xlink:href="#CMR17-101"/>
      <use transform="translate(961.390331 0)scale(0.996264)" xlink:href="#CMR17-99"/>
      <use transform="translate(1001.875991 0)scale(0.996264)" xlink:href="#CMR17-111"/>
      <use transform="translate(1047.566468 0)scale(0.996264)" xlink:href="#CMR17-114"/>
      <use transform="translate(1082.847236 0)scale(0.996264)" xlink:href="#CMR17-100"/>
      <use transform="translate(1133.742606 0)scale(0.996264)" xlink:href="#CMR17-115"/>
      <use transform="translate(1169.543943 0)scale(0.996264)" xlink:href="#CMR17-41"/>
     </g>
    </g>
   </g>
   <g id="line2d_16">
    <path clip-path="url(#p77ad6189e8)" d="M 69.218182 251.914094 
L 72.292562 251.719287 
L 75.366942 251.494062 
L 78.441322 251.241879 
L 81.515702 250.966078 
L 84.590083 250.706003 
L 87.664463 250.448768 
L 90.738843 250.128145 
L 93.813223 249.869866 
L 96.887603 249.61722 
L 99.961983 249.253254 
L 103.036364 249.036005 
L 106.110744 248.801407 
L 109.185124 248.471131 
L 112.259504 248.141574 
L 115.333884 247.905473 
L 118.408264 247.616994 
L 121.482645 247.329248 
L 124.557025 246.990704 
L 127.631405 246.714804 
L 130.705785 246.364936 
L 133.780165 246.090751 
L 136.854545 245.970822 
L 139.928926 245.659644 
L 143.003306 245.41951 
L 146.077686 245.159868 
L 149.152066 244.81515 
L 152.226446 244.525887 
L 155.300826 244.158697 
L 158.375207 244.000174 
L 161.449587 243.695406 
L 164.523967 243.401933 
L 167.598347 243.121462 
L 170.672727 242.789348 
L 173.747107 242.54437 
L 176.821488 242.20953 
L 179.895868 242.015798 
L 182.970248 241.751542 
L 186.044628 241.447356 
L 189.119008 241.107629 
L 192.193388 240.879178 
L 195.267769 240.716943 
L 198.342149 240.35436 
L 201.416529 240.056739 
L 204.490909 239.766202 
L 207.565289 239.627661 
L 210.639669 239.375508 
L 213.71405 238.939652 
L 216.78843 238.64717 
L 219.86281 239.07927 
L 222.93719 238.706983 
L 226.01157 238.431184 
L 229.08595 238.161419 
L 232.160331 237.783865 
L 235.234711 237.658068 
L 238.309091 237.348914 
L 241.383471 236.928913 
L 244.457851 236.780581 
L 247.532231 236.501426 
L 250.606612 236.167693 
L 253.680992 235.860065 
L 256.755372 236.044529 
L 259.829752 235.709046 
L 262.904132 235.371894 
L 265.978512 235.140713 
L 269.052893 234.8131 
L 272.127273 234.458421 
L 275.201653 234.378095 
L 278.276033 234.005126 
L 281.350413 233.691102 
L 284.424793 233.547653 
L 287.499174 233.17171 
L 290.573554 233.057345 
L 293.647934 232.937644 
L 296.722314 232.610297 
L 299.796694 232.48194 
L 302.871074 232.144707 
L 305.945455 231.793863 
L 309.019835 231.637985 
L 312.094215 231.228504 
L 315.168595 230.855135 
L 318.242975 230.647602 
L 321.317355 230.608173 
L 324.391736 230.457695 
L 327.466116 230.110796 
L 330.540496 229.949927 
L 333.614876 229.510181 
L 336.689256 229.353147 
L 339.763636 228.965948 
L 342.838017 228.583916 
L 345.912397 228.424312 
L 348.986777 228.350625 
L 352.061157 228.196935 
L 355.135537 227.789964 
L 358.209917 227.588609 
L 361.284298 227.260431 
L 364.358678 227.071287 
L 367.433058 226.665683 
L 370.507438 226.463916 
L 373.581818 227.362586 
" style="fill:none;stroke:#1f77b4;stroke-linecap:square;stroke-width:1.5;"/>
   </g>
   <g id="line2d_17">
    <path clip-path="url(#p77ad6189e8)" d="M 81.343159 -1 
L 81.515702 1.712721 
L 84.590083 33.683094 
L 87.664463 55.788481 
L 90.738843 80.509059 
L 93.813223 91.926995 
L 96.887603 105.061278 
L 99.961983 120.045189 
L 103.036364 127.157108 
L 106.110744 131.810312 
L 109.185124 140.953223 
L 112.259504 148.644601 
L 115.333884 150.388582 
L 118.408264 156.713658 
L 121.482645 161.747396 
L 124.557025 165.951179 
L 127.631405 170.247526 
L 130.705785 173.491303 
L 133.780165 176.921775 
L 136.854545 176.327061 
L 139.928926 179.072995 
L 143.003306 181.327907 
L 146.077686 183.859768 
L 149.152066 186.395441 
L 152.226446 188.627567 
L 155.300826 190.341743 
L 158.375207 191.552048 
L 161.449587 193.394424 
L 164.523967 194.893667 
L 167.598347 196.58003 
L 170.672727 198.176009 
L 173.747107 199.370327 
L 176.821488 200.238586 
L 179.895868 200.542163 
L 182.970248 201.936559 
L 186.044628 202.874943 
L 189.119008 204.162861 
L 192.193388 204.839824 
L 195.267769 205.713283 
L 198.342149 206.857592 
L 201.416529 207.691512 
L 204.490909 208.542801 
L 207.565289 209.18129 
L 210.639669 209.971065 
L 213.71405 210.771231 
L 216.78843 211.543388 
L 219.86281 208.359451 
L 222.93719 209.071627 
L 226.01157 209.828528 
L 229.08595 210.532968 
L 232.160331 211.180378 
L 235.234711 211.53467 
L 238.309091 212.149872 
L 241.383471 212.78455 
L 244.457851 213.170829 
L 247.532231 213.751995 
L 250.606612 214.287327 
L 253.680992 214.822952 
L 256.755372 214.619895 
L 259.829752 215.120149 
L 262.904132 215.643347 
L 265.978512 215.930556 
L 269.052893 216.383934 
L 272.127273 216.863716 
L 275.201653 217.191837 
L 278.276033 217.605667 
L 281.350413 218.064823 
L 284.424793 218.350892 
L 287.499174 218.776135 
L 290.573554 218.65648 
L 293.647934 218.896986 
L 296.722314 219.329218 
L 299.796694 219.62563 
L 302.871074 219.972242 
L 305.945455 220.30418 
L 309.019835 220.637713 
L 312.094215 220.902736 
L 315.168595 221.274474 
L 318.242975 221.51174 
L 321.317355 221.447425 
L 324.391736 221.671902 
L 327.466116 221.994342 
L 330.540496 222.21121 
L 333.614876 222.487299 
L 336.689256 222.791975 
L 339.763636 223.009169 
L 342.838017 223.278448 
L 345.912397 223.553663 
L 348.986777 223.449037 
L 352.061157 223.657116 
L 355.135537 223.886544 
L 358.209917 224.116695 
L 361.284298 224.366129 
L 364.358678 224.59565 
L 367.433058 224.803193 
L 370.507438 225.038404 
L 373.581818 224.089575 
" style="fill:none;stroke:#ff7f0e;stroke-linecap:square;stroke-width:1.5;"/>
   </g>
   <g id="line2d_18">
    <path clip-path="url(#p77ad6189e8)" d="M 69.218182 219.5694 
L 72.292562 219.5694 
L 75.366942 219.5694 
L 78.441322 219.5694 
L 81.515702 219.5694 
L 84.590083 219.5694 
L 87.664463 219.5694 
L 90.738843 219.5694 
L 93.813223 219.5694 
L 96.887603 219.5694 
L 99.961983 219.5694 
L 103.036364 219.5694 
L 106.110744 219.5694 
L 109.185124 219.5694 
L 112.259504 219.5694 
L 115.333884 219.5694 
L 118.408264 219.5694 
L 121.482645 219.5694 
L 124.557025 219.5694 
L 127.631405 219.5694 
L 130.705785 219.5694 
L 133.780165 219.5694 
L 136.854545 219.5694 
L 139.928926 219.5694 
L 143.003306 219.5694 
L 146.077686 219.5694 
L 149.152066 219.5694 
L 152.226446 219.5694 
L 155.300826 219.5694 
L 158.375207 219.5694 
L 161.449587 219.5694 
L 164.523967 219.5694 
L 167.598347 219.5694 
L 170.672727 219.5694 
L 173.747107 219.5694 
L 176.821488 219.5694 
L 179.895868 219.5694 
L 182.970248 219.5694 
L 186.044628 219.5694 
L 189.119008 219.5694 
L 192.193388 219.5694 
L 195.267769 219.5694 
L 198.342149 219.5694 
L 201.416529 219.5694 
L 204.490909 219.5694 
L 207.565289 219.5694 
L 210.639669 219.5694 
L 213.71405 219.5694 
L 216.78843 219.5694 
L 219.86281 219.5694 
L 222.93719 219.5694 
L 226.01157 219.5694 
L 229.08595 219.5694 
L 232.160331 219.5694 
L 235.234711 219.5694 
L 238.309091 219.5694 
L 241.383471 219.5694 
L 244.457851 219.5694 
L 247.532231 219.5694 
L 250.606612 219.5694 
L 253.680992 219.5694 
L 256.755372 219.5694 
L 259.829752 219.5694 
L 262.904132 219.5694 
L 265.978512 219.5694 
L 269.052893 219.5694 
L 272.127273 219.5694 
L 275.201653 219.5694 
L 278.276033 219.5694 
L 281.350413 219.5694 
L 284.424793 219.5694 
L 287.499174 219.5694 
L 290.573554 219.5694 
L 293.647934 219.5694 
L 296.722314 219.5694 
L 299.796694 219.5694 
L 302.871074 219.5694 
L 305.945455 219.5694 
L 309.019835 219.5694 
L 312.094215 219.5694 
L 315.168595 219.5694 
L 318.242975 219.5694 
L 321.317355 219.5694 
L 324.391736 219.5694 
L 327.466116 219.5694 
L 330.540496 219.5694 
L 333.614876 219.5694 
L 336.689256 219.5694 
L 339.763636 219.5694 
L 342.838017 219.5694 
L 345.912397 219.5694 
L 348.986777 219.5694 
L 352.061157 219.5694 
L 355.135537 219.5694 
L 358.209917 219.5694 
L 361.284298 219.5694 
L 364.358678 219.5694 
L 367.433058 219.5694 
L 370.507438 219.5694 
L 373.581818 219.5694 
" style="fill:none;stroke:#2ca02c;stroke-linecap:square;stroke-width:1.5;"/>
   </g>
   <g id="line2d_19">
    <path clip-path="url(#p77ad6189e8)" d="M 69.218182 219.569399 
L 72.292562 219.569399 
L 75.366942 219.569399 
L 78.441322 219.569399 
L 81.515702 219.569399 
L 84.590083 219.569399 
L 87.664463 219.569399 
L 90.738843 219.569399 
L 93.813223 219.569399 
L 96.887603 219.569399 
L 99.961983 219.569399 
L 103.036364 219.569399 
L 106.110744 219.569399 
L 109.185124 219.569399 
L 112.259504 219.569399 
L 115.333884 219.569399 
L 118.408264 219.569399 
L 121.482645 219.569399 
L 124.557025 219.569399 
L 127.631405 219.569399 
L 130.705785 219.569399 
L 133.780165 219.569399 
L 136.854545 219.569399 
L 139.928926 219.569399 
L 143.003306 219.569399 
L 146.077686 219.569399 
L 149.152066 219.569399 
L 152.226446 219.569399 
L 155.300826 219.569399 
L 158.375207 219.569399 
L 161.449587 219.569399 
L 164.523967 219.569399 
L 167.598347 219.569399 
L 170.672727 219.569399 
L 173.747107 219.569399 
L 176.821488 219.569399 
L 179.895868 219.569399 
L 182.970248 219.569399 
L 186.044628 219.569399 
L 189.119008 219.569399 
L 192.193388 219.569399 
L 195.267769 219.569399 
L 198.342149 219.569399 
L 201.416529 219.569399 
L 204.490909 219.569399 
L 207.565289 219.569399 
L 210.639669 219.569399 
L 213.71405 219.569399 
L 216.78843 219.569399 
L 219.86281 219.569399 
L 222.93719 219.569399 
L 226.01157 219.569399 
L 229.08595 219.569399 
L 232.160331 219.569399 
L 235.234711 219.569399 
L 238.309091 219.569399 
L 241.383471 219.569399 
L 244.457851 219.569399 
L 247.532231 219.569399 
L 250.606612 219.569399 
L 253.680992 219.569399 
L 256.755372 219.569399 
L 259.829752 219.569399 
L 262.904132 219.569399 
L 265.978512 219.569399 
L 269.052893 219.569399 
L 272.127273 219.569399 
L 275.201653 219.569399 
L 278.276033 219.569399 
L 281.350413 219.569399 
L 284.424793 219.569399 
L 287.499174 219.569399 
L 290.573554 219.569399 
L 293.647934 219.569399 
L 296.722314 219.569399 
L 299.796694 219.569399 
L 302.871074 219.569399 
L 305.945455 219.569399 
L 309.019835 219.569399 
L 312.094215 219.569399 
L 315.168595 219.569399 
L 318.242975 219.569399 
L 321.317355 219.569399 
L 324.391736 219.569399 
L 327.466116 219.569399 
L 330.540496 219.569399 
L 333.614876 219.569399 
L 336.689256 219.569399 
L 339.763636 219.569399 
L 342.838017 219.569399 
L 345.912397 219.569399 
L 348.986777 219.569399 
L 352.061157 219.569399 
L 355.135537 219.569399 
L 358.209917 219.569399 
L 361.284298 219.569399 
L 364.358678 219.569399 
L 367.433058 219.569399 
L 370.507438 219.569399 
L 373.581818 219.569399 
" style="fill:none;stroke:#d62728;stroke-dasharray:1.5,2.475;stroke-dashoffset:0;stroke-width:1.5;"/>
    <defs>
     <path d="M -3 3 
L 3 3 
L 3 -3 
L -3 -3 
z
" id="m1937bb1c08" style="stroke:#d62728;stroke-linejoin:miter;"/>
    </defs>
    <g clip-path="url(#p77ad6189e8)">
     <use style="fill:#d62728;stroke:#d62728;stroke-linejoin:miter;" x="69.218182" xlink:href="#m1937bb1c08" y="219.569399"/>
     <use style="fill:#d62728;stroke:#d62728;stroke-linejoin:miter;" x="99.961983" xlink:href="#m1937bb1c08" y="219.569399"/>
     <use style="fill:#d62728;stroke:#d62728;stroke-linejoin:miter;" x="130.705785" xlink:href="#m1937bb1c08" y="219.569399"/>
     <use style="fill:#d62728;stroke:#d62728;stroke-linejoin:miter;" x="161.449587" xlink:href="#m1937bb1c08" y="219.569399"/>
     <use style="fill:#d62728;stroke:#d62728;stroke-linejoin:miter;" x="192.193388" xlink:href="#m1937bb1c08" y="219.569399"/>
     <use style="fill:#d62728;stroke:#d62728;stroke-linejoin:miter;" x="222.93719" xlink:href="#m1937bb1c08" y="219.569399"/>
     <use style="fill:#d62728;stroke:#d62728;stroke-linejoin:miter;" x="253.680992" xlink:href="#m1937bb1c08" y="219.569399"/>
     <use style="fill:#d62728;stroke:#d62728;stroke-linejoin:miter;" x="284.424793" xlink:href="#m1937bb1c08" y="219.569399"/>
     <use style="fill:#d62728;stroke:#d62728;stroke-linejoin:miter;" x="315.168595" xlink:href="#m1937bb1c08" y="219.569399"/>
     <use style="fill:#d62728;stroke:#d62728;stroke-linejoin:miter;" x="345.912397" xlink:href="#m1937bb1c08" y="219.569399"/>
    </g>
   </g>
   <g id="line2d_20">
    <path clip-path="url(#p77ad6189e8)" d="M 69.218182 251.676687 
L 72.292562 251.355323 
L 75.366942 251.035851 
L 78.441322 250.718218 
L 81.515702 250.402373 
L 84.590083 250.088268 
L 87.664463 249.775857 
L 90.738843 249.465096 
L 93.813223 249.155941 
L 96.887603 248.848353 
L 99.961983 248.542294 
L 103.036364 248.237724 
L 106.110744 247.93461 
L 109.185124 247.632917 
L 112.259504 247.332611 
L 115.333884 247.033662 
L 118.408264 246.736038 
L 121.482645 246.439711 
L 124.557025 246.144652 
L 127.631405 245.850834 
L 130.705785 245.558231 
L 133.780165 245.266818 
L 136.854545 244.976569 
L 139.928926 244.687462 
L 143.003306 244.399474 
L 146.077686 244.112583 
L 149.152066 243.826767 
L 152.226446 243.542006 
L 155.300826 243.25828 
L 158.375207 242.97557 
L 161.449587 242.693856 
L 164.523967 242.413121 
L 167.598347 242.133348 
L 170.672727 241.854518 
L 173.747107 241.576617 
L 176.821488 241.299627 
L 179.895868 241.023533 
L 182.970248 240.74832 
L 186.044628 240.473973 
L 189.119008 240.200478 
L 192.193388 239.927821 
L 195.267769 239.655988 
L 198.342149 239.384967 
L 201.416529 239.114745 
L 204.490909 238.845308 
L 207.565289 238.576646 
L 210.639669 238.308745 
L 213.71405 238.041596 
L 216.78843 237.775186 
L 219.86281 237.509504 
L 222.93719 237.24454 
L 226.01157 236.980284 
L 229.08595 236.716725 
L 232.160331 236.453853 
L 235.234711 236.191659 
L 238.309091 235.930134 
L 241.383471 235.669268 
L 244.457851 235.409052 
L 247.532231 235.149477 
L 250.606612 234.890535 
L 253.680992 234.632217 
L 256.755372 234.374515 
L 259.829752 234.117422 
L 262.904132 233.860929 
L 265.978512 233.605029 
L 269.052893 233.349713 
L 272.127273 233.094976 
L 275.201653 232.840809 
L 278.276033 232.587206 
L 281.350413 232.334159 
L 284.424793 232.081662 
L 287.499174 231.829709 
L 290.573554 231.578292 
L 293.647934 231.327406 
L 296.722314 231.077044 
L 299.796694 230.8272 
L 302.871074 230.577869 
L 305.945455 230.329044 
L 309.019835 230.080719 
L 312.094215 229.832889 
L 315.168595 229.585549 
L 318.242975 229.338693 
L 321.317355 229.092315 
L 324.391736 228.846411 
L 327.466116 228.600976 
L 330.540496 228.356004 
L 333.614876 228.11149 
L 336.689256 227.867429 
L 339.763636 227.623818 
L 342.838017 227.38065 
L 345.912397 227.137922 
L 348.986777 226.895629 
L 352.061157 226.653767 
L 355.135537 226.412331 
L 358.209917 226.171316 
L 361.284298 225.93072 
L 364.358678 225.690537 
L 367.433058 225.450763 
L 370.507438 225.211396 
L 373.581818 224.972429 
" style="fill:none;stroke:#9467bd;stroke-dasharray:1.5,2.475;stroke-dashoffset:0;stroke-width:1.5;"/>
    <defs>
     <path d="M 0 4.242641 
L 2.545584 0 
L 0 -4.242641 
L -2.545584 0 
z
" id="mfa8d761327" style="stroke:#9467bd;stroke-linejoin:miter;"/>
    </defs>
    <g clip-path="url(#p77ad6189e8)">
     <use style="fill:#9467bd;stroke:#9467bd;stroke-linejoin:miter;" x="69.218182" xlink:href="#mfa8d761327" y="251.676687"/>
     <use style="fill:#9467bd;stroke:#9467bd;stroke-linejoin:miter;" x="99.961983" xlink:href="#mfa8d761327" y="248.542294"/>
     <use style="fill:#9467bd;stroke:#9467bd;stroke-linejoin:miter;" x="130.705785" xlink:href="#mfa8d761327" y="245.558231"/>
     <use style="fill:#9467bd;stroke:#9467bd;stroke-linejoin:miter;" x="161.449587" xlink:href="#mfa8d761327" y="242.693856"/>
     <use style="fill:#9467bd;stroke:#9467bd;stroke-linejoin:miter;" x="192.193388" xlink:href="#mfa8d761327" y="239.927821"/>
     <use style="fill:#9467bd;stroke:#9467bd;stroke-linejoin:miter;" x="222.93719" xlink:href="#mfa8d761327" y="237.24454"/>
     <use style="fill:#9467bd;stroke:#9467bd;stroke-linejoin:miter;" x="253.680992" xlink:href="#mfa8d761327" y="234.632217"/>
     <use style="fill:#9467bd;stroke:#9467bd;stroke-linejoin:miter;" x="284.424793" xlink:href="#mfa8d761327" y="232.081662"/>
     <use style="fill:#9467bd;stroke:#9467bd;stroke-linejoin:miter;" x="315.168595" xlink:href="#mfa8d761327" y="229.585549"/>
     <use style="fill:#9467bd;stroke:#9467bd;stroke-linejoin:miter;" x="345.912397" xlink:href="#mfa8d761327" y="227.137922"/>
    </g>
   </g>
   <g id="line2d_21">
    <path clip-path="url(#p77ad6189e8)" d="M 85.874449 -1 
L 87.664463 19.997544 
L 90.738843 47.055591 
L 93.813223 68.109667 
L 96.887603 84.960762 
L 99.961983 98.754966 
L 103.036364 110.256347 
L 106.110744 119.993881 
L 109.185124 128.345413 
L 112.259504 135.588034 
L 115.333884 141.929565 
L 118.408264 147.528933 
L 121.482645 152.50975 
L 124.557025 156.969608 
L 127.631405 160.986583 
L 130.705785 164.623881 
L 133.780165 167.933219 
L 136.854545 170.957322 
L 139.928926 173.731794 
L 143.003306 176.286546 
L 146.077686 178.646888 
L 149.152066 180.834381 
L 152.226446 182.867509 
L 155.300826 184.762205 
L 158.375207 186.532281 
L 161.449587 188.189766 
L 164.523967 189.745188 
L 167.598347 191.207798 
L 170.672727 192.585761 
L 173.747107 193.886308 
L 176.821488 195.115869 
L 179.895868 196.280178 
L 182.970248 197.384366 
L 186.044628 198.433041 
L 189.119008 199.430346 
L 192.193388 200.380024 
L 195.267769 201.285461 
L 198.342149 202.149728 
L 201.416529 202.975618 
L 204.490909 203.765674 
L 207.565289 204.522222 
L 210.639669 205.247387 
L 213.71405 205.943119 
L 216.78843 206.611209 
L 219.86281 207.253303 
L 222.93719 207.870921 
L 226.01157 208.465464 
L 229.08595 209.03823 
L 232.160331 209.590419 
L 235.234711 210.123144 
L 238.309091 210.63744 
L 241.383471 211.134269 
L 244.457851 211.614526 
L 247.532231 212.079047 
L 250.606612 212.528611 
L 253.680992 212.963947 
L 256.755372 213.385737 
L 259.829752 213.79462 
L 262.904132 214.191194 
L 265.978512 214.576021 
L 269.052893 214.949631 
L 272.127273 215.312518 
L 275.201653 215.665153 
L 278.276033 216.007974 
L 281.350413 216.341398 
L 284.424793 216.665818 
L 287.499174 216.981602 
L 290.573554 217.289103 
L 293.647934 217.588652 
L 296.722314 217.880562 
L 299.796694 218.165131 
L 302.871074 218.442641 
L 305.945455 218.713361 
L 309.019835 218.977543 
L 312.094215 219.23543 
L 315.168595 219.487252 
L 318.242975 219.733227 
L 321.317355 219.973563 
L 324.391736 220.208459 
L 327.466116 220.438103 
L 330.540496 220.662676 
L 333.614876 220.88235 
L 336.689256 221.097289 
L 339.763636 221.30765 
L 342.838017 221.513583 
L 345.912397 221.715231 
L 348.986777 221.912733 
L 352.061157 222.106218 
L 355.135537 222.295814 
L 358.209917 222.48164 
L 361.284298 222.663812 
L 364.358678 222.842441 
L 367.433058 223.017634 
L 370.507438 223.189492 
L 373.581818 223.358114 
" style="fill:none;stroke:#8c564b;stroke-dasharray:1.5,2.475;stroke-dashoffset:0;stroke-width:1.5;"/>
    <defs>
     <path d="M 0 3 
C 0.795609 3 1.55874 2.683901 2.12132 2.12132 
C 2.683901 1.55874 3 0.795609 3 0 
C 3 -0.795609 2.683901 -1.55874 2.12132 -2.12132 
C 1.55874 -2.683901 0.795609 -3 0 -3 
C -0.795609 -3 -1.55874 -2.683901 -2.12132 -2.12132 
C -2.683901 -1.55874 -3 -0.795609 -3 0 
C -3 0.795609 -2.683901 1.55874 -2.12132 2.12132 
C -1.55874 2.683901 -0.795609 3 0 3 
z
" id="m36d97650ce" style="stroke:#8c564b;"/>
    </defs>
    <g clip-path="url(#p77ad6189e8)">
     <use style="fill:#8c564b;stroke:#8c564b;" x="97.732734" xlink:href="#m36d97650ce" y="-1"/>
     <use style="fill:#8c564b;stroke:#8c564b;" x="99.961983" xlink:href="#m36d97650ce" y="98.754966"/>
     <use style="fill:#8c564b;stroke:#8c564b;" x="130.705785" xlink:href="#m36d97650ce" y="164.623881"/>
     <use style="fill:#8c564b;stroke:#8c564b;" x="161.449587" xlink:href="#m36d97650ce" y="188.189766"/>
     <use style="fill:#8c564b;stroke:#8c564b;" x="192.193388" xlink:href="#m36d97650ce" y="200.380024"/>
     <use style="fill:#8c564b;stroke:#8c564b;" x="222.93719" xlink:href="#m36d97650ce" y="207.870921"/>
     <use style="fill:#8c564b;stroke:#8c564b;" x="253.680992" xlink:href="#m36d97650ce" y="212.963947"/>
     <use style="fill:#8c564b;stroke:#8c564b;" x="284.424793" xlink:href="#m36d97650ce" y="216.665818"/>
     <use style="fill:#8c564b;stroke:#8c564b;" x="315.168595" xlink:href="#m36d97650ce" y="219.487252"/>
     <use style="fill:#8c564b;stroke:#8c564b;" x="345.912397" xlink:href="#m36d97650ce" y="221.715231"/>
    </g>
   </g>
   <g id="patch_3">
    <path d="M 54 252 
L 54 34.56 
" style="fill:none;stroke:#000000;stroke-linecap:square;stroke-linejoin:miter;stroke-width:0.8;"/>
   </g>
   <g id="patch_4">
    <path d="M 388.8 252 
L 388.8 34.56 
" style="fill:none;stroke:#000000;stroke-linecap:square;stroke-linejoin:miter;stroke-width:0.8;"/>
   </g>
   <g id="patch_5">
    <path d="M 54 252 
L 388.8 252 
" style="fill:none;stroke:#000000;stroke-linecap:square;stroke-linejoin:miter;stroke-width:0.8;"/>
   </g>
   <g id="patch_6">
    <path d="M 54 34.56 
L 388.8 34.56 
" style="fill:none;stroke:#000000;stroke-linecap:square;stroke-linejoin:miter;stroke-width:0.8;"/>
   </g>
   <g id="legend_1">
    <g id="patch_7">
     <path d="M 270.968121 144.507575 
L 380.4 144.507575 
Q 382.8 144.507575 382.8 142.107575 
L 382.8 42.96 
Q 382.8 40.56 380.4 40.56 
L 270.968121 40.56 
Q 268.568121 40.56 268.568121 42.96 
L 268.568121 142.107575 
Q 268.568121 144.507575 270.968121 144.507575 
z
" style="fill:#ffffff;opacity:0.8;stroke:#cccccc;stroke-linejoin:miter;"/>
    </g>
    <g id="line2d_22">
     <path d="M 273.368121 49.56 
L 297.368121 49.56 
" style="fill:none;stroke:#1f77b4;stroke-linecap:square;stroke-width:1.5;"/>
    </g>
    <g id="line2d_23"/>
    <g id="text_18">
     <!-- Observed $\textit{UN}$ -->
     <defs>
      <path d="M 67.296875 33.84375 
C 67.296875 54.5 52.59375 70 36 70 
C 19 70 4.59375 54.296875 4.59375 33.84375 
C 4.59375 13.390625 19.203125 -2 35.90625 -2 
C 53 -2 67.296875 13.6875 67.296875 33.84375 
z
M 36 -0.203125 
C 24.59375 -0.203125 12.203125 11.28125 12.203125 35.15625 
C 12.203125 58.921875 25.796875 68.1875 35.90625 68.1875 
C 46.5 68.1875 59.703125 58.625 59.703125 35.15625 
C 59.703125 10.875 47 -0.203125 36 -0.203125 
z
" id="CMR17-79"/>
      <path d="M 15 69 
L 3.09375 67.890625 
L 3.09375 65.296875 
C 9 65.296875 9.90625 64.703125 9.90625 60.046875 
L 9.90625 -0.203125 
L 11.703125 -0.203125 
L 14.59375 6.953125 
C 17.5 2.203125 21.796875 -1 27.59375 -1 
C 37.59375 -1 47.703125 7.859375 47.703125 21.59375 
C 47.703125 34.515625 38.703125 44 28.59375 44 
C 22.40625 44 18 40.671875 15 36.734375 
z
M 15.203125 31.59375 
C 15.203125 33.40625 15.203125 33.703125 16.59375 35.828125 
C 20.5 41.890625 26.09375 42.390625 28 42.390625 
C 31 42.390625 41.296875 40.78125 41.296875 21.6875 
C 41.296875 1.703125 29.5 0.59375 27.09375 0.59375 
C 24 0.59375 19.5 1.796875 16.296875 7.65625 
C 15.203125 9.578125 15.203125 9.78125 15.203125 11.59375 
z
" id="CMR17-98"/>
      <path d="M 39.09375 33.953125 
C 40 36.171875 41.59375 40.1875 47.40625 40.390625 
L 47.40625 43 
C 45.5 42.890625 43 42.796875 41.09375 42.796875 
C 39 42.796875 35.703125 42.796875 33.703125 43 
L 33.703125 40.390625 
C 36.203125 40.1875 37.59375 38.984375 37.59375 36.375 
C 37.59375 35.46875 37.59375 35.265625 37 33.859375 
L 26 5.921875 
L 14.09375 36.0625 
C 13.5 37.375 13.5 37.578125 13.5 37.984375 
C 13.5 40.390625 16.796875 40.390625 18.296875 40.390625 
L 18.296875 43 
C 15.90625 42.796875 11.5 42.796875 9 42.796875 
C 6.296875 42.796875 3.203125 42.796875 1 43 
L 1 40.390625 
C 4.796875 40.390625 6.90625 40.390625 8.09375 37.28125 
L 22.59375 0.6875 
C 23.203125 -0.8125 23.296875 -1 24.203125 -1 
C 25.09375 -1 25.203125 -0.8125 25.796875 0.6875 
z
" id="CMR17-118"/>
      <path d="M 72.09375 58.03125 
C 73.703125 64.296875 77.90625 64.890625 81.59375 65.09375 
C 82 65.09375 83.09375 65.1875 83.09375 66.890625 
C 83.09375 68 82.203125 68 81.796875 68 
C 79.09375 68 76 67.796875 73.203125 67.796875 
C 67.296875 67.796875 64.5 68 64.40625 68 
C 63.703125 68 62.59375 68 62.59375 66.09375 
C 62.59375 65.1875 63.40625 65.09375 64.09375 65.09375 
C 67.796875 65 69.796875 63.90625 69.796875 60.921875 
C 69.796875 60.03125 69.59375 58.828125 69.40625 58.234375 
L 60.5 22.65625 
C 57.59375 11.234375 47.59375 0.890625 37.5 0.890625 
C 31.796875 0.890625 26.796875 4.875 26.796875 13.421875 
C 26.796875 15.703125 27.203125 18.875 27.796875 21.0625 
L 37.796875 60.921875 
C 38.703125 64.296875 39.296875 65.09375 45.5 65.09375 
C 47.203125 65.09375 48.09375 65.09375 48.09375 66.890625 
C 48.09375 68 47.203125 68 46.703125 68 
C 43.203125 68 39.5 67.796875 35.90625 67.796875 
C 32.203125 67.796875 28.40625 68 24.796875 68 
C 24 68 22.90625 68 22.90625 66.09375 
C 22.90625 65.09375 23.59375 65.09375 25.5 65.09375 
C 28 65.09375 30.796875 65.09375 30.796875 63.5 
C 30.796875 62.90625 30.796875 62.609375 30.59375 62.015625 
L 20.796875 22.859375 
C 20 19.671875 20 17.78125 20 16.296875 
C 20 4.5625 28.09375 -2 37.09375 -2 
C 49.203125 -2 60.203125 10.4375 63.09375 22.0625 
z
" id="CMTI12-85"/>
      <path d="M 72.09375 58.03125 
C 73.703125 64.203125 77.90625 64.890625 81.59375 65.09375 
C 82 65.09375 83.09375 65.1875 83.09375 66.890625 
C 83.09375 68 82.203125 68 81.796875 68 
C 79 68 76 67.796875 73.09375 67.796875 
C 70.09375 67.796875 67 68 64.09375 68 
C 63.40625 68 62.296875 68 62.296875 66.09375 
C 62.296875 65.1875 63.09375 65.09375 63.796875 65.09375 
C 67.5 64.984375 69.5 63.890625 69.5 60.90625 
C 69.5 60.015625 69.203125 58.828125 69.09375 58.21875 
L 57.90625 13.640625 
L 39.703125 66.390625 
C 39.203125 67.890625 39.09375 68 37 68 
L 25.59375 68 
C 23.796875 68 22.90625 68 22.90625 66.09375 
C 22.90625 65.09375 23.59375 65.09375 25.5 65.09375 
C 26.40625 65.09375 29.09375 65.09375 31.296875 64.5 
L 17.59375 9.953125 
C 15.90625 3.296875 11.09375 3.09375 8.09375 2.890625 
C 7.59375 2.890625 6.59375 2.796875 6.59375 1 
C 6.59375 0.09375 7.40625 0 7.796875 0 
C 10.59375 0 13.703125 0.1875 16.59375 0.1875 
C 19.59375 0.1875 22.703125 0 25.59375 0 
C 26.203125 0 27.296875 0 27.296875 1.890625 
C 27.296875 2.796875 26.5 2.890625 25.90625 2.890625 
C 22.90625 2.984375 20.09375 3.6875 20.09375 7.078125 
C 20.09375 7.96875 20.5 9.359375 20.5 9.453125 
L 33.703125 61.90625 
L 54.5 1.5 
C 54.90625 0.296875 55 0 56.203125 0 
C 57.296875 0 57.59375 0.09375 58 1.796875 
z
" id="CMTI12-78"/>
     </defs>
     <g transform="translate(306.968121 53.76)scale(0.12 -0.12)">
      <use transform="scale(0.996264)" xlink:href="#CMR17-79"/>
      <use transform="translate(71.714788 0)scale(0.996264)" xlink:href="#CMR17-98"/>
      <use transform="translate(122.610158 0)scale(0.996264)" xlink:href="#CMR17-115"/>
      <use transform="translate(158.411496 0)scale(0.996264)" xlink:href="#CMR17-101"/>
      <use transform="translate(198.897156 0)scale(0.996264)" xlink:href="#CMR17-114"/>
      <use transform="translate(234.177924 0)scale(0.996264)" xlink:href="#CMR17-118"/>
      <use transform="translate(279.868386 0)scale(0.996264)" xlink:href="#CMR17-101"/>
      <use transform="translate(320.354046 0)scale(0.996264)" xlink:href="#CMR17-100"/>
      <use transform="translate(401.325383 0)scale(0.996264)" xlink:href="#CMTI12-85"/>
      <use transform="translate(473.739833 0)scale(0.996264)" xlink:href="#CMTI12-78"/>
     </g>
    </g>
    <g id="line2d_24">
     <path d="M 273.368121 66.284596 
L 297.368121 66.284596 
" style="fill:none;stroke:#ff7f0e;stroke-linecap:square;stroke-width:1.5;"/>
    </g>
    <g id="line2d_25"/>
    <g id="text_19">
     <!-- Observed $\textit{RC}$ -->
     <defs>
      <path d="M 49.59375 33.796875 
C 62 36.6875 70.40625 44.953125 70.40625 53.328125 
C 70.40625 61.3125 63 68 50.796875 68 
L 25.703125 68 
C 23.90625 68 23 68 23 66.09375 
C 23 65.09375 23.703125 65.09375 25.59375 65.09375 
C 28.09375 65.09375 30.90625 65.09375 30.90625 63.5 
C 30.90625 62.90625 30.90625 62.59375 30.703125 62 
L 17 7.234375 
C 16.09375 3.765625 15.5 2.96875 9.40625 2.96875 
C 7.59375 2.96875 6.703125 2.96875 6.703125 1.078125 
C 6.703125 0.09375 7.703125 0.09375 8.09375 0.09375 
C 11.5 0.09375 15.296875 0.296875 18.796875 0.296875 
C 22.40625 0.296875 26.203125 0.09375 29.703125 0.09375 
C 30.5 0.09375 31.59375 0.09375 31.59375 1.96875 
C 31.59375 2.96875 30.796875 2.96875 29.296875 2.96875 
C 23.703125 2.96875 23.703125 3.765625 23.703125 4.65625 
L 23.90625 6.140625 
L 30.703125 33 
L 41.5 33 
C 49.40625 33 51.09375 27.734375 51.09375 24.078125 
C 51.09375 22.484375 50.296875 19.125 49.59375 16.640625 
C 48.90625 13.859375 48 10.203125 48 8.21875 
C 48 0.484375 54.296875 -2 59.703125 -2 
C 67.703125 -2 70.703125 8.3125 70.703125 9.203125 
C 70.703125 10.203125 69.703125 10.203125 69.296875 10.203125 
C 68.203125 10.203125 68.09375 10 67.703125 8.609375 
C 66.09375 3.46875 63.296875 0 60 0 
C 56.796875 0 56.59375 2.859375 56.59375 5.640625 
C 56.59375 8.609375 57.296875 13.859375 57.703125 16.9375 
C 57.703125 17.140625 58.203125 20.796875 58.203125 22.1875 
C 58.203125 28.53125 54.09375 32 49.59375 33.796875 
z
M 41.40625 35 
L 31.203125 35 
L 37.796875 61.3125 
C 38.59375 64.5 39.296875 64.796875 40.203125 64.890625 
C 40.90625 65.09375 43.90625 65.09375 45.796875 65.09375 
C 52 65.09375 62.203125 65.09375 62.203125 55.53125 
C 62.203125 53.734375 61.703125 35 41.40625 35 
z
" id="CMTI12-82"/>
      <path d="M 79.5 67.796875 
C 79.59375 68.09375 79.703125 68.890625 79.703125 69.09375 
C 79.703125 70 79 70 78.796875 70 
C 78.59375 70 78.203125 70 77.5 69.09375 
L 71 61.140625 
C 67.796875 66.984375 62.703125 70 56.203125 70 
C 36 70 14.796875 47.734375 14.796875 24.21875 
C 14.796875 7.34375 25.796875 -2 38.5 -2 
C 49.40625 -2 57.296875 5.75 58.09375 6.453125 
C 66.796875 14.984375 68.40625 23.71875 68.40625 23.921875 
C 68.40625 24.8125 67.59375 24.8125 67 24.8125 
C 66.203125 24.8125 65.796875 24.703125 65.5 23.8125 
C 61 8.640625 49.296875 0.890625 40 0.890625 
C 30.90625 0.890625 22.703125 7.25 22.703125 20.734375 
C 22.703125 23.515625 23.796875 40.484375 33.5 53.78125 
C 38.59375 60.640625 47.703125 67.09375 56.90625 67.09375 
C 69.796875 67.09375 71 53.296875 71 48.921875 
C 71 47.4375 70.796875 45.15625 70.5 43.671875 
L 70.5 42.765625 
C 70.5 41.875 71.296875 41.875 71.796875 41.875 
C 72.796875 41.875 73 41.984375 73.40625 43.5625 
z
" id="CMTI12-67"/>
     </defs>
     <g transform="translate(306.968121 70.484596)scale(0.12 -0.12)">
      <use transform="scale(0.996264)" xlink:href="#CMR17-79"/>
      <use transform="translate(71.714788 0)scale(0.996264)" xlink:href="#CMR17-98"/>
      <use transform="translate(122.610158 0)scale(0.996264)" xlink:href="#CMR17-115"/>
      <use transform="translate(158.411496 0)scale(0.996264)" xlink:href="#CMR17-101"/>
      <use transform="translate(198.897156 0)scale(0.996264)" xlink:href="#CMR17-114"/>
      <use transform="translate(234.177924 0)scale(0.996264)" xlink:href="#CMR17-118"/>
      <use transform="translate(279.868386 0)scale(0.996264)" xlink:href="#CMR17-101"/>
      <use transform="translate(320.354046 0)scale(0.996264)" xlink:href="#CMR17-100"/>
      <use transform="translate(401.325383 0)scale(0.996264)" xlink:href="#CMTI12-82"/>
      <use transform="translate(469.911447 0)scale(0.996264)" xlink:href="#CMTI12-67"/>
     </g>
    </g>
    <g id="line2d_26">
     <path d="M 273.368121 83.009192 
L 297.368121 83.009192 
" style="fill:none;stroke:#2ca02c;stroke-linecap:square;stroke-width:1.5;"/>
    </g>
    <g id="line2d_27"/>
    <g id="text_20">
     <!-- Observed $\textit{OC}$ -->
     <defs>
      <path d="M 77.296875 44.359375 
C 77.296875 58.75 68.796875 70 55 70 
C 34.90625 70 14.59375 46.34375 14.59375 23.421875 
C 14.59375 9.125 23.203125 -2 37 -2 
C 56.796875 -2 77.296875 21.03125 77.296875 44.359375 
z
M 37.5 0.296875 
C 28.59375 0.296875 22.796875 8.4375 22.796875 20.546875 
C 22.796875 26.59375 25.09375 42.875 33.203125 54.28125 
C 39.90625 63.625 48 67.796875 54.40625 67.796875 
C 62.703125 67.796875 69.5 61.234375 69.5 48.234375 
C 69.5 28.875 55.59375 0.296875 37.5 0.296875 
z
" id="CMTI12-79"/>
     </defs>
     <g transform="translate(306.968121 87.209192)scale(0.12 -0.12)">
      <use transform="scale(0.996264)" xlink:href="#CMR17-79"/>
      <use transform="translate(71.714788 0)scale(0.996264)" xlink:href="#CMR17-98"/>
      <use transform="translate(122.610158 0)scale(0.996264)" xlink:href="#CMR17-115"/>
      <use transform="translate(158.411496 0)scale(0.996264)" xlink:href="#CMR17-101"/>
      <use transform="translate(198.897156 0)scale(0.996264)" xlink:href="#CMR17-114"/>
      <use transform="translate(234.177924 0)scale(0.996264)" xlink:href="#CMR17-118"/>
      <use transform="translate(279.868386 0)scale(0.996264)" xlink:href="#CMR17-101"/>
      <use transform="translate(320.354046 0)scale(0.996264)" xlink:href="#CMR17-100"/>
      <use transform="translate(401.325383 0)scale(0.996264)" xlink:href="#CMTI12-79"/>
      <use transform="translate(476.045943 0)scale(0.996264)" xlink:href="#CMTI12-67"/>
     </g>
    </g>
    <g id="line2d_28">
     <path d="M 273.368121 99.733787 
L 297.368121 99.733787 
" style="fill:none;stroke:#d62728;stroke-dasharray:1.5,2.475;stroke-dashoffset:0;stroke-width:1.5;"/>
    </g>
    <g id="line2d_29">
     <g>
      <use style="fill:#d62728;stroke:#d62728;stroke-linejoin:miter;" x="285.368121" xlink:href="#m1937bb1c08" y="99.733787"/>
     </g>
    </g>
    <g id="text_21">
     <!-- analytical $\textit{OC}$ -->
     <defs>
      <path d="M 15.296875 69 
L 3.40625 67.890625 
L 3.40625 65.296875 
C 9.296875 65.296875 10.203125 64.703125 10.203125 59.921875 
L 10.203125 6.859375 
C 10.203125 3.09375 9.796875 2.59375 3.40625 2.59375 
L 3.40625 0 
C 5.796875 0.1875 10.203125 0.1875 12.703125 0.1875 
C 15.296875 0.1875 19.703125 0.1875 22.09375 0 
L 22.09375 2.59375 
C 15.703125 2.59375 15.296875 2.984375 15.296875 6.859375 
z
" id="CMR17-108"/>
     </defs>
     <g transform="translate(306.968121 103.933787)scale(0.12 -0.12)">
      <use transform="scale(0.996264)" xlink:href="#CMR17-97"/>
      <use transform="translate(45.690477 0)scale(0.996264)" xlink:href="#CMR17-110"/>
      <use transform="translate(96.585847 0)scale(0.996264)" xlink:href="#CMR17-97"/>
      <use transform="translate(142.276324 0)scale(0.996264)" xlink:href="#CMR17-108"/>
      <use transform="translate(167.147382 0)scale(0.996264)" xlink:href="#CMR17-121"/>
      <use transform="translate(215.440298 0)scale(0.996264)" xlink:href="#CMR17-116"/>
      <use transform="translate(250.721066 0)scale(0.996264)" xlink:href="#CMR17-105"/>
      <use transform="translate(275.592125 0)scale(0.996264)" xlink:href="#CMR17-99"/>
      <use transform="translate(316.077785 0)scale(0.996264)" xlink:href="#CMR17-97"/>
      <use transform="translate(361.768262 0)scale(0.996264)" xlink:href="#CMR17-108"/>
      <use transform="translate(416.715287 0)scale(0.996264)" xlink:href="#CMTI12-79"/>
      <use transform="translate(491.435848 0)scale(0.996264)" xlink:href="#CMTI12-67"/>
     </g>
    </g>
    <g id="line2d_30">
     <path d="M 273.368121 116.458383 
L 297.368121 116.458383 
" style="fill:none;stroke:#9467bd;stroke-dasharray:1.5,2.475;stroke-dashoffset:0;stroke-width:1.5;"/>
    </g>
    <g id="line2d_31">
     <g>
      <use style="fill:#9467bd;stroke:#9467bd;stroke-linejoin:miter;" x="285.368121" xlink:href="#mfa8d761327" y="116.458383"/>
     </g>
    </g>
    <g id="text_22">
     <!-- analytical $\textit{UN}$ -->
     <g transform="translate(306.968121 120.658383)scale(0.12 -0.12)">
      <use transform="scale(0.996264)" xlink:href="#CMR17-97"/>
      <use transform="translate(45.690477 0)scale(0.996264)" xlink:href="#CMR17-110"/>
      <use transform="translate(96.585847 0)scale(0.996264)" xlink:href="#CMR17-97"/>
      <use transform="translate(142.276324 0)scale(0.996264)" xlink:href="#CMR17-108"/>
      <use transform="translate(167.147382 0)scale(0.996264)" xlink:href="#CMR17-121"/>
      <use transform="translate(215.440298 0)scale(0.996264)" xlink:href="#CMR17-116"/>
      <use transform="translate(250.721066 0)scale(0.996264)" xlink:href="#CMR17-105"/>
      <use transform="translate(275.592125 0)scale(0.996264)" xlink:href="#CMR17-99"/>
      <use transform="translate(316.077785 0)scale(0.996264)" xlink:href="#CMR17-97"/>
      <use transform="translate(361.768262 0)scale(0.996264)" xlink:href="#CMR17-108"/>
      <use transform="translate(416.715287 0)scale(0.996264)" xlink:href="#CMTI12-85"/>
      <use transform="translate(489.129737 0)scale(0.996264)" xlink:href="#CMTI12-78"/>
     </g>
    </g>
    <g id="line2d_32">
     <path d="M 273.368121 133.182979 
L 297.368121 133.182979 
" style="fill:none;stroke:#8c564b;stroke-dasharray:1.5,2.475;stroke-dashoffset:0;stroke-width:1.5;"/>
    </g>
    <g id="line2d_33">
     <g>
      <use style="fill:#8c564b;stroke:#8c564b;" x="285.368121" xlink:href="#m36d97650ce" y="133.182979"/>
     </g>
    </g>
    <g id="text_23">
     <!-- analytical $\textit{RC}$ -->
     <g transform="translate(306.968121 137.382979)scale(0.12 -0.12)">
      <use transform="scale(0.996264)" xlink:href="#CMR17-97"/>
      <use transform="translate(45.690477 0)scale(0.996264)" xlink:href="#CMR17-110"/>
      <use transform="translate(96.585847 0)scale(0.996264)" xlink:href="#CMR17-97"/>
      <use transform="translate(142.276324 0)scale(0.996264)" xlink:href="#CMR17-108"/>
      <use transform="translate(167.147382 0)scale(0.996264)" xlink:href="#CMR17-121"/>
      <use transform="translate(215.440298 0)scale(0.996264)" xlink:href="#CMR17-116"/>
      <use transform="translate(250.721066 0)scale(0.996264)" xlink:href="#CMR17-105"/>
      <use transform="translate(275.592125 0)scale(0.996264)" xlink:href="#CMR17-99"/>
      <use transform="translate(316.077785 0)scale(0.996264)" xlink:href="#CMR17-97"/>
      <use transform="translate(361.768262 0)scale(0.996264)" xlink:href="#CMR17-108"/>
      <use transform="translate(416.715287 0)scale(0.996264)" xlink:href="#CMTI12-82"/>
      <use transform="translate(485.301351 0)scale(0.996264)" xlink:href="#CMTI12-67"/>
     </g>
    </g>
   </g>
  </g>
 </g>
 <defs>
  <clipPath id="p77ad6189e8">
   <rect height="217.44" width="334.8" x="54" y="34.56"/>
  </clipPath>
 </defs>
</svg>
