<?xml version="1.0" encoding="utf-8" standalone="no"?>
<!DOCTYPE svg PUBLIC "-//W3C//DTD SVG 1.1//EN"
  "http://www.w3.org/Graphics/SVG/1.1/DTD/svg11.dtd">
<!-- Created with matplotlib (http://matplotlib.org/) -->
<svg height="288pt" version="1.1" viewBox="0 0 432 288" width="432pt" xmlns="http://www.w3.org/2000/svg" xmlns:xlink="http://www.w3.org/1999/xlink">
 <defs>
  <style type="text/css">
*{stroke-linecap:butt;stroke-linejoin:round;}
  </style>
 </defs>
 <g id="figure_1">
  <g id="patch_1">
   <path d="M 0 288 
L 432 288 
L 432 0 
L 0 0 
z
" style="fill:#ffffff;"/>
  </g>
  <g id="axes_1">
   <g id="patch_2">
    <path d="M 54 252 
L 388.8 252 
L 388.8 34.56 
L 54 34.56 
z
" style="fill:#ffffff;"/>
   </g>
   <g id="matplotlib.axis_1">
    <g id="xtick_1">
     <g id="line2d_1">
      <defs>
       <path d="M 0 0 
L 0 3.5 
" id="mce9661f9b3" style="stroke:#000000;stroke-width:0.8;"/>
      </defs>
      <g>
       <use style="stroke:#000000;stroke-width:0.8;" x="66.143802" xlink:href="#mce9661f9b3" y="252"/>
      </g>
     </g>
     <g id="text_1">
      <!-- $1.00$ -->
      <defs>
       <path d="M 26.59375 63.796875 
C 26.59375 65.890625 26.5 66 25.09375 66 
C 21.203125 61.359375 15.296875 59.890625 9.703125 59.6875 
C 9.40625 59.6875 8.90625 59.6875 8.796875 59.5 
C 8.703125 59.296875 8.703125 59.09375 8.703125 57 
C 11.796875 57 17 57.59375 21 59.984375 
L 21 7.296875 
C 21 3.796875 20.796875 2.59375 12.203125 2.59375 
L 9.203125 2.59375 
L 9.203125 0 
C 14 0.09375 19 0.1875 23.796875 0.1875 
C 28.59375 0.1875 33.59375 0.09375 38.40625 0 
L 38.40625 2.59375 
L 35.40625 2.59375 
C 26.796875 2.59375 26.59375 3.6875 26.59375 7.296875 
z
" id="CMR17-49"/>
       <path d="M 18.40625 4.796875 
C 18.40625 7.6875 16 9.6875 13.59375 9.6875 
C 10.703125 9.6875 8.703125 7.296875 8.703125 4.890625 
C 8.703125 2 11.09375 0 13.5 0 
C 16.40625 0 18.40625 2.390625 18.40625 4.796875 
z
" id="CMMI12-58"/>
       <path d="M 42 31.84375 
C 42 37.96875 41.90625 48.421875 37.703125 56.453125 
C 34 63.484375 28.09375 66 22.90625 66 
C 18.09375 66 12 63.78125 8.203125 56.5625 
C 4.203125 49.015625 3.796875 39.671875 3.796875 31.84375 
C 3.796875 26.109375 3.90625 17.375 7 9.734375 
C 11.296875 -0.609375 19 -2 22.90625 -2 
C 27.5 -2 34.5 -0.109375 38.59375 9.4375 
C 41.59375 16.375 42 24.5 42 31.84375 
z
M 22.90625 -0.40625 
C 16.5 -0.40625 12.703125 5.125 11.296875 12.75 
C 10.203125 18.6875 10.203125 27.328125 10.203125 32.953125 
C 10.203125 40.6875 10.203125 47.109375 11.5 53.234375 
C 13.40625 61.78125 19 64.390625 22.90625 64.390625 
C 27 64.390625 32.296875 61.671875 34.203125 53.4375 
C 35.5 47.71875 35.59375 40.984375 35.59375 32.953125 
C 35.59375 26.421875 35.59375 18.375 34.40625 12.453125 
C 32.296875 1.5 26.40625 -0.40625 22.90625 -0.40625 
z
" id="CMR17-48"/>
      </defs>
      <g transform="translate(57.288095 265.918498)scale(0.1 -0.1)">
       <use transform="scale(0.996264)" xlink:href="#CMR17-49"/>
       <use transform="translate(45.690477 0)scale(0.996264)" xlink:href="#CMMI12-58"/>
       <use transform="translate(72.787654 0)scale(0.996264)" xlink:href="#CMR17-48"/>
       <use transform="translate(118.478131 0)scale(0.996264)" xlink:href="#CMR17-48"/>
      </g>
     </g>
    </g>
    <g id="xtick_2">
     <g id="line2d_2">
      <g>
       <use style="stroke:#000000;stroke-width:0.8;" x="104.573554" xlink:href="#mce9661f9b3" y="252"/>
      </g>
     </g>
     <g id="text_2">
      <!-- $1.25$ -->
      <defs>
       <path d="M 41.703125 15.46875 
L 39.90625 15.46875 
C 38.90625 8.390625 38.09375 7.1875 37.703125 6.59375 
C 37.203125 5.796875 30 5.796875 28.59375 5.796875 
L 9.40625 5.796875 
C 13 9.6875 20 16.765625 28.5 24.9375 
C 34.59375 30.71875 41.703125 37.5 41.703125 47.390625 
C 41.703125 59.1875 32.296875 66 21.796875 66 
C 10.796875 66 4.09375 56.296875 4.09375 47.296875 
C 4.09375 43.390625 7 42.890625 8.203125 42.890625 
C 9.203125 42.890625 12.203125 43.484375 12.203125 46.984375 
C 12.203125 50.09375 9.59375 51 8.203125 51 
C 7.59375 51 7 50.890625 6.59375 50.6875 
C 8.5 59.1875 14.296875 63.390625 20.40625 63.390625 
C 29.09375 63.390625 34.796875 56.5 34.796875 47.390625 
C 34.796875 38.703125 29.703125 31.21875 24 24.734375 
L 4.09375 2.296875 
L 4.09375 0 
L 39.296875 0 
z
" id="CMR17-50"/>
       <path d="M 11.40625 58.59375 
C 12.40625 58.1875 16.5 56.890625 20.703125 56.890625 
C 30 56.890625 35.09375 61.890625 38 64.6875 
C 38 65.484375 38 66 37.40625 66 
C 37.296875 66 37.09375 66 36.296875 65.59375 
C 32.796875 64.09375 28.703125 63 23.703125 63 
C 20.703125 63 16.203125 63.359375 11.296875 65.484375 
C 10.203125 66 10 66 9.90625 66 
C 9.40625 66 9.296875 65.890625 9.296875 63.90625 
L 9.296875 34.859375 
C 9.296875 33.015625 9.296875 32.5 10.296875 32.5 
C 10.796875 32.5 11 32.703125 11.5 33.421875 
C 14.703125 38.046875 19.09375 40 24.09375 40 
C 27.59375 40 35.09375 37.734375 35.09375 20.203125 
C 35.09375 16.984375 35.09375 11.1875 32.09375 6.59375 
C 29.59375 2.484375 25.703125 0.390625 21.40625 0.390625 
C 14.796875 0.390625 8.09375 4.984375 6.296875 12.6875 
C 6.703125 12.59375 7.5 12.390625 7.90625 12.390625 
C 9.203125 12.390625 11.703125 13.09375 11.703125 16.1875 
C 11.703125 18.890625 9.796875 20 7.90625 20 
C 5.59375 20 4.09375 18.59375 4.09375 15.796875 
C 4.09375 7.09375 11 -2 21.59375 -2 
C 31.90625 -2 41.703125 6.890625 41.703125 19.796875 
C 41.703125 32.09375 33.90625 41.59375 24.203125 41.59375 
C 19.09375 41.59375 14.796875 39.6875 11.40625 36 
z
" id="CMR17-53"/>
      </defs>
      <g transform="translate(95.717847 265.918498)scale(0.1 -0.1)">
       <use transform="scale(0.996264)" xlink:href="#CMR17-49"/>
       <use transform="translate(45.690477 0)scale(0.996264)" xlink:href="#CMMI12-58"/>
       <use transform="translate(72.787654 0)scale(0.996264)" xlink:href="#CMR17-50"/>
       <use transform="translate(118.478131 0)scale(0.996264)" xlink:href="#CMR17-53"/>
      </g>
     </g>
    </g>
    <g id="xtick_3">
     <g id="line2d_3">
      <g>
       <use style="stroke:#000000;stroke-width:0.8;" x="143.003306" xlink:href="#mce9661f9b3" y="252"/>
      </g>
     </g>
     <g id="text_3">
      <!-- $1.50$ -->
      <g transform="translate(134.147599 265.918498)scale(0.1 -0.1)">
       <use transform="scale(0.996264)" xlink:href="#CMR17-49"/>
       <use transform="translate(45.690477 0)scale(0.996264)" xlink:href="#CMMI12-58"/>
       <use transform="translate(72.787654 0)scale(0.996264)" xlink:href="#CMR17-53"/>
       <use transform="translate(118.478131 0)scale(0.996264)" xlink:href="#CMR17-48"/>
      </g>
     </g>
    </g>
    <g id="xtick_4">
     <g id="line2d_4">
      <g>
       <use style="stroke:#000000;stroke-width:0.8;" x="181.433058" xlink:href="#mce9661f9b3" y="252"/>
      </g>
     </g>
     <g id="text_4">
      <!-- $1.75$ -->
      <defs>
       <path d="M 45.09375 61.796875 
L 45.09375 64 
L 21.59375 64 
C 9.90625 64 9.703125 65.09375 9.296875 67 
L 7.5 67 
L 4.59375 48.5 
L 6.40625 48.5 
C 6.703125 50.40625 7.40625 55.5 8.59375 57.390625 
C 9.203125 58.1875 16.59375 58.1875 18.296875 58.1875 
L 40.296875 58.1875 
L 29.203125 41.71875 
C 21.796875 30.640625 16.703125 15.671875 16.703125 2.59375 
C 16.703125 1.390625 16.703125 -2 20.296875 -2 
C 23.90625 -2 23.90625 1.390625 23.90625 2.6875 
L 23.90625 7.28125 
C 23.90625 23.65625 26.703125 34.4375 31.296875 41.3125 
z
" id="CMR17-55"/>
      </defs>
      <g transform="translate(172.577351 265.918498)scale(0.1 -0.1)">
       <use transform="scale(0.996264)" xlink:href="#CMR17-49"/>
       <use transform="translate(45.690477 0)scale(0.996264)" xlink:href="#CMMI12-58"/>
       <use transform="translate(72.787654 0)scale(0.996264)" xlink:href="#CMR17-55"/>
       <use transform="translate(118.478131 0)scale(0.996264)" xlink:href="#CMR17-53"/>
      </g>
     </g>
    </g>
    <g id="xtick_5">
     <g id="line2d_5">
      <g>
       <use style="stroke:#000000;stroke-width:0.8;" x="219.86281" xlink:href="#mce9661f9b3" y="252"/>
      </g>
     </g>
     <g id="text_5">
      <!-- $2.00$ -->
      <g transform="translate(211.007103 265.918498)scale(0.1 -0.1)">
       <use transform="scale(0.996264)" xlink:href="#CMR17-50"/>
       <use transform="translate(45.690477 0)scale(0.996264)" xlink:href="#CMMI12-58"/>
       <use transform="translate(72.787654 0)scale(0.996264)" xlink:href="#CMR17-48"/>
       <use transform="translate(118.478131 0)scale(0.996264)" xlink:href="#CMR17-48"/>
      </g>
     </g>
    </g>
    <g id="xtick_6">
     <g id="line2d_6">
      <g>
       <use style="stroke:#000000;stroke-width:0.8;" x="258.292562" xlink:href="#mce9661f9b3" y="252"/>
      </g>
     </g>
     <g id="text_6">
      <!-- $2.25$ -->
      <g transform="translate(249.436855 265.918498)scale(0.1 -0.1)">
       <use transform="scale(0.996264)" xlink:href="#CMR17-50"/>
       <use transform="translate(45.690477 0)scale(0.996264)" xlink:href="#CMMI12-58"/>
       <use transform="translate(72.787654 0)scale(0.996264)" xlink:href="#CMR17-50"/>
       <use transform="translate(118.478131 0)scale(0.996264)" xlink:href="#CMR17-53"/>
      </g>
     </g>
    </g>
    <g id="xtick_7">
     <g id="line2d_7">
      <g>
       <use style="stroke:#000000;stroke-width:0.8;" x="296.722314" xlink:href="#mce9661f9b3" y="252"/>
      </g>
     </g>
     <g id="text_7">
      <!-- $2.50$ -->
      <g transform="translate(287.866607 265.918498)scale(0.1 -0.1)">
       <use transform="scale(0.996264)" xlink:href="#CMR17-50"/>
       <use transform="translate(45.690477 0)scale(0.996264)" xlink:href="#CMMI12-58"/>
       <use transform="translate(72.787654 0)scale(0.996264)" xlink:href="#CMR17-53"/>
       <use transform="translate(118.478131 0)scale(0.996264)" xlink:href="#CMR17-48"/>
      </g>
     </g>
    </g>
    <g id="xtick_8">
     <g id="line2d_8">
      <g>
       <use style="stroke:#000000;stroke-width:0.8;" x="335.152066" xlink:href="#mce9661f9b3" y="252"/>
      </g>
     </g>
     <g id="text_8">
      <!-- $2.75$ -->
      <g transform="translate(326.296359 265.918498)scale(0.1 -0.1)">
       <use transform="scale(0.996264)" xlink:href="#CMR17-50"/>
       <use transform="translate(45.690477 0)scale(0.996264)" xlink:href="#CMMI12-58"/>
       <use transform="translate(72.787654 0)scale(0.996264)" xlink:href="#CMR17-55"/>
       <use transform="translate(118.478131 0)scale(0.996264)" xlink:href="#CMR17-53"/>
      </g>
     </g>
    </g>
    <g id="xtick_9">
     <g id="line2d_9">
      <g>
       <use style="stroke:#000000;stroke-width:0.8;" x="373.581818" xlink:href="#mce9661f9b3" y="252"/>
      </g>
     </g>
     <g id="text_9">
      <!-- $3.00$ -->
      <defs>
       <path d="M 22.09375 34 
C 31 34 34.90625 26.140625 34.90625 17.09375 
C 34.90625 5.03125 28.5 0.390625 22.703125 0.390625 
C 17.40625 0.390625 8.796875 3.015625 6.09375 10.796875 
C 6.59375 10.59375 7.09375 10.59375 7.59375 10.59375 
C 10 10.59375 11.796875 12.1875 11.796875 14.796875 
C 11.796875 17.6875 9.59375 19 7.59375 19 
C 5.90625 19 3.296875 18.1875 3.296875 14.484375 
C 3.296875 5.234375 12.296875 -2 22.90625 -2 
C 34 -2 42.5 6.75 42.5 16.984375 
C 42.5 26.84375 34.5 34 25 35.09375 
C 32.59375 36.671875 39.90625 43.375 39.90625 52.390625 
C 39.90625 60.25 32 66 23 66 
C 13.90625 66 5.90625 60.34375 5.90625 52.296875 
C 5.90625 48.796875 8.5 48.1875 9.796875 48.1875 
C 11.90625 48.1875 13.703125 49.484375 13.703125 52.09375 
C 13.703125 54.6875 11.90625 56 9.796875 56 
C 9.40625 56 8.90625 56 8.5 55.796875 
C 11.40625 62.484375 19.296875 63.6875 22.796875 63.6875 
C 26.296875 63.6875 32.90625 61.96875 32.90625 52.296875 
C 32.90625 49.484375 32.5 44.546875 29.09375 40.21875 
C 26.09375 36.390625 22.703125 36.1875 19.40625 35.890625 
C 18.90625 35.890625 16.59375 35.6875 16.203125 35.6875 
C 15.5 35.59375 15.09375 35.5 15.09375 34.796875 
C 15.09375 34.09375 15.203125 34 17.203125 34 
z
" id="CMR17-51"/>
      </defs>
      <g transform="translate(364.726111 265.918498)scale(0.1 -0.1)">
       <use transform="scale(0.996264)" xlink:href="#CMR17-51"/>
       <use transform="translate(45.690477 0)scale(0.996264)" xlink:href="#CMMI12-58"/>
       <use transform="translate(72.787654 0)scale(0.996264)" xlink:href="#CMR17-48"/>
       <use transform="translate(118.478131 0)scale(0.996264)" xlink:href="#CMR17-48"/>
      </g>
     </g>
    </g>
    <g id="text_10">
     <!-- growth ratio, $\Theta$ -->
     <defs>
      <path d="M 11.09375 18.203125 
C 13 16.6875 16.296875 15 20.296875 15 
C 28.203125 15 35 21.234375 35 29.609375 
C 35 32.234375 34.203125 36.265625 31.203125 39.390625 
C 34 42.390625 38.09375 43.390625 40.40625 43.390625 
C 40.796875 43.390625 41.40625 43.390625 41.90625 43.09375 
C 41.5 42.984375 40.59375 42.59375 40.59375 40.984375 
C 40.59375 39.6875 41.5 38.796875 42.796875 38.796875 
C 44.296875 38.796875 45.09375 39.796875 45.09375 41.09375 
C 45.09375 42.984375 43.59375 45 40.40625 45 
C 36.40625 45 32.90625 43.09375 30.09375 40.484375 
C 27.09375 43.1875 23.5 44.1875 20.296875 44.1875 
C 12.40625 44.1875 5.59375 37.984375 5.59375 29.609375 
C 5.59375 23.859375 8.90625 20.21875 9.90625 19.21875 
C 6.90625 15.6875 6.90625 11.59375 6.90625 11.09375 
C 6.90625 8.5 7.90625 4.6875 11.296875 2.59375 
C 6.09375 1.28125 2 -2.875 2 -8.078125 
C 2 -15.5625 11.5 -21 22.90625 -21 
C 33.90625 -21 43.796875 -15.765625 43.796875 -7.96875 
C 43.796875 6 29 6 21.296875 6 
C 19 6 14.90625 6 14.40625 6.09375 
C 11.296875 6.59375 9.203125 9.390625 9.203125 12.890625 
C 9.203125 13.796875 9.203125 16 11.09375 18.203125 
z
M 20.296875 16.6875 
C 11.5 16.6875 11.5 27.59375 11.5 29.609375 
C 11.5 31.625 11.5 42.484375 20.296875 42.484375 
C 29.09375 42.484375 29.09375 31.625 29.09375 29.609375 
C 29.09375 27.59375 29.09375 16.6875 20.296875 16.6875 
z
M 22.90625 -19.3125 
C 12.90625 -19.3125 6 -13.796875 6 -8.078125 
C 6 -4.859375 7.703125 -1.84375 9.90625 -0.171875 
C 12.40625 1.59375 13.40625 1.59375 20.203125 1.59375 
C 28.40625 1.59375 39.796875 1.59375 39.796875 -8.078125 
C 39.796875 -13.796875 32.90625 -19.3125 22.90625 -19.3125 
z
" id="CMR17-103"/>
      <path d="M 15 23.703125 
C 15 33.34375 19.09375 42.390625 26.59375 42.390625 
C 27.296875 42.390625 28 42.296875 28.703125 41.984375 
C 28.703125 41.984375 26.5 41.28125 26.5 38.671875 
C 26.5 36.265625 28.40625 35.265625 29.90625 35.265625 
C 31.09375 35.265625 33.296875 35.96875 33.296875 38.78125 
C 33.296875 41.984375 30.09375 44 26.703125 44 
C 19.09375 44 15.796875 36.5625 14.796875 33.046875 
L 14.703125 33.046875 
L 14.703125 44 
L 3.09375 42.890625 
L 3.09375 40.28125 
C 9 40.28125 9.90625 39.6875 9.90625 34.859375 
L 9.90625 6.921875 
C 9.90625 3.09375 9.5 2.59375 3.09375 2.59375 
L 3.09375 0 
C 5.5 0.1875 10.09375 0.1875 12.703125 0.1875 
C 15.59375 0.1875 20.703125 0.1875 23.40625 0 
L 23.40625 2.59375 
C 16.203125 2.59375 15 2.59375 15 7.109375 
z
" id="CMR17-114"/>
      <path d="M 43.09375 21.1875 
C 43.09375 34 33.796875 44 22.90625 44 
C 12 44 2.703125 34 2.703125 21.1875 
C 2.703125 8.59375 12 -1 22.90625 -1 
C 33.796875 -1 43.09375 8.59375 43.09375 21.1875 
z
M 22.90625 0.796875 
C 18.203125 0.796875 14.203125 3.59375 11.90625 7.5 
C 9.40625 12 9.09375 17.59375 9.09375 22 
C 9.09375 26.1875 9.296875 31.390625 11.90625 35.890625 
C 13.90625 39.1875 17.796875 42.390625 22.90625 42.390625 
C 27.40625 42.390625 31.203125 39.890625 33.59375 36.390625 
C 36.703125 31.6875 36.703125 25.09375 36.703125 22 
C 36.703125 18.09375 36.5 12.09375 33.796875 7.296875 
C 31 2.6875 26.703125 0.796875 22.90625 0.796875 
z
" id="CMR17-111"/>
      <path d="M 58.203125 34.15625 
C 60.203125 40.09375 64.203125 40.296875 65.703125 40.390625 
L 65.703125 43 
C 63.703125 42.890625 61.703125 42.796875 59.703125 42.796875 
C 57.796875 42.796875 53.5 42.796875 51.796875 43 
L 51.796875 40.390625 
C 54.90625 40.1875 56.59375 38.375 56.59375 35.875 
C 56.59375 35.171875 56.40625 34.265625 56.203125 33.5625 
L 46.796875 6.21875 
L 36.59375 35.875 
C 36.40625 36.578125 36.09375 37.375 36.09375 37.78125 
C 36.09375 40.390625 39.5 40.390625 41.09375 40.390625 
L 41.09375 43 
C 38.796875 42.796875 34.59375 42.796875 32.203125 42.796875 
C 29.703125 42.796875 27.09375 42.796875 24.796875 43 
L 24.796875 40.390625 
C 30.296875 40.390625 30.296875 40.1875 32.40625 33.859375 
L 23.203125 6.921875 
L 13.296875 35.96875 
C 12.796875 37.28125 12.796875 37.484375 12.796875 37.78125 
C 12.796875 40.390625 16.203125 40.390625 17.796875 40.390625 
L 17.796875 43 
C 15.40625 42.796875 11.203125 42.796875 8.703125 42.796875 
C 6.5 42.796875 3.09375 42.796875 1 43 
L 1 40.390625 
C 5.40625 40.390625 6.5 40.09375 7.59375 36.765625 
L 19.90625 0.59375 
C 20.296875 -0.703125 20.59375 -1 21.40625 -1 
C 22.09375 -1 22.5 -0.8125 23 0.6875 
L 33.296875 31.046875 
L 43.703125 0.6875 
C 44.203125 -0.8125 44.59375 -1 45.296875 -1 
C 46.09375 -1 46.40625 -0.703125 46.796875 0.59375 
z
" id="CMR17-119"/>
      <path d="M 15.09375 40.390625 
L 29.09375 40.390625 
L 29.09375 43 
L 15.09375 43 
L 15.09375 62 
L 13.296875 62 
C 13.09375 51.4375 9.59375 42.1875 1.09375 41.984375 
L 1.09375 40.390625 
L 9.796875 40.390625 
L 9.796875 12.15625 
C 9.796875 10.234375 9.796875 -1 21.40625 -1 
C 27.296875 -1 30.703125 4.8125 30.703125 12.25 
L 30.703125 17.984375 
L 28.90625 17.984375 
L 28.90625 12.34375 
C 28.90625 5.421875 26.203125 0.796875 22 0.796875 
C 19.09375 0.796875 15.09375 2.796875 15.09375 11.953125 
z
" id="CMR17-116"/>
      <path d="M 41.5 30.53125 
C 41.5 35.65625 40.5 44 28.703125 44 
C 20.5 44 16.5 37.375 15.296875 34.046875 
L 15.203125 34.046875 
L 15.203125 69 
L 3.296875 67.890625 
L 3.296875 65.296875 
C 9.203125 65.296875 10.09375 64.703125 10.09375 60.046875 
L 10.09375 6.921875 
C 10.09375 3.09375 9.703125 2.59375 3.296875 2.59375 
L 3.296875 0 
C 5.703125 0.1875 10.09375 0.1875 12.703125 0.1875 
C 15.296875 0.1875 19.796875 0.1875 22.203125 0 
L 22.203125 2.59375 
C 15.796875 2.59375 15.40625 3 15.40625 6.921875 
L 15.40625 26.21875 
C 15.40625 35.453125 21 42.390625 28 42.390625 
C 35.40625 42.390625 36.203125 35.765625 36.203125 30.9375 
L 36.203125 6.921875 
C 36.203125 3.09375 35.796875 2.59375 29.40625 2.59375 
L 29.40625 0 
C 31.796875 0.1875 36.203125 0.1875 38.796875 0.1875 
C 41.40625 0.1875 45.90625 0.1875 48.296875 0 
L 48.296875 2.59375 
C 41.90625 2.59375 41.5 3 41.5 6.921875 
z
" id="CMR17-104"/>
      <path d="M 36 25.875 
C 36 32 36 35.546875 31.796875 39.59375 
C 28.09375 42.984375 23.796875 44 20.40625 44 
C 12.5 44 6.796875 37.625 6.796875 30.890625 
C 6.796875 27.1875 9.796875 27 10.40625 27 
C 11.703125 27 14 27.796875 14 30.59375 
C 14 33.09375 12.09375 34.1875 10.40625 34.1875 
C 10 34.1875 9.5 34.09375 9.203125 34 
C 11.296875 40.53125 16.703125 42.390625 20.203125 42.390625 
C 25.203125 42.390625 30.703125 37.828125 30.703125 29.296875 
L 30.703125 25.5 
C 24.796875 25.296875 17.703125 24.5 12.09375 21.453125 
C 5.796875 17.921875 4 12.84375 4 9 
C 4 1.203125 13 -1 18.296875 -1 
C 23.796875 -1 28.90625 2.109375 31.09375 7.890625 
C 31.296875 3.421875 34.09375 -0.609375 38.5 -0.609375 
C 40.59375 -0.609375 45.90625 0.796875 45.90625 8.796875 
L 45.90625 14.46875 
L 44.09375 14.46875 
L 44.09375 8.703125 
C 44.09375 2.515625 41.40625 1.703125 40.09375 1.703125 
C 36 1.703125 36 6.96875 36 11.4375 
z
M 30.703125 13.859375 
C 30.703125 5.046875 24.5 0.59375 19 0.59375 
C 14 0.59375 10.09375 4.34375 10.09375 9 
C 10.09375 12.046875 11.40625 17.40625 17.203125 20.65625 
C 22 23.390625 27.5 23.796875 30.703125 24 
z
" id="CMR17-97"/>
      <path d="M 15.5 61.890625 
C 15.5 64.09375 13.703125 66 11.40625 66 
C 9.203125 66 7.296875 64.1875 7.296875 61.890625 
C 7.296875 59.6875 9.09375 57.796875 11.40625 57.796875 
C 13.59375 57.796875 15.5 59.59375 15.5 61.890625 
z
M 3.796875 42.890625 
L 3.796875 40.296875 
C 9.40625 40.296875 10.203125 39.6875 10.203125 34.859375 
L 10.203125 6.921875 
C 10.203125 3.09375 9.796875 2.59375 3.40625 2.59375 
L 3.40625 0 
C 5.796875 0.1875 10.09375 0.1875 12.59375 0.1875 
C 15 0.1875 19.09375 0.1875 21.40625 0 
L 21.40625 2.59375 
C 15.5 2.59375 15.296875 3.203125 15.296875 6.8125 
L 15.296875 44 
z
" id="CMR17-105"/>
      <path d="M 15.796875 1.59375 
C 16 0.6875 16 0.390625 16 -1.1875 
C 16 -7.046875 14 -12.421875 9.796875 -17.3125 
C 9.296875 -17.8125 9.296875 -18 9.296875 -18.203125 
C 9.296875 -18.609375 9.703125 -19 10.09375 -19 
C 10.703125 -19 17.59375 -12.125 17.59375 -1.28125 
C 17.59375 2 17.203125 8.1875 12.5 8.1875 
C 10.296875 8.1875 8.40625 6.6875 8.40625 4.09375 
C 8.40625 1.5 10.296875 0 12.5 0 
C 13.703125 0 15 0.5 15.796875 1.59375 
z
" id="CMR17-44"/>
      <path d="M 67.296875 33.984375 
C 67.296875 54.546875 52.59375 70 36 70 
C 19 70 4.59375 54.34375 4.59375 33.984375 
C 4.59375 13.46875 19.203125 -2 35.90625 -2 
C 53 -2 67.296875 13.765625 67.296875 33.984375 
z
M 36 -0.3125 
C 24.59375 -0.3125 11.90625 10.625 11.90625 33.984375 
C 11.90625 57.859375 25 68.390625 35.90625 68.390625 
C 47.203125 68.390625 60 57.5625 60 33.984375 
C 60 10.328125 47 -0.3125 36 -0.3125 
z
M 54.703125 40.40625 
L 52.90625 40.40625 
L 52.90625 37 
L 19 37 
L 19 40.40625 
L 17.203125 40.40625 
L 17.203125 27.953125 
L 19 27.953125 
L 19 31.390625 
L 52.90625 31.390625 
L 52.90625 27.953125 
L 54.703125 27.953125 
z
" id="CMR17-2"/>
     </defs>
     <g transform="translate(165.573339 284.308977)scale(0.18 -0.18)">
      <use transform="scale(0.996264)" xlink:href="#CMR17-103"/>
      <use transform="translate(45.690477 0)scale(0.996264)" xlink:href="#CMR17-114"/>
      <use transform="translate(80.971245 0)scale(0.996264)" xlink:href="#CMR17-111"/>
      <use transform="translate(124.059268 0)scale(0.996264)" xlink:href="#CMR17-119"/>
      <use transform="translate(190.569149 0)scale(0.996264)" xlink:href="#CMR17-116"/>
      <use transform="translate(225.849916 0)scale(0.996264)" xlink:href="#CMR17-104"/>
      <use transform="translate(306.821253 0)scale(0.996264)" xlink:href="#CMR17-114"/>
      <use transform="translate(342.10202 0)scale(0.996264)" xlink:href="#CMR17-97"/>
      <use transform="translate(387.792497 0)scale(0.996264)" xlink:href="#CMR17-116"/>
      <use transform="translate(423.073265 0)scale(0.996264)" xlink:href="#CMR17-105"/>
      <use transform="translate(447.944324 0)scale(0.996264)" xlink:href="#CMR17-111"/>
      <use transform="translate(493.634801 0)scale(0.996264)" xlink:href="#CMR17-44"/>
      <use transform="translate(548.581826 0)scale(0.996264)" xlink:href="#CMR17-2"/>
     </g>
    </g>
   </g>
   <g id="matplotlib.axis_2">
    <g id="ytick_1">
     <g id="line2d_10">
      <defs>
       <path d="M 0 0 
L -3.5 0 
" id="m670133c936" style="stroke:#000000;stroke-width:0.8;"/>
      </defs>
      <g>
       <use style="stroke:#000000;stroke-width:0.8;" x="54" xlink:href="#m670133c936" y="252"/>
      </g>
     </g>
     <g id="text_11">
      <!-- $0$ -->
      <g transform="translate(42.018665 255.459249)scale(0.1 -0.1)">
       <use transform="scale(0.996264)" xlink:href="#CMR17-48"/>
      </g>
     </g>
    </g>
    <g id="ytick_2">
     <g id="line2d_11">
      <g>
       <use style="stroke:#000000;stroke-width:0.8;" x="54" xlink:href="#m670133c936" y="208.512"/>
      </g>
     </g>
     <g id="text_12">
      <!-- $20$ -->
      <g transform="translate(37.037329 211.971249)scale(0.1 -0.1)">
       <use transform="scale(0.996264)" xlink:href="#CMR17-50"/>
       <use transform="translate(45.690477 0)scale(0.996264)" xlink:href="#CMR17-48"/>
      </g>
     </g>
    </g>
    <g id="ytick_3">
     <g id="line2d_12">
      <g>
       <use style="stroke:#000000;stroke-width:0.8;" x="54" xlink:href="#m670133c936" y="165.024"/>
      </g>
     </g>
     <g id="text_13">
      <!-- $40$ -->
      <defs>
       <path d="M 33.59375 64.796875 
C 33.59375 66.890625 33.5 67 31.703125 67 
L 2 19.59375 
L 2 17 
L 27.796875 17 
L 27.796875 7.1875 
C 27.796875 3.59375 27.59375 2.59375 20.59375 2.59375 
L 18.703125 2.59375 
L 18.703125 0 
C 21.90625 0.1875 27.296875 0.1875 30.703125 0.1875 
C 34.09375 0.1875 39.5 0.1875 42.703125 0 
L 42.703125 2.59375 
L 40.796875 2.59375 
C 33.796875 2.59375 33.59375 3.59375 33.59375 7.1875 
L 33.59375 17 
L 43.796875 17 
L 43.796875 19.59375 
L 33.59375 19.59375 
z
M 28.09375 58.171875 
L 28.09375 19.59375 
L 4 19.59375 
z
" id="CMR17-52"/>
      </defs>
      <g transform="translate(37.037329 168.483249)scale(0.1 -0.1)">
       <use transform="scale(0.996264)" xlink:href="#CMR17-52"/>
       <use transform="translate(45.690477 0)scale(0.996264)" xlink:href="#CMR17-48"/>
      </g>
     </g>
    </g>
    <g id="ytick_4">
     <g id="line2d_13">
      <g>
       <use style="stroke:#000000;stroke-width:0.8;" x="54" xlink:href="#m670133c936" y="121.536"/>
      </g>
     </g>
     <g id="text_14">
      <!-- $60$ -->
      <defs>
       <path d="M 10.59375 34.34375 
C 10.59375 58 21.796875 63.6875 28.296875 63.6875 
C 30.40625 63.6875 35.5 63.265625 37.5 59.09375 
C 35.90625 59.09375 32.90625 59.09375 32.90625 55.59375 
C 32.90625 52.890625 35.09375 52 36.5 52 
C 37.40625 52 40.09375 52.390625 40.09375 55.796875 
C 40.09375 62.296875 35.09375 66 28.203125 66 
C 16.296875 66 3.796875 53.296875 3.796875 31.421875 
C 3.796875 4.015625 15.09375 -2 23.09375 -2 
C 32.796875 -2 42 6.734375 42 20.234375 
C 42 32.828125 33.90625 42 23.703125 42 
C 17.59375 42 13.09375 37.96875 10.59375 30.921875 
z
M 23.09375 0.390625 
C 10.796875 0.390625 10.796875 18.9375 10.796875 22.65625 
C 10.796875 29.90625 14.203125 40.390625 23.5 40.390625 
C 25.203125 40.390625 30.09375 40.390625 33.40625 33.4375 
C 35.203125 29.515625 35.203125 25.375 35.203125 20.34375 
C 35.203125 14.90625 35.203125 10.875 33.09375 6.84375 
C 30.90625 2.703125 27.703125 0.390625 23.09375 0.390625 
z
" id="CMR17-54"/>
      </defs>
      <g transform="translate(37.037329 124.995249)scale(0.1 -0.1)">
       <use transform="scale(0.996264)" xlink:href="#CMR17-54"/>
       <use transform="translate(45.690477 0)scale(0.996264)" xlink:href="#CMR17-48"/>
      </g>
     </g>
    </g>
    <g id="ytick_5">
     <g id="line2d_14">
      <g>
       <use style="stroke:#000000;stroke-width:0.8;" x="54" xlink:href="#m670133c936" y="78.048"/>
      </g>
     </g>
     <g id="text_15">
      <!-- $80$ -->
      <defs>
       <path d="M 27.203125 35.765625 
C 33.5 38.96875 39.90625 43.796875 39.90625 51.53125 
C 39.90625 60.6875 31.09375 66 23 66 
C 13.90625 66 5.90625 59.375 5.90625 50.234375 
C 5.90625 47.71875 6.5 43.390625 10.40625 39.578125 
C 11.40625 38.578125 15.59375 35.5625 18.296875 33.65625 
C 13.796875 31.34375 3.296875 25.8125 3.296875 14.765625 
C 3.296875 4.40625 13.09375 -2 22.796875 -2 
C 33.5 -2 42.5 5.71875 42.5 15.96875 
C 42.5 25.109375 36.40625 29.328125 32.40625 32.046875 
z
M 14.09375 44.609375 
C 13.296875 45.109375 9.296875 48.21875 9.296875 52.9375 
C 9.296875 59.078125 15.59375 63.6875 22.796875 63.6875 
C 30.703125 63.6875 36.5 58.0625 36.5 51.53125 
C 36.5 42.1875 26.09375 36.859375 25.59375 36.859375 
C 25.5 36.859375 25.40625 36.859375 24.59375 37.46875 
z
M 32.5 24 
C 34 22.90625 38.796875 19.578125 38.796875 13.453125 
C 38.796875 6.015625 31.40625 0.390625 23 0.390625 
C 13.90625 0.390625 7 6.921875 7 14.859375 
C 7 22.796875 13.09375 29.4375 20 32.546875 
z
" id="CMR17-56"/>
      </defs>
      <g transform="translate(37.037329 81.507249)scale(0.1 -0.1)">
       <use transform="scale(0.996264)" xlink:href="#CMR17-56"/>
       <use transform="translate(45.690477 0)scale(0.996264)" xlink:href="#CMR17-48"/>
      </g>
     </g>
    </g>
    <g id="ytick_6">
     <g id="line2d_15">
      <g>
       <use style="stroke:#000000;stroke-width:0.8;" x="54" xlink:href="#m670133c936" y="34.56"/>
      </g>
     </g>
     <g id="text_16">
      <!-- $100$ -->
      <g transform="translate(32.055994 38.019249)scale(0.1 -0.1)">
       <use transform="scale(0.996264)" xlink:href="#CMR17-49"/>
       <use transform="translate(45.690477 0)scale(0.996264)" xlink:href="#CMR17-48"/>
       <use transform="translate(91.380954 0)scale(0.996264)" xlink:href="#CMR17-48"/>
      </g>
     </g>
    </g>
    <g id="text_17">
     <!-- Memory (Units: edge records) -->
     <defs>
      <path d="M 20.90625 66.390625 
C 20.296875 67.890625 20.203125 68 18.09375 68 
L 5.296875 68 
L 5.296875 65.390625 
C 12.203125 65.390625 13.296875 65.390625 13.296875 60.90625 
L 13.296875 9.75 
C 13.296875 7.265625 13.296875 2.59375 5.296875 2.59375 
L 5.296875 0 
C 7.59375 0.1875 11.796875 0.1875 14.296875 0.1875 
C 16.796875 0.1875 21 0.1875 23.296875 0 
L 23.296875 2.59375 
C 15.296875 2.59375 15.296875 7.265625 15.296875 9.75 
L 15.296875 64.984375 
L 15.40625 64.984375 
L 38.90625 1.59375 
C 39.296875 0.59375 39.5 0 40.296875 0 
C 41.09375 0 41.296875 0.59375 41.703125 1.59375 
L 65.40625 65.484375 
L 65.5 65.484375 
L 65.5 7.078125 
C 65.5 2.59375 64.40625 2.59375 57.5 2.59375 
L 57.5 0 
C 60.203125 0.1875 65.59375 0.1875 68.5 0.1875 
C 71.40625 0.1875 76.90625 0.1875 79.59375 0 
L 79.59375 2.59375 
C 72.703125 2.59375 71.59375 2.59375 71.59375 7.078125 
L 71.59375 60.90625 
C 71.59375 65.390625 72.703125 65.390625 79.59375 65.390625 
L 79.59375 68 
L 66.90625 68 
C 64.796875 68 64.703125 67.890625 64.09375 66.390625 
L 42.5 8.0625 
z
" id="CMR17-77"/>
      <path d="M 38.09375 23.484375 
C 38.5 23.890625 38.5 24.09375 38.5 25.09375 
C 38.5 35.171875 33.09375 44 21.703125 44 
C 11.09375 44 2.703125 33.984375 2.703125 21.78125 
C 2.703125 8.65625 12.203125 -1 22.796875 -1 
C 34 -1 38.40625 9.671875 38.40625 11.796875 
C 38.40625 12.5 37.796875 12.5 37.59375 12.5 
C 36.90625 12.5 36.796875 12.296875 36.40625 11.078125 
C 34.203125 4.21875 28.703125 0.796875 23.5 0.796875 
C 19.203125 0.796875 14.90625 3.21875 12.203125 7.65625 
C 9.09375 12.796875 9.09375 18.75 9.09375 23.484375 
z
M 9.203125 25 
C 9.90625 39.234375 17.59375 42.390625 21.59375 42.390625 
C 28.40625 42.390625 33 36.0625 33.09375 25 
z
" id="CMR17-101"/>
      <path d="M 67.59375 30.53125 
C 67.59375 35.5625 66.703125 44 54.796875 44 
C 48 44 43.296875 39.375 41.5 33.953125 
L 41.40625 33.953125 
C 40.203125 42.1875 34.296875 44 28.703125 44 
C 20.796875 44 16.703125 37.875 15.203125 33.84375 
L 15.09375 33.84375 
L 15.09375 44 
L 3.296875 42.890625 
L 3.296875 40.28125 
C 9.203125 40.28125 10.09375 39.6875 10.09375 34.859375 
L 10.09375 6.921875 
C 10.09375 3.09375 9.703125 2.59375 3.296875 2.59375 
L 3.296875 0 
C 5.703125 0.1875 10.09375 0.1875 12.703125 0.1875 
C 15.296875 0.1875 19.796875 0.1875 22.203125 0 
L 22.203125 2.59375 
C 15.796875 2.59375 15.40625 3 15.40625 6.921875 
L 15.40625 26.21875 
C 15.40625 35.453125 21 42.390625 28 42.390625 
C 35.40625 42.390625 36.203125 35.765625 36.203125 30.9375 
L 36.203125 6.921875 
C 36.203125 3.09375 35.796875 2.59375 29.40625 2.59375 
L 29.40625 0 
C 31.796875 0.1875 36.203125 0.1875 38.796875 0.1875 
C 41.40625 0.1875 45.90625 0.1875 48.296875 0 
L 48.296875 2.59375 
C 41.90625 2.59375 41.5 3 41.5 6.921875 
L 41.5 26.21875 
C 41.5 35.453125 47.09375 42.390625 54.09375 42.390625 
C 61.5 42.390625 62.296875 35.765625 62.296875 30.9375 
L 62.296875 6.921875 
C 62.296875 3.09375 61.90625 2.59375 55.5 2.59375 
L 55.5 0 
C 57.90625 0.1875 62.296875 0.1875 64.90625 0.1875 
C 67.5 0.1875 72 0.1875 74.40625 0 
L 74.40625 2.59375 
C 68 2.59375 67.59375 3 67.59375 6.921875 
z
" id="CMR17-109"/>
      <path d="M 39 34.109375 
C 41.5 40.296875 46 40.390625 47.40625 40.390625 
L 47.40625 43 
C 45.5 42.890625 43 42.796875 41.09375 42.796875 
C 39 42.796875 35.703125 42.796875 33.703125 43 
L 33.703125 40.390625 
C 37.5 40.09375 37.59375 37.25 37.59375 36.4375 
C 37.59375 35.4375 37.40625 34.921875 36.90625 33.71875 
L 26 6.390625 
L 14.09375 35.9375 
C 13.59375 37.15625 13.59375 37.859375 13.59375 37.96875 
C 13.59375 40.1875 15.90625 40.390625 18.296875 40.390625 
L 18.296875 43 
C 15.90625 42.796875 11.59375 42.796875 9.09375 42.796875 
C 6.40625 42.796875 3.203125 42.796875 1 43 
L 1 40.390625 
C 6.40625 40.390625 7 39.890625 8.296875 36.640625 
L 23.203125 -0.484375 
C 18.703125 -12.421875 16.09375 -19.40625 9.796875 -19.40625 
C 8.703125 -19.40625 6.203125 -19.109375 4.40625 -17.28125 
C 6.703125 -17.078125 7.703125 -15.65625 7.703125 -13.9375 
C 7.703125 -12.21875 6.5 -10.703125 4.5 -10.703125 
C 2.296875 -10.703125 1.203125 -12.21875 1.203125 -14.046875 
C 1.203125 -18.09375 5.296875 -21 9.796875 -21 
C 15.59375 -21 19.203125 -15.359375 21.203125 -10.296875 
z
" id="CMR17-121"/>
      <path d="M 30.59375 -24.40625 
C 30.59375 -24.3125 30.59375 -24.109375 30.296875 -23.8125 
C 25.703125 -19.109375 13.40625 -6.296875 13.40625 24.9375 
C 13.40625 56.171875 25.5 68.875 30.40625 73.890625 
C 30.40625 73.984375 30.59375 74.1875 30.59375 74.484375 
C 30.59375 74.796875 30.296875 75 29.90625 75 
C 28.796875 75 20.296875 67.578125 15.40625 56.5625 
C 10.40625 45.453125 9 34.65625 9 25.046875 
C 9 17.828125 9.703125 5.625 15.703125 -7.296875 
C 20.5 -17.703125 28.703125 -25 29.90625 -25 
C 30.40625 -25 30.59375 -24.8125 30.59375 -24.40625 
z
" id="CMR17-40"/>
      <path d="M 54 22.53125 
C 54 9.109375 45.296875 0.59375 35.796875 0.59375 
C 30.703125 0.59375 26.09375 3.296875 23.296875 7.5 
C 20.09375 12.3125 19.703125 18.515625 19.703125 22.03125 
L 19.703125 60.890625 
C 19.703125 65.390625 20.796875 65.390625 27.703125 65.390625 
L 27.703125 68 
C 24.796875 67.796875 19.5 67.796875 16.40625 67.796875 
C 13.296875 67.796875 8 67.796875 5.09375 68 
L 5.09375 65.390625 
C 12 65.390625 13.09375 65.390625 13.09375 60.890625 
L 13.09375 22.53125 
C 13.09375 8.109375 24 -2 35.59375 -2 
C 48.59375 -2 56.09375 11.3125 56.09375 21.125 
L 56.09375 59.1875 
C 56.09375 64.796875 61.203125 65.390625 64.09375 65.390625 
L 64.09375 68 
C 61.796875 67.796875 57.59375 67.796875 55.09375 67.796875 
C 52.59375 67.796875 48.296875 67.796875 46 68 
L 46 65.390625 
C 54 65.390625 54 60.6875 54 58.1875 
z
" id="CMR17-85"/>
      <path d="M 41.5 30.53125 
C 41.5 35.65625 40.5 44 28.703125 44 
C 20.796875 44 16.703125 37.875 15.203125 33.84375 
L 15.09375 33.84375 
L 15.09375 44 
L 3.296875 42.890625 
L 3.296875 40.28125 
C 9.203125 40.28125 10.09375 39.6875 10.09375 34.859375 
L 10.09375 6.921875 
C 10.09375 3.09375 9.703125 2.59375 3.296875 2.59375 
L 3.296875 0 
C 5.703125 0.1875 10.09375 0.1875 12.703125 0.1875 
C 15.296875 0.1875 19.796875 0.1875 22.203125 0 
L 22.203125 2.59375 
C 15.796875 2.59375 15.40625 3 15.40625 6.921875 
L 15.40625 26.21875 
C 15.40625 35.453125 21 42.390625 28 42.390625 
C 35.40625 42.390625 36.203125 35.765625 36.203125 30.9375 
L 36.203125 6.921875 
C 36.203125 3.09375 35.796875 2.59375 29.40625 2.59375 
L 29.40625 0 
C 31.796875 0.1875 36.203125 0.1875 38.796875 0.1875 
C 41.40625 0.1875 45.90625 0.1875 48.296875 0 
L 48.296875 2.59375 
C 41.90625 2.59375 41.5 3 41.5 6.921875 
z
" id="CMR17-110"/>
      <path d="M 30.90625 42 
C 30.90625 43.796875 30.796875 43.890625 30.203125 43.890625 
C 29.796875 43.890625 29.703125 43.796875 28.5 42.296875 
C 28.203125 41.890625 27.296875 40.890625 27 40.5 
C 23.796875 43.890625 19.296875 44 17.59375 44 
C 6.5 44 2.5 38.1875 2.5 32.390625 
C 2.5 23.390625 12.703125 21.296875 15.59375 20.6875 
C 21.90625 19.390625 24.09375 19 26.203125 17.1875 
C 27.5 16 29.703125 13.796875 29.703125 10.1875 
C 29.703125 6 27.296875 0.59375 18.09375 0.59375 
C 9.40625 0.59375 6.296875 7.1875 4.5 16 
C 4.203125 17.390625 4.203125 17.5 3.40625 17.5 
C 2.59375 17.5 2.5 17.390625 2.5 15.390625 
L 2.5 1 
C 2.5 -0.8125 2.59375 -0.90625 3.203125 -0.90625 
C 3.703125 -0.90625 3.796875 -0.8125 4.296875 0 
C 4.90625 0.890625 6.40625 3.296875 7 4.296875 
C 9 1.59375 12.5 -1 18.09375 -1 
C 28 -1 33.296875 4.390625 33.296875 12.1875 
C 33.296875 17.296875 30.59375 20 29.296875 21.1875 
C 26.296875 24.296875 22.796875 25 18.59375 25.796875 
C 13.09375 27 6.09375 28.390625 6.09375 34.5 
C 6.09375 37.09375 7.5 42.59375 17.59375 42.59375 
C 28.296875 42.59375 28.90625 32.59375 29.09375 29.390625 
C 29.203125 28.890625 29.703125 28.796875 30 28.796875 
C 30.90625 28.796875 30.90625 29.09375 30.90625 30.796875 
z
" id="CMR17-115"/>
      <path d="M 16.59375 38.890625 
C 16.59375 41.390625 14.59375 43 12.5 43 
C 10.5 43 8.40625 41.390625 8.40625 38.890625 
C 8.40625 36.390625 10.40625 34.796875 12.5 34.796875 
C 14.5 34.796875 16.59375 36.390625 16.59375 38.890625 
z
M 16.59375 4.09375 
C 16.59375 6.59375 14.59375 8.1875 12.5 8.1875 
C 10.5 8.1875 8.40625 6.59375 8.40625 4.09375 
C 8.40625 1.59375 10.40625 0 12.5 0 
C 14.5 0 16.59375 1.59375 16.59375 4.09375 
z
" id="CMR17-58"/>
      <path d="M 29.203125 67.890625 
L 29.203125 65.296875 
C 35.09375 65.296875 36 64.703125 36 60.046875 
L 36 37.046875 
C 35.59375 37.546875 31.5 44 23.40625 44 
C 13.203125 44 3.296875 34.8125 3.296875 21.5 
C 3.296875 8.265625 12.59375 -1 22.40625 -1 
C 30.90625 -1 35.296875 5.640625 35.796875 6.34375 
L 35.796875 -1 
L 47.90625 -0.203125 
L 47.90625 2.40625 
C 42 2.40625 41.09375 3.015625 41.09375 7.859375 
L 41.09375 69 
z
M 35.796875 11.90625 
C 35.796875 8.875 34 6.140625 31.703125 4.125 
C 28.296875 1.09375 24.90625 0.59375 23 0.59375 
C 20.09375 0.59375 9.703125 2.109375 9.703125 21.390625 
C 9.703125 41.1875 21.296875 42.390625 23.90625 42.390625 
C 28.5 42.390625 32.203125 39.765625 34.5 36.140625 
C 35.796875 34.015625 35.796875 33.703125 35.796875 31.890625 
z
" id="CMR17-100"/>
      <path d="M 34.90625 35 
C 33 35 30.203125 35 30.203125 31.484375 
C 30.203125 28.6875 32.5 27.890625 33.796875 27.890625 
C 34.5 27.890625 37.40625 28.1875 37.40625 31.6875 
C 37.40625 38.6875 30.59375 44 22.90625 44 
C 12.296875 44 3.296875 34.390625 3.296875 21.546875 
C 3.296875 8.140625 12.703125 -1 22.90625 -1 
C 35.296875 -1 38.40625 10.5625 38.40625 11.671875 
C 38.40625 12.078125 38.296875 12.375 37.59375 12.375 
C 36.90625 12.375 36.796875 12.28125 36.40625 10.96875 
C 33.796875 2.8125 28.09375 0.796875 23.796875 0.796875 
C 17.40625 0.796875 9.703125 6.734375 9.703125 21.640625 
C 9.703125 36.84375 17.09375 42.1875 23 42.1875 
C 26.90625 42.1875 32.703125 40.34375 34.90625 35 
z
" id="CMR17-99"/>
      <path d="M 26.296875 24.9375 
C 26.296875 32.140625 25.59375 44.359375 19.59375 57.265625 
C 14.796875 67.6875 6.59375 75 5.40625 75 
C 5.09375 75 4.703125 74.890625 4.703125 74.390625 
C 4.703125 74.1875 4.796875 74.09375 4.90625 73.890625 
C 9.703125 68.875 21.90625 56.171875 21.90625 25.046875 
C 21.90625 -6.1875 9.796875 -18.90625 4.90625 -23.90625 
C 4.796875 -24.109375 4.703125 -24.203125 4.703125 -24.40625 
C 4.703125 -24.90625 5.09375 -25 5.40625 -25 
C 6.5 -25 15 -17.609375 19.90625 -6.59375 
C 24.90625 4.515625 26.296875 15.328125 26.296875 24.9375 
z
" id="CMR17-41"/>
     </defs>
     <g transform="translate(23.58781 251.714154)rotate(-90)scale(0.18 -0.18)">
      <use transform="scale(0.996264)" xlink:href="#CMR17-77"/>
      <use transform="translate(84.686941 0)scale(0.996264)" xlink:href="#CMR17-101"/>
      <use transform="translate(125.172601 0)scale(0.996264)" xlink:href="#CMR17-109"/>
      <use transform="translate(202.092191 0)scale(0.996264)" xlink:href="#CMR17-111"/>
      <use transform="translate(247.782668 0)scale(0.996264)" xlink:href="#CMR17-114"/>
      <use transform="translate(283.063436 0)scale(0.996264)" xlink:href="#CMR17-121"/>
      <use transform="translate(361.432318 0)scale(0.996264)" xlink:href="#CMR17-40"/>
      <use transform="translate(396.713086 0)scale(0.996264)" xlink:href="#CMR17-85"/>
      <use transform="translate(465.785516 0)scale(0.996264)" xlink:href="#CMR17-110"/>
      <use transform="translate(516.680885 0)scale(0.996264)" xlink:href="#CMR17-105"/>
      <use transform="translate(541.551944 0)scale(0.996264)" xlink:href="#CMR17-116"/>
      <use transform="translate(576.832712 0)scale(0.996264)" xlink:href="#CMR17-115"/>
      <use transform="translate(612.634049 0)scale(0.996264)" xlink:href="#CMR17-58"/>
      <use transform="translate(677.990768 0)scale(0.996264)" xlink:href="#CMR17-101"/>
      <use transform="translate(718.476429 0)scale(0.996264)" xlink:href="#CMR17-100"/>
      <use transform="translate(769.371799 0)scale(0.996264)" xlink:href="#CMR17-103"/>
      <use transform="translate(815.062276 0)scale(0.996264)" xlink:href="#CMR17-101"/>
      <use transform="translate(885.623902 0)scale(0.996264)" xlink:href="#CMR17-114"/>
      <use transform="translate(920.90467 0)scale(0.996264)" xlink:href="#CMR17-101"/>
      <use transform="translate(961.390331 0)scale(0.996264)" xlink:href="#CMR17-99"/>
      <use transform="translate(1001.875991 0)scale(0.996264)" xlink:href="#CMR17-111"/>
      <use transform="translate(1047.566468 0)scale(0.996264)" xlink:href="#CMR17-114"/>
      <use transform="translate(1082.847236 0)scale(0.996264)" xlink:href="#CMR17-100"/>
      <use transform="translate(1133.742606 0)scale(0.996264)" xlink:href="#CMR17-115"/>
      <use transform="translate(1169.543943 0)scale(0.996264)" xlink:href="#CMR17-41"/>
     </g>
    </g>
   </g>
   <g id="line2d_16">
    <path clip-path="url(#p11efd16f9c)" d="M 69.218182 251.557409 
L 72.292562 250.783283 
L 75.366942 249.953222 
L 78.441322 249.104199 
L 81.515702 248.205544 
L 84.590083 247.373689 
L 87.664463 246.494214 
L 90.738843 245.571227 
L 93.813223 244.746134 
L 96.887603 243.891814 
L 99.961983 242.962846 
L 103.036364 242.159586 
L 106.110744 241.320908 
L 109.185124 240.42334 
L 112.259504 239.514315 
L 115.333884 238.704633 
L 118.408264 237.814592 
L 121.482645 237.054157 
L 124.557025 236.167911 
L 127.631405 235.298251 
L 130.705785 234.4701 
L 133.780165 233.63767 
L 136.854545 232.902629 
L 139.928926 232.10166 
L 143.003306 231.320897 
L 146.077686 230.400086 
L 149.152066 229.604878 
L 152.226446 228.70227 
L 155.300826 227.908807 
L 158.375207 227.007917 
L 161.449587 226.391934 
L 164.523967 225.512705 
L 167.598347 224.751076 
L 170.672727 223.805133 
L 173.747107 223.25712 
L 176.821488 222.261671 
L 179.895868 221.566185 
L 182.970248 220.781514 
L 186.044628 219.967733 
L 189.119008 219.127632 
L 192.193388 218.488621 
L 195.267769 217.789468 
L 198.342149 216.823236 
L 201.416529 216.203387 
L 204.490909 215.463132 
L 207.565289 214.661242 
L 210.639669 213.845693 
L 213.71405 212.940643 
L 216.78843 212.426151 
L 219.86281 212.196128 
L 222.93719 210.976602 
L 226.01157 210.328285 
L 229.08595 209.49417 
L 232.160331 208.474734 
L 235.234711 208.068318 
L 238.309091 207.190402 
L 241.383471 206.270721 
L 244.457851 205.884693 
L 247.532231 205.105289 
L 250.606612 204.157605 
L 253.680992 203.373057 
L 256.755372 203.154243 
L 259.829752 202.15903 
L 262.904132 201.386119 
L 265.978512 200.574947 
L 269.052893 199.860824 
L 272.127273 199.003382 
L 275.201653 198.982029 
L 278.276033 198.12683 
L 281.350413 197.124619 
L 284.424793 196.370784 
L 287.499174 195.438118 
L 290.573554 194.745249 
L 293.647934 194.217457 
L 296.722314 193.637967 
L 299.796694 193.178418 
L 302.871074 192.106331 
L 305.945455 190.980894 
L 309.019835 190.898721 
L 312.094215 189.948586 
L 315.168595 189.152963 
L 318.242975 188.438445 
L 321.317355 187.867374 
L 324.391736 187.36922 
L 327.466116 186.594459 
L 330.540496 185.896416 
L 333.614876 185.116558 
L 336.689256 184.812656 
L 339.763636 183.66497 
L 342.838017 182.752472 
L 345.912397 182.223163 
L 348.986777 181.521183 
L 352.061157 180.992672 
L 355.135537 180.076323 
L 358.209917 179.709142 
L 361.284298 178.744424 
L 364.358678 178.195555 
L 367.433058 176.982945 
L 370.507438 176.540478 
L 373.581818 177.208553 
" style="fill:none;stroke:#1f77b4;stroke-linecap:square;stroke-width:1.5;"/>
   </g>
   <g id="line2d_17">
    <path clip-path="url(#p11efd16f9c)" d="M 129.259711 -1 
L 130.705785 3.585324 
L 133.780165 14.10479 
L 136.854545 17.717827 
L 139.928926 25.942742 
L 143.003306 33.227659 
L 146.077686 40.574038 
L 149.152066 48.308194 
L 152.226446 54.386455 
L 155.300826 60.376934 
L 158.375207 64.326766 
L 161.449587 69.312659 
L 164.523967 74.372561 
L 167.598347 79.498829 
L 170.672727 83.824485 
L 173.747107 87.142992 
L 176.821488 90.249453 
L 179.895868 92.44856 
L 182.970248 96.512115 
L 186.044628 99.312246 
L 189.119008 102.900802 
L 192.193388 105.487515 
L 195.267769 107.605948 
L 198.342149 110.955722 
L 201.416529 113.607014 
L 204.490909 116.060453 
L 207.565289 117.568046 
L 210.639669 119.904362 
L 213.71405 122.979442 
L 216.78843 125.132932 
L 219.86281 120.670796 
L 222.93719 123.172694 
L 226.01157 125.127406 
L 229.08595 126.940561 
L 232.160331 129.475032 
L 235.234711 130.413465 
L 238.309091 132.087715 
L 241.383471 134.408388 
L 244.457851 135.176416 
L 247.532231 136.890812 
L 250.606612 138.483826 
L 253.680992 140.143928 
L 256.755372 139.520851 
L 259.829752 141.072589 
L 262.904132 142.638412 
L 265.978512 143.62504 
L 269.052893 145.116909 
L 272.127273 146.668298 
L 275.201653 147.25441 
L 278.276033 148.706302 
L 281.350413 150.078404 
L 284.424793 150.556031 
L 287.499174 151.947215 
L 290.573554 151.953848 
L 293.647934 152.534918 
L 296.722314 153.82832 
L 299.796694 154.536877 
L 302.871074 155.664078 
L 305.945455 156.756489 
L 309.019835 157.476699 
L 312.094215 158.642421 
L 315.168595 159.785512 
L 318.242975 160.301547 
L 321.317355 160.141175 
L 324.391736 160.727808 
L 327.466116 161.797251 
L 330.540496 162.240709 
L 333.614876 163.361764 
L 336.689256 164.016479 
L 339.763636 164.935572 
L 342.838017 165.887837 
L 345.912397 166.360998 
L 348.986777 166.079011 
L 352.061157 166.654143 
L 355.135537 167.586359 
L 358.209917 168.153407 
L 361.284298 169.022857 
L 364.358678 169.47787 
L 367.433058 170.249014 
L 370.507438 170.81047 
L 373.581818 168.773523 
" style="fill:none;stroke:#ff7f0e;stroke-linecap:square;stroke-width:1.5;"/>
   </g>
   <g id="line2d_18">
    <path clip-path="url(#p11efd16f9c)" d="M 69.218182 158.436445 
L 72.292562 158.436445 
L 75.366942 158.436445 
L 78.441322 158.436445 
L 81.515702 158.436445 
L 84.590083 158.436445 
L 87.664463 158.436445 
L 90.738843 158.436445 
L 93.813223 158.436445 
L 96.887603 158.436445 
L 99.961983 158.436445 
L 103.036364 158.436445 
L 106.110744 158.436445 
L 109.185124 158.436445 
L 112.259504 158.436445 
L 115.333884 158.436445 
L 118.408264 158.436445 
L 121.482645 158.436445 
L 124.557025 158.436445 
L 127.631405 158.436445 
L 130.705785 158.436445 
L 133.780165 158.436445 
L 136.854545 158.436445 
L 139.928926 158.436445 
L 143.003306 158.436445 
L 146.077686 158.436445 
L 149.152066 158.436445 
L 152.226446 158.436445 
L 155.300826 158.436445 
L 158.375207 158.436445 
L 161.449587 158.436445 
L 164.523967 158.436445 
L 167.598347 158.436445 
L 170.672727 158.436445 
L 173.747107 158.436445 
L 176.821488 158.436445 
L 179.895868 158.436445 
L 182.970248 158.436445 
L 186.044628 158.436445 
L 189.119008 158.436445 
L 192.193388 158.436445 
L 195.267769 158.436445 
L 198.342149 158.436445 
L 201.416529 158.436445 
L 204.490909 158.436445 
L 207.565289 158.436445 
L 210.639669 158.436445 
L 213.71405 158.436445 
L 216.78843 158.436445 
L 219.86281 158.436445 
L 222.93719 158.436445 
L 226.01157 158.436445 
L 229.08595 158.436445 
L 232.160331 158.436445 
L 235.234711 158.436445 
L 238.309091 158.436445 
L 241.383471 158.436445 
L 244.457851 158.436445 
L 247.532231 158.436445 
L 250.606612 158.436445 
L 253.680992 158.436445 
L 256.755372 158.436445 
L 259.829752 158.436445 
L 262.904132 158.436445 
L 265.978512 158.436445 
L 269.052893 158.436445 
L 272.127273 158.436445 
L 275.201653 158.436445 
L 278.276033 158.436445 
L 281.350413 158.436445 
L 284.424793 158.436445 
L 287.499174 158.436445 
L 290.573554 158.436445 
L 293.647934 158.436445 
L 296.722314 158.436445 
L 299.796694 158.436445 
L 302.871074 158.436445 
L 305.945455 158.436445 
L 309.019835 158.436445 
L 312.094215 158.436445 
L 315.168595 158.436445 
L 318.242975 158.436445 
L 321.317355 158.436445 
L 324.391736 158.436445 
L 327.466116 158.436445 
L 330.540496 158.436445 
L 333.614876 158.436445 
L 336.689256 158.436445 
L 339.763636 158.436445 
L 342.838017 158.436445 
L 345.912397 158.436445 
L 348.986777 158.436445 
L 352.061157 158.436445 
L 355.135537 158.436445 
L 358.209917 158.436445 
L 361.284298 158.436445 
L 364.358678 158.436445 
L 367.433058 158.436445 
L 370.507438 158.436445 
L 373.581818 158.436445 
" style="fill:none;stroke:#2ca02c;stroke-linecap:square;stroke-width:1.5;"/>
   </g>
   <g id="line2d_19">
    <path clip-path="url(#p11efd16f9c)" d="M 69.218182 158.436444 
L 72.292562 158.436444 
L 75.366942 158.436444 
L 78.441322 158.436444 
L 81.515702 158.436444 
L 84.590083 158.436444 
L 87.664463 158.436444 
L 90.738843 158.436444 
L 93.813223 158.436444 
L 96.887603 158.436444 
L 99.961983 158.436444 
L 103.036364 158.436444 
L 106.110744 158.436444 
L 109.185124 158.436444 
L 112.259504 158.436444 
L 115.333884 158.436444 
L 118.408264 158.436444 
L 121.482645 158.436444 
L 124.557025 158.436444 
L 127.631405 158.436444 
L 130.705785 158.436444 
L 133.780165 158.436444 
L 136.854545 158.436444 
L 139.928926 158.436444 
L 143.003306 158.436444 
L 146.077686 158.436444 
L 149.152066 158.436444 
L 152.226446 158.436444 
L 155.300826 158.436444 
L 158.375207 158.436444 
L 161.449587 158.436444 
L 164.523967 158.436444 
L 167.598347 158.436444 
L 170.672727 158.436444 
L 173.747107 158.436444 
L 176.821488 158.436444 
L 179.895868 158.436444 
L 182.970248 158.436444 
L 186.044628 158.436444 
L 189.119008 158.436444 
L 192.193388 158.436444 
L 195.267769 158.436444 
L 198.342149 158.436444 
L 201.416529 158.436444 
L 204.490909 158.436444 
L 207.565289 158.436444 
L 210.639669 158.436444 
L 213.71405 158.436444 
L 216.78843 158.436444 
L 219.86281 158.436444 
L 222.93719 158.436444 
L 226.01157 158.436444 
L 229.08595 158.436444 
L 232.160331 158.436444 
L 235.234711 158.436444 
L 238.309091 158.436444 
L 241.383471 158.436444 
L 244.457851 158.436444 
L 247.532231 158.436444 
L 250.606612 158.436444 
L 253.680992 158.436444 
L 256.755372 158.436444 
L 259.829752 158.436444 
L 262.904132 158.436444 
L 265.978512 158.436444 
L 269.052893 158.436444 
L 272.127273 158.436444 
L 275.201653 158.436444 
L 278.276033 158.436444 
L 281.350413 158.436444 
L 284.424793 158.436444 
L 287.499174 158.436444 
L 290.573554 158.436444 
L 293.647934 158.436444 
L 296.722314 158.436444 
L 299.796694 158.436444 
L 302.871074 158.436444 
L 305.945455 158.436444 
L 309.019835 158.436444 
L 312.094215 158.436444 
L 315.168595 158.436444 
L 318.242975 158.436444 
L 321.317355 158.436444 
L 324.391736 158.436444 
L 327.466116 158.436444 
L 330.540496 158.436444 
L 333.614876 158.436444 
L 336.689256 158.436444 
L 339.763636 158.436444 
L 342.838017 158.436444 
L 345.912397 158.436444 
L 348.986777 158.436444 
L 352.061157 158.436444 
L 355.135537 158.436444 
L 358.209917 158.436444 
L 361.284298 158.436444 
L 364.358678 158.436444 
L 367.433058 158.436444 
L 370.507438 158.436444 
L 373.581818 158.436444 
" style="fill:none;stroke:#d62728;stroke-dasharray:1.5,2.475;stroke-dashoffset:0;stroke-width:1.5;"/>
    <defs>
     <path d="M -3 3 
L 3 3 
L 3 -3 
L -3 -3 
z
" id="m02b0eabef3" style="stroke:#d62728;stroke-linejoin:miter;"/>
    </defs>
    <g clip-path="url(#p11efd16f9c)">
     <use style="fill:#d62728;stroke:#d62728;stroke-linejoin:miter;" x="69.218182" xlink:href="#m02b0eabef3" y="158.436444"/>
     <use style="fill:#d62728;stroke:#d62728;stroke-linejoin:miter;" x="99.961983" xlink:href="#m02b0eabef3" y="158.436444"/>
     <use style="fill:#d62728;stroke:#d62728;stroke-linejoin:miter;" x="130.705785" xlink:href="#m02b0eabef3" y="158.436444"/>
     <use style="fill:#d62728;stroke:#d62728;stroke-linejoin:miter;" x="161.449587" xlink:href="#m02b0eabef3" y="158.436444"/>
     <use style="fill:#d62728;stroke:#d62728;stroke-linejoin:miter;" x="192.193388" xlink:href="#m02b0eabef3" y="158.436444"/>
     <use style="fill:#d62728;stroke:#d62728;stroke-linejoin:miter;" x="222.93719" xlink:href="#m02b0eabef3" y="158.436444"/>
     <use style="fill:#d62728;stroke:#d62728;stroke-linejoin:miter;" x="253.680992" xlink:href="#m02b0eabef3" y="158.436444"/>
     <use style="fill:#d62728;stroke:#d62728;stroke-linejoin:miter;" x="284.424793" xlink:href="#m02b0eabef3" y="158.436444"/>
     <use style="fill:#d62728;stroke:#d62728;stroke-linejoin:miter;" x="315.168595" xlink:href="#m02b0eabef3" y="158.436444"/>
     <use style="fill:#d62728;stroke:#d62728;stroke-linejoin:miter;" x="345.912397" xlink:href="#m02b0eabef3" y="158.436444"/>
    </g>
   </g>
   <g id="line2d_20">
    <path clip-path="url(#p11efd16f9c)" d="M 69.218182 251.067379 
L 72.292562 250.14067 
L 75.366942 249.219702 
L 78.441322 248.304316 
L 81.515702 247.394356 
L 84.590083 246.489676 
L 87.664463 245.590135 
L 90.738843 244.6956 
L 93.813223 243.805941 
L 96.887603 242.921037 
L 99.961983 242.040769 
L 103.036364 241.165025 
L 106.110744 240.293696 
L 109.185124 239.426678 
L 112.259504 238.563872 
L 115.333884 237.705181 
L 118.408264 236.850514 
L 121.482645 235.99978 
L 124.557025 235.152895 
L 127.631405 234.309777 
L 130.705785 233.470345 
L 133.780165 232.634522 
L 136.854545 231.802236 
L 139.928926 230.973413 
L 143.003306 230.147986 
L 146.077686 229.325887 
L 149.152066 228.507052 
L 152.226446 227.691418 
L 155.300826 226.878924 
L 158.375207 226.069513 
L 161.449587 225.263128 
L 164.523967 224.459713 
L 167.598347 223.659215 
L 170.672727 222.861582 
L 173.747107 222.066765 
L 176.821488 221.274714 
L 179.895868 220.485383 
L 182.970248 219.698725 
L 186.044628 218.914696 
L 189.119008 218.133252 
L 192.193388 217.354352 
L 195.267769 216.577954 
L 198.342149 215.804019 
L 201.416529 215.032507 
L 204.490909 214.263381 
L 207.565289 213.496605 
L 210.639669 212.732141 
L 213.71405 211.969956 
L 216.78843 211.210015 
L 219.86281 210.452285 
L 222.93719 209.696735 
L 226.01157 208.943331 
L 229.08595 208.192044 
L 232.160331 207.442843 
L 235.234711 206.6957 
L 238.309091 205.950585 
L 241.383471 205.207471 
L 244.457851 204.46633 
L 247.532231 203.727136 
L 250.606612 202.989862 
L 253.680992 202.254484 
L 256.755372 201.520976 
L 259.829752 200.789314 
L 262.904132 200.059474 
L 265.978512 199.331433 
L 269.052893 198.605168 
L 272.127273 197.880657 
L 275.201653 197.157879 
L 278.276033 196.43681 
L 281.350413 195.717432 
L 284.424793 194.999722 
L 287.499174 194.283662 
L 290.573554 193.569232 
L 293.647934 192.856412 
L 296.722314 192.145183 
L 299.796694 191.435527 
L 302.871074 190.727427 
L 305.945455 190.020863 
L 309.019835 189.315819 
L 312.094215 188.612277 
L 315.168595 187.910222 
L 318.242975 187.209635 
L 321.317355 186.510502 
L 324.391736 185.812807 
L 327.466116 185.116533 
L 330.540496 184.421666 
L 333.614876 183.72819 
L 336.689256 183.036091 
L 339.763636 182.345355 
L 342.838017 181.655967 
L 345.912397 180.967913 
L 348.986777 180.28118 
L 352.061157 179.595755 
L 355.135537 178.911623 
L 358.209917 178.228772 
L 361.284298 177.54719 
L 364.358678 176.866863 
L 367.433058 176.187779 
L 370.507438 175.509927 
L 373.581818 174.833294 
" style="fill:none;stroke:#9467bd;stroke-dasharray:1.5,2.475;stroke-dashoffset:0;stroke-width:1.5;"/>
    <defs>
     <path d="M 0 4.242641 
L 2.545584 0 
L 0 -4.242641 
L -2.545584 0 
z
" id="ma8773d0a17" style="stroke:#9467bd;stroke-linejoin:miter;"/>
    </defs>
    <g clip-path="url(#p11efd16f9c)">
     <use style="fill:#9467bd;stroke:#9467bd;stroke-linejoin:miter;" x="69.218182" xlink:href="#ma8773d0a17" y="251.067379"/>
     <use style="fill:#9467bd;stroke:#9467bd;stroke-linejoin:miter;" x="99.961983" xlink:href="#ma8773d0a17" y="242.040769"/>
     <use style="fill:#9467bd;stroke:#9467bd;stroke-linejoin:miter;" x="130.705785" xlink:href="#ma8773d0a17" y="233.470345"/>
     <use style="fill:#9467bd;stroke:#9467bd;stroke-linejoin:miter;" x="161.449587" xlink:href="#ma8773d0a17" y="225.263128"/>
     <use style="fill:#9467bd;stroke:#9467bd;stroke-linejoin:miter;" x="192.193388" xlink:href="#ma8773d0a17" y="217.354352"/>
     <use style="fill:#9467bd;stroke:#9467bd;stroke-linejoin:miter;" x="222.93719" xlink:href="#ma8773d0a17" y="209.696735"/>
     <use style="fill:#9467bd;stroke:#9467bd;stroke-linejoin:miter;" x="253.680992" xlink:href="#ma8773d0a17" y="202.254484"/>
     <use style="fill:#9467bd;stroke:#9467bd;stroke-linejoin:miter;" x="284.424793" xlink:href="#ma8773d0a17" y="194.999722"/>
     <use style="fill:#9467bd;stroke:#9467bd;stroke-linejoin:miter;" x="315.168595" xlink:href="#ma8773d0a17" y="187.910222"/>
     <use style="fill:#9467bd;stroke:#9467bd;stroke-linejoin:miter;" x="345.912397" xlink:href="#ma8773d0a17" y="180.967913"/>
    </g>
   </g>
   <g id="line2d_21">
    <path clip-path="url(#p11efd16f9c)" d="M 133.384988 -1 
L 133.780165 0.284923 
L 136.854545 9.419738 
L 139.928926 17.800535 
L 143.003306 25.517659 
L 146.077686 32.647559 
L 149.152066 39.255362 
L 152.226446 45.396895 
L 155.300826 51.12029 
L 158.375207 56.467262 
L 161.449587 61.474147 
L 164.523967 66.172744 
L 167.598347 70.590997 
L 170.672727 74.753567 
L 173.747107 78.682298 
L 176.821488 82.396608 
L 179.895868 85.91382 
L 182.970248 89.249432 
L 186.044628 92.417359 
L 189.119008 95.43012 
L 192.193388 98.29902 
L 195.267769 101.034284 
L 198.342149 103.645189 
L 201.416529 106.140172 
L 204.490909 108.526917 
L 207.565289 110.812444 
L 210.639669 113.003175 
L 213.71405 115.105 
L 216.78843 117.123325 
L 219.86281 119.063129 
L 222.93719 120.928998 
L 226.01157 122.725168 
L 229.08595 124.455554 
L 232.160331 126.123784 
L 235.234711 127.733221 
L 238.309091 129.28699 
L 241.383471 130.787995 
L 244.457851 132.238943 
L 247.532231 133.642356 
L 250.606612 135.000588 
L 253.680992 136.315842 
L 256.755372 137.590177 
L 259.829752 138.825522 
L 262.904132 140.023686 
L 265.978512 141.186367 
L 269.052893 142.315161 
L 272.127273 143.411568 
L 275.201653 144.477002 
L 278.276033 145.512793 
L 281.350413 146.520197 
L 284.424793 147.500399 
L 287.499174 148.454518 
L 290.573554 149.383613 
L 293.647934 150.288686 
L 296.722314 151.170685 
L 299.796694 152.030507 
L 302.871074 152.869007 
L 305.945455 153.686991 
L 309.019835 154.48523 
L 312.094215 155.264451 
L 315.168595 156.025349 
L 318.242975 156.768585 
L 321.317355 157.494787 
L 324.391736 158.204554 
L 327.466116 158.898457 
L 330.540496 159.57704 
L 333.614876 160.240824 
L 336.689256 160.890304 
L 339.763636 161.525954 
L 342.838017 162.148228 
L 345.912397 162.757559 
L 348.986777 163.354361 
L 352.061157 163.939031 
L 355.135537 164.51195 
L 358.209917 165.073482 
L 361.284298 165.623976 
L 364.358678 166.163766 
L 367.433058 166.693175 
L 370.507438 167.21251 
L 373.581818 167.722069 
" style="fill:none;stroke:#8c564b;stroke-dasharray:1.5,2.475;stroke-dashoffset:0;stroke-width:1.5;"/>
    <defs>
     <path d="M 0 3 
C 0.795609 3 1.55874 2.683901 2.12132 2.12132 
C 2.683901 1.55874 3 0.795609 3 0 
C 3 -0.795609 2.683901 -1.55874 2.12132 -2.12132 
C 1.55874 -2.683901 0.795609 -3 0 -3 
C -0.795609 -3 -1.55874 -2.683901 -2.12132 -2.12132 
C -2.683901 -1.55874 -3 -0.795609 -3 0 
C -3 0.795609 -2.683901 1.55874 -2.12132 2.12132 
C -1.55874 2.683901 -0.795609 3 0 3 
z
" id="ma64d3482b9" style="stroke:#8c564b;"/>
    </defs>
    <g clip-path="url(#p11efd16f9c)">
     <use style="fill:#8c564b;stroke:#8c564b;" x="134.468109" xlink:href="#ma64d3482b9" y="-1"/>
     <use style="fill:#8c564b;stroke:#8c564b;" x="161.449587" xlink:href="#ma64d3482b9" y="61.474147"/>
     <use style="fill:#8c564b;stroke:#8c564b;" x="192.193388" xlink:href="#ma64d3482b9" y="98.29902"/>
     <use style="fill:#8c564b;stroke:#8c564b;" x="222.93719" xlink:href="#ma64d3482b9" y="120.928998"/>
     <use style="fill:#8c564b;stroke:#8c564b;" x="253.680992" xlink:href="#ma64d3482b9" y="136.315842"/>
     <use style="fill:#8c564b;stroke:#8c564b;" x="284.424793" xlink:href="#ma64d3482b9" y="147.500399"/>
     <use style="fill:#8c564b;stroke:#8c564b;" x="315.168595" xlink:href="#ma64d3482b9" y="156.025349"/>
     <use style="fill:#8c564b;stroke:#8c564b;" x="345.912397" xlink:href="#ma64d3482b9" y="162.757559"/>
    </g>
   </g>
   <g id="patch_3">
    <path d="M 54 252 
L 54 34.56 
" style="fill:none;stroke:#000000;stroke-linecap:square;stroke-linejoin:miter;stroke-width:0.8;"/>
   </g>
   <g id="patch_4">
    <path d="M 388.8 252 
L 388.8 34.56 
" style="fill:none;stroke:#000000;stroke-linecap:square;stroke-linejoin:miter;stroke-width:0.8;"/>
   </g>
   <g id="patch_5">
    <path d="M 54 252 
L 388.8 252 
" style="fill:none;stroke:#000000;stroke-linecap:square;stroke-linejoin:miter;stroke-width:0.8;"/>
   </g>
   <g id="patch_6">
    <path d="M 54 34.56 
L 388.8 34.56 
" style="fill:none;stroke:#000000;stroke-linecap:square;stroke-linejoin:miter;stroke-width:0.8;"/>
   </g>
   <g id="legend_1">
    <g id="patch_7">
     <path d="M 270.968121 144.507575 
L 380.4 144.507575 
Q 382.8 144.507575 382.8 142.107575 
L 382.8 42.96 
Q 382.8 40.56 380.4 40.56 
L 270.968121 40.56 
Q 268.568121 40.56 268.568121 42.96 
L 268.568121 142.107575 
Q 268.568121 144.507575 270.968121 144.507575 
z
" style="fill:#ffffff;opacity:0.8;stroke:#cccccc;stroke-linejoin:miter;"/>
    </g>
    <g id="line2d_22">
     <path d="M 273.368121 49.56 
L 297.368121 49.56 
" style="fill:none;stroke:#1f77b4;stroke-linecap:square;stroke-width:1.5;"/>
    </g>
    <g id="line2d_23"/>
    <g id="text_18">
     <!-- Observed \textit{UN} -->
     <defs>
      <path d="M 67.296875 33.84375 
C 67.296875 54.5 52.59375 70 36 70 
C 19 70 4.59375 54.296875 4.59375 33.84375 
C 4.59375 13.390625 19.203125 -2 35.90625 -2 
C 53 -2 67.296875 13.6875 67.296875 33.84375 
z
M 36 -0.203125 
C 24.59375 -0.203125 12.203125 11.28125 12.203125 35.15625 
C 12.203125 58.921875 25.796875 68.1875 35.90625 68.1875 
C 46.5 68.1875 59.703125 58.625 59.703125 35.15625 
C 59.703125 10.875 47 -0.203125 36 -0.203125 
z
" id="CMR17-79"/>
      <path d="M 15 69 
L 3.09375 67.890625 
L 3.09375 65.296875 
C 9 65.296875 9.90625 64.703125 9.90625 60.046875 
L 9.90625 -0.203125 
L 11.703125 -0.203125 
L 14.59375 6.953125 
C 17.5 2.203125 21.796875 -1 27.59375 -1 
C 37.59375 -1 47.703125 7.859375 47.703125 21.59375 
C 47.703125 34.515625 38.703125 44 28.59375 44 
C 22.40625 44 18 40.671875 15 36.734375 
z
M 15.203125 31.59375 
C 15.203125 33.40625 15.203125 33.703125 16.59375 35.828125 
C 20.5 41.890625 26.09375 42.390625 28 42.390625 
C 31 42.390625 41.296875 40.78125 41.296875 21.6875 
C 41.296875 1.703125 29.5 0.59375 27.09375 0.59375 
C 24 0.59375 19.5 1.796875 16.296875 7.65625 
C 15.203125 9.578125 15.203125 9.78125 15.203125 11.59375 
z
" id="CMR17-98"/>
      <path d="M 39.09375 33.953125 
C 40 36.171875 41.59375 40.1875 47.40625 40.390625 
L 47.40625 43 
C 45.5 42.890625 43 42.796875 41.09375 42.796875 
C 39 42.796875 35.703125 42.796875 33.703125 43 
L 33.703125 40.390625 
C 36.203125 40.1875 37.59375 38.984375 37.59375 36.375 
C 37.59375 35.46875 37.59375 35.265625 37 33.859375 
L 26 5.921875 
L 14.09375 36.0625 
C 13.5 37.375 13.5 37.578125 13.5 37.984375 
C 13.5 40.390625 16.796875 40.390625 18.296875 40.390625 
L 18.296875 43 
C 15.90625 42.796875 11.5 42.796875 9 42.796875 
C 6.296875 42.796875 3.203125 42.796875 1 43 
L 1 40.390625 
C 4.796875 40.390625 6.90625 40.390625 8.09375 37.28125 
L 22.59375 0.6875 
C 23.203125 -0.8125 23.296875 -1 24.203125 -1 
C 25.09375 -1 25.203125 -0.8125 25.796875 0.6875 
z
" id="CMR17-118"/>
      <path d="M 72.09375 58.03125 
C 73.703125 64.296875 77.90625 64.890625 81.59375 65.09375 
C 82 65.09375 83.09375 65.1875 83.09375 66.890625 
C 83.09375 68 82.203125 68 81.796875 68 
C 79.09375 68 76 67.796875 73.203125 67.796875 
C 67.296875 67.796875 64.5 68 64.40625 68 
C 63.703125 68 62.59375 68 62.59375 66.09375 
C 62.59375 65.1875 63.40625 65.09375 64.09375 65.09375 
C 67.796875 65 69.796875 63.90625 69.796875 60.921875 
C 69.796875 60.03125 69.59375 58.828125 69.40625 58.234375 
L 60.5 22.65625 
C 57.59375 11.234375 47.59375 0.890625 37.5 0.890625 
C 31.796875 0.890625 26.796875 4.875 26.796875 13.421875 
C 26.796875 15.703125 27.203125 18.875 27.796875 21.0625 
L 37.796875 60.921875 
C 38.703125 64.296875 39.296875 65.09375 45.5 65.09375 
C 47.203125 65.09375 48.09375 65.09375 48.09375 66.890625 
C 48.09375 68 47.203125 68 46.703125 68 
C 43.203125 68 39.5 67.796875 35.90625 67.796875 
C 32.203125 67.796875 28.40625 68 24.796875 68 
C 24 68 22.90625 68 22.90625 66.09375 
C 22.90625 65.09375 23.59375 65.09375 25.5 65.09375 
C 28 65.09375 30.796875 65.09375 30.796875 63.5 
C 30.796875 62.90625 30.796875 62.609375 30.59375 62.015625 
L 20.796875 22.859375 
C 20 19.671875 20 17.78125 20 16.296875 
C 20 4.5625 28.09375 -2 37.09375 -2 
C 49.203125 -2 60.203125 10.4375 63.09375 22.0625 
z
" id="CMTI12-85"/>
      <path d="M 72.09375 58.03125 
C 73.703125 64.203125 77.90625 64.890625 81.59375 65.09375 
C 82 65.09375 83.09375 65.1875 83.09375 66.890625 
C 83.09375 68 82.203125 68 81.796875 68 
C 79 68 76 67.796875 73.09375 67.796875 
C 70.09375 67.796875 67 68 64.09375 68 
C 63.40625 68 62.296875 68 62.296875 66.09375 
C 62.296875 65.1875 63.09375 65.09375 63.796875 65.09375 
C 67.5 64.984375 69.5 63.890625 69.5 60.90625 
C 69.5 60.015625 69.203125 58.828125 69.09375 58.21875 
L 57.90625 13.640625 
L 39.703125 66.390625 
C 39.203125 67.890625 39.09375 68 37 68 
L 25.59375 68 
C 23.796875 68 22.90625 68 22.90625 66.09375 
C 22.90625 65.09375 23.59375 65.09375 25.5 65.09375 
C 26.40625 65.09375 29.09375 65.09375 31.296875 64.5 
L 17.59375 9.953125 
C 15.90625 3.296875 11.09375 3.09375 8.09375 2.890625 
C 7.59375 2.890625 6.59375 2.796875 6.59375 1 
C 6.59375 0.09375 7.40625 0 7.796875 0 
C 10.59375 0 13.703125 0.1875 16.59375 0.1875 
C 19.59375 0.1875 22.703125 0 25.59375 0 
C 26.203125 0 27.296875 0 27.296875 1.890625 
C 27.296875 2.796875 26.5 2.890625 25.90625 2.890625 
C 22.90625 2.984375 20.09375 3.6875 20.09375 7.078125 
C 20.09375 7.96875 20.5 9.359375 20.5 9.453125 
L 33.703125 61.90625 
L 54.5 1.5 
C 54.90625 0.296875 55 0 56.203125 0 
C 57.296875 0 57.59375 0.09375 58 1.796875 
z
" id="CMTI12-78"/>
     </defs>
     <g transform="translate(306.968121 53.76)scale(0.12 -0.12)">
      <use transform="scale(0.996264)" xlink:href="#CMR17-79"/>
      <use transform="translate(71.714788 0)scale(0.996264)" xlink:href="#CMR17-98"/>
      <use transform="translate(122.610158 0)scale(0.996264)" xlink:href="#CMR17-115"/>
      <use transform="translate(158.411496 0)scale(0.996264)" xlink:href="#CMR17-101"/>
      <use transform="translate(198.897156 0)scale(0.996264)" xlink:href="#CMR17-114"/>
      <use transform="translate(234.177924 0)scale(0.996264)" xlink:href="#CMR17-118"/>
      <use transform="translate(279.868386 0)scale(0.996264)" xlink:href="#CMR17-101"/>
      <use transform="translate(320.354046 0)scale(0.996264)" xlink:href="#CMR17-100"/>
      <use transform="translate(401.325383 0)scale(0.996264)" xlink:href="#CMTI12-85"/>
      <use transform="translate(473.739833 0)scale(0.996264)" xlink:href="#CMTI12-78"/>
     </g>
    </g>
    <g id="line2d_24">
     <path d="M 273.368121 66.284596 
L 297.368121 66.284596 
" style="fill:none;stroke:#ff7f0e;stroke-linecap:square;stroke-width:1.5;"/>
    </g>
    <g id="line2d_25"/>
    <g id="text_19">
     <!-- Observed \textit{RC} -->
     <defs>
      <path d="M 49.59375 33.796875 
C 62 36.6875 70.40625 44.953125 70.40625 53.328125 
C 70.40625 61.3125 63 68 50.796875 68 
L 25.703125 68 
C 23.90625 68 23 68 23 66.09375 
C 23 65.09375 23.703125 65.09375 25.59375 65.09375 
C 28.09375 65.09375 30.90625 65.09375 30.90625 63.5 
C 30.90625 62.90625 30.90625 62.59375 30.703125 62 
L 17 7.234375 
C 16.09375 3.765625 15.5 2.96875 9.40625 2.96875 
C 7.59375 2.96875 6.703125 2.96875 6.703125 1.078125 
C 6.703125 0.09375 7.703125 0.09375 8.09375 0.09375 
C 11.5 0.09375 15.296875 0.296875 18.796875 0.296875 
C 22.40625 0.296875 26.203125 0.09375 29.703125 0.09375 
C 30.5 0.09375 31.59375 0.09375 31.59375 1.96875 
C 31.59375 2.96875 30.796875 2.96875 29.296875 2.96875 
C 23.703125 2.96875 23.703125 3.765625 23.703125 4.65625 
L 23.90625 6.140625 
L 30.703125 33 
L 41.5 33 
C 49.40625 33 51.09375 27.734375 51.09375 24.078125 
C 51.09375 22.484375 50.296875 19.125 49.59375 16.640625 
C 48.90625 13.859375 48 10.203125 48 8.21875 
C 48 0.484375 54.296875 -2 59.703125 -2 
C 67.703125 -2 70.703125 8.3125 70.703125 9.203125 
C 70.703125 10.203125 69.703125 10.203125 69.296875 10.203125 
C 68.203125 10.203125 68.09375 10 67.703125 8.609375 
C 66.09375 3.46875 63.296875 0 60 0 
C 56.796875 0 56.59375 2.859375 56.59375 5.640625 
C 56.59375 8.609375 57.296875 13.859375 57.703125 16.9375 
C 57.703125 17.140625 58.203125 20.796875 58.203125 22.1875 
C 58.203125 28.53125 54.09375 32 49.59375 33.796875 
z
M 41.40625 35 
L 31.203125 35 
L 37.796875 61.3125 
C 38.59375 64.5 39.296875 64.796875 40.203125 64.890625 
C 40.90625 65.09375 43.90625 65.09375 45.796875 65.09375 
C 52 65.09375 62.203125 65.09375 62.203125 55.53125 
C 62.203125 53.734375 61.703125 35 41.40625 35 
z
" id="CMTI12-82"/>
      <path d="M 79.5 67.796875 
C 79.59375 68.09375 79.703125 68.890625 79.703125 69.09375 
C 79.703125 70 79 70 78.796875 70 
C 78.59375 70 78.203125 70 77.5 69.09375 
L 71 61.140625 
C 67.796875 66.984375 62.703125 70 56.203125 70 
C 36 70 14.796875 47.734375 14.796875 24.21875 
C 14.796875 7.34375 25.796875 -2 38.5 -2 
C 49.40625 -2 57.296875 5.75 58.09375 6.453125 
C 66.796875 14.984375 68.40625 23.71875 68.40625 23.921875 
C 68.40625 24.8125 67.59375 24.8125 67 24.8125 
C 66.203125 24.8125 65.796875 24.703125 65.5 23.8125 
C 61 8.640625 49.296875 0.890625 40 0.890625 
C 30.90625 0.890625 22.703125 7.25 22.703125 20.734375 
C 22.703125 23.515625 23.796875 40.484375 33.5 53.78125 
C 38.59375 60.640625 47.703125 67.09375 56.90625 67.09375 
C 69.796875 67.09375 71 53.296875 71 48.921875 
C 71 47.4375 70.796875 45.15625 70.5 43.671875 
L 70.5 42.765625 
C 70.5 41.875 71.296875 41.875 71.796875 41.875 
C 72.796875 41.875 73 41.984375 73.40625 43.5625 
z
" id="CMTI12-67"/>
     </defs>
     <g transform="translate(306.968121 70.484596)scale(0.12 -0.12)">
      <use transform="scale(0.996264)" xlink:href="#CMR17-79"/>
      <use transform="translate(71.714788 0)scale(0.996264)" xlink:href="#CMR17-98"/>
      <use transform="translate(122.610158 0)scale(0.996264)" xlink:href="#CMR17-115"/>
      <use transform="translate(158.411496 0)scale(0.996264)" xlink:href="#CMR17-101"/>
      <use transform="translate(198.897156 0)scale(0.996264)" xlink:href="#CMR17-114"/>
      <use transform="translate(234.177924 0)scale(0.996264)" xlink:href="#CMR17-118"/>
      <use transform="translate(279.868386 0)scale(0.996264)" xlink:href="#CMR17-101"/>
      <use transform="translate(320.354046 0)scale(0.996264)" xlink:href="#CMR17-100"/>
      <use transform="translate(401.325383 0)scale(0.996264)" xlink:href="#CMTI12-82"/>
      <use transform="translate(469.911447 0)scale(0.996264)" xlink:href="#CMTI12-67"/>
     </g>
    </g>
    <g id="line2d_26">
     <path d="M 273.368121 83.009192 
L 297.368121 83.009192 
" style="fill:none;stroke:#2ca02c;stroke-linecap:square;stroke-width:1.5;"/>
    </g>
    <g id="line2d_27"/>
    <g id="text_20">
     <!-- Observed \textit{OC} -->
     <defs>
      <path d="M 77.296875 44.359375 
C 77.296875 58.75 68.796875 70 55 70 
C 34.90625 70 14.59375 46.34375 14.59375 23.421875 
C 14.59375 9.125 23.203125 -2 37 -2 
C 56.796875 -2 77.296875 21.03125 77.296875 44.359375 
z
M 37.5 0.296875 
C 28.59375 0.296875 22.796875 8.4375 22.796875 20.546875 
C 22.796875 26.59375 25.09375 42.875 33.203125 54.28125 
C 39.90625 63.625 48 67.796875 54.40625 67.796875 
C 62.703125 67.796875 69.5 61.234375 69.5 48.234375 
C 69.5 28.875 55.59375 0.296875 37.5 0.296875 
z
" id="CMTI12-79"/>
     </defs>
     <g transform="translate(306.968121 87.209192)scale(0.12 -0.12)">
      <use transform="scale(0.996264)" xlink:href="#CMR17-79"/>
      <use transform="translate(71.714788 0)scale(0.996264)" xlink:href="#CMR17-98"/>
      <use transform="translate(122.610158 0)scale(0.996264)" xlink:href="#CMR17-115"/>
      <use transform="translate(158.411496 0)scale(0.996264)" xlink:href="#CMR17-101"/>
      <use transform="translate(198.897156 0)scale(0.996264)" xlink:href="#CMR17-114"/>
      <use transform="translate(234.177924 0)scale(0.996264)" xlink:href="#CMR17-118"/>
      <use transform="translate(279.868386 0)scale(0.996264)" xlink:href="#CMR17-101"/>
      <use transform="translate(320.354046 0)scale(0.996264)" xlink:href="#CMR17-100"/>
      <use transform="translate(401.325383 0)scale(0.996264)" xlink:href="#CMTI12-79"/>
      <use transform="translate(476.045943 0)scale(0.996264)" xlink:href="#CMTI12-67"/>
     </g>
    </g>
    <g id="line2d_28">
     <path d="M 273.368121 99.733787 
L 297.368121 99.733787 
" style="fill:none;stroke:#d62728;stroke-dasharray:1.5,2.475;stroke-dashoffset:0;stroke-width:1.5;"/>
    </g>
    <g id="line2d_29">
     <g>
      <use style="fill:#d62728;stroke:#d62728;stroke-linejoin:miter;" x="285.368121" xlink:href="#m02b0eabef3" y="99.733787"/>
     </g>
    </g>
    <g id="text_21">
     <!-- analytical \textit{OC} -->
     <defs>
      <path d="M 15.296875 69 
L 3.40625 67.890625 
L 3.40625 65.296875 
C 9.296875 65.296875 10.203125 64.703125 10.203125 59.921875 
L 10.203125 6.859375 
C 10.203125 3.09375 9.796875 2.59375 3.40625 2.59375 
L 3.40625 0 
C 5.796875 0.1875 10.203125 0.1875 12.703125 0.1875 
C 15.296875 0.1875 19.703125 0.1875 22.09375 0 
L 22.09375 2.59375 
C 15.703125 2.59375 15.296875 2.984375 15.296875 6.859375 
z
" id="CMR17-108"/>
     </defs>
     <g transform="translate(306.968121 103.933787)scale(0.12 -0.12)">
      <use transform="scale(0.996264)" xlink:href="#CMR17-97"/>
      <use transform="translate(45.690477 0)scale(0.996264)" xlink:href="#CMR17-110"/>
      <use transform="translate(96.585847 0)scale(0.996264)" xlink:href="#CMR17-97"/>
      <use transform="translate(142.276324 0)scale(0.996264)" xlink:href="#CMR17-108"/>
      <use transform="translate(167.147382 0)scale(0.996264)" xlink:href="#CMR17-121"/>
      <use transform="translate(215.440298 0)scale(0.996264)" xlink:href="#CMR17-116"/>
      <use transform="translate(250.721066 0)scale(0.996264)" xlink:href="#CMR17-105"/>
      <use transform="translate(275.592125 0)scale(0.996264)" xlink:href="#CMR17-99"/>
      <use transform="translate(316.077785 0)scale(0.996264)" xlink:href="#CMR17-97"/>
      <use transform="translate(361.768262 0)scale(0.996264)" xlink:href="#CMR17-108"/>
      <use transform="translate(416.715287 0)scale(0.996264)" xlink:href="#CMTI12-79"/>
      <use transform="translate(491.435848 0)scale(0.996264)" xlink:href="#CMTI12-67"/>
     </g>
    </g>
    <g id="line2d_30">
     <path d="M 273.368121 116.458383 
L 297.368121 116.458383 
" style="fill:none;stroke:#9467bd;stroke-dasharray:1.5,2.475;stroke-dashoffset:0;stroke-width:1.5;"/>
    </g>
    <g id="line2d_31">
     <g>
      <use style="fill:#9467bd;stroke:#9467bd;stroke-linejoin:miter;" x="285.368121" xlink:href="#ma8773d0a17" y="116.458383"/>
     </g>
    </g>
    <g id="text_22">
     <!-- analytical \textit{UN} -->
     <g transform="translate(306.968121 120.658383)scale(0.12 -0.12)">
      <use transform="scale(0.996264)" xlink:href="#CMR17-97"/>
      <use transform="translate(45.690477 0)scale(0.996264)" xlink:href="#CMR17-110"/>
      <use transform="translate(96.585847 0)scale(0.996264)" xlink:href="#CMR17-97"/>
      <use transform="translate(142.276324 0)scale(0.996264)" xlink:href="#CMR17-108"/>
      <use transform="translate(167.147382 0)scale(0.996264)" xlink:href="#CMR17-121"/>
      <use transform="translate(215.440298 0)scale(0.996264)" xlink:href="#CMR17-116"/>
      <use transform="translate(250.721066 0)scale(0.996264)" xlink:href="#CMR17-105"/>
      <use transform="translate(275.592125 0)scale(0.996264)" xlink:href="#CMR17-99"/>
      <use transform="translate(316.077785 0)scale(0.996264)" xlink:href="#CMR17-97"/>
      <use transform="translate(361.768262 0)scale(0.996264)" xlink:href="#CMR17-108"/>
      <use transform="translate(416.715287 0)scale(0.996264)" xlink:href="#CMTI12-85"/>
      <use transform="translate(489.129737 0)scale(0.996264)" xlink:href="#CMTI12-78"/>
     </g>
    </g>
    <g id="line2d_32">
     <path d="M 273.368121 133.182979 
L 297.368121 133.182979 
" style="fill:none;stroke:#8c564b;stroke-dasharray:1.5,2.475;stroke-dashoffset:0;stroke-width:1.5;"/>
    </g>
    <g id="line2d_33">
     <g>
      <use style="fill:#8c564b;stroke:#8c564b;" x="285.368121" xlink:href="#ma64d3482b9" y="133.182979"/>
     </g>
    </g>
    <g id="text_23">
     <!-- analytical \textit{RC} -->
     <g transform="translate(306.968121 137.382979)scale(0.12 -0.12)">
      <use transform="scale(0.996264)" xlink:href="#CMR17-97"/>
      <use transform="translate(45.690477 0)scale(0.996264)" xlink:href="#CMR17-110"/>
      <use transform="translate(96.585847 0)scale(0.996264)" xlink:href="#CMR17-97"/>
      <use transform="translate(142.276324 0)scale(0.996264)" xlink:href="#CMR17-108"/>
      <use transform="translate(167.147382 0)scale(0.996264)" xlink:href="#CMR17-121"/>
      <use transform="translate(215.440298 0)scale(0.996264)" xlink:href="#CMR17-116"/>
      <use transform="translate(250.721066 0)scale(0.996264)" xlink:href="#CMR17-105"/>
      <use transform="translate(275.592125 0)scale(0.996264)" xlink:href="#CMR17-99"/>
      <use transform="translate(316.077785 0)scale(0.996264)" xlink:href="#CMR17-97"/>
      <use transform="translate(361.768262 0)scale(0.996264)" xlink:href="#CMR17-108"/>
      <use transform="translate(416.715287 0)scale(0.996264)" xlink:href="#CMTI12-82"/>
      <use transform="translate(485.301351 0)scale(0.996264)" xlink:href="#CMTI12-67"/>
     </g>
    </g>
   </g>
  </g>
 </g>
 <defs>
  <clipPath id="p11efd16f9c">
   <rect height="217.44" width="334.8" x="54" y="34.56"/>
  </clipPath>
 </defs>
</svg>
